<svg width="180" height="40" viewBox="0 0 180 40" fill="none" xmlns="http://www.w3.org/2000/svg">
<rect width="180" height="40" rx="6" fill="black"/>
<rect x="92" width="70.4" height="40" rx="6" fill="black"/>
<path fill-rule="evenodd" clip-rule="evenodd" d="M125.25 26.1042V20.0623H128.386C129.671 20.0623 130.756 19.6342 131.64 18.7897L131.852 18.5757C133.467 16.8273 133.361 14.1037 131.64 12.4862C130.779 11.6299 129.6 11.166 128.386 11.1898H123.352V26.1042H125.25ZM125.25 18.2307V13.0213H128.434C129.118 13.0213 129.766 13.283 130.25 13.7587C131.275 14.7578 131.299 16.4228 130.309 17.4576C129.825 17.969 129.141 18.2544 128.434 18.2307H125.25Z" fill="white"/>
<path fill-rule="evenodd" clip-rule="evenodd" d="M140.707 16.6964C139.893 15.9471 138.785 15.5666 137.382 15.5666C135.578 15.5666 134.222 16.2326 133.326 17.5528L135 18.6113C135.613 17.7074 136.451 17.2554 137.512 17.2554C138.184 17.2554 138.832 17.5052 139.339 17.9571C139.834 18.3853 140.117 19.0038 140.117 19.6579V20.098C139.386 19.6936 138.467 19.4795 137.335 19.4795C136.014 19.4795 134.953 19.7887 134.163 20.4191C133.373 21.0495 132.972 21.882 132.972 22.9405C132.949 23.9039 133.362 24.8197 134.093 25.4381C134.835 26.1042 135.778 26.4372 136.887 26.4372C138.195 26.4372 139.233 25.8544 140.023 24.6889H140.105V26.1042H141.921V19.8125C141.921 18.4924 141.52 17.4457 140.707 16.6964ZM135.555 24.225C135.166 23.9396 134.93 23.4758 134.93 22.9762C134.93 22.4172 135.189 21.9534 135.696 21.5847C136.215 21.216 136.864 21.0257 137.63 21.0257C138.692 21.0138 139.517 21.2517 140.107 21.7274C140.107 22.5362 139.788 23.2379 139.163 23.8326C138.597 24.4034 137.831 24.7246 137.029 24.7246C136.498 24.7365 135.979 24.5581 135.555 24.225Z" fill="white"/>
<path d="M146.001 30.588L152.344 15.8996H150.28L147.345 23.2259H147.309L144.303 15.8996H142.24L146.401 25.45L144.043 30.588H146.001Z" fill="white"/>
<path d="M118.696 18.7541C118.696 18.1713 118.649 17.5886 118.555 17.0177H110.549V20.3122H115.136C114.947 21.3707 114.334 22.3222 113.438 22.9168V25.0577H116.173C117.776 23.571 118.696 21.3707 118.696 18.7541Z" fill="#4285F4"/>
<path d="M110.55 27.1272C112.837 27.1272 114.77 26.3659 116.173 25.0577L113.438 22.9168C112.671 23.4401 111.693 23.7375 110.55 23.7375C108.333 23.7375 106.458 22.227 105.786 20.2052H102.969V22.4173C104.407 25.3075 107.343 27.1272 110.55 27.1272Z" fill="#34A853"/>
<path d="M105.786 20.2052C105.433 19.1466 105.433 17.9929 105.787 16.9225V14.7222H102.969C101.754 17.1366 101.754 19.9911 102.969 22.4054L105.786 20.2052Z" fill="#FBBC04"/>
<path d="M110.55 13.3902C111.764 13.3664 112.931 13.8302 113.804 14.6747L116.232 12.2246C114.688 10.7736 112.66 9.97673 110.55 10.0005C107.343 10.0005 104.407 11.8321 102.969 14.7222L105.786 16.9344C106.458 14.9006 108.333 13.3902 110.55 13.3902Z" fill="#EA4335"/>
<rect x="92.5" y="0.5" width="69.4" height="39" rx="5.5" stroke="black" stroke-opacity="0.14"/>
<path d="M37.558 14.2C38.6033 14.2 39.4247 14.4193 40.022 14.858C40.6287 15.2967 40.932 15.894 40.932 16.65C40.932 17.1913 40.778 17.658 40.47 18.05C40.1713 18.4327 39.756 18.6893 39.224 18.82C39.8773 18.9413 40.386 19.2213 40.75 19.66C41.1233 20.0987 41.31 20.6447 41.31 21.298C41.31 22.138 40.9833 22.8007 40.33 23.286C39.686 23.762 38.804 24 37.684 24H33.204V14.2H37.558ZM37.46 18.204C37.9453 18.204 38.3233 18.0967 38.594 17.882C38.874 17.6673 39.014 17.3687 39.014 16.986C39.014 16.6127 38.874 16.3233 38.594 16.118C38.3233 15.9127 37.9453 15.8147 37.46 15.824H35.08V18.204H37.46ZM37.46 22.376C38.0573 22.3853 38.524 22.2733 38.86 22.04C39.196 21.8067 39.364 21.48 39.364 21.06C39.364 20.6587 39.196 20.346 38.86 20.122C38.524 19.8887 38.0573 19.7767 37.46 19.786H35.08V22.376H37.46ZM49.9758 16.51V24H48.1418V22.614C47.6378 23.5847 46.7698 24.07 45.5378 24.07C44.6978 24.07 44.0351 23.8133 43.5498 23.3C43.0644 22.7867 42.8218 22.0867 42.8218 21.2V16.51H44.6558V20.668C44.6558 21.1907 44.7958 21.6013 45.0758 21.9C45.3651 22.1987 45.7618 22.348 46.2658 22.348C46.8444 22.3387 47.3018 22.1333 47.6378 21.732C47.9738 21.3307 48.1418 20.822 48.1418 20.206V16.51H49.9758ZM55.4533 24.938C55.2199 25.554 54.8839 26.016 54.4453 26.324C54.0159 26.6413 53.5026 26.8 52.9053 26.8C52.5413 26.8 52.2099 26.744 51.9113 26.632C51.6219 26.5293 51.3326 26.3613 51.0433 26.128L51.8273 24.742C52.0046 24.8727 52.1679 24.966 52.3173 25.022C52.4666 25.0873 52.6253 25.12 52.7933 25.12C53.2879 25.12 53.6519 24.868 53.8853 24.364L54.1093 23.874L51.0153 16.51H52.9053L55.0333 21.956L56.9793 16.51H58.8133L55.4533 24.938ZM62.1462 16.524L64.0222 16.51L65.8562 22.166L67.6342 16.51H69.4682L71.2742 22.166L73.0662 16.51H74.9002L72.1842 24H70.3222L68.5302 18.722L66.7522 24H64.8902L62.1462 16.524ZM75.968 16.51H77.788V24H75.968V16.51ZM76.864 13.29C77.1627 13.29 77.41 13.3927 77.606 13.598C77.802 13.8033 77.9 14.0647 77.9 14.382C77.9 14.69 77.802 14.9467 77.606 15.152C77.41 15.3573 77.1627 15.46 76.864 15.46C76.5653 15.46 76.318 15.3573 76.122 15.152C75.926 14.9467 75.828 14.69 75.828 14.382C75.828 14.0647 75.926 13.8033 76.122 13.598C76.318 13.3927 76.5653 13.29 76.864 13.29ZM84.4242 23.538C83.8269 23.902 83.2015 24.084 82.5482 24.084C81.9042 24.084 81.3769 23.8973 80.9662 23.524C80.5555 23.1413 80.3502 22.5813 80.3502 21.844V18.148H79.3002L79.2862 16.818H80.3502V14.76H82.1562V16.818H84.2982V18.148H82.1562V21.522C82.1562 21.8673 82.2215 22.1147 82.3522 22.264C82.4829 22.404 82.6789 22.474 82.9402 22.474C83.2202 22.474 83.5749 22.3713 84.0042 22.166L84.4242 23.538ZM90.4448 16.44C91.3034 16.44 91.9801 16.7013 92.4748 17.224C92.9694 17.7373 93.2168 18.4373 93.2168 19.324V24H91.3828V19.856C91.3828 19.3333 91.2334 18.9227 90.9348 18.624C90.6361 18.316 90.2301 18.162 89.7168 18.162C89.1101 18.1713 88.6294 18.3767 88.2748 18.778C87.9201 19.1793 87.7428 19.6927 87.7428 20.318V24H85.9228V13.612H87.7428V17.938C88.2561 16.958 89.1568 16.4587 90.4448 16.44Z" fill="white"/>
</svg>
