<svg width="24" height="24" viewBox="0 0 24 24" fill="none" xmlns="http://www.w3.org/2000/svg">
<path d="M10.5 6.99994L8.49 2.83002C6 2.83002 5.45 4.07002 5.13 5.59002L4 11H20L17 6.99994C12.63 5.40986 12.99 6.99994 10.5 6.99994Z" stroke="black" stroke-width="1.5" stroke-linecap="round" stroke-linejoin="round"/>
<path d="M19.96 19C20.07 20.17 21.16 22 19.96 22H18.08C17 22 16.85 21.54 16.66 20.97L16.46 20.37C16.18 19.55 16 19 14.56 19H9.43998C7.99998 19 7.78998 19.62 7.53998 20.37L7.33998 20.97C7.14998 21.54 6.99998 22 5.91998 22H4.03998C2.83998 22 1.89998 20.99 2.00998 19.82L2.56998 13.73C2.70998 12.23 2.99998 11 5.61998 11H18.38C21 11 21.29 12.23 21.43 13.73L19.96 19Z" stroke="black" stroke-width="1.5" stroke-linecap="round" stroke-linejoin="round"/>
<path d="M4 8H3" stroke="black" stroke-width="1.5" stroke-linecap="round" stroke-linejoin="round"/>
<path d="M21 8H20" stroke="black" stroke-width="1.5" stroke-linecap="round" stroke-linejoin="round"/>
<path d="M6 15H9" stroke="black" stroke-width="1.5" stroke-linecap="round" stroke-linejoin="round"/>
<path d="M15 15H18" stroke="black" stroke-width="1.5" stroke-linecap="round" stroke-linejoin="round"/>
</svg>
