<svg width="56" height="32" viewBox="0 0 56 32" fill="none" xmlns="http://www.w3.org/2000/svg">
<rect width="56" height="32" rx="6" fill="black"/>
<path fill-rule="evenodd" clip-rule="evenodd" d="M26.4484 20.8834V16.0499H28.9431C29.9653 16.0499 30.8281 15.7074 31.5315 15.0318L31.7003 14.8606C32.9852 13.4619 32.9008 11.283 31.5315 9.98898C30.8469 9.30392 29.909 8.93284 28.9431 8.95187H24.9385V20.8834H26.4484ZM26.4484 14.5846V10.4171H28.981C29.5251 10.4171 30.041 10.6264 30.4255 11.007C31.2416 11.8062 31.2603 13.1383 30.4724 13.9661C30.0879 14.3752 29.5438 14.6036 28.981 14.5846H26.4484Z" fill="white"/>
<path fill-rule="evenodd" clip-rule="evenodd" d="M38.7437 13.3572C38.0966 12.7577 37.215 12.4533 36.099 12.4533C34.6641 12.4533 33.5856 12.9861 32.8728 14.0422L34.2045 14.8891C34.6922 14.1659 35.3581 13.8044 36.2022 13.8044C36.7367 13.8044 37.2525 14.0042 37.6558 14.3657C38.0497 14.7083 38.2748 15.203 38.2748 15.7264V16.0784C37.6933 15.7549 36.9618 15.5836 36.0615 15.5836C35.0111 15.5836 34.167 15.831 33.5387 16.3353C32.9103 16.8396 32.5915 17.5056 32.5915 18.3524C32.5727 19.1231 32.9009 19.8558 33.4824 20.3505C34.0732 20.8834 34.8235 21.1498 35.7051 21.1498C36.7461 21.1498 37.5714 20.6836 38.1998 19.7511H38.2654V20.8834H39.7097V15.85C39.7097 14.7939 39.3908 13.9566 38.7437 13.3572ZM34.6456 19.3801C34.3361 19.1517 34.1485 18.7806 34.1485 18.381C34.1485 17.9338 34.3549 17.5627 34.7582 17.2678C35.1709 16.9728 35.6868 16.8206 36.2965 16.8206C37.1407 16.8111 37.7973 17.0014 38.2663 17.382C38.2663 18.029 38.013 18.5903 37.5159 19.0661C37.0657 19.5228 36.456 19.7797 35.8181 19.7797C35.396 19.7892 34.9833 19.6465 34.6456 19.3801Z" fill="white"/>
<path d="M42.9547 24.4704L48.0003 12.7197H46.3591L44.0239 18.5808H43.9957L41.6042 12.7197H39.963L43.2736 20.36L41.3979 24.4704H42.9547Z" fill="white"/>
<path d="M21.2352 15.0033C21.2352 14.5371 21.1977 14.0708 21.1226 13.6141H14.7547V16.2497H18.4029C18.2528 17.0965 17.7651 17.8577 17.0524 18.3335V20.0461H19.2282C20.5037 18.8568 21.2352 17.0965 21.2352 15.0033Z" fill="#4285F4"/>
<path d="M14.7549 21.7017C16.5744 21.7017 18.1122 21.0928 19.2282 20.0461L17.0524 18.3335C16.4428 18.7521 15.6646 18.99 14.7549 18.99C12.9918 18.99 11.5006 17.7816 10.9661 16.1641H8.72461V17.9339C9.86877 20.246 12.204 21.7017 14.7549 21.7017Z" fill="#34A853"/>
<path d="M10.9661 16.1641C10.6847 15.3173 10.685 14.3944 10.9664 13.538V11.7778H8.7246C7.75847 13.7093 7.75847 15.9928 8.7246 17.9243L10.9661 16.1641Z" fill="#FBBC04"/>
<path d="M14.7549 10.7121C15.7209 10.6931 16.6494 11.0642 17.3434 11.7397L19.2753 9.77968C18.0468 8.61888 16.4337 7.98138 14.7549 8.00041C12.204 8.00041 9.86877 9.46569 8.7246 11.7778L10.9661 13.5475C11.5006 11.9205 12.9918 10.7121 14.7549 10.7121Z" fill="#EA4335"/>
<rect x="0.5" y="0.5" width="55" height="31" rx="5.5" stroke="black" stroke-opacity="0.14"/>
</svg>
