<svg width="88" height="50" viewBox="0 0 88 50" fill="none" xmlns="http://www.w3.org/2000/svg">
<path fill-rule="evenodd" clip-rule="evenodd" d="M41.3251 32.6303V25.078H45.223C46.8203 25.078 48.1684 24.5428 49.2675 23.4872L49.5312 23.2196C51.5388 21.0342 51.4069 17.6297 49.2675 15.6078C48.1977 14.5374 46.7323 13.9576 45.223 13.9873H38.9658V32.6303H41.3251ZM41.3251 22.7884V16.2767H45.2823C46.1324 16.2767 46.9384 16.6037 47.5393 17.1984C48.8144 18.4472 48.8437 20.5286 47.6126 21.822C47.0117 22.4613 46.1617 22.8181 45.2823 22.7884H41.3251Z" fill="#3C4043"/>
<path fill-rule="evenodd" clip-rule="evenodd" d="M60.5365 20.8706C59.5254 19.934 58.1479 19.4582 56.4041 19.4582C54.1621 19.4582 52.4769 20.2908 51.3632 21.941L53.4441 23.2641C54.2061 22.1343 55.2465 21.5693 56.5653 21.5693C57.4006 21.5693 58.2065 21.8815 58.8367 22.4465C59.4521 22.9817 59.8038 23.7548 59.8038 24.5724V25.1225C58.8953 24.617 57.7523 24.3494 56.3455 24.3494C54.7043 24.3494 53.3854 24.736 52.4036 25.5239C51.4218 26.3119 50.9236 27.3525 50.9236 28.6757C50.8943 29.8799 51.4072 31.0246 52.3157 31.7977C53.2389 32.6303 54.4112 33.0465 55.7887 33.0465C57.4152 33.0465 58.7048 32.3181 59.6866 30.8611H59.7892V32.6303H62.0458V24.7657C62.0458 23.1155 61.5476 21.8072 60.5365 20.8706ZM54.1333 30.2813C53.6496 29.9245 53.3565 29.3447 53.3565 28.7203C53.3565 28.0216 53.6789 27.4418 54.3091 26.9809C54.954 26.52 55.7601 26.2822 56.7127 26.2822C58.0318 26.2673 59.0577 26.5646 59.7905 27.1593C59.7905 28.1703 59.3948 29.0474 58.618 29.7907C57.9146 30.5043 56.9619 30.9058 55.9653 30.9058C55.3058 30.9206 54.6609 30.6976 54.1333 30.2813Z" fill="#3C4043"/>
<path d="M67.1162 38.235L75 19.8745H72.4355L68.7867 29.0325H68.7428L65.0061 19.8745H62.4416L67.6144 31.8126L64.6837 38.235H67.1162Z" fill="#3C4043"/>
<path d="M33.18 23.4426C33.18 22.7142 33.1213 21.9857 33.0041 21.2721H23.0542V25.3902H28.7545C28.52 26.7134 27.758 27.9027 26.6444 28.646V31.3221H30.044C32.037 29.4637 33.18 26.7134 33.18 23.4426Z" fill="#4285F4"/>
<path d="M23.0546 33.909C25.8974 33.909 28.3002 32.9574 30.044 31.3221L26.6444 28.646C25.6919 29.3002 24.476 29.6719 23.0546 29.6719C20.2997 29.6719 17.9697 27.7838 17.1345 25.2564H13.6322V28.0217C15.42 31.6343 19.0688 33.909 23.0546 33.909Z" fill="#34A853"/>
<path d="M17.1345 25.2564C16.6948 23.9333 16.6953 22.4912 17.135 21.1532V18.4028H13.6322C12.1226 21.4208 12.1226 24.9888 13.6322 28.0068L17.1345 25.2564Z" fill="#FBBC04"/>
<path d="M23.0546 16.7377C24.5639 16.708 26.0147 17.2878 27.099 18.3433L30.1177 15.2808C28.1981 13.467 25.6776 12.4709 23.0546 12.5006C19.0688 12.5006 15.42 14.7901 13.6322 18.4028L17.1345 21.168C17.9697 18.6258 20.2997 16.7377 23.0546 16.7377Z" fill="#EA4335"/>
<rect x="0.5" y="0.5" width="86.5" height="49" rx="5.5" stroke="#DFE3E6"/>
</svg>
