<svg width="184" height="53" viewBox="0 0 184 53" fill="none" xmlns="http://www.w3.org/2000/svg">
<g clip-path="url(#clip0_102_922)">
<path fill-rule="evenodd" clip-rule="evenodd" d="M30.0476 26.1367C30.0745 26.1482 30.088 26.179 30.0773 26.2067C29.6166 27.4255 20.7764 50.8041 20.0206 52.8034C20.0123 52.8249 19.992 52.8392 19.9692 52.8392C19.9464 52.8392 19.9257 52.8249 19.9177 52.8034C18.8424 49.9564 1.24214 3.35401 0.00354841 0.0744089C-0.0051373 0.0513753 0.00250412 0.0254005 0.0222943 0.0107778C0.0420571 -0.00384502 0.0691309 -0.00357013 0.0885913 0.0114924C1.65741 1.22436 14.7261 11.3281 15.5974 12.0018C15.6093 12.011 15.6169 12.0247 15.6185 12.0396C15.62 12.0546 15.6154 12.0695 15.6056 12.0809C15.2455 12.5028 12.4048 15.8298 12.1347 16.1462C12.122 16.1611 12.1182 16.1817 12.1247 16.2002C12.4319 17.0678 19.3235 36.5306 19.9268 38.2348C19.9343 38.2554 19.9532 38.27 19.9749 38.2714C19.9967 38.273 20.0173 38.2615 20.0274 38.242C20.6797 36.9941 26.5821 25.7011 27.0016 24.8986C27.0148 24.8732 27.0453 24.8622 27.0717 24.8734C27.426 25.0238 29.6864 25.9833 30.0476 26.1367Z" fill="white"/>
<path fill-rule="evenodd" clip-rule="evenodd" d="M31.2446 23.1194C31.2394 23.1334 31.2286 23.1447 31.2149 23.1505C31.2012 23.1564 31.1855 23.1564 31.1717 23.1506C30.8284 23.0048 28.9113 22.191 28.5611 22.0425C28.5471 22.0364 28.5361 22.0248 28.5308 22.0104C28.5256 21.9959 28.5267 21.98 28.5339 21.9664C29.0775 20.9264 37.4911 4.82829 39.4897 1.00438C39.5031 0.978593 39.5345 0.967791 39.5609 0.979665C39.5875 0.991567 39.6002 1.02208 39.59 1.04929C38.0653 5.08163 31.6514 22.0441 31.2446 23.1194Z" fill="#3AD0E6"/>
</g>
<g clip-path="url(#clip1_102_922)">
<path d="M42.4537 34.1244H39.5933V18.7149H42.4537V34.1244ZM50.111 34.1244H47.2759V18.7149H49.63L59.2934 30.5806H58.1227V18.7149H60.9641V34.1244H58.61L48.9466 22.2588H50.111V34.1244ZM83.4171 34.1244H72.5007V18.7149H75.3611V31.7007H83.4171V34.1244ZM93.2767 34.3459C92.0743 34.3459 90.9668 34.1476 89.9543 33.7511C88.9418 33.3545 88.06 32.7997 87.309 32.0867C86.5623 31.3737 85.9843 30.5384 85.5751 29.5807C85.1616 28.6188 84.9549 27.564 84.9549 26.4165C84.9549 25.2732 85.1616 24.2206 85.5751 23.2587C85.9843 22.301 86.5623 21.4656 87.309 20.7526C88.06 20.0396 88.9418 19.4848 89.9543 19.0883C90.9668 18.6917 92.0659 18.4934 93.2514 18.4934C94.458 18.4934 95.5633 18.6917 96.5674 19.0883C97.5715 19.4848 98.4469 20.0396 99.1937 20.7526C99.9447 21.4656 100.525 22.301 100.934 23.2587C101.347 24.2206 101.554 25.2732 101.554 26.4165C101.554 27.564 101.347 28.6209 100.934 29.587C100.525 30.5574 99.9447 31.3948 99.1937 32.0994C98.4469 32.8039 97.5715 33.3545 96.5674 33.7511C95.5633 34.1476 94.4664 34.3459 93.2767 34.3459ZM93.2514 31.8336C94.0319 31.8336 94.7512 31.7007 95.4093 31.4349C96.0717 31.1733 96.6434 30.7957 97.1243 30.3021C97.6095 29.8127 97.9892 29.2411 98.2634 28.5871C98.5334 27.9332 98.6684 27.2097 98.6684 26.4165C98.6684 25.6276 98.5334 24.9061 98.2634 24.2522C97.9892 23.5983 97.6095 23.0266 97.1243 22.5372C96.6434 22.0436 96.0717 21.6639 95.4093 21.3981C94.7512 21.1366 94.0319 21.0058 93.2514 21.0058C92.4751 21.0058 91.76 21.1366 91.1061 21.3981C90.4521 21.6639 89.8805 22.0436 89.3911 22.5372C88.8975 23.0266 88.5157 23.5983 88.2456 24.2522C87.9756 24.9061 87.8406 25.6276 87.8406 26.4165C87.8406 27.197 87.9756 27.9163 88.2456 28.5745C88.5157 29.2368 88.8932 29.8127 89.3784 30.3021C89.8636 30.7957 90.4374 31.1733 91.0997 31.4349C91.7579 31.7007 92.4751 31.8336 93.2514 31.8336ZM112.382 34.3459C111.209 34.3459 110.119 34.1498 109.11 33.7574C108.106 33.3693 107.233 32.8187 106.49 32.1057C105.752 31.3969 105.176 30.5574 104.763 29.587C104.353 28.6209 104.149 27.564 104.149 26.4165C104.149 25.2732 104.353 24.2185 104.763 23.2523C105.176 22.282 105.756 21.4403 106.503 20.7273C107.254 20.0185 108.127 19.468 109.123 19.0756C110.123 18.6875 111.215 18.4934 112.401 18.4934C113.662 18.4934 114.814 18.7107 115.856 19.1452C116.898 19.5798 117.78 20.221 118.502 21.069L116.654 22.8093C116.093 22.206 115.468 21.7546 114.78 21.4551C114.089 21.1555 113.34 21.0058 112.534 21.0058C111.728 21.0058 110.992 21.1366 110.325 21.3981C109.654 21.6639 109.074 22.0394 108.585 22.5246C108.091 23.0097 107.71 23.5814 107.44 24.2396C107.17 24.9019 107.035 25.6276 107.035 26.4165C107.035 27.2097 107.17 27.9374 107.44 28.5998C107.71 29.2579 108.091 29.8296 108.585 30.3148C109.074 30.7999 109.654 31.1733 110.325 31.4349C110.992 31.7007 111.728 31.8336 112.534 31.8336C113.34 31.8336 114.089 31.6838 114.78 31.3843C115.468 31.0805 116.093 30.6206 116.654 30.0047L118.502 31.7703C117.78 32.6056 116.898 33.2427 115.856 33.6815C114.814 34.1244 113.656 34.3459 112.382 34.3459ZM122.349 34.1244H119.4L126.336 18.7149H129.152L136.107 34.1244H133.114L127.152 20.2337H128.291L122.349 34.1244ZM132.456 30.5553H122.596L123.362 28.315H131.683L132.456 30.5553ZM143.941 34.1244H141.081V21.1387H135.974V18.7149H149.048V21.1387H143.941V34.1244ZM158.864 34.3459C157.661 34.3459 156.554 34.1476 155.541 33.7511C154.529 33.3545 153.649 32.7997 152.902 32.0867C152.151 31.3737 151.571 30.5384 151.162 29.5807C150.753 28.6188 150.548 27.564 150.548 26.4165C150.548 25.2732 150.753 24.2206 151.162 23.2587C151.571 22.301 152.151 21.4656 152.902 20.7526C153.649 20.0396 154.529 19.4848 155.541 19.0883C156.554 18.6917 157.655 18.4934 158.845 18.4934C160.047 18.4934 161.15 18.6917 162.154 19.0883C163.163 19.4848 164.04 20.0396 164.787 20.7526C165.534 21.4656 166.114 22.301 166.527 23.2587C166.937 24.2206 167.141 25.2732 167.141 26.4165C167.141 27.564 166.937 28.6209 166.527 29.587C166.114 30.5574 165.534 31.3948 164.787 32.0994C164.04 32.8039 163.163 33.3545 162.154 33.7511C161.15 34.1476 160.053 34.3459 158.864 34.3459ZM158.845 31.8336C159.621 31.8336 160.34 31.7007 161.003 31.4349C161.661 31.1733 162.233 30.7957 162.718 30.3021C163.203 29.8127 163.58 29.2411 163.85 28.5871C164.12 27.9332 164.255 27.2097 164.255 26.4165C164.255 25.6276 164.12 24.9061 163.85 24.2522C163.58 23.5983 163.203 23.0266 162.718 22.5372C162.233 22.0436 161.661 21.6639 161.003 21.3981C160.34 21.1366 159.621 21.0058 158.845 21.0058C158.068 21.0058 157.353 21.1366 156.699 21.3981C156.046 21.6639 155.472 22.0436 154.978 22.5372C154.489 23.0266 154.109 23.5983 153.839 24.2522C153.565 24.9061 153.428 25.6276 153.428 26.4165C153.428 27.197 153.565 27.9163 153.839 28.5745C154.109 29.2368 154.487 29.8127 154.972 30.3021C155.457 30.7957 156.029 31.1733 156.687 31.4349C157.349 31.7007 158.068 31.8336 158.845 31.8336ZM173.704 34.1244H170.837V18.7149H177.178C178.545 18.7149 179.716 18.9343 180.69 19.373C181.665 19.816 182.416 20.4489 182.943 21.2716C183.475 22.09 183.74 23.0646 183.74 24.1953C183.74 25.3259 183.475 26.2984 182.943 27.1126C182.416 27.9269 181.665 28.5513 180.69 28.9858C179.716 29.4161 178.545 29.6313 177.178 29.6313H172.425L173.704 28.334V34.1244ZM184 34.1244H180.918L177.026 28.5302H180.083L184 34.1244ZM173.704 19.7274V28.6441L172.425 27.2772H177.045C178.307 27.2772 179.258 27.005 179.899 26.4608C180.536 25.9208 180.855 25.1656 180.855 24.1953C180.855 23.2122 180.536 22.4571 179.899 21.9297C179.258 21.4023 178.307 21.1387 177.045 21.1387H172.425L173.704 19.7274Z" fill="white"/>
</g>
<defs>
<clipPath id="clip0_102_922">
<rect width="39.5936" height="52.8393" fill="white"/>
</clipPath>
<clipPath id="clip1_102_922">
<rect width="144.407" height="15.8525" fill="white" transform="translate(39.5933 18.4934)"/>
</clipPath>
</defs>
</svg>
