<svg xmlns="http://www.w3.org/2000/svg" viewBox="80.435 188.277 430.75500244140625 223.49613506469217"><rect height="100%" width="100%" x="80.435" y="188.277" fill="#fdfffc"/> <g transform="rotate(0 181.71768919033812 300.02506753234604)"><svg xmlns="http://www.w3.org/2000/svg" xmlns:xlink="http://www.w3.org/1999/xlink" xmlnsSerif="http://www.serif.com/" viewBox="279.7615661621094 38.81488800048828 1440.4775390625 1922.3731689453125" version="1.1" xml:space="preserve" height="83.49613506469214" width="62.56537838067625" y="258.277" x="150.435" preserveAspectRatio="xMinYMin" fill-rule="evenodd" clip-rule="evenodd" stroke-linejoin="round" stroke-miterlimit="2" style="overflow: visible;"><path transform="matrix(1,0,0,1,4.60166,-21.982)" d="M1368.34,1011.69C1369.32,1012.11 1369.81,1013.23 1369.42,1014.24C1352.66,1058.58 1031.04,1909.13 1003.54,1981.87C1003.24,1982.65 1002.5,1983.17 1001.67,1983.17C1000.84,1983.17 1000.09,1982.65 999.796,1981.87C960.676,1878.29 320.351,182.821 275.289,63.504C274.973,62.666 275.251,61.721 275.971,61.189C276.69,60.657 277.675,60.667 278.383,61.215C335.459,105.341 810.919,472.932 842.619,497.44C843.052,497.775 843.329,498.273 843.385,498.817C843.441,499.361 843.272,499.905 842.916,500.321C829.814,515.667 726.468,636.71 716.641,648.22C716.177,648.763 716.039,649.512 716.277,650.186C727.454,681.75 978.18,1389.84 1000.13,1451.84C1000.4,1452.59 1001.09,1453.12 1001.88,1453.17C1002.67,1453.23 1003.42,1452.81 1003.79,1452.1C1027.52,1406.7 1242.26,995.845 1257.52,966.646C1258,965.722 1259.11,965.324 1260.07,965.732C1272.96,971.203 1355.2,1006.11 1368.34,1011.69Z" style="fill: #000000; fill-opacity: 1;"></path><path transform="matrix(1,0,0,1,4.60166,-21.982)" d="M1411.89,901.92C1411.7,902.429 1411.31,902.838 1410.81,903.052C1410.31,903.265 1409.74,903.266 1409.24,903.054C1396.75,897.75 1327,868.142 1314.26,862.738C1313.75,862.519 1313.35,862.096 1313.16,861.571C1312.97,861.045 1313.01,860.465 1313.27,859.97C1333.05,822.135 1639.15,236.459 1711.86,97.339C1712.35,96.401 1713.49,96.008 1714.45,96.44C1715.42,96.873 1715.88,97.983 1715.51,98.973C1660.04,245.676 1426.69,862.799 1411.89,901.92Z" style="fill: #3AD0E6; fill-opacity: 1;"></path></svg></g> <g transform="rotate(0 327.0950012207031 300.0249996185303)"><svg y="287.5" viewBox="3.2699999809265137 8.970000267028809 228.19000244140625 25.049999237060547" x="213" height="25.049999237060547" width="228.19000244140625" style="overflow: visible;"><g fill="#000000" fill-opacity="1" style=""><path d="M7.79 33.67L3.27 33.67L3.27 9.32L7.79 9.32L7.79 33.67ZM19.89 33.67L15.41 33.67L15.41 9.32L19.13 9.32L34.40 28.07L32.55 28.07L32.55 9.32L37.04 9.32L37.04 33.67L33.32 33.67L18.05 14.92L19.89 14.92L19.89 33.67ZM72.52 33.67L55.27 33.67L55.27 9.32L59.79 9.32L59.79 29.84L72.52 29.84L72.52 33.67ZM88.10 34.02L88.10 34.02Q85.25 34.02 82.85 33.08Q80.45 32.14 78.67 30.45Q76.90 28.76 75.93 26.49Q74.95 24.21 74.95 21.49L74.95 21.49Q74.95 18.78 75.93 16.50Q76.90 14.23 78.67 12.54Q80.45 10.85 82.85 9.91Q85.25 8.97 88.06 8.97L88.06 8.97Q90.92 8.97 93.30 9.91Q95.68 10.85 97.45 12.54Q99.23 14.23 100.20 16.50Q101.18 18.78 101.18 21.49L101.18 21.49Q101.18 24.21 100.20 26.50Q99.23 28.80 97.45 30.47Q95.68 32.14 93.30 33.08Q90.92 34.02 88.10 34.02ZM88.06 30.05L88.06 30.05Q89.91 30.05 91.47 29.42Q93.04 28.80 94.18 27.63Q95.33 26.47 95.98 24.92Q96.62 23.37 96.62 21.49L96.62 21.49Q96.62 19.62 95.98 18.07Q95.33 16.52 94.18 15.36Q93.04 14.19 91.47 13.56Q89.91 12.94 88.06 12.94L88.06 12.94Q86.22 12.94 84.67 13.56Q83.12 14.19 81.96 15.36Q80.79 16.52 80.15 18.07Q79.51 19.62 79.51 21.49L79.51 21.49Q79.51 23.34 80.15 24.90Q80.79 26.47 81.94 27.63Q83.09 28.80 84.66 29.42Q86.22 30.05 88.06 30.05ZM118.29 34.02L118.29 34.02Q115.51 34.02 113.12 33.09Q110.74 32.17 108.98 30.48Q107.23 28.80 106.25 26.50Q105.28 24.21 105.28 21.49L105.28 21.49Q105.28 18.78 106.25 16.49Q107.23 14.19 109.00 12.50Q110.78 10.82 113.14 9.89Q115.51 8.97 118.32 8.97L118.32 8.97Q121.31 8.97 123.78 10.00Q126.25 11.03 127.96 13.04L127.96 13.04L125.04 15.79Q123.71 14.36 122.08 13.65Q120.44 12.94 118.53 12.94L118.53 12.94Q116.62 12.94 115.04 13.56Q113.45 14.19 112.29 15.34Q111.12 16.49 110.48 18.05Q109.84 19.62 109.84 21.49L109.84 21.49Q109.84 23.37 110.48 24.94Q111.12 26.50 112.29 27.65Q113.45 28.80 115.04 29.42Q116.62 30.05 118.53 30.05L118.53 30.05Q120.44 30.05 122.08 29.34Q123.71 28.62 125.04 27.16L125.04 27.16L127.96 29.95Q126.25 31.93 123.78 32.97Q121.31 34.02 118.29 34.02ZM134.04 33.67L129.38 33.67L140.34 9.32L144.79 9.32L155.78 33.67L151.05 33.67L141.63 11.72L143.43 11.72L134.04 33.67ZM150.01 28.03L134.43 28.03L135.64 24.49L148.79 24.49L150.01 28.03ZM168.16 33.67L163.64 33.67L163.64 13.15L155.57 13.15L155.57 9.32L176.23 9.32L176.23 13.15L168.16 13.15L168.16 33.67ZM191.74 34.02L191.74 34.02Q188.89 34.02 186.49 33.08Q184.09 32.14 182.32 30.45Q180.54 28.76 179.57 26.49Q178.60 24.21 178.60 21.49L178.60 21.49Q178.60 18.78 179.57 16.50Q180.54 14.23 182.32 12.54Q184.09 10.85 186.49 9.91Q188.89 8.97 191.71 8.97L191.71 8.97Q194.56 8.97 196.94 9.91Q199.33 10.85 201.10 12.54Q202.87 14.23 203.85 16.50Q204.82 18.78 204.82 21.49L204.82 21.49Q204.82 24.21 203.85 26.50Q202.87 28.80 201.10 30.47Q199.33 32.14 196.94 33.08Q194.56 34.02 191.74 34.02ZM191.71 30.05L191.71 30.05Q193.55 30.05 195.12 29.42Q196.68 28.80 197.83 27.63Q198.98 26.47 199.62 24.92Q200.26 23.37 200.26 21.49L200.26 21.49Q200.26 19.62 199.62 18.07Q198.98 16.52 197.83 15.36Q196.68 14.19 195.12 13.56Q193.55 12.94 191.71 12.94L191.71 12.94Q189.87 12.94 188.32 13.56Q186.77 14.19 185.60 15.36Q184.44 16.52 183.80 18.07Q183.15 19.62 183.15 21.49L183.15 21.49Q183.15 23.34 183.80 24.90Q184.44 26.47 185.59 27.63Q186.74 28.80 188.30 29.42Q189.87 30.05 191.71 30.05ZM215.19 33.67L210.66 33.67L210.66 9.32L220.68 9.32Q223.92 9.32 226.23 10.36Q228.54 11.41 229.79 13.36Q231.05 15.30 231.05 17.98L231.05 17.98Q231.05 20.66 229.79 22.59Q228.54 24.52 226.23 25.55Q223.92 26.57 220.68 26.57L220.68 26.57L213.17 26.57L215.19 24.52L215.19 33.67ZM231.46 33.67L226.59 33.67L220.44 24.83L225.27 24.83L231.46 33.67ZM215.19 10.92L215.19 25.01L213.17 22.85L220.47 22.85Q223.46 22.85 224.98 21.56Q226.49 20.28 226.49 17.98L226.49 17.98Q226.49 15.65 224.98 14.40Q223.46 13.15 220.47 13.15L220.47 13.15L213.17 13.15L215.19 10.92Z" transform="translate(0, 0)"></path></g></svg></g></svg>