<svg width="88" height="50" viewBox="0 0 88 50" fill="none" xmlns="http://www.w3.org/2000/svg">
<path fill-rule="evenodd" clip-rule="evenodd" d="M22.5749 16.5143C21.7132 15.9219 20.5887 15.625 19.2015 15.625H13.8308C13.4056 15.625 13.1706 15.8377 13.126 16.2626L10.9443 29.9574C10.9217 30.0919 10.9553 30.2149 11.045 30.3268C11.1342 30.4388 11.2463 30.4945 11.3806 30.4945H13.9316C14.379 30.4945 14.625 30.2824 14.6701 29.8569L15.2742 26.1648C15.2963 25.9859 15.375 25.8404 15.5093 25.7283C15.6435 25.6165 15.8113 25.5434 16.0127 25.5099C16.2141 25.4767 16.404 25.4598 16.5834 25.4598C16.7622 25.4598 16.9747 25.4712 17.2212 25.4935C17.4671 25.5158 17.6239 25.5267 17.6911 25.5267C19.6154 25.5267 21.1259 24.9845 22.2226 23.8988C23.3187 22.8137 23.8674 21.309 23.8674 19.3841C23.8674 18.0639 23.4362 17.1073 22.5749 16.514V16.5143ZM19.8059 20.6264C19.6936 21.4098 19.4031 21.9242 18.9332 22.1704C18.4632 22.417 17.7919 22.5397 16.9193 22.5397L15.8115 22.5731L16.3823 18.9815C16.4268 18.7356 16.5722 18.6124 16.8185 18.6124H17.4565C18.3511 18.6124 19.0005 18.7414 19.4033 18.9983C19.8059 19.2558 19.9402 19.7987 19.8059 20.6264ZM49.2431 21.0295C49.2431 20.9179 49.1982 20.8114 49.1093 20.711C49.0195 20.6104 48.9187 20.5597 48.8071 20.5597H46.2225C45.9759 20.5597 45.7745 20.6721 45.6181 20.8953L42.0602 26.1318L40.5833 21.0969C40.4708 20.7391 40.225 20.5597 39.8449 20.5597H37.327C37.2149 20.5597 37.1142 20.6102 37.0253 20.711C36.9355 20.8115 36.891 20.9182 36.891 21.0296C36.891 21.0746 37.1092 21.7345 37.5454 23.01C37.9817 24.286 38.4516 25.6622 38.9552 27.1392C39.4587 28.6159 39.7215 29.3995 39.7439 29.4883C37.9089 31.995 36.9917 33.3376 36.9917 33.5163C36.9917 33.8075 37.1369 33.9527 37.4281 33.9527H40.0126C40.2587 33.9527 40.46 33.8411 40.6169 33.6172L49.1765 21.2644C49.2209 21.2201 49.2431 21.1421 49.2431 21.0295ZM32.6276 20.5598H35.1787C35.3128 20.5598 35.4245 20.6159 35.5141 20.7276C35.6033 20.8396 35.6368 20.9624 35.6147 21.0968L34.2386 29.8577C34.1714 30.2832 33.9249 30.4954 33.5001 30.4954H31.184C30.8931 30.4954 30.7477 30.3168 30.7477 29.9584C30.7477 29.7572 30.7922 29.5221 30.882 29.2538C30.4792 29.7016 29.9421 30.0594 29.2708 30.3279C28.5996 30.5962 27.9503 30.7307 27.324 30.7307C26.026 30.7307 24.9913 30.3396 24.2192 29.5559C23.4472 28.7729 23.0611 27.7213 23.0611 26.4008C23.0611 24.7674 23.6259 23.346 24.7561 22.1376C25.886 20.9292 27.2568 20.3249 28.868 20.3249C30.3896 20.3249 31.4526 20.7729 32.0568 21.6678C32.124 20.9292 32.3139 20.5598 32.6276 20.5598ZM28.7005 28.0118C29.5279 28.0118 30.2275 27.7382 30.7983 27.1893C31.3689 26.6417 31.6541 25.9533 31.6543 25.1254C31.6543 24.4762 31.447 23.9671 31.0333 23.5978C30.6189 23.2287 30.0987 23.044 29.4724 23.044C28.6441 23.044 27.9504 23.3294 27.3913 23.9C26.8317 24.4706 26.5521 25.1705 26.5521 25.9979C26.5521 26.6251 26.7477 27.1175 27.1395 27.4748C27.5309 27.833 28.0511 28.0118 28.7005 28.0118Z" fill="#003087"/>
<path fill-rule="evenodd" clip-rule="evenodd" d="M57.3336 15.625C58.7211 15.625 59.8453 15.9219 60.7069 16.5143V16.514C61.5682 17.1072 61.9992 18.0639 61.9991 19.3841C61.9991 21.309 61.4509 22.8137 60.3544 23.8988C59.2577 24.9845 57.7476 25.5267 55.8228 25.5267C55.7561 25.5267 55.5989 25.5158 55.3529 25.4935C55.1066 25.4712 54.8942 25.4598 54.7153 25.4598C54.5358 25.4598 54.3459 25.4767 54.1447 25.5099C53.9431 25.5434 53.7755 25.6165 53.6412 25.7283C53.5067 25.8404 53.4284 25.9859 53.4061 26.1648L52.8019 30.0583C52.7122 30.3492 52.5332 30.4945 52.2647 30.4945H49.5124C49.3781 30.4945 49.2657 30.4388 49.1769 30.3268C49.0872 30.2149 49.0535 30.0919 49.0762 29.9574L51.258 16.2626C51.3025 15.8377 51.5488 15.625 51.9964 15.625H57.3336ZM55.0512 22.5394C56.0355 22.5394 56.7741 22.3716 57.2665 22.036C57.7584 21.7001 58.0049 21.0627 58.0049 20.1225C58.0049 19.6752 57.8708 19.3337 57.6021 19.0987C57.3336 18.8638 57.0534 18.7242 56.763 18.6792C56.4716 18.6346 56.0801 18.6121 55.5878 18.6121H54.9838C54.7373 18.6121 54.5918 18.7355 54.5475 18.9813L53.9769 22.573L55.0512 22.5394ZM79.2511 15.625H76.7675C76.5207 15.625 76.3754 15.7481 76.3311 15.9945L74.1492 29.958L74.1156 30.0251C74.1156 30.1376 74.1603 30.2434 74.2501 30.3441C74.3391 30.4447 74.4515 30.495 74.5856 30.495H76.8013C77.2257 30.495 77.4608 30.2829 77.5063 29.8574L79.6879 16.1288V16.0954C79.6878 15.782 79.5419 15.6254 79.2511 15.6254V15.625ZM73.3111 20.5598H70.76C70.4464 20.5598 70.2569 20.9292 70.1897 21.6678C69.6071 20.7729 68.5449 20.3249 67.0005 20.3249C65.3895 20.3249 64.0187 20.9292 62.8889 22.1376C61.7587 23.346 61.1939 24.7674 61.1939 26.4008C61.1939 27.7213 61.5798 28.7729 62.3517 29.5559C63.1237 30.3396 64.1585 30.7307 65.4569 30.7307C66.1057 30.7307 66.7658 30.5962 67.4371 30.3279C68.1084 30.0594 68.6338 29.7016 69.0149 29.2538C69.0149 29.2763 68.9921 29.3766 68.9478 29.5556C68.9026 29.7349 68.8805 29.8696 68.8805 29.9584C68.8805 30.3168 69.0256 30.4954 69.317 30.4954H71.6332C72.0579 30.4954 72.3043 30.2832 72.3712 29.8577L73.7476 21.0968C73.7697 20.9624 73.7362 20.8396 73.6469 20.7276C73.5569 20.6159 73.4453 20.5598 73.3111 20.5598ZM68.9308 27.1727C68.3602 27.7322 67.6719 28.0118 66.8664 28.0118C66.2172 28.0118 65.6918 27.833 65.2888 27.4748C64.8858 27.1175 64.6844 26.6251 64.6844 25.9979C64.6844 25.1705 64.9642 24.4706 65.5239 23.9C66.0825 23.3294 66.7769 23.0441 67.6048 23.0441C68.2309 23.0441 68.7513 23.2287 69.1656 23.5978C69.5792 23.9671 69.7869 24.4762 69.7869 25.1254C69.7867 25.9309 69.5013 26.6135 68.9308 27.1727Z" fill="#009CDE"/>
<rect x="0.5" y="0.5" width="86.5" height="49" rx="5.5" stroke="#DFE3E6"/>
</svg>
