<svg width="56" height="32" viewBox="0 0 56 32" fill="none" xmlns="http://www.w3.org/2000/svg">
<rect width="56" height="32" rx="6" fill="#00579F"/>
<path d="M34.4818 9C35.7979 9 36.8623 9.30277 37.5333 9.57698L37.0706 12.5034L36.7629 12.3595C36.1473 12.0855 35.3346 11.8117 34.2285 11.8406C32.8853 11.8406 32.2828 12.4314 32.2689 13.0082C32.2689 13.6427 32.9976 14.0608 34.1876 14.6809C36.1478 15.6468 37.0571 16.829 37.0435 18.3717C37.0159 21.1832 34.6918 23 31.1219 23C29.5955 22.9854 28.1253 22.6532 27.3274 22.2787L27.8035 19.2365L28.2515 19.4531C29.3576 19.9582 30.0854 20.1739 31.4437 20.1739C32.4233 20.1739 33.4735 19.7554 33.4869 18.8475C33.4869 18.2564 33.0395 17.8235 31.7232 17.1603C30.4353 16.5113 28.7134 15.4301 28.7414 13.4836C28.7559 10.8453 31.1219 9 34.4818 9Z" fill="white"/>
<path d="M21.7974 22.798H25.1997L27.3276 9.24567H23.9255L21.7974 22.798Z" fill="white"/>
<path fill-rule="evenodd" clip-rule="evenodd" d="M46.2549 9.24567H43.6233C42.8117 9.24567 42.1951 9.49056 41.845 10.3701L36.7913 22.7978H40.3613C40.3613 22.7978 40.949 21.1252 41.0753 20.7649H45.4436C45.5412 21.2407 45.8495 22.7978 45.8495 22.7978H48.9997L46.2549 9.24567ZM42.0552 17.9969C42.3354 17.2183 43.4136 14.2051 43.4136 14.2051C43.4079 14.2168 43.4524 14.0896 43.5186 13.9007C43.6162 13.6219 43.7611 13.2083 43.8612 12.9076L44.099 14.0753C44.099 14.0753 44.7433 17.3193 44.8832 17.9969H42.0552Z" fill="white"/>
<path d="M15.6237 18.4871L18.9556 9.24567H22.5533L17.2055 22.7837H13.6076L10.5557 10.9321C12.7116 12.1005 14.6436 14.4502 15.2596 16.6128L15.6237 18.4871Z" fill="white"/>
<path d="M12.53 9.24561H7.056L7 9.51944C11.27 10.6441 14.098 13.355 15.2599 16.6133L14.0699 10.3848C13.874 9.51924 13.2719 9.27416 12.53 9.24561Z" fill="#FAA61A"/>
<rect x="0.5" y="0.5" width="55" height="31" rx="5.5" stroke="black" stroke-opacity="0.14"/>
</svg>
