<svg width="180" height="86" viewBox="0 0 180 86" fill="none" xmlns="http://www.w3.org/2000/svg">
<g clip-path="url(#clip0_157_1446)">
<path d="M5.86721 19.3902H18.645V51.2466H5.86721C4.31113 51.2466 2.81878 50.6285 1.71847 49.5281C0.618151 48.4278 0 46.9355 0 45.3794L0 25.2575C0 23.7014 0.618151 22.209 1.71847 21.1087C2.81878 20.0084 4.31113 19.3902 5.86721 19.3902Z" fill="#DEC57F"/>
<g style="mix-blend-mode:overlay" opacity="0.35">
<path d="M5.13549 45.3794V25.2574C5.13549 23.7014 5.75365 22.209 6.85397 21.1087C7.95428 20.0084 9.44662 19.3902 11.0027 19.3902H5.88075C5.10912 19.3885 4.34473 19.5389 3.63132 19.833C2.91792 20.127 2.26951 20.5589 1.72325 21.1039C1.17699 21.6489 0.743603 22.2963 0.447901 23.009C0.152199 23.7217 -2.05779e-06 24.4858 0 25.2574V45.3794C-2.05779e-06 46.151 0.152199 46.9151 0.447901 47.6278C0.743603 48.3405 1.17699 48.9879 1.72325 49.5329C2.26951 50.0779 2.91792 50.5098 3.63132 50.8039C4.34473 51.098 5.10912 51.2484 5.88075 51.2466H11.0027C9.44662 51.2466 7.95428 50.6284 6.85397 49.5281C5.75365 48.4278 5.13549 46.9355 5.13549 45.3794Z" fill="white"/>
</g>
<path d="M168.821 42.2087H126.287V56.9106H168.821V42.2087Z" fill="#1E1E1E"/>
<path d="M66.0703 46.0298H22.6963V57.6016H66.0703V46.0298Z" fill="#1E1E1E"/>
<path d="M26.9243 9.46806e-07H100.271C101.726 0.00124577 103.157 0.375591 104.426 1.08727C105.695 1.79895 106.761 2.82419 107.521 4.06504L122.697 28.5501H163.957C166.064 28.548 168.09 29.3641 169.607 30.8265L173.279 34.3902C174.157 35.2392 174.801 36.2997 175.15 37.4697C175.498 38.6396 175.54 39.8797 175.271 41.0705L171.68 56.8564H166.26L162.602 50.5826C161.599 48.8018 160.141 47.3198 158.376 46.2888C156.612 45.2577 154.605 44.7147 152.561 44.7154H143.632C141.861 44.7123 140.114 45.1192 138.527 45.9044C136.94 46.6896 135.557 47.8317 134.485 49.2412L126.274 60.0813H62.4121V58.0081C62.4139 56.8813 62.1933 55.7651 61.7629 54.7237C61.3325 53.6822 60.7007 52.736 59.9039 51.9391C59.1071 51.1423 58.1608 50.5106 57.1194 50.0802C56.0779 49.6497 54.9618 49.4291 53.8349 49.4309H41.2333C37.0222 49.4328 32.9248 50.7971 29.5531 53.3198L21.9379 59.0108H13.6588L11.1113 50.0678V28.7398L19.4853 5.25745C20.0291 3.71928 21.0366 2.38764 22.369 1.44603C23.7013 0.504422 25.2929 -0.00079829 26.9243 9.46806e-07Z" fill="#C19875"/>
<path d="M116.139 29.0515L103.713 8.21137C103.48 7.82329 103.15 7.5021 102.756 7.27894C102.362 7.05578 101.917 6.93823 101.464 6.93767H78.4285C77.6439 6.94125 76.8925 7.25547 76.339 7.8116C75.7854 8.36772 75.4746 9.12046 75.4746 9.90514V29.0515H116.139Z" fill="#BAE8D6"/>
<path d="M61.5314 47.5339L65.2035 51.5989C65.9223 52.4001 66.8018 53.0409 67.7846 53.4798C68.7675 53.9187 69.8317 54.1458 70.9081 54.1463H120.596C121.83 54.1469 123.049 53.878 124.167 53.3584C125.286 52.8388 126.278 52.0811 127.073 51.1382L132.67 44.5528C133.279 43.8354 134.036 43.259 134.89 42.8636C135.744 42.4682 136.674 42.2632 137.615 42.2629H158.117C159.223 42.2644 160.314 42.5265 161.3 43.0279C162.287 43.5293 163.141 44.256 163.794 45.1491L168.266 51.2331H172.9L175.217 41.0434C175.486 39.8525 175.444 38.6125 175.095 37.4426C174.747 36.2726 174.102 35.2121 173.225 34.3631L169.54 30.7724C168.022 29.3099 165.996 28.4938 163.889 28.4959H122.656L116.138 29.0108H11.1113V45.1084H56.1791C57.1917 45.1133 58.1918 45.3319 59.1141 45.7498C60.0364 46.1678 60.8601 46.7757 61.5314 47.5339Z" fill="#955348"/>
<g style="mix-blend-mode:overlay" opacity="0.35">
<path d="M75.4745 29.0515H11.1113V37.1816H174.973C174.612 36.1303 174.008 35.1787 173.212 34.4038L169.54 30.7724C168.022 29.3099 165.996 28.4938 163.889 28.4959H122.656L116.138 29.0108L75.4745 29.0515Z" fill="white"/>
</g>
<path d="M25.1759 6.93767H65.5959C65.9085 6.93766 66.2179 6.99944 66.5065 7.11945C66.7951 7.23946 67.0571 7.41535 67.2775 7.63698C67.4978 7.85861 67.6722 8.12161 67.7906 8.41087C67.9089 8.70014 67.969 9.00995 67.9672 9.32248V22.71C67.969 23.0226 67.9089 23.3324 67.7906 23.6216C67.6722 23.9109 67.4978 24.1739 67.2775 24.3955C67.0571 24.6172 66.7951 24.793 66.5065 24.9131C66.2179 25.0331 65.9085 25.0948 65.5959 25.0948H21.5851C21.2212 25.0925 20.8628 25.0069 20.5371 24.8446C20.2115 24.6824 19.9273 24.4478 19.7062 24.1587C19.4852 23.8697 19.3333 23.534 19.262 23.1772C19.1907 22.8204 19.2021 22.452 19.2951 22.1003L22.8859 8.69918C23.0223 8.19545 23.3201 7.75038 23.7338 7.43219C24.1474 7.11401 24.654 6.94029 25.1759 6.93767Z" fill="#BAE8D6"/>
<path d="M104.892 20.7995H106.653C107.415 20.7995 108.146 21.1021 108.684 21.6408C109.223 22.1795 109.526 22.9102 109.526 23.6721V31.355H104.892V20.7995Z" fill="#955348"/>
<path d="M106.666 20.7995H104.959C105.336 20.7995 105.71 20.8738 106.058 21.0181C106.407 21.1625 106.724 21.3741 106.99 21.6408C107.257 21.9076 107.469 22.2243 107.613 22.5728C107.757 22.9213 107.832 23.2948 107.832 23.6721V31.3415H109.525V23.6721C109.527 23.2955 109.455 22.9222 109.312 22.5738C109.169 22.2253 108.958 21.9086 108.693 21.6416C108.427 21.3747 108.111 21.1629 107.764 21.0184C107.416 20.8738 107.043 20.7994 106.666 20.7995Z" fill="#7C443D"/>
<path d="M7.62885 54.2005H13.5503V64.4716H7.62885C6.96401 64.4716 6.3264 64.2074 5.85629 63.7373C5.38618 63.2672 5.12207 62.6296 5.12207 61.9648V56.6531C5.13624 55.9977 5.40659 55.3739 5.87518 54.9155C6.34376 54.457 6.97329 54.2004 7.62885 54.2005Z" fill="#1E1E1E"/>
<path d="M177.493 60.271H171.599V50H177.493C177.822 50 178.148 50.0648 178.453 50.1908C178.757 50.3168 179.033 50.5014 179.266 50.7342C179.499 50.967 179.683 51.2433 179.809 51.5475C179.935 51.8516 180 52.1776 180 52.5068V57.8184C179.986 58.4738 179.715 59.0976 179.247 59.556C178.778 60.0145 178.149 60.2711 177.493 60.271Z" fill="#1E1E1E"/>
<path d="M26.0166 68.2249C26.0166 71.7089 27.0497 75.1146 28.9853 78.0114C30.9209 80.9082 33.672 83.166 36.8907 84.4992C40.1095 85.8325 43.6513 86.1813 47.0683 85.5016C50.4853 84.822 53.6241 83.1443 56.0876 80.6807C58.5511 78.2172 60.2288 75.0785 60.9085 71.6615C61.5882 68.2445 61.2393 64.7027 59.9061 61.4839C58.5728 58.2651 56.315 55.514 53.4182 53.5785C50.5214 51.6429 47.1157 50.6098 43.6318 50.6098C38.9599 50.6098 34.4795 52.4656 31.176 55.7691C27.8725 59.0726 26.0166 63.5531 26.0166 68.2249Z" fill="#1E1E1E"/>
<path opacity="0.56" d="M43.5908 55.1626C39.3205 55.1728 35.1992 56.7339 31.9938 59.5554C28.7884 62.377 26.7171 66.2668 26.1653 70.5014C26.0675 69.7601 26.0178 69.0133 26.0162 68.2656C25.8523 65.8571 26.1852 63.4407 26.9942 61.1663C27.8032 58.8919 29.071 56.808 30.719 55.0441C32.367 53.2801 34.36 51.8737 36.5743 50.9121C38.7885 49.9506 41.1768 49.4544 43.5908 49.4544C46.0048 49.4544 48.393 49.9506 50.6073 50.9121C52.8215 51.8737 54.8145 53.2801 56.4625 55.0441C58.1105 56.808 59.3783 58.8919 60.1873 61.1663C60.9963 63.4407 61.3292 65.8571 61.1653 68.2656C61.157 69.013 61.1072 69.7594 61.0162 70.5014C60.4644 66.2668 58.3931 62.377 55.1877 59.5554C51.9823 56.7339 47.8611 55.1728 43.5908 55.1626Z" fill="#1E1E1E"/>
<path d="M32.2764 68.2249C32.2764 70.4627 32.9399 72.6502 34.1832 74.5109C35.4264 76.3715 37.1935 77.8217 39.2609 78.6781C41.3283 79.5344 43.6033 79.7585 45.7981 79.3219C47.9928 78.8853 50.0088 77.8077 51.5912 76.2254C53.1735 74.6431 54.2511 72.627 54.6877 70.4323C55.1243 68.2375 54.9002 65.9626 54.0438 63.8951C53.1875 61.8277 51.7373 60.0606 49.8766 58.8174C48.016 57.5742 45.8285 56.9106 43.5907 56.9106C42.1044 56.9088 40.6323 57.2002 39.2588 57.7682C37.8853 58.3362 36.6373 59.1695 35.5863 60.2205C34.5353 61.2715 33.702 62.5195 33.134 63.893C32.566 65.2665 32.2746 66.7386 32.2764 68.2249Z" fill="#F8FBFC"/>
<path opacity="0.28" d="M43.5912 58.7669C40.755 58.7708 38.0236 59.8398 35.9382 61.7621C33.8528 63.6844 32.5654 66.3198 32.3311 69.1464C32.3311 68.8482 32.3311 68.5366 32.3311 68.2249C32.3311 65.2242 33.5231 62.3463 35.645 60.2245C37.7668 58.1026 40.6447 56.9106 43.6454 56.9106C46.6462 56.9106 49.524 58.1026 51.6459 60.2245C53.7677 62.3463 54.9598 65.2242 54.9598 68.2249C54.9598 68.5366 54.9598 68.8482 54.9598 69.1464C54.724 66.3011 53.4212 63.6502 51.3128 61.7252C49.2044 59.8002 46.4461 58.7435 43.5912 58.7669Z" fill="#1E1E1E"/>
<path d="M36.8831 68.2249C36.8698 69.5706 37.2574 70.8897 37.9967 72.0142C38.736 73.1387 39.7933 74.0176 41.0341 74.5387C42.2748 75.0599 43.6426 75.1998 44.9631 74.9405C46.2836 74.6812 47.497 74.0346 48.4486 73.083C49.4001 72.1315 50.0468 70.9181 50.306 69.5976C50.5653 68.2771 50.4254 66.9092 49.9043 65.6685C49.3831 64.4278 48.5042 63.3704 47.3798 62.6312C46.2553 61.8919 44.9361 61.5042 43.5905 61.5176C41.817 61.5353 40.1212 62.2476 38.8672 63.5017C37.6131 64.7557 36.9008 66.4515 36.8831 68.2249Z" fill="#8C8D9A"/>
<path opacity="0.48" d="M43.5911 64.8509C42.1063 64.8514 40.6641 65.3475 39.4932 66.2606C38.3224 67.1738 37.4898 68.4516 37.1277 69.8916C36.9698 69.35 36.8878 68.7891 36.8838 68.2249C37.1139 66.61 37.919 65.1323 39.1511 64.0632C40.3833 62.9942 41.9598 62.4056 43.5911 62.4056C45.2224 62.4056 46.7989 62.9942 48.0311 64.0632C49.2632 65.1323 50.0683 66.61 50.2984 68.2249C50.2944 68.7891 50.2124 69.35 50.0545 69.8916C49.6881 68.4539 48.8545 67.1787 47.6846 66.2663C46.5146 65.3539 45.0747 64.856 43.5911 64.8509Z" fill="#1E1E1E"/>
<path d="M131.22 68.2249C131.22 71.7089 132.253 75.1146 134.188 78.0114C136.124 80.9082 138.875 83.166 142.094 84.4992C145.313 85.8325 148.854 86.1813 152.271 85.5016C155.688 84.822 158.827 83.1443 161.291 80.6807C163.754 78.2172 165.432 75.0785 166.112 71.6615C166.791 68.2445 166.442 64.7027 165.109 61.4839C163.776 58.2651 161.518 55.514 158.621 53.5785C155.725 51.6429 152.319 50.6098 148.835 50.6098C144.163 50.6098 139.683 52.4656 136.379 55.7691C133.076 59.0726 131.22 63.5531 131.22 68.2249Z" fill="#1E1E1E"/>
<path opacity="0.56" d="M148.794 55.1626C144.542 55.1878 140.442 56.7505 137.252 59.5623C134.062 62.3741 131.996 66.2451 131.437 70.4607C131.346 69.7188 131.296 68.9724 131.288 68.2249C131.124 65.8165 131.457 63.4001 132.266 61.1256C133.075 58.8512 134.342 56.7674 135.99 55.0034C137.638 53.2394 139.631 51.833 141.846 50.8715C144.06 49.9099 146.448 49.4137 148.862 49.4137C151.276 49.4137 153.664 49.9099 155.879 50.8715C158.093 51.833 160.086 53.2394 161.734 55.0034C163.382 56.7674 164.65 58.8512 165.459 61.1256C166.268 63.4001 166.601 65.8165 166.437 68.2249C166.435 68.9726 166.385 69.7194 166.288 70.4607C165.725 66.222 163.64 62.3326 160.422 59.5178C157.203 56.703 153.07 55.1551 148.794 55.1626Z" fill="#1E1E1E"/>
<path d="M137.48 68.2249C137.48 70.4627 138.143 72.6502 139.386 74.5109C140.63 76.3715 142.397 77.8217 144.464 78.6781C146.531 79.5344 148.806 79.7585 151.001 79.3219C153.196 78.8853 155.212 77.8077 156.794 76.2254C158.377 74.6431 159.454 72.627 159.891 70.4323C160.327 68.2375 160.103 65.9626 159.247 63.8951C158.391 61.8277 156.94 60.0606 155.08 58.8174C153.219 57.5742 151.032 56.9106 148.794 56.9106C147.308 56.9088 145.835 57.2002 144.462 57.7682C143.088 58.3362 141.84 59.1695 140.789 60.2205C139.738 61.2715 138.905 62.5195 138.337 63.893C137.769 65.2665 137.478 66.7386 137.48 68.2249Z" fill="#F8FBFC"/>
<path opacity="0.28" d="M148.794 58.7669C145.958 58.7708 143.227 59.8398 141.141 61.7621C139.056 63.6844 137.769 66.3198 137.534 69.1464C137.534 68.8482 137.534 68.5366 137.534 68.2249C137.534 65.2242 138.726 62.3463 140.848 60.2245C142.97 58.1026 145.848 56.9106 148.849 56.9106C151.849 56.9106 154.727 58.1026 156.849 60.2245C158.971 62.3463 160.163 65.2242 160.163 68.2249C160.163 68.5366 160.163 68.8482 160.163 69.1464C159.927 66.3011 158.624 63.6502 156.516 61.7252C154.407 59.8002 151.649 58.7435 148.794 58.7669Z" fill="#1E1E1E"/>
<path d="M142.087 68.2249C142.087 69.5515 142.48 70.8483 143.217 71.9513C143.954 73.0543 145.002 73.914 146.227 74.4217C147.453 74.9294 148.802 75.0622 150.103 74.8034C151.404 74.5446 152.599 73.9058 153.537 72.9677C154.475 72.0297 155.114 70.8346 155.373 69.5335C155.631 68.2324 155.499 66.8838 154.991 65.6582C154.483 64.4326 153.624 63.385 152.521 62.648C151.418 61.911 150.121 61.5176 148.794 61.5176C147.021 61.5353 145.325 62.2476 144.071 63.5017C142.817 64.7557 142.105 66.4515 142.087 68.2249Z" fill="#8C8D9A"/>
<path opacity="0.48" d="M148.794 64.8509C147.31 64.8561 145.87 65.3539 144.7 66.2663C143.53 67.1787 142.697 68.4539 142.33 69.8916C142.172 69.35 142.09 68.7891 142.086 68.2249C142.015 67.2255 142.167 66.2229 142.53 65.2891C142.894 64.3554 143.459 63.5138 144.187 62.8251C144.915 62.1364 145.786 61.6176 146.738 61.3061C147.691 60.9947 148.7 60.8983 149.694 61.024C150.688 61.1496 151.642 61.4942 152.487 62.0328C153.332 62.5714 154.046 63.2907 154.58 64.1389C155.113 64.987 155.452 65.9429 155.571 66.9377C155.691 67.9324 155.588 68.9413 155.271 69.8916C154.891 68.4585 154.052 67.1894 152.882 66.2789C151.712 65.3684 150.276 64.8668 148.794 64.8509Z" fill="#1E1E1E"/>
<path d="M75.4746 31.3415V50.4201C75.4782 51.4108 75.8733 52.36 76.5739 53.0606C77.2745 53.7612 78.2237 54.1563 79.2145 54.1599H112.385C113.378 54.1599 114.331 53.7663 115.034 53.0653C115.738 52.3644 116.135 51.4132 116.139 50.4201V31.3415" stroke="#7C443D" stroke-width="0.72" stroke-miterlimit="10"/>
<g style="mix-blend-mode:overlay" opacity="0.35">
<path d="M76.4502 31.3415V49.6206C76.4502 52.1816 77.48 53.2114 80.0139 53.2114H111.586C114.377 53.2114 115.149 52.1138 115.149 49.6206V31.3415" stroke="white" stroke-width="0.68" stroke-miterlimit="10"/>
</g>
<path d="M168.238 37.1545H18.1299" stroke="#7C443D" stroke-width="0.72" stroke-miterlimit="10"/>
<g style="mix-blend-mode:overlay" opacity="0.35">
<path d="M89.7557 33.5366H79.417V36.0705H89.7557V33.5366Z" fill="white"/>
</g>
<path d="M88.1435 35.0271H81.0568C80.8427 35.0289 80.6305 34.9881 80.4324 34.907C80.2343 34.8259 80.0543 34.7062 79.903 34.5549C79.7516 34.4035 79.6319 34.2235 79.5508 34.0255C79.4698 33.8274 79.4289 33.6151 79.4307 33.4011C79.4307 33.1882 79.4729 32.9774 79.5548 32.7809C79.6366 32.5843 79.7566 32.406 79.9078 32.2561C80.059 32.1062 80.2383 31.9877 80.4355 31.9074C80.6327 31.8272 80.8439 31.7868 81.0568 31.7886H88.1435C88.3564 31.7868 88.5675 31.8272 88.7647 31.9074C88.9619 31.9877 89.1413 32.1062 89.2924 32.2561C89.4436 32.406 89.5636 32.5843 89.6454 32.7809C89.7273 32.9774 89.7695 33.1882 89.7695 33.4011C89.7695 33.8323 89.5982 34.2459 89.2932 34.5508C88.9883 34.8558 88.5747 35.0271 88.1435 35.0271Z" fill="#1E1E1E"/>
<g opacity="0.2">
<path d="M126.273 60.0407L128.645 56.9106L62.1406 56.3686C62.3826 56.8644 62.4767 57.4195 62.4116 57.9675V60.0407H126.273Z" fill="#1E1E1E"/>
<path d="M165.148 55.1355L166.11 56.8428H171.612L171.991 55.1355H165.148Z" fill="#1E1E1E"/>
<path d="M12.5605 55.1355L13.6581 58.9702H21.9237L27.0592 55.1355H12.5605Z" fill="#1E1E1E"/>
</g>
<path d="M106.68 2.95393C105.879 2.02863 104.889 1.28607 103.776 0.776461C102.663 0.266853 101.454 0.00206916 100.23 0H26.9242C25.7431 0.00025032 24.577 0.265816 23.5123 0.777092C22.4475 1.28837 21.5112 2.0323 20.7725 2.95393H106.68Z" fill="#DEC57F"/>
<path opacity="0.34" d="M13.5499 58.4824H9.62039C9.34008 58.4824 9.07124 58.371 8.87304 58.1728C8.67483 57.9746 8.56348 57.7058 8.56348 57.4255C8.56348 57.1452 8.67483 56.8763 8.87304 56.6781C9.07124 56.4799 9.34008 56.3686 9.62039 56.3686H13.5499V58.4824Z" fill="#F8FBFC"/>
<path opacity="0.34" d="M171.626 53.645H175.542C175.822 53.645 176.091 53.5336 176.289 53.3354C176.488 53.1372 176.599 52.8684 176.599 52.5881C176.599 52.3078 176.488 52.0389 176.289 51.8407C176.091 51.6425 175.822 51.5312 175.542 51.5312H171.626V53.645Z" fill="#F8FBFC"/>
<g style="mix-blend-mode:overlay">
<path d="M25.3926 25.0813H29.3899L39.8777 6.93767H35.8668L25.3926 25.0813Z" fill="white"/>
</g>
<g style="mix-blend-mode:overlay">
<path d="M33.2656 25.0813H40.9215L51.4093 6.93767H43.7534L33.2656 25.0813Z" fill="white"/>
</g>
<g style="mix-blend-mode:overlay">
<path d="M75.5557 29.0379H80.1763L92.6288 6.93767H88.0218L75.5557 29.0379Z" fill="white"/>
</g>
<g style="mix-blend-mode:overlay">
<path d="M84.6475 29.0515H93.4957L104.512 9.49865L103.753 8.14363C103.52 7.75555 103.19 7.43435 102.796 7.21119C102.402 6.98804 101.957 6.87048 101.504 6.86992H97.1407L84.6475 29.0515Z" fill="white"/>
</g>
<path d="M101.68 6.00272H99.7559V29.0379H101.68V6.00272Z" fill="#C19875"/>
</g>
<defs>
<clipPath id="clip0_157_1446">
<rect width="180" height="85.7995" fill="white"/>
</clipPath>
</defs>
</svg>
