<svg width="130" height="76" viewBox="0 0 130 76" fill="none" xmlns="http://www.w3.org/2000/svg">
<g clip-path="url(#clip0_157_1536)">
<path d="M108.483 26.2968C108.754 26.2968 109.013 26.3705 109.272 26.4074C109.013 26.3705 108.754 26.3214 108.483 26.2968Z" fill="#66BEF2"/>
<path d="M112.868 27.1455C113.213 27.2439 113.546 27.3546 113.878 27.4776C113.546 27.3546 113.213 27.2685 112.868 27.1455Z" fill="#66BEF2"/>
<path d="M6.1582 26.0384C6.29368 25.6203 6.4538 25.2021 6.62623 24.8085C6.4538 25.1898 6.29368 25.608 6.1582 26.0384Z" fill="#66BEF2"/>
<path d="M120.356 30.8845C120.738 31.1674 121.132 31.4626 121.514 31.7701H51.1009L6.15822 26.0385C5.42006 28.1248 5.03707 30.32 5.02513 32.5327V48.178L0 50.0229V60.0718L1.95835 61.0927C4.97175 62.6278 8.27356 63.516 11.6514 63.7002C11.5732 63.0429 11.532 62.3818 11.5282 61.7199C11.5282 57.153 13.3449 52.7732 16.5786 49.5438C19.8122 46.3145 24.1981 44.5003 28.7712 44.5003C33.3443 44.5003 37.7302 46.3145 40.9639 49.5438C44.1976 52.7732 46.0142 57.153 46.0142 61.7199C46.0124 62.4068 45.9672 63.0928 45.8787 63.774H93.1985C93.1162 63.0923 93.071 62.4066 93.063 61.7199C93.0016 59.4586 93.3867 57.2074 94.1965 55.0947C95.0062 52.982 96.2247 51.0493 97.7824 49.407C99.3401 47.7646 101.207 46.4447 103.275 45.5226C105.344 44.6005 107.574 44.0943 109.838 44.033C114.411 43.909 118.846 45.6043 122.168 48.746C123.812 50.3016 125.134 52.1654 126.057 54.2311C126.981 56.2968 127.488 58.5239 127.549 60.7852C129.14 59.0736 130.02 56.8228 130.012 54.4877V50.0229C130.019 46.3 129.149 42.6277 127.471 39.303C125.794 35.9782 123.356 33.0944 120.356 30.8845Z" fill="#66BEF2"/>
<path d="M25.0758 21.9673L49.9673 26.3583H96.351L106.204 26.1738L84.244 7.72421C78.2459 2.69029 70.6606 -0.0670234 62.8257 -0.0615152H37.0967C31.8843 -0.0633218 26.7689 1.34598 22.2947 4.01645C17.8205 6.68692 14.1549 10.5187 11.6879 15.104L7.41406 23.0128L9.87735 18.5357L25.0758 21.9673Z" fill="#1E1E1E"/>
<path d="M118.755 29.7284C119.124 29.9621 119.494 30.1835 119.851 30.4418C119.432 30.2081 119.063 29.9867 118.755 29.7284Z" fill="#66BEF2"/>
<g style="mix-blend-mode:overlay" opacity="0.6">
<path d="M106.18 26.1738C106.956 26.1738 107.719 26.1738 108.483 26.2968C107.67 26.223 106.956 26.1738 106.18 26.1738Z" fill="white"/>
</g>
<g style="mix-blend-mode:overlay" opacity="0.6">
<path d="M109.271 26.4075C109.764 26.4075 110.244 26.5305 110.713 26.6166C110.244 26.5305 109.764 26.469 109.271 26.4075Z" fill="white"/>
</g>
<g style="mix-blend-mode:overlay" opacity="0.6">
<path d="M6.67578 24.8085C6.92211 24.2305 7.16846 23.6524 7.46405 23.0989C7.17139 23.6545 6.90826 24.2252 6.67578 24.8085Z" fill="white"/>
</g>
<g style="mix-blend-mode:overlay" opacity="0.6">
<path d="M113.828 27.4775C114.185 27.5882 114.53 27.7235 114.875 27.8588L113.828 27.4775Z" fill="white"/>
</g>
<path d="M121.514 31.7702C121.133 31.4627 120.738 31.1675 120.357 30.8846C119.975 30.6017 119.987 30.5894 119.79 30.4664C119.593 30.3434 119.063 29.9867 118.694 29.753L117.943 29.2979C117.598 29.1012 117.228 28.9167 116.871 28.7322L115.972 28.3017C115.627 28.1418 115.27 27.9942 114.925 27.8589C114.58 27.7236 114.235 27.5883 113.878 27.4776C113.521 27.3669 113.213 27.2439 112.868 27.1455L111.637 26.838L110.676 26.6166C110.208 26.5305 109.728 26.469 109.235 26.4075C108.976 26.4075 108.718 26.3214 108.447 26.2968C107.683 26.223 106.919 26.1738 106.143 26.1738L96.2903 26.3583H49.9682L25.0767 21.9673L9.82893 18.6587L7.36564 23.1358C7.07004 23.6893 6.82373 24.2674 6.57741 24.8455C6.33108 25.4235 6.24486 25.6695 6.10938 26.0754L51.052 31.8194L121.514 31.7702Z" fill="#66BEF2"/>
<g style="mix-blend-mode:overlay" opacity="0.6">
<path d="M121.514 31.7702C121.133 31.4627 120.738 31.1675 120.357 30.8846C119.975 30.6017 119.987 30.5894 119.79 30.4664C119.593 30.3434 119.063 29.9867 118.694 29.753L117.943 29.2979C117.598 29.1012 117.228 28.9167 116.871 28.7322L115.972 28.3017C115.627 28.1418 115.27 27.9942 114.925 27.8589C114.58 27.7236 114.235 27.5883 113.878 27.4776C113.521 27.3669 113.213 27.2439 112.868 27.1455L111.637 26.838L110.676 26.6166C110.208 26.5305 109.728 26.469 109.235 26.4075C108.976 26.4075 108.718 26.3214 108.447 26.2968C107.683 26.223 106.919 26.1738 106.143 26.1738L96.2903 26.3583H49.9682L25.0767 21.9673L9.82893 18.6587L7.36564 23.1358C7.07004 23.6893 6.82373 24.2674 6.57741 24.8455C6.33108 25.4235 6.24486 25.6695 6.10938 26.0754L51.052 31.8194L121.514 31.7702Z" fill="white"/>
</g>
<g style="mix-blend-mode:overlay">
<path d="M127.574 61.7077C127.574 57.1407 125.757 52.7609 122.524 49.5316C119.29 46.3022 114.904 44.488 110.331 44.488C105.758 44.488 101.372 46.3022 98.1382 49.5316C94.9045 52.7609 93.0879 57.1407 93.0879 61.7077C93.0958 62.3943 93.141 63.08 93.2234 63.7617H127.451C127.535 63.0803 127.576 62.3942 127.574 61.7077Z" fill="#1E1E1E"/>
</g>
<g style="mix-blend-mode:overlay">
<path d="M46.0886 61.7077C46.0886 57.1407 44.2719 52.7609 41.0382 49.5316C37.8045 46.3022 33.4187 44.488 28.8456 44.488C24.2724 44.488 19.8866 46.3022 16.6529 49.5316C13.4192 52.7609 11.6025 57.1407 11.6025 61.7077C11.6043 62.3945 11.6496 63.0806 11.738 63.7617H45.9654C46.0497 63.0803 46.0908 62.3942 46.0886 61.7077Z" fill="#1E1E1E"/>
</g>
<path d="M5.02539 42.3111C6.71392 41.9424 8.22652 41.0108 9.31442 39.6696C10.4023 38.3283 11.0007 36.6573 11.0112 34.9312V31.475C11.0112 30.2713 10.5323 29.1169 9.68002 28.2657C8.82772 27.4146 7.67174 26.9364 6.46639 26.9364H5.87523C5.32222 28.7594 5.03598 30.6526 5.02539 32.5574V42.3111Z" fill="#FECE05"/>
<path opacity="0.48" d="M10.0998 28.7322V31.4135C10.0966 32.9807 9.6069 34.5083 8.69811 35.786C7.78931 37.0636 6.50614 38.0284 5.02539 38.5474V42.3111C6.71392 41.9424 8.22652 41.0109 9.31442 39.6696C10.4023 38.3283 11.0007 36.6573 11.0112 34.9312V31.475C11.0112 30.4866 10.6915 29.5245 10.0998 28.7322Z" fill="#2C7BB5"/>
<g style="mix-blend-mode:overlay" opacity="0.6">
<path d="M6.46626 26.8995H5.8751C5.66913 27.6035 5.50056 28.3179 5.37012 29.0397C6.56149 29.0559 7.69857 29.5399 8.5353 30.387C9.37203 31.2341 9.8411 32.3761 9.84099 33.566V37.0222C9.83715 37.8595 9.69569 38.6906 9.42224 39.4822C10.4482 38.1578 11.0068 36.5319 11.011 34.8575V31.4012C11.0013 30.2039 10.5182 29.059 9.66693 28.2158C8.81567 27.3726 7.66523 26.8995 6.46626 26.8995Z" fill="white"/>
</g>
<path d="M123.94 34.144C123.625 33.9861 123.277 33.9038 122.924 33.9038C122.571 33.9038 122.224 33.9861 121.908 34.144C120.418 35.005 120.566 38.0554 122.253 40.9581C123.94 43.8608 126.502 45.5336 127.993 44.648C128.268 44.4615 128.497 44.2153 128.663 43.9277C128.83 43.6402 128.929 43.3187 128.953 42.9875C127.937 39.7146 126.227 36.6985 123.94 34.144Z" fill="#FECE05"/>
<path opacity="0.48" d="M123.94 40.3185C122.462 37.7725 122.167 35.128 123.103 33.9227C122.682 33.8506 122.249 33.9198 121.871 34.1195C120.381 34.9804 120.529 38.0308 122.216 40.9335C123.903 43.8362 126.465 45.509 127.955 44.6234C128.137 44.5101 128.296 44.3642 128.423 44.1929C127.019 44.0084 125.221 42.5325 123.94 40.3185Z" fill="#2C7BB5"/>
<g style="mix-blend-mode:overlay" opacity="0.6">
<path d="M124.113 36.8622C124.405 36.7216 124.725 36.6486 125.049 36.6486C125.373 36.6486 125.693 36.7216 125.985 36.8622C125.364 35.92 124.681 35.0201 123.94 34.1686C123.625 34.0106 123.277 33.9283 122.924 33.9283C122.571 33.9283 122.224 34.0106 121.908 34.1686C120.418 35.0296 120.566 38.0799 122.253 40.9826C122.82 41.995 123.553 42.9055 124.421 43.6763C122.77 40.7981 122.623 37.7109 124.113 36.8622Z" fill="white"/>
</g>
<path d="M22.6874 18.056L24.8304 11.5125C25.4863 9.52047 26.7549 7.78587 28.4555 6.55577C30.156 5.32568 32.2019 4.66282 34.3017 4.66159H67.162C71.7839 4.45408 76.3002 6.08129 79.7248 9.18789L96.9678 23.7877C97.1924 23.9817 97.3528 24.2392 97.4276 24.5263C97.5023 24.8133 97.488 25.1163 97.3865 25.395C97.285 25.6737 97.1011 25.9151 96.8592 26.0871C96.6173 26.2592 96.3287 26.3537 96.0317 26.3583H49.9683L25.0767 21.9673C24.6462 21.8982 24.2358 21.7367 23.8738 21.494C23.5117 21.2514 23.2067 20.9332 22.9796 20.5614C22.7525 20.1897 22.6088 19.7732 22.5584 19.3407C22.5079 18.9082 22.5519 18.4699 22.6874 18.056Z" fill="#BAE8D6"/>
<path d="M54.8448 4.66162H51.1006V26.346H54.8448V4.66162Z" fill="#1E1E1E"/>
<g style="mix-blend-mode:overlay" opacity="0.6">
<path d="M65.5847 37.3174H57.7021V41.1303H65.5847V37.3174Z" fill="white"/>
</g>
<path d="M65.5847 34.3408H57.7021V37.3174H65.5847V34.3408Z" fill="#469AD3"/>
<path d="M54.0324 31.7701V53.6759C54.0274 54.2496 54.1372 54.8184 54.3555 55.3491C54.5738 55.8797 54.8961 56.3614 55.3034 56.7659C55.7108 57.1704 56.1949 57.4895 56.7275 57.7045C57.2601 57.9195 57.8303 58.026 58.4047 58.0177H88.4691" stroke="#469AD3" stroke-width="0.9" stroke-miterlimit="10"/>
<g style="mix-blend-mode:overlay" opacity="0.6">
<path d="M55.1533 31.7701V52.7658C55.1533 55.6931 56.385 56.8862 59.2424 56.8862H88.223" stroke="white" stroke-width="0.86" stroke-miterlimit="10"/>
</g>
<path d="M95.9697 61.7077C95.9697 64.5442 96.812 67.3169 98.39 69.6754C99.968 72.0338 102.211 73.872 104.835 74.9575C107.459 76.043 110.347 76.327 113.132 75.7736C115.918 75.2202 118.477 73.8543 120.485 71.8486C122.494 69.8429 123.862 67.2875 124.416 64.5056C124.97 61.7236 124.685 58.84 123.598 56.2195C122.512 53.5989 120.671 51.3591 118.309 49.7832C115.948 48.2073 113.171 47.3662 110.331 47.3662C106.522 47.3662 102.869 48.8772 100.176 51.5667C97.4827 54.2563 95.9697 57.9041 95.9697 61.7077Z" fill="#1E1E1E"/>
<path opacity="0.56" d="M110.331 50.9824C106.842 50.9814 103.472 52.2514 100.853 54.5542C98.2341 56.857 96.5462 60.0345 96.1055 63.4912C96.0171 62.8884 95.9718 62.2801 95.97 61.6709C95.9138 59.753 96.2435 57.8433 96.9395 56.055C97.6356 54.2667 98.684 52.636 100.022 51.2595C101.361 49.8831 102.963 48.7889 104.732 48.0417C106.502 47.2944 108.404 46.9094 110.325 46.9094C112.246 46.9094 114.148 47.2944 115.918 48.0417C117.687 48.7889 119.289 49.8831 120.627 51.2595C121.966 52.636 123.014 54.2667 123.71 56.055C124.406 57.8433 124.736 59.753 124.68 61.6709C124.676 62.2796 124.635 62.8875 124.556 63.4912C124.113 60.0356 122.425 56.8595 119.806 54.5572C117.188 52.2549 113.82 50.9841 110.331 50.9824Z" fill="#1E1E1E"/>
<path d="M101.094 61.7077C101.094 63.5322 101.636 65.3157 102.651 66.8327C103.666 68.3497 105.108 69.5321 106.796 70.2303C108.484 70.9285 110.341 71.1112 112.133 70.7553C113.925 70.3993 115.571 69.5207 116.863 68.2306C118.155 66.9405 119.035 65.2968 119.391 63.5074C119.747 61.7179 119.564 59.8631 118.865 58.1775C118.166 56.4919 116.982 55.0512 115.463 54.0376C113.944 53.0239 112.158 52.4829 110.331 52.4829C109.118 52.4813 107.916 52.7188 106.794 53.1818C105.673 53.6448 104.654 54.3243 103.796 55.1812C102.938 56.0381 102.257 57.0557 101.794 58.1756C101.33 59.2955 101.092 60.4958 101.094 61.7077Z" fill="#F8FBFC"/>
<path opacity="0.28" d="M110.33 53.9466C108.012 53.951 105.781 54.8244 104.077 56.3938C102.373 57.9632 101.321 60.1142 101.13 62.4211C101.13 62.1751 101.13 61.9168 101.13 61.6708C101.13 59.2243 102.103 56.8779 103.835 55.1479C105.568 53.4179 107.917 52.446 110.367 52.446C112.817 52.446 115.167 53.4179 116.899 55.1479C118.631 56.8779 119.605 59.2243 119.605 61.6708C119.605 61.9168 119.605 62.1751 119.605 62.4211C119.412 60.1015 118.35 57.94 116.631 56.3687C114.911 54.7975 112.661 53.9325 110.33 53.9466Z" fill="#1E1E1E"/>
<path d="M104.85 61.7076C104.85 62.7902 105.171 63.8484 105.773 64.7485C106.376 65.6486 107.232 66.3501 108.233 66.7644C109.235 67.1787 110.337 67.2871 111.4 67.0759C112.463 66.8647 113.439 66.3434 114.206 65.5779C114.972 64.8124 115.494 63.8372 115.706 62.7754C115.917 61.7137 115.809 60.6132 115.394 59.6131C114.979 58.6129 114.277 57.7581 113.375 57.1567C112.474 56.5553 111.414 56.2343 110.33 56.2343C109.61 56.2326 108.897 56.3731 108.231 56.6476C107.565 56.9221 106.961 57.3252 106.451 57.8338C105.942 58.3423 105.538 58.9464 105.264 59.6112C104.989 60.2759 104.848 60.9884 104.85 61.7076Z" fill="#8C8D9A"/>
<path opacity="0.48" d="M110.331 58.9156C109.118 58.9166 107.94 59.3211 106.984 60.065C106.027 60.8089 105.345 61.85 105.047 63.0237C104.831 62.2149 104.804 61.3672 104.968 60.5463C105.133 59.7254 105.484 58.9531 105.994 58.2893C106.505 57.6254 107.162 57.0877 107.914 56.7176C108.665 56.3476 109.493 56.1552 110.331 56.1552C111.169 56.1552 111.996 56.3476 112.748 56.7176C113.5 57.0877 114.157 57.6254 114.667 58.2893C115.178 58.9531 115.529 59.7254 115.693 60.5463C115.858 61.3672 115.831 62.2149 115.615 63.0237C115.314 61.851 114.632 60.8112 113.676 60.0676C112.72 59.324 111.543 58.9188 110.331 58.9156Z" fill="#1E1E1E"/>
<g style="mix-blend-mode:overlay" opacity="0.6">
<path d="M49.7832 61.2158C49.813 58.3318 49.2486 55.4725 48.1249 52.8156C47.0013 50.1586 45.3424 47.7609 43.2515 45.7714C41.1606 43.7818 38.6822 42.243 35.9705 41.2505C33.2588 40.2581 30.3717 39.8332 27.4886 40.0022C24.6055 40.1713 21.7881 40.9307 19.2113 42.2333C16.6346 43.5359 14.3536 45.3538 12.5102 47.574C10.6668 49.7943 9.3004 52.3694 8.49585 55.1394C7.69129 57.9094 7.46581 60.815 7.83342 63.6757H49.6231C49.7243 62.8596 49.7778 62.0382 49.7832 61.2158Z" fill="white"/>
</g>
<g style="mix-blend-mode:overlay" opacity="0.6">
<path d="M110.331 44.488C114.748 44.4817 119 46.1687 122.208 49.2011C125.417 52.2335 127.337 56.38 127.574 60.7852C129.164 59.0736 130.045 56.8228 130.037 54.4877V53.8235C128.225 49.0123 124.71 45.0314 120.157 42.6345C115.604 40.2375 110.328 39.5908 105.33 40.8168C100.331 42.0428 95.956 45.0563 93.0327 49.2871C90.1093 53.5178 88.8407 58.672 89.4668 63.774H93.248C93.1657 63.0923 93.1204 62.4066 93.1125 61.7199C93.1092 57.1551 94.9211 52.7758 98.1498 49.5446C101.379 46.3133 105.76 44.4946 110.331 44.488Z" fill="white"/>
</g>
<path d="M14.4229 61.7077C14.4302 64.54 15.2771 67.3067 16.8569 69.6589C18.4366 72.0112 20.6784 73.8436 23.2996 74.9252C25.9208 76.0069 28.8039 76.2892 31.5855 75.7366C34.3672 75.184 36.9227 73.8213 38.9299 71.8203C40.937 69.8193 42.3059 67.2696 42.864 64.4927C43.4221 61.7158 43.1443 58.836 42.0657 56.2166C40.9871 53.5971 39.156 51.3552 36.8033 49.7736C34.4505 48.192 31.6815 47.3415 28.8454 47.3294C26.9512 47.3212 25.0741 47.6874 23.3222 48.4068C21.5704 49.1262 19.9783 50.1846 18.6378 51.5211C17.2972 52.8575 16.2346 54.4456 15.5113 56.1939C14.7879 57.9422 14.418 59.8161 14.4229 61.7077Z" fill="#1E1E1E"/>
<path opacity="0.56" d="M28.8447 50.9824C25.3539 50.9811 21.9824 52.2506 19.3616 54.5532C16.7408 56.8558 15.0503 60.0335 14.6069 63.4912C14.5287 62.8875 14.4875 62.2796 14.4837 61.6709C14.4274 59.753 14.7571 57.8433 15.4532 56.055C16.1493 54.2667 17.1976 52.636 18.5362 51.2595C19.8747 49.8831 21.4762 48.7889 23.2458 48.0417C25.0154 47.2944 26.9172 46.9094 28.8385 46.9094C30.7598 46.9094 32.6616 47.2944 34.4312 48.0417C36.2008 48.7889 37.8023 49.8831 39.1409 51.2595C40.4794 52.636 41.5277 54.2667 42.2238 56.055C42.9199 57.8433 43.2496 59.753 43.1933 61.6709C43.1895 62.2796 43.1483 62.8875 43.0701 63.4912C42.627 60.0356 40.9383 56.8595 38.32 54.5572C35.7018 52.2549 32.3333 50.9841 28.8447 50.9824Z" fill="#1E1E1E"/>
<path d="M19.5459 61.7077C19.5459 63.5322 20.0877 65.3157 21.1027 66.8327C22.1177 68.3497 23.5603 69.5321 25.2482 70.2303C26.9361 70.9285 28.7935 71.1112 30.5853 70.7553C32.3772 70.3993 34.0231 69.5207 35.315 68.2306C36.6069 66.9405 37.4866 65.2968 37.843 63.5074C38.1995 61.7179 38.0165 59.8631 37.3174 58.1775C36.6182 56.4919 35.4343 55.0512 33.9152 54.0376C32.3962 53.0239 30.6102 52.4829 28.7832 52.4829C27.5697 52.4813 26.3678 52.7188 25.2463 53.1818C24.1249 53.6448 23.1059 54.3243 22.2478 55.1812C21.3897 56.0381 20.7094 57.0557 20.2457 58.1756C19.7821 59.2955 19.5443 60.4958 19.5459 61.7077Z" fill="#F8FBFC"/>
<path opacity="0.28" d="M28.8449 53.9466C26.5262 53.9482 24.2928 54.8206 22.5884 56.3905C20.884 57.9605 19.8331 60.1132 19.6445 62.4211C19.6445 62.1751 19.6445 61.9168 19.6445 61.6708C19.6445 59.2243 20.6177 56.8779 22.3501 55.1479C24.0824 53.4179 26.432 52.446 28.8819 52.446C31.3318 52.446 33.6813 53.4179 35.4137 55.1479C37.146 56.8779 38.1192 59.2243 38.1192 61.6708C38.1192 61.9168 38.1192 62.1751 38.1192 62.4211C37.9296 60.1005 36.8683 57.9372 35.1482 56.3654C33.4281 54.7936 31.1764 53.9296 28.8449 53.9466Z" fill="#1E1E1E"/>
<path d="M23.3027 61.7076C23.3027 62.7902 23.6242 63.8484 24.2264 64.7485C24.8287 65.6486 25.6847 66.3501 26.6862 66.7644C27.6876 67.1787 28.7896 67.2871 29.8528 67.0759C30.916 66.8647 31.8926 66.3434 32.6591 65.5779C33.4256 64.8124 33.9476 63.8372 34.159 62.7754C34.3705 61.7137 34.262 60.6132 33.8472 59.6131C33.4323 58.6129 32.7299 57.7581 31.8286 57.1567C30.9272 56.5553 29.8676 56.2343 28.7836 56.2343C28.0634 56.2326 27.3499 56.3731 26.6842 56.6476C26.0185 56.9221 25.4137 57.3252 24.9044 57.8338C24.3952 58.3423 23.9915 58.9464 23.7167 59.6112C23.4418 60.2759 23.3011 60.9884 23.3027 61.7076Z" fill="#8C8D9A"/>
<path opacity="0.48" d="M28.8452 58.9156C27.632 58.9145 26.4533 59.3181 25.496 60.0624C24.5388 60.8067 23.8579 61.8489 23.5614 63.0237C23.3604 62.2707 23.3232 61.4834 23.4521 60.7148C23.5811 59.9462 23.8733 59.2141 24.309 58.5676C24.7448 57.9211 25.3141 57.3753 25.9786 56.9667C26.6432 56.5582 27.3876 56.2964 28.1618 56.199C28.9361 56.1015 29.7222 56.1707 30.4675 56.4019C31.2127 56.633 31.8998 57.0208 32.4826 57.5391C33.0653 58.0575 33.5302 58.6943 33.846 59.4069C34.1619 60.1196 34.3213 60.8915 34.3137 61.6707C34.3114 62.1287 34.245 62.5841 34.1166 63.0237C33.8188 61.852 33.1392 60.8125 32.1849 60.0688C31.2306 59.325 30.0557 58.9194 28.8452 58.9156Z" fill="#1E1E1E"/>
<path d="M11.2322 49.5924L5.07396 48.1288L0.0488281 49.9737L10.136 51.5358C10.4439 50.8716 10.8134 50.2197 11.2322 49.5924Z" fill="#469AD3"/>
<path d="M88.0499 30.0113H85.6729V19.8887H88.0499C89.3925 19.8887 90.68 20.4213 91.6293 21.3693C92.5786 22.3173 93.112 23.6031 93.112 24.9439C93.1136 25.6088 92.9838 26.2674 92.7302 26.8822C92.4765 27.4969 92.1039 28.0556 91.6337 28.5264C91.1634 28.9971 90.6049 29.3705 89.9899 29.6254C89.375 29.8802 88.7157 30.0113 88.0499 30.0113Z" fill="#66BEF2"/>
<path d="M88.0499 19.8886H85.6729C86.9706 19.9526 88.194 20.5125 89.0898 21.4523C89.9857 22.3922 90.4853 23.6401 90.4853 24.9377C90.4853 26.2352 89.9857 27.4831 89.0898 28.423C88.194 29.3628 86.9706 29.9227 85.6729 29.9867H88.0499C89.3509 29.9226 90.5774 29.3614 91.4754 28.4193C92.3735 27.4771 92.8744 26.2261 92.8744 24.9254C92.8744 23.6246 92.3735 22.3736 91.4754 21.4315C90.5774 20.4893 89.3509 19.9281 88.0499 19.864V19.8886Z" fill="#469AD3"/>
<g style="mix-blend-mode:overlay">
<path d="M67.8389 4.66154L55.3008 26.3582H60.5106L72.6793 5.30113C71.1031 4.86564 69.4742 4.6504 67.8389 4.66154Z" fill="white"/>
</g>
<g style="mix-blend-mode:overlay">
<path d="M28.3896 22.5577L33.1315 23.3941L43.9576 4.66162H38.7355L28.3896 22.5577Z" fill="white"/>
</g>
<g style="mix-blend-mode:overlay">
<path d="M65.5605 26.3583H75.5369L83.5918 12.4228L79.7737 9.18793C78.8719 8.3253 77.8667 7.57752 76.7808 6.96167L65.5605 26.3583Z" fill="white"/>
</g>
</g>
<defs>
<clipPath id="clip0_157_1536">
<rect width="130" height="76" fill="white"/>
</clipPath>
</defs>
</svg>
