<svg width="200" height="83" viewBox="0 0 200 83" fill="none" xmlns="http://www.w3.org/2000/svg">
<g clip-path="url(#clip0_157_2016)">
<path d="M6.32714 48.1719H14.5223C13.7018 50.3148 12.9248 52.5542 12.1912 54.8902C11.6555 56.7146 11.1632 59.0168 10.7433 61.0438H6.31267C-2.83813 61.0293 -1.34679 48.1719 6.32714 48.1719Z" fill="#ACD1C1"/>
<path d="M5.11095 52.7326H14.5368C14.8556 52.7326 15.1612 52.606 15.3866 52.3806C15.612 52.1553 15.7386 51.8496 15.7386 51.5309C15.7386 51.2122 15.612 50.9065 15.3866 50.6811C15.1612 50.4557 14.8556 50.3291 14.5368 50.3291H5.11095C4.79222 50.3291 4.48655 50.4557 4.26117 50.6811C4.0358 50.9065 3.90918 51.2122 3.90918 51.5309C3.90918 51.8496 4.0358 52.1553 4.26117 52.3806C4.48655 52.606 4.79222 52.7326 5.11095 52.7326Z" fill="white"/>
<path d="M198.03 60.8262C198.553 60.8262 199.054 61.0337 199.423 61.4029C199.792 61.7722 200 62.2731 200 62.7954C200 63.3176 199.792 63.8185 199.423 64.1878C199.054 64.5571 198.553 64.7645 198.03 64.7645H194.7V60.8262H198.03Z" fill="#ACD1C1"/>
<path d="M24.3242 61.5068C24.3242 55.7466 26.6124 50.2224 30.6855 46.1493C34.7585 42.0763 40.2827 39.7881 46.0429 39.7881C51.803 39.7881 57.3273 42.0763 61.4003 46.1493C65.4733 50.2224 67.7616 55.7466 67.7616 61.5068C67.7616 61.9411 67.7616 62.361 67.7616 62.7954H24.3532C24.3387 62.361 24.3242 61.9411 24.3242 61.5068Z" fill="#1E1E1E"/>
<path d="M181.133 62.7812H183.001V59.813H181.133V62.7812Z" fill="#1E1E1E"/>
<path d="M137.739 61.5068C137.739 55.7466 140.027 50.2224 144.101 46.1493C148.174 42.0763 153.698 39.7881 159.458 39.7881C165.218 39.7881 170.742 42.0763 174.815 46.1493C178.888 50.2224 181.177 55.7466 181.177 61.5068C181.177 61.9411 181.177 62.361 181.177 62.7954H137.768C137.754 62.361 137.739 61.9411 137.739 61.5068Z" fill="#1E1E1E"/>
<path d="M14.1165 56.8447H25.8591V62.7812L14.0586 62.6798L14.1165 56.8447Z" fill="#1E1E1E"/>
<path d="M26.5834 55.368C26.2981 55.9386 26.042 56.5234 25.816 57.12C21.342 66.4301 14.7829 66.155 12.0753 66.155H9.83105C9.83105 66.155 10.9459 59.205 12.2056 54.8613C32.7515 -11.5834 94.7366 -1.07155 115.789 3.43145C120.085 4.28812 123.978 6.53757 126.866 9.83124C127.547 10.5269 128.144 11.2995 128.647 12.1334C131.303 16.3998 133.687 20.8295 135.785 25.3963C145.635 26.0532 155.446 27.2131 165.177 28.8713C172.133 30.4296 178.453 34.0605 183.302 39.2848C188.152 44.5091 191.303 51.0812 192.34 58.1335H192.644C192.915 58.1316 193.183 58.1835 193.433 58.2861C193.684 58.3888 193.911 58.5401 194.102 58.7314C194.294 58.9227 194.445 59.1502 194.548 59.4005C194.65 59.6508 194.702 59.9191 194.7 60.1896V64.6491C194.702 64.869 194.661 65.0871 194.578 65.2908C194.495 65.4945 194.373 65.6798 194.218 65.8359C194.063 65.9921 193.879 66.116 193.676 66.2006C193.473 66.2852 193.255 66.3287 193.035 66.3287H190.255C187.939 66.3287 182.147 65.7206 180.54 59.8276C179.265 54.6794 176.15 50.1756 171.782 47.166C167.415 44.1564 162.098 42.8488 156.833 43.49C151.568 44.1312 146.719 46.6768 143.202 50.6467C139.685 54.6165 137.742 59.7362 137.74 65.0401C137.74 65.4744 137.74 65.8944 137.74 66.3287H67.7186C67.7186 65.8944 67.7186 65.4744 67.7186 65.0401C67.7248 60.1386 66.073 55.3791 63.0315 51.5354C59.99 47.6916 55.7377 44.9898 50.966 43.869C46.1944 42.7482 41.1839 43.2745 36.7492 45.3622C32.3146 47.4499 28.7165 50.9763 26.54 55.368H26.5834Z" fill="#F85543"/>
<path d="M28.4365 65.0405C28.4337 68.5377 29.4681 71.9572 31.4089 74.8664C33.3498 77.7756 36.1099 80.0438 39.34 81.3841C42.5702 82.7244 46.1253 83.0765 49.5557 82.396C52.986 81.7155 56.1374 80.0329 58.6113 77.561C61.0852 75.0891 62.7704 71.9391 63.4538 68.5093C64.1371 65.0795 63.7878 61.5241 62.4502 58.2928C61.1125 55.0616 58.8466 52.2997 55.939 50.3564C53.0313 48.4132 49.6127 47.376 46.1155 47.376C41.4293 47.376 36.9347 49.2366 33.6197 52.5489C30.3047 55.8612 28.4404 60.3542 28.4365 65.0405Z" fill="#1E1E1E"/>
<path opacity="0.56" d="M46.0433 51.8643C41.7482 51.8678 37.6013 53.4348 34.3772 56.2725C31.1531 59.1103 29.0723 63.0247 28.5235 67.2846C28.4267 66.5402 28.3736 65.7908 28.3643 65.0403C28.4959 60.441 30.4155 56.0743 33.7152 52.8677C37.015 49.661 41.4349 47.8672 46.036 47.8672C50.6372 47.8672 55.0571 49.661 58.3568 52.8677C61.6565 56.0743 63.5761 60.441 63.7078 65.0403C63.7057 65.7911 63.6525 66.541 63.5485 67.2846C63.003 63.0259 60.9252 59.1117 57.7035 56.2737C54.4818 53.4357 50.3367 51.8682 46.0433 51.8643Z" fill="#1E1E1E"/>
<path d="M34.6631 65.0399C34.6602 67.2914 35.3252 69.4931 36.574 71.3666C37.8228 73.24 39.5992 74.7009 41.6785 75.5645C43.7577 76.4281 46.0465 76.6556 48.255 76.2181C50.4636 75.7806 52.4928 74.6978 54.0858 73.1068C55.6789 71.5158 56.7642 69.488 57.2045 67.2799C57.6448 65.0719 57.4203 62.7829 56.5593 60.7026C55.6984 58.6222 54.2397 56.844 52.3679 55.5928C50.496 54.3417 48.2952 53.6738 46.0437 53.6738C43.0279 53.6738 40.1354 54.8708 38.0015 57.002C35.8676 59.1331 34.6669 62.0241 34.6631 65.0399Z" fill="#F8FBFC"/>
<path opacity="0.28" d="M46.0434 55.5272C43.1903 55.5286 40.4421 56.6029 38.3445 58.5369C36.2469 60.4709 34.9533 63.123 34.7207 65.9666C34.7207 65.6625 34.7207 65.3584 34.7207 65.0399C34.7207 62.0254 35.9182 59.1344 38.0498 57.0029C40.1813 54.8713 43.0723 53.6738 46.0868 53.6738C49.1013 53.6738 51.9923 54.8713 54.1239 57.0029C56.2554 59.1344 57.4529 62.0254 57.4529 65.0399C57.4529 65.3584 57.4529 65.6625 57.4529 65.9666C57.2159 63.1092 55.909 60.4467 53.7937 58.5112C51.6784 56.5758 48.9105 55.51 46.0434 55.5272Z" fill="#1E1E1E"/>
<path d="M46.0433 71.7585C49.7618 71.7585 52.7761 68.7442 52.7761 65.0258C52.7761 61.3073 49.7618 58.293 46.0433 58.293C42.3249 58.293 39.3105 61.3073 39.3105 65.0258C39.3105 68.7442 42.3249 71.7585 46.0433 71.7585Z" fill="#8C8D9A"/>
<path opacity="0.48" d="M46.0436 61.6521C44.5503 61.6521 43.0998 62.1506 41.9221 63.0687C40.7444 63.9867 39.9069 65.2717 39.5424 66.7198C39.3878 66.173 39.3051 65.6084 39.2963 65.0402C39.254 64.1288 39.3971 63.2183 39.7167 62.3637C40.0364 61.5092 40.526 60.7284 41.1561 60.0685C41.7861 59.4086 42.5434 58.8833 43.3822 58.5244C44.2211 58.1655 45.124 57.9805 46.0363 57.9805C46.9487 57.9805 47.8516 58.1655 48.6904 58.5244C49.5292 58.8833 50.2866 59.4086 50.9166 60.0685C51.5466 60.7284 52.0363 61.5092 52.3559 62.3637C52.6756 63.2183 52.8186 64.1288 52.7764 65.0402C52.7652 65.6072 52.6874 66.1709 52.5447 66.7198C52.1757 65.2741 51.337 63.992 50.1603 63.0748C48.9836 62.1575 47.5355 61.6571 46.0436 61.6521Z" fill="#1E1E1E"/>
<path d="M141.779 65.0405C141.776 68.5377 142.811 71.9572 144.752 74.8664C146.693 77.7756 149.453 80.0438 152.683 81.3841C155.913 82.7244 159.468 83.0765 162.898 82.396C166.329 81.7155 169.48 80.0329 171.954 77.561C174.428 75.0891 176.113 71.9391 176.797 68.5093C177.48 65.0795 177.131 61.5241 175.793 58.2928C174.455 55.0616 172.189 52.2997 169.282 50.3564C166.374 48.4132 162.955 47.376 159.458 47.376C154.772 47.376 150.278 49.2366 146.962 52.5489C143.647 55.8612 141.783 60.3542 141.779 65.0405Z" fill="#1E1E1E"/>
<path opacity="0.56" d="M159.458 51.8643C155.163 51.8678 151.016 53.4348 147.792 56.2725C144.568 59.1103 142.487 63.0247 141.939 67.2846C141.842 66.5402 141.789 65.7908 141.779 65.0403C141.911 60.441 143.831 56.0743 147.13 52.8677C150.43 49.661 154.85 47.8672 159.451 47.8672C164.052 47.8672 168.472 49.661 171.772 52.8677C175.072 56.0743 176.991 60.441 177.123 65.0403C177.121 65.7911 177.068 66.541 176.964 67.2846C176.418 63.0259 174.34 59.1117 171.119 56.2737C167.897 53.4357 163.752 51.8682 159.458 51.8643Z" fill="#1E1E1E"/>
<path d="M148.092 65.0399C148.092 67.2879 148.758 69.4854 150.007 71.3546C151.256 73.2237 153.031 74.6806 155.108 75.5408C157.185 76.4011 159.47 76.6262 161.675 76.1876C163.88 75.7491 165.905 74.6666 167.495 73.077C169.085 71.4874 170.167 69.4621 170.606 67.2573C171.044 65.0525 170.819 62.7672 169.959 60.6903C169.099 58.6134 167.642 56.8382 165.773 55.5893C163.903 54.3404 161.706 53.6738 159.458 53.6738C157.965 53.6738 156.487 53.9678 155.108 54.539C153.729 55.1102 152.476 55.9474 151.421 57.0029C150.365 58.0583 149.528 59.3113 148.957 60.6903C148.386 62.0693 148.092 63.5473 148.092 65.0399Z" fill="#F8FBFC"/>
<path opacity="0.28" d="M159.458 55.5272C156.605 55.5286 153.857 56.6029 151.759 58.5369C149.662 60.4709 148.368 63.123 148.136 65.9666C148.136 65.6625 148.136 65.3584 148.136 65.0399C148.136 62.0254 149.333 59.1344 151.465 57.0029C153.596 54.8713 156.487 53.6738 159.502 53.6738C162.516 53.6738 165.407 54.8713 167.539 57.0029C169.67 59.1344 170.868 62.0254 170.868 65.0399C170.868 65.3584 170.868 65.6625 170.868 65.9666C170.631 63.1092 169.324 60.4467 167.209 58.5112C165.093 56.5758 162.325 55.51 159.458 55.5272Z" fill="#1E1E1E"/>
<path d="M152.711 65.0402C152.711 66.3747 153.107 67.6792 153.848 68.7888C154.589 69.8984 155.643 70.7632 156.876 71.2739C158.109 71.7846 159.466 71.9182 160.775 71.6579C162.083 71.3975 163.286 70.7549 164.229 69.8113C165.173 68.8677 165.815 67.6654 166.076 66.3566C166.336 65.0477 166.203 63.6911 165.692 62.4582C165.181 61.2253 164.316 60.1715 163.207 59.4301C162.097 58.6887 160.793 58.293 159.458 58.293C157.669 58.293 155.953 59.0039 154.687 60.2692C153.422 61.5346 152.711 63.2508 152.711 65.0402Z" fill="#8C8D9A"/>
<path opacity="0.48" d="M159.459 61.6521C157.965 61.6521 156.515 62.1506 155.337 63.0687C154.159 63.9867 153.322 65.2717 152.958 66.7198C152.803 66.173 152.72 65.6084 152.711 65.0402C152.669 64.1288 152.812 63.2183 153.132 62.3637C153.451 61.5092 153.941 60.7284 154.571 60.0685C155.201 59.4086 155.958 58.8833 156.797 58.5244C157.636 58.1655 158.539 57.9805 159.451 57.9805C160.364 57.9805 161.267 58.1655 162.105 58.5244C162.944 58.8833 163.702 59.4086 164.332 60.0685C164.962 60.7284 165.451 61.5092 165.771 62.3637C166.091 63.2183 166.234 64.1288 166.191 65.0402C166.18 65.6072 166.103 66.1709 165.96 66.7198C165.591 65.2741 164.752 63.992 163.575 63.0748C162.399 62.1575 160.951 61.6571 159.459 61.6521Z" fill="#1E1E1E"/>
<path d="M67.762 65.0403C67.7683 60.1388 66.1164 55.3793 63.0749 51.5356C60.0334 47.6919 55.7811 44.99 51.0095 43.8692C46.2378 42.7484 41.2274 43.2747 36.7927 45.3624C32.358 47.4501 28.7599 50.9765 26.5834 55.3682C26.2981 55.9389 26.042 56.5236 25.816 57.1202C21.342 66.4303 14.7829 66.1552 12.0753 66.1552H9.83105C9.83105 66.1552 10.6564 61.0296 11.6844 56.8307C17.0561 45.8844 25.6423 37.0811 40.1069 35.6188C68.5873 34.0116 73.1482 56.266 72.5691 66.3H67.733C67.7475 65.8946 67.762 65.4747 67.762 65.0403Z" fill="#F85543"/>
<g style="mix-blend-mode:screen" opacity="0.55">
<path d="M40.0922 38.4849C25.6131 39.9328 17.0415 48.7506 11.6697 59.6968C11.134 61.8976 10.6562 64.3446 10.3087 66.1834H9.81641C9.81641 66.1834 10.6417 61.0578 11.6697 56.8589C17.0415 45.9127 25.6276 37.1094 40.0922 35.647C68.2831 34.0543 73.0467 55.9178 72.5544 66.0531C72.0621 55.1359 65.8795 37.037 40.0922 38.4849Z" fill="white"/>
</g>
<path d="M154.405 33.2586C181.408 30.4497 189.43 50.3584 192.297 58.1337H192.601C192.871 58.1318 193.14 58.1837 193.39 58.2863C193.64 58.389 193.868 58.5403 194.059 58.7316C194.25 58.9229 194.402 59.1504 194.504 59.4007C194.607 59.651 194.659 59.9192 194.657 60.1898V64.6493C194.659 64.8692 194.617 65.0873 194.534 65.291C194.451 65.4947 194.329 65.6799 194.174 65.8361C194.019 65.9923 193.835 66.1162 193.632 66.2008C193.429 66.2854 193.212 66.3289 192.992 66.3289H190.212C187.895 66.3289 182.103 65.7208 180.496 59.8278C179.221 54.6795 176.106 50.1758 171.739 47.1662C167.372 44.1565 162.054 42.849 156.789 43.4902C151.524 44.1314 146.676 46.677 143.158 50.6469C139.641 54.6167 137.698 59.7364 137.696 65.0403C137.696 65.4746 137.696 65.8945 137.696 66.3289H127.561C128.589 47.9984 138.319 35.112 154.405 33.2586Z" fill="#F85543"/>
<g style="mix-blend-mode:screen" opacity="0.55">
<path d="M192.644 61.0294H192.34C189.445 53.2542 181.452 33.3454 154.449 36.1543C139.173 37.9063 129.631 49.6344 127.836 66.4012H127.59C128.589 48.1285 138.319 35.1842 154.449 33.3309C181.452 30.5219 189.474 50.4307 192.34 58.206H192.644C192.915 58.2041 193.183 58.256 193.434 58.3586C193.684 58.4613 193.911 58.6126 194.103 58.8039C194.294 58.9952 194.445 59.2226 194.548 59.473C194.651 59.7233 194.702 59.9915 194.7 60.2621V63.0855C194.702 62.815 194.651 62.5467 194.548 62.2964C194.445 62.0461 194.294 61.8186 194.103 61.6273C193.911 61.436 193.684 61.2847 193.434 61.182C193.183 61.0794 192.915 61.0275 192.644 61.0294Z" fill="white"/>
</g>
<path d="M174.777 32.071C174.777 33.1334 175.092 34.172 175.683 35.0553C176.273 35.9387 177.112 36.6272 178.093 37.0338C179.075 37.4404 180.155 37.5467 181.197 37.3395C182.239 37.1322 183.196 36.6206 183.948 35.8693C184.699 35.1181 185.21 34.161 185.418 33.1189C185.625 32.0769 185.518 30.9968 185.112 30.0153C184.705 29.0337 184.017 28.1948 183.133 27.6045C182.25 27.0143 181.212 26.6992 180.149 26.6992C178.724 26.6992 177.358 27.2652 176.351 28.2726C175.343 29.28 174.777 30.6463 174.777 32.071Z" fill="#FECE05"/>
<g style="mix-blend-mode:screen" opacity="0.55">
<path d="M180.149 28.7263C178.901 28.7262 177.692 29.1592 176.729 29.9514C175.765 30.7436 175.106 31.8459 174.864 33.07C174.806 32.7402 174.777 32.4059 174.777 32.071C174.777 30.6463 175.343 29.28 176.351 28.2726C177.358 27.2652 178.724 26.6992 180.149 26.6992C181.574 26.6992 182.94 27.2652 183.948 28.2726C184.955 29.28 185.521 30.6463 185.521 32.071C185.521 32.4059 185.492 32.7402 185.434 33.07C185.19 31.8472 184.53 30.7465 183.567 29.9547C182.604 29.163 181.396 28.7289 180.149 28.7263Z" fill="white"/>
</g>
<path d="M67.0384 63.2305H137.986C138.466 63.2305 138.926 63.4212 139.266 63.7606C139.605 64.1 139.796 64.5603 139.796 65.0404C139.796 65.5204 139.605 65.9807 139.266 66.3201C138.926 66.6596 138.466 66.8502 137.986 66.8502H67.0384C66.5584 66.8502 66.098 66.6596 65.7586 66.3201C65.4192 65.9807 65.2285 65.5204 65.2285 65.0404C65.2285 64.5603 65.4192 64.1 65.7586 63.7606C66.098 63.4212 66.5584 63.2305 67.0384 63.2305Z" fill="#ACD1C1"/>
<g style="mix-blend-mode:screen" opacity="0.55">
<path d="M32.3026 29.1758C34.3593 26.2998 36.6087 23.5666 39.0354 20.9951C53.1815 5.57481 74.6685 3.28712 87.5404 2.679C107.435 2.40389 116.166 5.77752 118.048 6.51595C120.162 7.54397 118.584 8.38376 117.223 7.96386C108.912 4.67711 93.0135 4.67712 89.9005 4.76399C52.1535 7.05169 43.0171 21.8493 40.5557 29.2047H129.993C131.095 29.202 132.182 29.4635 133.162 29.9674C134.142 30.4712 134.987 31.2027 135.626 32.1005L136.205 32.9258C136.348 33.1265 136.433 33.3626 136.451 33.6084C136.47 33.8541 136.42 34.1002 136.308 34.3197C136.196 34.5392 136.026 34.7238 135.816 34.8534C135.606 34.9829 135.365 35.0524 135.119 35.0543H36.3712C30.3769 35.0977 31.3325 30.9132 32.3026 29.1758Z" fill="white"/>
</g>
<path d="M134.424 35.0977H47.5635" stroke="#E54033" stroke-width="0.93" stroke-miterlimit="10"/>
<path d="M123.927 55.5273H77.2607" stroke="#E54033" stroke-width="0.93" stroke-miterlimit="10"/>
<path d="M127.662 19.489L125.447 16.1443C124.175 14.2373 122.453 12.6738 120.432 11.5927C118.412 10.5116 116.155 9.94642 113.863 9.94727H94.8377C93.3938 9.94727 92.0091 10.5209 90.9881 11.5418C89.9671 12.5628 89.3936 13.9476 89.3936 15.3914V22.631C89.3936 24.0749 89.9671 25.4596 90.9881 26.4806C92.0091 27.5016 93.3938 28.0751 94.8377 28.0751H123.13C124.137 28.0964 125.131 27.837 125.999 27.326C126.867 26.8149 127.576 26.0722 128.047 25.1812C128.517 24.2901 128.73 23.2858 128.662 22.2805C128.594 21.2752 128.248 20.3087 127.662 19.489Z" fill="#BAE8D6"/>
<path d="M82.8488 15.3183V22.5579C82.8488 24.0017 82.2752 25.3865 81.2542 26.4075C80.2332 27.4284 78.8485 28.002 77.4046 28.002H53.8037C52.7399 28.0034 51.6989 27.6931 50.8096 27.1094C49.9202 26.5257 49.2213 25.6942 48.7993 24.7176C48.3772 23.7411 48.2506 22.6623 48.4349 21.6146C48.6192 20.5669 49.1064 19.5961 49.8364 18.8223C52.4783 16.0076 55.6672 13.7621 59.2076 12.2234C62.748 10.6847 66.5654 9.88534 70.4257 9.8742H77.3612C78.0798 9.86846 78.7924 10.005 79.4579 10.2761C80.1234 10.5471 80.7288 10.9472 81.2389 11.4533C81.749 11.9594 82.1539 12.5615 82.4302 13.2249C82.7065 13.8882 82.8488 14.5997 82.8488 15.3183Z" fill="#BAE8D6"/>
<path d="M86.585 11.5254V55.5274" stroke="#E54033" stroke-width="0.93" stroke-miterlimit="10"/>
<g style="mix-blend-mode:screen" opacity="0.55">
<path d="M89.4083 38.6016H98.5156V35.8071H89.4083V38.6016Z" fill="white"/>
</g>
<path d="M89.4083 35.792H98.5156V33.374H89.4083V35.792Z" fill="#E54033"/>
<g style="mix-blend-mode:screen" opacity="0.55">
<path d="M77.2606 58.582L123.927 58.582V56.2075L77.2606 56.2075V58.582Z" fill="white"/>
</g>
<g style="mix-blend-mode:screen" opacity="0.55">
<path d="M178.426 33.3746C178.423 33.8312 178.556 34.2783 178.808 34.6591C179.06 35.0399 179.419 35.3372 179.84 35.5132C180.262 35.6893 180.726 35.7361 181.174 35.6477C181.622 35.5594 182.033 35.3398 182.356 35.017C182.679 34.6941 182.898 34.2826 182.987 33.8347C183.075 33.3867 183.028 32.9227 182.852 32.5014C182.676 32.0802 182.379 31.7208 181.998 31.4689C181.617 31.217 181.17 31.0841 180.714 31.087C180.108 31.0908 179.528 31.333 179.1 31.7612C178.672 32.1894 178.43 32.7691 178.426 33.3746Z" fill="white"/>
</g>
<path d="M169.97 31.9554C172.576 28.5093 176.963 25.4832 180.713 25.3818V38.746C178.324 37.8628 172.257 34.8801 169.97 31.9554Z" fill="#F85543"/>
<g style="mix-blend-mode:screen" opacity="0.55">
<path d="M171.36 33.374C170.824 32.9473 170.339 32.4616 169.912 31.9261C172.518 28.48 176.906 25.4539 180.656 25.3525V28.3932C177.572 28.509 173.966 30.6229 171.36 33.374Z" fill="white"/>
</g>
<g style="mix-blend-mode:overlay">
<path d="M122.218 27.9448H117.541L107.102 9.86035H111.778L122.218 27.9448Z" fill="white"/>
</g>
<g style="mix-blend-mode:overlay">
<path d="M102.57 9.875L113.009 27.9449H104.061L93.6943 9.99081C94.0709 9.91501 94.454 9.87624 94.8382 9.875H102.57Z" fill="white"/>
</g>
<g style="mix-blend-mode:overlay">
<path d="M70.4258 9.875L80.3295 27.0327C79.4395 27.6314 78.3904 27.9492 77.3178 27.9449H76.2174L66.082 10.2225C67.5189 9.99527 68.9711 9.8791 70.4258 9.875Z" fill="white"/>
</g>
<g style="mix-blend-mode:overlay">
<path d="M71.7292 27.9442H62.7811L55.0059 14.4642C57.1851 13.0449 59.5476 11.9294 62.0282 11.1484L71.7292 27.9442Z" fill="white"/>
</g>
</g>
<defs>
<clipPath id="clip0_157_2016">
<rect width="200" height="82.7047" fill="white"/>
</clipPath>
</defs>
</svg>
