<svg width="79" height="72" viewBox="0 0 79 72" fill="none" xmlns="http://www.w3.org/2000/svg">
<g clip-path="url(#clip0_263_507)">
<path d="M51.8325 28.0771L44.6869 31.1544C44.1001 30.0827 43.5322 29.0474 42.9656 28.0095C41.2998 24.9535 39.644 21.8913 37.9568 18.8453C37.6898 18.3621 37.7654 18.0942 38.1846 17.7674C39.3179 16.8773 40.465 15.9884 41.5264 15.0132C44.0825 12.6708 60.7598 1.66129 61.5002 1.24189C62.8097 0.490727 64.0714 -0.260433 65.7813 0.0863531C67.8853 0.509507 70.0536 0.613417 72.1941 0.848781C73.4633 0.988997 74.733 1.12129 76.003 1.24564C76.3228 1.27569 76.6502 1.24564 77.0179 1.24564C77.4661 1.45096 77.3377 1.87161 77.339 2.29852C77.339 3.96359 77.4095 5.62867 77.4258 7.29499C77.4473 9.44331 77.4258 11.5929 77.4498 13.7412C77.6199 31.5905 77.7308 49.4458 78.0907 67.2927C78.1007 67.7847 77.9144 67.97 77.4611 67.9888C76.1629 68.0414 74.866 68.114 73.5678 68.159C71.1452 68.2467 68.7226 68.3168 66.3001 68.4094C64.9414 68.4583 63.5778 68.631 62.228 68.5521C61.1565 68.4896 60.095 68.1578 59.0411 67.8986C56.8691 67.3653 54.7084 66.7869 52.5364 66.2574C51.9861 66.1221 51.8086 65.8517 51.8149 65.2959C51.8401 62.8546 51.8149 60.4133 51.8224 57.9746L51.8451 29.806C51.8338 29.2702 51.8325 28.7381 51.8325 28.0771ZM77.684 67.4179C77.6286 66.847 77.5581 66.3951 77.5442 65.9431C77.4964 63.4205 77.4535 60.8978 77.4296 58.3752C77.3759 52.6004 77.3281 46.8248 77.2861 41.0484C77.2525 37.0422 77.2164 33.0389 77.1778 29.0386C77.1308 23.9916 77.0829 18.9455 77.0343 13.9002C76.9977 10.1056 76.9499 6.31097 76.9348 2.51636C76.9348 1.99555 76.727 1.82529 76.2561 1.77646C72.587 1.40088 68.9203 0.996509 65.2487 0.649724C64.7995 0.621254 64.3528 0.734275 63.9719 0.972723C61.6576 2.46378 59.3911 4.02869 57.0781 5.521C54.036 7.48278 50.9662 9.402 47.9077 11.335C47.4041 11.6542 46.9004 11.9697 46.5227 12.2113C46.8916 12.6408 47.2958 12.9788 47.53 13.4069C49.3671 16.7771 51.1815 20.1674 52.9834 23.5476C53.4215 24.3689 54.0964 25.1326 53.6205 26.213L53.7716 26.2455L61.956 20.2525C61.9044 20.7696 61.8301 21.1589 61.8301 21.5495C61.844 22.9867 61.8968 24.429 61.9119 25.8624C61.9548 30.119 61.9837 34.3756 62.0228 38.6247C62.0756 44.5438 62.1289 50.4625 62.1826 56.3808C62.2104 59.9877 62.2066 63.5957 62.2242 67.2026C62.2418 67.4583 62.2762 67.7125 62.3275 67.9637L77.684 67.4179Z" fill="black"/>
<path d="M2.04635 56.7978C3.08892 55.7111 4.14409 54.6357 5.17029 53.5353C5.8326 52.8254 6.4395 52.0643 7.10433 51.3569C7.2884 51.1712 7.53212 51.0556 7.79308 51.0302C8.48997 50.9928 9.18854 50.9999 9.88451 51.0514C10.2848 51.0687 10.6766 51.172 11.0329 51.3544C11.5907 51.6761 12.0729 52.1243 12.6131 52.4811C13.4 53.0007 14.1895 53.524 15.0155 53.976C16.077 54.5581 17.2933 53.8595 17.4243 52.6426C17.53 51.6661 17.253 50.8461 16.354 50.3591C15.4021 49.8446 14.4288 49.3676 13.4454 48.9169C11.1109 47.849 8.66063 47.0027 6.63089 45.3589C6.45461 45.2162 5.68402 44.5013 5.45234 44.2647C4.06132 42.8516 3.18667 41.0157 2.96805 39.0504C2.68978 36.8044 3.07508 34.621 3.94515 32.5178C4.42488 31.3585 4.72204 30.1178 5.26599 28.9924C6.13102 27.2021 6.80969 25.2791 8.24763 23.8294C9.16177 22.908 10.2346 22.143 11.1714 21.2404C12.0742 20.3715 13.2968 20.1988 14.3419 19.6467C14.7574 19.4263 15.0797 19.216 15.3278 18.7703C16.3351 16.9763 17.4104 15.2273 18.4429 13.4508C18.7627 12.9025 19.1367 12.6196 19.8179 12.7973C20.1956 12.895 25.6729 13.248 27.3035 13.3607C27.7706 13.3933 27.9721 13.6111 27.952 14.0806C27.9028 15.2461 27.8966 16.4129 27.8349 17.576C27.8072 18.0955 27.991 18.3033 28.5135 18.3947C31.8893 18.9831 35.0724 20.0974 37.9118 22.0391C38.8901 22.7089 39.7539 23.5414 40.6819 24.2926C41.1465 24.6682 40.7914 24.9073 40.5698 25.1502C38.5275 27.3849 36.392 29.5407 34.458 31.863C32.9722 33.6483 31.1326 34.8026 29.0562 35.7002C28.5198 35.9318 27.9986 36.201 27.4861 36.4814C27.2834 36.5916 27.1234 36.7806 26.8137 37.046C27.8638 37.508 28.7754 37.8949 29.6745 38.308C33.6433 40.1258 37.0581 42.5508 38.8574 46.7072C39.6784 48.6026 39.8345 50.6095 39.7275 52.6439C39.5499 56.0579 38.2417 59.05 36.052 61.6215C34.5537 63.3817 32.6523 64.71 30.5244 65.6603C29.4592 66.136 28.3524 66.5228 27.2506 66.9122C26.8729 67.0487 26.6664 67.1976 26.6853 67.6533C26.7243 68.5472 26.6374 69.4461 26.6853 70.3412C26.8238 72.8701 19.5081 71.7559 18.6809 71.7534C18.6393 71.7534 16.7607 71.4217 16.0367 70.7644C15.6312 70.3888 15.1553 70.0934 14.7247 69.7541C14.6677 69.6978 14.6197 69.6332 14.5824 69.5625C13.7514 68.3907 12.768 67.4468 11.3086 67.0587C10.0885 66.7307 8.89106 66.3075 7.70495 65.8718C6.76562 65.5263 5.79483 65.2008 4.95246 64.6825C3.59762 63.8487 2.2604 62.9498 1.07051 61.9045C0.502639 61.4037 0.083354 60.5273 -0.00604511 59.7762C-0.0639657 59.2867 0.568119 58.697 0.933271 58.1825C1.27576 57.698 1.67112 57.2523 2.04383 56.789L2.04635 56.7978ZM19.4225 13.253C19.4019 13.3958 19.3893 13.5396 19.3848 13.6837C19.3709 14.9356 19.3482 16.1876 19.3633 17.4395C19.3696 17.894 19.4691 18.3459 19.5358 18.8792L16.2507 19.6617C12.8511 20.4667 9.94243 22.0579 7.89884 24.9348C5.35286 28.5166 4.81269 32.4176 6.28463 36.5703C6.3944 36.8158 6.52498 37.0516 6.67496 37.2751C6.5226 35.7165 6.25441 34.2129 6.47476 32.6805C6.56416 33.2327 6.59186 33.7898 6.64222 34.3444C6.91042 37.2751 8.15319 39.7477 10.3227 41.7233C12.5489 43.7464 15.1968 45.1448 17.8524 46.5019C19.5837 47.3858 21.3591 48.2008 23.1685 48.9106C24.4201 49.4001 25.1252 50.2364 25.3783 51.4758C25.5218 52.1869 25.5042 52.9231 25.0987 53.5854C25.0887 52.9043 25.3606 52.197 24.789 51.4571C24.6631 51.7563 24.5775 51.9578 24.5069 52.1544C24.3407 52.6264 24.2224 53.1171 24.0171 53.5703C23.1987 55.3819 22.0944 56.0629 20.1138 55.9578C17.9673 55.8474 15.8845 55.1946 14.0624 54.0611C12.8939 53.34 11.8261 52.4586 10.6538 51.606L1.58047 61.7304C2.27426 61.8957 2.75147 61.8469 3.13803 61.4012C3.7399 60.7101 4.33547 60.0128 4.9449 59.328C5.27228 58.9599 5.62231 58.6131 5.96228 58.2563L6.07309 58.3652C5.33649 59.2065 4.60745 60.0553 3.85952 60.8879C3.38482 61.4162 3.30802 61.803 3.77012 62.0985C5.42212 63.1564 7.03634 64.2994 8.78781 65.1657C10.198 65.8631 11.7594 66.3113 13.3006 66.6756C14.9727 67.0687 16.6726 67.5231 18.4316 67.1313C18.6436 67.1076 18.8575 67.1055 19.07 67.125V71.4079L26.0935 71.0761C26.0935 69.7679 26.1124 68.561 26.0834 67.3554C26.0721 66.8546 26.3012 66.6756 26.7507 66.5566C27.5188 66.3554 28.2754 66.113 29.0172 65.8305C34.1419 63.8512 37.67 60.4347 38.8033 54.9224C39.2666 52.6689 39.521 50.3867 38.9065 48.1094C37.9722 44.6453 35.7423 42.1414 32.7077 40.4062C30.4828 39.133 28.0791 38.1715 25.7485 37.0836C24.4163 36.4576 23.1105 35.8054 22.0629 34.7412C20.6779 33.3353 20.9461 31.0455 22.6321 30.0653C24.0285 29.254 25.5571 29.1889 27.0844 29.4931C28.3083 29.7435 29.57 30.0039 30.6843 30.531C31.5972 30.9629 32.5566 31.5839 32.7342 32.9197L40.4918 24.4516C39.5424 23.7079 38.695 22.9568 37.7645 22.3308C34.8684 20.3815 31.6073 19.3537 28.1786 18.8029C27.3639 18.6777 27.3589 18.6439 27.3828 17.8013C27.413 16.6545 27.4067 15.5078 27.4319 14.361C27.4395 13.9767 27.3161 13.7951 26.8955 13.7839C25.8693 13.7563 24.8431 13.71 23.8195 13.6349C22.3866 13.526 20.9574 13.387 19.4187 13.253H19.4225ZM18.6179 67.5081L18.2754 67.4756C17.8876 68.7275 18.1294 70.0383 18.0702 71.309C18.5185 71.4705 18.6116 71.294 18.6066 70.9497C18.599 70.2461 18.6141 69.5413 18.6167 68.8377C18.6154 68.3945 18.6142 67.9513 18.6142 67.5081H18.6179Z" fill="black"/>
<path d="M77.6839 67.4179L62.3223 67.96C62.2711 67.7088 62.2366 67.4546 62.2191 67.1988C62.2015 63.592 62.2052 59.9839 62.1775 56.3771C62.1339 50.458 62.0806 44.5392 62.0176 38.6209C61.9786 34.3644 61.9496 30.1078 61.9068 25.8587C61.8917 24.4215 61.8388 22.9793 61.825 21.5458C61.825 21.1552 61.8967 20.7658 61.9509 20.2488L53.7665 26.2418L53.6154 26.2093C54.0913 25.1288 53.4164 24.3652 52.9782 23.5439C51.1701 20.1637 49.362 16.7734 47.5249 13.4032C47.292 12.9751 46.8878 12.637 46.5176 12.2076C46.8953 11.966 47.399 11.6505 47.9026 11.3313C50.9611 9.39577 54.0309 7.47906 57.073 5.51728C59.386 4.02497 61.6525 2.46005 63.9668 0.968999C64.3489 0.729085 64.7976 0.615582 65.2486 0.644748C68.9203 0.99529 72.5869 1.39591 76.256 1.77149C76.7269 1.82031 76.9322 1.99058 76.9347 2.51138C76.9498 6.306 76.9977 10.1006 77.0342 13.8952C77.0829 18.9422 77.1307 23.9883 77.1777 29.0336C77.2155 33.0398 77.2516 37.0431 77.286 41.0434C77.3339 46.819 77.3817 52.5946 77.4295 58.3702C77.4535 60.8928 77.4963 63.4155 77.5441 65.9381C77.5504 66.3951 77.6285 66.847 77.6839 67.4179Z" fill="white"/>
<path d="M19.4189 13.2529C20.9576 13.3869 22.3867 13.5259 23.8259 13.6285C24.8496 13.7036 25.8758 13.7537 26.902 13.7775C27.3225 13.7888 27.4459 13.9703 27.4384 14.3546C27.4132 15.5014 27.4195 16.6482 27.3893 17.7949C27.3654 18.64 27.3704 18.6713 28.185 18.7965C31.6137 19.3473 34.8698 20.3752 37.7709 22.3244C38.7014 22.9504 39.5488 23.7016 40.4982 24.4452L32.7406 32.9133C32.5631 31.5775 31.6074 30.9565 30.6907 30.5246C29.5764 29.9976 28.3147 29.7334 27.0909 29.4868C25.5635 29.1788 24.0349 29.2476 22.6385 30.0589C20.9525 31.0392 20.6831 33.329 22.0694 34.7349C23.117 35.799 24.4227 36.455 25.7549 37.0772C28.0856 38.1652 30.4893 39.1267 32.7142 40.3999C35.7487 42.1351 37.9787 44.6389 38.913 48.103C39.5274 50.3803 39.2731 52.6588 38.8097 54.9161C37.6765 60.4246 34.1509 63.8449 29.0236 65.8242C28.2819 66.1066 27.5253 66.349 26.7572 66.5503C26.3077 66.6692 26.0785 66.8457 26.0898 67.349C26.1188 68.5546 26.0999 69.7615 26.0999 71.0698L19.0764 71.4015V67.1224C18.864 67.1029 18.6501 67.105 18.438 67.1287C16.6752 67.5205 14.9792 67.0661 13.307 66.673C11.7658 66.3087 10.2045 65.8605 8.79425 65.1631C7.04278 64.2968 5.42856 63.1538 3.77657 62.0959C3.31446 61.8005 3.39128 61.4136 3.86597 60.8853C4.61391 60.0527 5.34294 59.2039 6.07954 58.3626L5.96874 58.2537C5.62877 58.6105 5.27873 58.9573 4.95136 59.3254C4.34193 60.0102 3.74634 60.7025 3.14447 61.3986C2.75792 61.8443 2.2807 61.8931 1.58691 61.7278L10.6603 51.6034C11.8326 52.456 12.9003 53.3374 14.0688 54.0585C15.8909 55.192 17.9737 55.8448 20.1202 55.9552C22.1009 56.0603 23.2051 55.3793 24.0236 53.5677C24.2288 53.1145 24.3472 52.6238 24.5134 52.1518C24.5839 51.9502 24.6733 51.7537 24.7954 51.4545C25.3671 52.1944 25.0951 52.9017 25.1052 53.5828C25.5106 52.9205 25.5283 52.1843 25.3847 51.4732C25.1329 50.2338 24.4265 49.3975 23.1749 48.908C21.3655 48.1982 19.5902 47.3832 17.8588 46.4993C15.2033 45.1422 12.5553 43.7451 10.3292 41.7207C8.15335 39.7451 6.91688 37.2725 6.64868 34.3418C6.59831 33.7872 6.5706 33.2301 6.4812 32.6779C6.26085 34.2103 6.52906 35.7139 6.68142 37.2725C6.52921 37.0517 6.3961 36.8184 6.28352 36.5752C4.81159 32.4226 5.35175 28.5215 7.89774 24.9397C9.94133 22.0603 12.8563 20.4716 16.2496 19.6666L19.5347 18.8841C19.468 18.3508 19.3685 17.8989 19.3622 17.4444C19.3471 16.1925 19.3698 14.9405 19.3837 13.6886C19.3872 13.5428 19.3989 13.3974 19.4189 13.2529Z" fill="white"/>
<path d="M18.6143 67.508C18.6143 67.9512 18.6143 68.3944 18.6143 68.8376C18.6143 69.5412 18.5967 70.246 18.6043 70.9496C18.6043 71.2939 18.5161 71.4704 18.0679 71.3089C18.127 70.0382 17.8853 68.7299 18.2731 67.4755L18.6143 67.508Z" fill="white"/>
</g>
<defs>
<clipPath id="clip0_263_507">
<rect width="78.0845" height="72" fill="white"/>
</clipPath>
</defs>
</svg>
