<svg width="230" height="91" viewBox="0 0 230 91" fill="none" xmlns="http://www.w3.org/2000/svg">
<g clip-path="url(#clip0_157_2107)">
<path d="M16.4579 4.92937L9.37839 25.3407C7.88397 29.6727 7.11823 34.2225 7.1123 38.805V75.1948H49.5725V78.1721H204.312C209.621 78.1721 230 78.6021 230 59.4975C230 49.3084 224.69 41.865 220.241 39.1193C215.146 35.9269 193.494 26.5813 193.494 26.5813L159.139 2.61367C156.767 0.942238 153.936 0.0465522 151.034 0.0498136H23.3223C21.8129 0.0488191 20.3407 0.51827 19.1104 1.3928C17.8801 2.26732 16.953 3.50347 16.4579 4.92937Z" fill="#FBDC28"/>
<g style="mix-blend-mode:overlay">
<path d="M213.327 74.0202C213.351 70.4645 212.622 66.944 211.188 63.6901C209.754 60.4363 207.647 57.523 205.007 55.1416C202.366 52.7603 199.251 50.965 195.867 49.8737C192.483 48.7825 188.906 48.4201 185.371 48.8104C181.837 49.2006 178.425 50.3346 175.361 52.1379C172.296 53.9411 169.648 56.3727 167.59 59.2728C165.533 62.1728 164.112 65.4756 163.423 68.9639C162.733 72.4522 162.79 76.0469 163.589 79.5118H212.682C213.1 77.7108 213.316 75.869 213.327 74.0202Z" fill="white"/>
</g>
<g style="mix-blend-mode:overlay">
<path d="M72.3163 72.9284C72.3404 69.3727 71.6114 65.8521 70.1773 62.5983C68.7433 59.3445 66.6367 56.4311 63.996 54.0498C61.3553 51.6685 58.2404 49.8732 54.8562 48.782C51.4719 47.6908 47.895 47.3283 44.3607 47.7186C40.8263 48.1088 37.4146 49.2428 34.35 51.0461C31.2853 52.8493 28.6371 55.2809 26.5795 58.1809C24.5219 61.081 23.1016 64.3838 22.412 67.8721C21.7223 71.3604 21.7789 74.9551 22.5781 78.42H71.6712C72.0973 76.6204 72.3137 74.7777 72.3163 72.9284Z" fill="white"/>
</g>
<g style="mix-blend-mode:overlay">
<path d="M206.231 40.7565L190.649 30.5674H7.97241C7.40856 33.2883 7.12041 36.0591 7.1123 38.8378V40.8227L206.231 40.7565Z" fill="white"/>
</g>
<path d="M201.666 59.0173C204.296 63.0367 205.255 73.5566 205.57 78.1219C212.186 78.1219 230 77.2783 230 59.4473C230.018 55.801 229.298 52.1889 227.883 48.8281H210.896C210.896 50.201 212.368 59.5135 201.666 59.0173Z" fill="#1E1E1E"/>
<path d="M209.837 40.7568V49.5896H228.214C229.057 48.101 226.857 41.1042 222.424 40.7734L209.837 40.7568Z" fill="#D7FFF0"/>
<path d="M207.984 73.7884C207.984 68.5242 205.893 63.4755 202.17 59.7531C198.448 56.0307 193.399 53.9395 188.135 53.9395C182.871 53.9395 177.822 56.0307 174.1 59.7531C170.377 63.4755 168.286 68.5242 168.286 73.7884C168.295 75.2476 168.467 76.7012 168.799 78.1221H207.405C207.768 76.7053 207.962 75.2507 207.984 73.7884Z" fill="#1E1E1E"/>
<path d="M162.596 4.96191H159.751L186.911 26.3161L193.494 26.5311L162.596 4.96191Z" fill="#1E1E1E"/>
<path d="M31.7414 65.3857H7.11219C0.495866 65.3857 -0.744695 76.4185 7.11219 76.4185H31.7414V65.3857Z" fill="#1E1E1E"/>
<path d="M66.9743 73.7884C66.9743 68.5242 64.8831 63.4755 61.1607 59.7531C57.4383 56.0307 52.3896 53.9395 47.1253 53.9395C41.8611 53.9395 36.8124 56.0307 33.09 59.7531C29.3676 63.4755 27.2764 68.5242 27.2764 73.7884C27.3028 74.6765 27.3968 75.5612 27.5575 76.435L66.5112 78.089C66.8218 76.6767 66.9771 75.2346 66.9743 73.7884Z" fill="#1E1E1E"/>
<path d="M27.292 76.4189L27.5566 76.452V76.4355L27.292 76.4189Z" fill="#1E1E1E"/>
<path d="M66.478 78.1225C66.4692 78.0956 66.4692 78.0667 66.478 78.0398L27.5244 76.3857L46.5794 78.0398L66.478 78.1225Z" fill="#1E1E1E"/>
<path d="M63.7984 73.7884C63.8017 77.0868 62.8266 80.312 60.9966 83.0561C59.1665 85.8001 56.5636 87.9397 53.5173 89.2042C50.471 90.4687 47.118 90.8012 43.8827 90.1597C40.6473 89.5183 37.6749 87.9316 35.3415 85.6005C33.0081 83.2694 31.4184 80.2986 30.7737 77.0638C30.1291 73.8291 30.4583 70.4758 31.7198 67.4282C32.9812 64.3807 35.1182 61.7757 37.8605 59.9429C40.6027 58.1101 43.827 57.1318 47.1253 57.1318C51.5444 57.1318 55.7828 58.8862 58.9091 62.0094C62.0355 65.1327 63.794 69.3693 63.7984 73.7884Z" fill="#1E1E1E"/>
<path opacity="0.56" d="M47.1244 61.3831C51.1787 61.3784 55.0954 62.8525 58.1405 65.5291C61.1856 68.2057 63.1499 71.9011 63.6652 75.9224C63.7571 75.2148 63.8068 74.5022 63.8141 73.7887C63.6777 69.4597 61.8622 65.3537 58.7518 62.3398C55.6414 59.3259 51.4803 57.6406 47.1492 57.6406C42.8181 57.6406 38.657 59.3259 35.5467 62.3398C32.4363 65.3537 30.6208 69.4597 30.4844 73.7887C30.4916 74.5022 30.5414 75.2148 30.6332 75.9224C31.1475 71.9096 33.1047 68.221 36.1393 65.5455C39.174 62.87 43.0787 61.3904 47.1244 61.3831Z" fill="#1E1E1E"/>
<path d="M57.8596 73.7888C57.8629 75.9127 57.2361 77.9898 56.0585 79.7573C54.8809 81.5248 53.2055 82.9034 51.2442 83.7184C49.2829 84.5335 47.124 84.7484 45.0405 84.336C42.957 83.9237 41.0427 82.9026 39.5397 81.402C38.0368 79.9013 37.0127 77.9885 36.5971 75.9057C36.1816 73.8229 36.3932 71.6636 37.2052 69.701C38.0172 67.7385 39.3932 66.0609 41.1589 64.8806C42.9246 63.7003 45.0008 63.0703 47.1246 63.0703C49.9689 63.0703 52.6968 64.199 54.7096 66.2087C56.7223 68.2183 57.8552 70.9445 57.8596 73.7888Z" fill="#F8FBFC"/>
<path opacity="0.28" d="M47.125 64.8237C49.8285 64.8285 52.4306 65.8532 54.4115 67.693C56.3924 69.5329 57.6062 72.0524 57.8103 74.7482C57.8103 74.4505 57.8103 74.1528 57.8103 73.855C57.8103 71.0036 56.6776 68.2688 54.6613 66.2525C52.645 64.2362 49.9103 63.1035 47.0588 63.1035C44.2073 63.1035 41.4726 64.2362 39.4563 66.2525C37.44 68.2688 36.3073 71.0036 36.3073 73.855C36.2908 74.1526 36.2908 74.4507 36.3073 74.7482C36.5091 72.0281 37.7404 69.4872 39.7503 67.6433C41.7602 65.7993 44.3975 64.791 47.125 64.8237Z" fill="#1E1E1E"/>
<path d="M53.4768 73.7882C53.4768 75.0444 53.1043 76.2725 52.4064 77.317C51.7084 78.3615 50.7164 79.1756 49.5558 79.6564C48.3952 80.1371 47.1181 80.2629 45.886 80.0178C44.6539 79.7727 43.5221 79.1678 42.6338 78.2795C41.7455 77.3912 41.1406 76.2594 40.8955 75.0273C40.6504 73.7952 40.7762 72.5181 41.257 71.3575C41.7377 70.1969 42.5518 69.2049 43.5963 68.507C44.6409 67.809 45.8689 67.4365 47.1251 67.4365C48.8097 67.4365 50.4252 68.1057 51.6164 69.2969C52.8076 70.488 53.4768 72.1036 53.4768 73.7882Z" fill="#8C8D9A"/>
<path opacity="0.48" d="M47.1251 70.5966C48.5332 70.6005 49.9 71.0721 51.0108 71.9374C52.1216 72.8027 52.9134 74.0126 53.2617 75.3768C53.4072 74.8376 53.4795 74.2813 53.4768 73.7228C53.4768 72.0382 52.8076 70.4226 51.6164 69.2314C50.4252 68.0403 48.8097 67.3711 47.1251 67.3711C45.4405 67.3711 43.8249 68.0403 42.6338 69.2314C41.4426 70.4226 40.7734 72.0382 40.7734 73.7228C40.7761 74.282 40.854 74.8384 41.005 75.3768C41.35 74.0139 42.1387 72.8044 43.2467 71.939C44.3547 71.0735 45.7192 70.6013 47.1251 70.5966Z" fill="#1E1E1E"/>
<path d="M204.808 73.7884C204.811 77.0868 203.836 80.312 202.006 83.0561C200.176 85.8001 197.573 87.9397 194.527 89.2042C191.481 90.4687 188.128 90.8012 184.892 90.1597C181.657 89.5183 178.685 87.9316 176.351 85.6005C174.018 83.2694 172.428 80.2986 171.783 77.0638C171.139 73.8291 171.468 70.4758 172.73 67.4282C173.991 64.3807 176.128 61.7757 178.87 59.9429C181.612 58.1101 184.837 57.1318 188.135 57.1318C192.554 57.1318 196.793 58.8862 199.919 62.0094C203.045 65.1327 204.804 69.3693 204.808 73.7884Z" fill="#1E1E1E"/>
<path opacity="0.56" d="M188.135 61.3831C192.188 61.3819 196.103 62.8573 199.148 65.5333C202.192 68.2092 204.157 71.9025 204.676 75.9224C204.768 75.2148 204.818 74.5022 204.825 73.7887C204.688 69.4597 202.873 65.3537 199.763 62.3398C196.652 59.3259 192.491 57.6406 188.16 57.6406C183.829 57.6406 179.668 59.3259 176.557 62.3398C173.447 65.3537 171.632 69.4597 171.495 73.7887C171.502 74.5022 171.552 75.2148 171.644 75.9224C172.158 71.9096 174.115 68.221 177.15 65.5455C180.185 62.87 184.089 61.3904 188.135 61.3831Z" fill="#1E1E1E"/>
<path d="M198.854 73.7888C198.854 75.9087 198.225 77.981 197.048 79.7436C195.87 81.5063 194.196 82.8801 192.237 83.6913C190.279 84.5026 188.124 84.7148 186.044 84.3012C183.965 83.8877 182.055 82.8669 180.556 81.3679C179.057 79.8689 178.037 77.959 177.623 75.8799C177.209 73.8007 177.422 71.6455 178.233 69.687C179.044 67.7285 180.418 66.0544 182.181 64.8767C183.943 63.6989 186.016 63.0703 188.135 63.0703C190.978 63.0703 193.704 64.1996 195.715 66.2097C197.725 68.2198 198.854 70.9461 198.854 73.7888Z" fill="#F8FBFC"/>
<path opacity="0.28" d="M188.136 64.8237C190.839 64.8285 193.441 65.8532 195.422 67.693C197.403 69.5329 198.617 72.0524 198.821 74.7482C198.821 74.4505 198.821 74.1528 198.821 73.855C198.821 71.0036 197.688 68.2688 195.672 66.2525C193.656 64.2362 190.921 63.1035 188.07 63.1035C185.218 63.1035 182.483 64.2362 180.467 66.2525C178.451 68.2688 177.318 71.0036 177.318 73.855C177.302 74.1526 177.302 74.4507 177.318 74.7482C177.52 72.0281 178.751 69.4872 180.761 67.6433C182.771 65.7993 185.408 64.791 188.136 64.8237Z" fill="#1E1E1E"/>
<path d="M188.135 80.1399C191.643 80.1399 194.487 77.2961 194.487 73.7882C194.487 70.2803 191.643 67.4365 188.135 67.4365C184.627 67.4365 181.783 70.2803 181.783 73.7882C181.783 77.2961 184.627 80.1399 188.135 80.1399Z" fill="#8C8D9A"/>
<path opacity="0.48" d="M188.135 70.5966C189.543 70.6005 190.91 71.0721 192.021 71.9374C193.131 72.8027 193.923 74.0126 194.271 75.3768C194.417 74.8376 194.489 74.2813 194.487 73.7228C194.487 72.0382 193.817 70.4226 192.626 69.2314C191.435 68.0403 189.819 67.3711 188.135 67.3711C186.45 67.3711 184.835 68.0403 183.644 69.2314C182.452 70.4226 181.783 72.0382 181.783 73.7228C181.789 74.2807 181.862 74.8359 181.998 75.3768C182.347 74.0126 183.138 72.8027 184.249 71.9374C185.36 71.0721 186.727 70.6005 188.135 70.5966Z" fill="#1E1E1E"/>
<g style="mix-blend-mode:overlay">
<path d="M159.668 68.2637H75.9717V71.7207H159.668V68.2637Z" fill="white"/>
</g>
<path d="M159.668 66.7256H75.9717V68.2639H159.668V66.7256Z" fill="#F9AF2B"/>
<g style="mix-blend-mode:overlay">
<path d="M151.167 7.07951C155.169 6.07052 158.726 0.115846 151.167 0.0166016C147.23 0.0166016 151.067 0.0166016 151.018 0.0166016H23.3226C21.803 0.021496 20.3234 0.502938 19.0919 1.39315C17.8604 2.28337 16.9392 3.53749 16.4581 4.97885L15.6973 7.16224L151.167 7.07951Z" fill="white"/>
</g>
<path d="M28.1197 29.3928C27.4804 29.3782 26.8523 29.2223 26.2803 28.9364C25.7084 28.6504 25.2068 28.2414 24.8116 27.7387C24.4049 27.2385 24.1164 26.653 23.9675 26.0258C23.8185 25.3986 23.8131 24.7459 23.9515 24.1163L27.3424 8.13783C27.5498 7.17178 28.0811 6.30558 28.8482 5.68285C29.6153 5.06013 30.5722 4.71825 31.5602 4.71387H58.3564C58.9247 4.71386 59.4874 4.82611 60.0123 5.0441C60.5371 5.26209 61.0138 5.58152 61.4149 5.98416C61.816 6.3868 62.1337 6.8647 62.3496 7.39039C62.5656 7.91608 62.6757 8.47923 62.6735 9.04755V25.0095C62.6735 26.1545 62.2186 27.2525 61.409 28.0621C60.5994 28.8717 59.5014 29.3266 58.3564 29.3266L28.1197 29.3928Z" fill="#BAE8D6"/>
<path d="M58.3061 5.95517C59.1383 5.95951 59.9351 6.29205 60.5236 6.88049C61.112 7.46893 61.4446 8.26574 61.4489 9.09791V25.0763C61.4489 25.9114 61.1183 26.7125 60.5294 27.3045C59.9405 27.8965 59.1411 28.2313 58.3061 28.2356H28.1191C27.6499 28.2363 27.1865 28.1319 26.7629 27.93C26.3393 27.7281 25.9663 27.4339 25.6712 27.0691C25.3762 26.7042 25.1665 26.2779 25.0578 25.8215C24.949 25.365 24.9438 24.89 25.0426 24.4313L28.4334 8.45285C28.5871 7.74942 28.9754 7.11912 29.5344 6.6653C30.0934 6.21148 30.79 5.96107 31.51 5.95517H58.3061ZM58.3061 3.6064H31.51C30.2516 3.61005 29.0327 4.04575 28.0571 4.84065C27.0815 5.63556 26.4086 6.74141 26.1508 7.97315L22.7434 23.935C22.5761 24.7344 22.5892 25.561 22.7818 26.3546C22.9743 27.1482 23.3415 27.8889 23.8565 28.5228C24.3714 29.1566 25.0213 29.6676 25.7587 30.0185C26.4961 30.3694 27.3025 30.5514 28.1191 30.5513H58.3061C59.7626 30.5513 61.1594 29.9728 62.1892 28.9429C63.2191 27.9131 63.7977 26.5163 63.7977 25.0598V9.08141C63.7977 7.62496 63.2191 6.22816 62.1892 5.19829C61.1594 4.16843 59.7626 3.58984 58.3061 3.58984V3.6064Z" fill="#4D4D4D"/>
<path d="M118.382 4.78027H74.1687C71.7844 4.78027 69.8516 6.71313 69.8516 9.09743V25.0758C69.8516 27.4601 71.7844 29.393 74.1687 29.393H118.382C120.767 29.393 122.699 27.4601 122.699 25.0758V9.09743C122.699 6.71313 120.767 4.78027 118.382 4.78027Z" fill="#BAE8D6"/>
<path d="M118.383 5.95521C119.215 5.95956 120.012 6.29209 120.6 6.88053C121.189 7.46898 121.521 8.26579 121.526 9.09796V25.0764C121.526 25.9114 121.195 26.7125 120.606 27.3045C120.017 27.8965 119.218 28.2313 118.383 28.2357H74.1693C73.3343 28.2313 72.535 27.8965 71.946 27.3045C71.3571 26.7125 71.0265 25.9114 71.0265 25.0764V9.09796C71.0309 8.26579 71.3634 7.46898 71.9518 6.88053C72.5403 6.29209 73.3372 5.95956 74.1693 5.95521H118.383ZM118.383 3.60645H74.1693C72.7129 3.60645 71.3161 4.18498 70.2862 5.21484C69.2563 6.24471 68.6778 7.64151 68.6778 9.09796V25.0764C68.6756 25.7982 68.8161 26.5132 69.0913 27.1805C69.3665 27.8477 69.7709 28.454 70.2813 28.9644C70.7917 29.4748 71.3979 29.8792 72.0652 30.1544C72.7324 30.4296 73.4475 30.5701 74.1693 30.5679H118.383C119.839 30.5679 121.236 29.9894 122.266 28.9595C123.296 27.9296 123.874 26.5328 123.874 25.0764V9.09796C123.874 7.64151 123.296 6.24471 122.266 5.21484C121.236 4.18498 119.839 3.60645 118.383 3.60645Z" fill="#4D4D4D"/>
<path d="M133.782 29.4425C132.703 29.4425 131.668 29.0138 130.905 28.2507C130.142 27.4876 129.713 26.4526 129.713 25.3734V8.8326C129.713 7.7519 130.141 6.71524 130.904 5.94952C131.666 5.1838 132.701 4.75145 133.782 4.74707H149.314C150.247 4.74719 151.153 5.06838 151.878 5.65679L171.131 21.1886C171.603 21.5718 171.984 22.056 172.244 22.6056C172.505 23.1552 172.639 23.7562 172.636 24.3644V25.3404C172.636 26.4195 172.208 27.4545 171.445 28.2176C170.681 28.9807 169.646 29.4094 168.567 29.4094L133.782 29.4425Z" fill="#BAE8D6"/>
<path d="M149.314 5.95503C149.985 5.94859 150.638 6.17022 151.166 6.58359L170.403 22.1154C170.743 22.3875 171.017 22.7323 171.206 23.1245C171.395 23.5166 171.494 23.9462 171.495 24.3815V25.3574C171.495 26.1295 171.188 26.87 170.642 27.4159C170.096 27.9619 169.356 28.2686 168.584 28.2686H133.848C133.466 28.2686 133.089 28.1932 132.736 28.0467C132.384 27.9002 132.064 27.6855 131.795 27.4149C131.526 27.1444 131.313 26.8233 131.169 26.4702C131.024 26.1171 130.951 25.7389 130.953 25.3574V8.81661C130.951 8.43509 131.024 8.05691 131.169 7.70381C131.313 7.3507 131.526 7.0296 131.795 6.75905C132.064 6.4885 132.384 6.27381 132.736 6.12731C133.089 5.98081 133.466 5.9054 133.848 5.90541H149.38M149.38 3.55664H133.848C132.456 3.56102 131.122 4.11709 130.139 5.10305C129.156 6.08901 128.604 7.42443 128.604 8.81661V25.3574C128.604 26.046 128.74 26.7278 129.004 27.364C129.267 28.0002 129.653 28.5782 130.14 29.0651C130.627 29.552 131.205 29.9382 131.841 30.2017C132.478 30.4652 133.159 30.6008 133.848 30.6008H168.584C169.974 30.6008 171.308 30.0484 172.291 29.0651C173.275 28.0817 173.827 26.7481 173.827 25.3574V24.3815C173.829 23.5978 173.654 22.8236 173.317 22.1164C172.979 21.4092 172.486 20.787 171.875 20.2959L152.638 4.76409C151.703 4.00415 150.535 3.58945 149.33 3.5897L149.38 3.55664Z" fill="#4D4D4D"/>
<path d="M168.534 30.6174V17.1201L176.987 25.3905C177.408 25.8096 177.695 26.3439 177.813 26.9261C177.931 27.5084 177.875 28.1125 177.65 28.6625C177.425 29.2125 177.043 29.6837 176.551 30.0169C176.059 30.35 175.48 30.5302 174.886 30.5347L168.534 30.6174Z" fill="#1E1E1E"/>
<path d="M172.389 17.1201H164.681V27.7724H172.389V17.1201Z" fill="#F6DA27"/>
<path d="M126.157 7.0791V76.4182" stroke="#F4CE2F" stroke-miterlimit="10"/>
<path d="M66.5107 7.0791V53.9392" stroke="#F4CE2F" stroke-miterlimit="10"/>
<g style="mix-blend-mode:overlay">
<path d="M40.2436 3.60645L25.1914 29.7409C26.0611 30.312 27.0787 30.6167 28.1191 30.6176H29.7732L45.3381 3.65607L40.2436 3.60645Z" fill="white"/>
</g>
<g style="mix-blend-mode:overlay">
<path d="M34.8184 30.5679H44.6601L60.0431 3.92072C59.485 3.72273 58.8984 3.61659 58.3063 3.60645H50.3833L34.8184 30.5679Z" fill="white"/>
</g>
<g style="mix-blend-mode:overlay">
<path d="M88.3113 3.60645L72.8291 30.4191C73.2476 30.5113 73.6743 30.5612 74.1027 30.5679H77.8906L93.4554 3.60645H88.3113Z" fill="white"/>
</g>
<g style="mix-blend-mode:overlay">
<path d="M106.01 30.5679L121.129 4.38387C120.301 3.88133 119.352 3.61266 118.383 3.60645H116.431L100.866 30.5679H106.01Z" fill="white"/>
</g>
<g style="mix-blend-mode:overlay">
<path d="M84.4414 30.568H94.2832L109.848 3.60645H100.006L84.4414 30.568Z" fill="white"/>
</g>
<g style="mix-blend-mode:overlay">
<path d="M149.314 3.60645H147.263L131.88 30.2537C132.486 30.4917 133.131 30.6151 133.782 30.6176H136.826L151.994 4.35075C151.184 3.86521 150.258 3.60802 149.314 3.60645Z" fill="white"/>
</g>
<g style="mix-blend-mode:overlay">
<path d="M141.821 30.6175H151.663L162.15 12.4557L155.434 7.04688L141.821 30.6175Z" fill="white"/>
</g>
<path d="M23.918 40.7568H179.699" stroke="#F9AF2B" stroke-miterlimit="10"/>
<g style="mix-blend-mode:overlay">
<path d="M120.913 41.6006H112.411V45.7192H120.913V41.6006Z" fill="white"/>
</g>
<path d="M120.913 38.375H112.411V41.6005H120.913V38.375Z" fill="#F9AF2B"/>
<g style="mix-blend-mode:overlay">
<path d="M140.911 41.6006H132.409V45.7192H140.911V41.6006Z" fill="white"/>
</g>
<path d="M140.911 38.375H132.409V41.6005H140.911V38.375Z" fill="#F9AF2B"/>
<g style="mix-blend-mode:overlay">
<path d="M167.178 17.1201H164.681V27.7724H167.178V17.1201Z" fill="white"/>
</g>
<g style="mix-blend-mode:overlay">
<path d="M172.389 17.1201H164.681V19.1546H172.389V17.1201Z" fill="white"/>
</g>
<path d="M172.388 17.1201H170.155V27.7889H172.388V17.1201Z" fill="#F4CE2F"/>
<path d="M216.503 40.7568H209.837V49.5731H216.503V40.7568Z" fill="#C7CDD7"/>
<g style="mix-blend-mode:overlay">
<path d="M211.044 44.3625H227.089C226.621 43.4861 226.005 42.697 225.269 42.0303H211.044V44.3625Z" fill="white"/>
</g>
<g style="mix-blend-mode:overlay">
<path d="M24.9271 70.0006H1.24067C1.07636 70.0006 0.913684 69.968 0.762084 69.9046C0.610484 69.8413 0.473015 69.7484 0.357599 69.6315C0.242184 69.5145 0.151123 69.3758 0.0897602 69.2233C0.0283978 69.0709 -0.00208059 68.9078 0.000110259 68.7435C0.000110259 68.4145 0.130855 68.099 0.363505 67.8663C0.596156 67.6337 0.911654 67.5029 1.24067 67.5029H24.9271C25.2561 67.5029 25.5717 67.6337 25.8043 67.8663C26.037 68.099 26.1677 68.4145 26.1677 68.7435C26.1699 68.9078 26.1394 69.0709 26.078 69.2233C26.0167 69.3758 25.9257 69.5145 25.8102 69.6315C25.6948 69.7484 25.5573 69.8413 25.4057 69.9046C25.2541 69.968 25.0914 70.0006 24.9271 70.0006Z" fill="white"/>
</g>
</g>
<defs>
<clipPath id="clip0_157_2107">
<rect width="230" height="90.4617" fill="white"/>
</clipPath>
</defs>
</svg>
