<svg width="230" height="85" viewBox="0 0 230 85" fill="none" xmlns="http://www.w3.org/2000/svg">
<g clip-path="url(#clip0_157_1915)">
<path d="M176.615 67.0925C176.526 64.1494 177.053 61.2201 178.163 58.4929C179.273 55.7656 180.941 53.3008 183.061 51.2569C185.18 49.2129 187.704 47.635 190.47 46.6245C193.235 45.6141 196.182 45.1935 199.12 45.3897C202.058 45.5859 204.922 46.3946 207.529 47.7639C210.136 49.1332 212.427 51.0327 214.256 53.3404C216.085 55.648 217.41 58.3128 218.148 61.1634C218.886 64.0141 219.018 66.9874 218.538 69.8925L177.123 71.6002C176.79 70.1207 176.619 68.6091 176.615 67.0925Z" fill="#1E1E1E"/>
<path d="M218.815 69.8926L218.538 69.9233V69.908L218.815 69.8926Z" fill="#1E1E1E"/>
<path d="M177.153 71.6926C177.147 71.6622 177.147 71.6307 177.153 71.6003L218.569 69.8926L198.323 71.6926H177.153Z" fill="#1E1E1E"/>
<path d="M217.846 62.0923H226.153C230.769 62.0923 231.723 69.9076 226.153 69.9076H217.846V62.0923Z" fill="#955348"/>
<path d="M229.661 64.5537C229.959 65.1323 230.099 65.7796 230.065 66.4296C230.031 67.0797 229.825 67.7091 229.468 68.2535C229.112 68.798 228.617 69.2379 228.034 69.5285C227.452 69.8192 226.803 69.95 226.153 69.9076H217.846V66.6152H226.153C226.879 66.6765 227.607 66.5112 228.235 66.142C228.863 65.7728 229.361 65.2179 229.661 64.5537Z" fill="#7C443D"/>
<path d="M7.32252 37.5542C5.41483 37.5542 1.27637 37.6619 1.27637 41.8004V46.4158C1.27637 47.7388 2.90713 49.4927 5.56867 49.4927H7.32252V37.5542Z" fill="#FECE05"/>
<path d="M220.354 37.2617C222.6 37.2617 227.492 37.4002 227.492 42.2925V47.8002C227.492 49.3387 225.569 51.4156 222.415 51.4156H220.354V37.2617Z" fill="#FECE05"/>
<path d="M180 67.0925C179.997 70.5984 181.034 74.0265 182.979 76.943C184.925 79.8596 187.692 82.1336 190.93 83.4774C194.168 84.8212 197.732 85.1743 201.171 84.4922C204.61 83.8101 207.77 82.1234 210.25 79.6454C212.73 77.1674 214.419 74.0095 215.104 70.5711C215.79 67.1327 215.44 63.5684 214.099 60.3291C212.758 57.0897 210.486 54.3208 207.571 52.3727C204.656 50.4246 201.229 49.3848 197.723 49.3848C193.025 49.3848 188.52 51.2499 185.196 54.5703C181.873 57.8907 180.004 62.3947 180 67.0925Z" fill="#1E1E1E"/>
<path opacity="0.56" d="M197.723 53.8923C193.415 53.8912 189.254 55.4607 186.02 58.3068C182.786 61.1529 180.7 65.0805 180.154 69.3538C180.056 68.6039 180.004 67.8486 180 67.0923C180.266 62.5804 182.246 58.3407 185.535 55.2403C188.824 52.1399 193.173 50.4131 197.692 50.4131C202.212 50.4131 206.561 52.1399 209.85 55.2403C213.138 58.3407 215.118 62.5804 215.385 67.0923C215.38 67.8486 215.329 68.6039 215.231 69.3538C214.686 65.091 212.609 61.1718 209.388 58.3271C206.166 55.4823 202.021 53.9061 197.723 53.8923Z" fill="#1E1E1E"/>
<path d="M186.322 67.0924C186.322 69.3471 186.991 71.5511 188.244 73.4259C189.496 75.3006 191.277 76.7618 193.36 77.6246C195.443 78.4875 197.735 78.7132 199.946 78.2733C202.158 77.8335 204.189 76.7477 205.783 75.1534C207.378 73.5591 208.463 71.5278 208.903 69.3164C209.343 67.105 209.117 64.8129 208.254 62.7298C207.392 60.6467 205.93 58.8663 204.056 57.6136C202.181 56.361 199.977 55.6924 197.722 55.6924C194.699 55.6924 191.799 56.8934 189.661 59.0313C187.523 61.1692 186.322 64.0689 186.322 67.0924Z" fill="#F8FBFC"/>
<path opacity="0.28" d="M197.723 57.5542C194.86 57.5528 192.101 58.6304 189.997 60.5721C187.893 62.5138 186.597 65.177 186.369 68.0311C186.353 67.7185 186.353 67.4053 186.369 67.0927C186.313 65.5614 186.566 64.0345 187.113 62.6032C187.66 61.1719 188.49 59.8656 189.554 58.7624C190.617 57.6591 191.892 56.7816 193.302 56.1822C194.713 55.5829 196.229 55.2739 197.762 55.2739C199.294 55.2739 200.81 55.5829 202.221 56.1822C203.631 56.7816 204.906 57.6591 205.969 58.7624C207.033 59.8656 207.863 61.1719 208.41 62.6032C208.957 64.0345 209.21 65.5614 209.154 67.0927C209.17 67.4053 209.17 67.7185 209.154 68.0311C208.921 65.1651 207.614 62.4928 205.494 60.5499C203.374 58.607 200.598 57.537 197.723 57.5542Z" fill="#1E1E1E"/>
<path d="M190.969 67.0923C190.969 68.428 191.365 69.7338 192.107 70.8445C192.849 71.9551 193.904 72.8208 195.138 73.332C196.372 73.8432 197.73 73.9769 199.04 73.7163C200.35 73.4557 201.554 72.8125 202.498 71.8679C203.443 70.9234 204.086 69.72 204.347 68.4099C204.607 67.0998 204.474 65.7418 203.962 64.5077C203.451 63.2736 202.586 62.2187 201.475 61.4766C200.364 60.7345 199.058 60.3384 197.723 60.3384C196.835 60.3364 195.956 60.5097 195.136 60.8484C194.315 61.1871 193.57 61.6845 192.942 62.312C192.315 62.9396 191.817 63.6849 191.479 64.5053C191.14 65.3256 190.967 66.2048 190.969 67.0923Z" fill="#8C8D9A"/>
<path opacity="0.48" d="M197.723 63.6924C196.226 63.6941 194.772 64.194 193.591 65.1132C192.41 66.0325 191.569 67.3189 191.2 68.7694C190.931 67.7726 190.897 66.7273 191.1 65.7152C191.303 64.7032 191.737 63.7517 192.369 62.9353C193.001 62.1189 193.813 61.4598 194.741 61.0093C195.67 60.5588 196.69 60.3293 197.723 60.3386C198.758 60.3189 199.783 60.5418 200.716 60.9894C201.65 61.4371 202.465 62.0971 203.098 62.9165C203.73 63.736 204.162 64.6922 204.359 65.7085C204.556 66.7249 204.512 67.7731 204.23 68.7694C203.862 67.3214 203.023 66.037 201.845 65.1179C200.667 64.1989 199.217 63.6975 197.723 63.6924Z" fill="#1E1E1E"/>
<path d="M105.185 70.2308V5.26156C105.185 2.18464 108.631 0 111.723 0H139.415C144.508 0 147.954 2.72307 152.677 9.07691C154.846 12.1538 162.292 23.0462 162.292 23.0462C176.631 23.2308 208.569 22.1385 213.461 35.1077C218.077 35.5692 222.354 36.2923 222.354 41.5539V65.1539C221.815 67.5077 218.723 66.9693 217.908 64.7846C217.231 62.0616 215.323 47.7692 197.492 47.7692C185.646 47.7692 178.169 57.1692 176.938 66.8308C176.538 71.4462 172.323 73.6308 163.738 72.6769C161.901 72.3006 160.188 71.4702 158.754 70.2616L105.185 70.2308Z" fill="#58B08E"/>
<path d="M105.184 70.3387V27.9849H2.64551V33.7848H6.09166V65.0002H69.0917C69.8147 67.7233 71.2609 72.2618 77.984 70.2618L105.184 70.3387Z" fill="#58B08E"/>
<g style="mix-blend-mode:overlay" opacity="0.35">
<path d="M127.846 32.5234H116.907V35.9081H127.846V32.5234Z" fill="white"/>
</g>
<path d="M126.123 34.0924H118.615C118.162 34.0924 117.728 33.9125 117.407 33.5922C117.087 33.272 116.907 32.8376 116.907 32.3847C116.907 31.9304 117.087 31.4944 117.406 31.1717C117.726 30.849 118.161 30.6657 118.615 30.6616H126.123C126.58 30.6616 127.018 30.8432 127.341 31.1663C127.664 31.4895 127.846 31.9277 127.846 32.3847C127.842 32.839 127.658 33.2734 127.336 33.5932C127.013 33.913 126.577 34.0924 126.123 34.0924Z" fill="#7C443D"/>
<path d="M105.2 33.7847H6.10742V35.1847H105.2V33.7847Z" fill="#398E6B"/>
<g style="mix-blend-mode:overlay" opacity="0.35">
<path d="M105.2 29.2461H2.66113V30.6615H105.2V29.2461Z" fill="white"/>
</g>
<path opacity="0.3" d="M158.985 61.1846C158.41 64.1783 158.353 67.2484 158.815 70.2615H105.185V61.2154L158.985 61.1846Z" fill="#1E1E1E"/>
<path opacity="0.3" d="M79.138 61.1846H105.184V70.3384H77.9688C78.5995 68.9846 79.9534 63.4615 79.138 61.1846Z" fill="#1E1E1E"/>
<path opacity="0.3" d="M111.445 26.0768H158.491L148.953 15.4307L111.445 18.9537V26.0768Z" fill="#1E1E1E"/>
<path d="M153.491 22.4155L145.476 10.1078C143.938 7.63085 139.645 5.13853 134.199 5.13853H116.122C114.993 5.06135 113.879 5.42835 113.017 6.16124C112.154 6.89414 111.613 7.93495 111.507 9.06163V20.4308C111.69 21.3997 112.215 22.2709 112.985 22.8862C113.756 23.5015 114.721 23.8203 115.707 23.7847H154.522L153.491 22.4155Z" fill="#BAE8D6"/>
<g style="mix-blend-mode:overlay" opacity="0.35">
<path d="M111.445 26.0771H167.753C175.23 26.0771 196.199 26.4464 202.584 30.6925H111.445V26.0771Z" fill="white"/>
</g>
<path d="M113.031 25.6157C111.492 26.8465 111.492 28.4772 111.492 32.4311V59.6465C111.492 61.5542 111.307 64.2619 113.031 64.5542" stroke="#398E6B" stroke-width="0.71" stroke-miterlimit="10"/>
<path d="M155.246 25.6157C156.785 26.8465 156.785 28.4772 156.785 32.4311V59.6465C156.785 61.5542 156.954 64.2619 155.246 64.5542" stroke="#398E6B" stroke-width="0.71" stroke-miterlimit="10"/>
<g style="mix-blend-mode:overlay" opacity="0.35">
<path d="M154.107 25.6157C155.646 26.8465 155.646 28.4772 155.646 32.4311V59.6465C155.646 61.5542 155.815 64.2619 154.107 64.5542" stroke="white" stroke-width="0.71" stroke-miterlimit="10"/>
</g>
<g style="mix-blend-mode:overlay" opacity="0.35">
<path d="M114.199 25.6157C112.661 26.8465 112.661 28.4772 112.661 32.4311V59.6465C112.661 61.5542 112.476 64.2619 114.199 64.5542" stroke="white" stroke-width="0.71" stroke-miterlimit="10"/>
</g>
<path d="M158.507 43.6772H79.8301V45.0772H158.507V43.6772Z" fill="#398E6B"/>
<g style="mix-blend-mode:overlay" opacity="0.35">
<path d="M158.507 42.2617H79.8301V43.6771H158.507V42.2617Z" fill="white"/>
</g>
<path d="M150.492 13.4463H152.6C153.054 13.4462 153.504 13.5365 153.924 13.7118C154.343 13.8871 154.723 14.1439 155.042 14.4674C155.361 14.7909 155.613 15.1746 155.783 15.5961C155.953 16.0177 156.037 16.4688 156.031 16.9232V26.154H150.492V13.4463Z" fill="#955348"/>
<path d="M152.584 13.4154H150.63C151.08 13.4154 151.527 13.5041 151.943 13.6765C152.359 13.849 152.737 14.1017 153.056 14.4202C153.374 14.7388 153.627 15.117 153.8 15.5333C153.972 15.9495 154.061 16.3957 154.061 16.8462V26.077H156.091V16.8462C156.092 16.3891 156 15.9366 155.823 15.5153C155.646 15.0939 155.386 14.7122 155.06 14.3926C154.733 14.073 154.345 13.822 153.92 13.6542C153.495 13.4863 153.041 13.4052 152.584 13.4154Z" fill="#7C443D"/>
<g style="mix-blend-mode:overlay" opacity="0.35">
<path d="M147.676 3.29247H105.691C106.331 2.2736 107.221 1.43586 108.277 0.859423C109.333 0.282991 110.519 -0.0128703 111.722 0.000141892H139.414C142.494 -0.0317923 145.462 1.1511 147.676 3.29247Z" fill="white"/>
</g>
<path d="M14.0305 57.7388H6.10742V61.9542H14.0305V57.7388Z" fill="#398E6B"/>
<path d="M222.415 41.5541V65.1541C221.877 67.5079 218.785 66.9695 217.969 64.7848C217.292 62.0618 215.385 47.7694 197.554 47.7694C185.708 47.7694 178.231 57.1694 177 66.831C176.6 71.4464 172.385 73.631 163.8 72.6771C161.963 72.3008 160.249 71.4704 158.815 70.2618C158.538 68.031 158.231 63.5694 158.923 61.5848C158.923 58.9541 158.923 51.3233 161.138 46.4464C166.369 34.1387 201.569 35.4156 209.554 35.4156C210.883 35.415 212.21 35.3122 213.523 35.1079C218.061 35.5694 222.415 36.2925 222.415 41.5541Z" fill="#58B08E"/>
<g style="mix-blend-mode:overlay" opacity="0.35">
<path d="M218.446 65.6157C218.251 65.3608 218.091 65.0816 217.969 64.7849C217.969 64.5234 217.83 64.1388 217.723 63.6772C218.015 64.3542 218.323 65.0003 218.446 65.6157Z" fill="white"/>
</g>
<g style="mix-blend-mode:overlay" opacity="0.35">
<path d="M158.923 61.5848C158.923 58.9541 158.923 51.3233 161.138 46.4464C166.369 34.1387 201.569 35.4156 209.554 35.4156C210.883 35.415 212.21 35.3122 213.523 35.1079C218.138 35.5694 222.415 36.2925 222.415 41.5541V42.231C220.754 40.6002 217.938 40.2002 215.031 39.9079C213.717 40.1122 212.39 40.2151 211.061 40.2156C203.077 40.2156 167.877 38.9694 162.646 51.2464C160.431 56.1233 160.431 63.7387 160.431 66.3695C160.044 67.9173 159.909 69.5172 160.031 71.1079C159.661 70.8617 159.261 70.6002 158.815 70.2618C158.538 68.031 158.231 63.5694 158.923 61.5848Z" fill="white"/>
</g>
<g style="mix-blend-mode:overlay" opacity="0.35">
<path d="M13.9992 55.5693C13.9992 40.677 25.8761 36.6001 32.3222 36.6001H61.3992C76.553 36.6001 79.1838 44.4924 79.1838 48.4001V62.7385C79.1838 64.3693 79.5992 66.5386 78.6915 68.1847C78.5684 68.6155 78.2761 69.4616 77.9838 70.2616C77.3127 70.4738 76.6221 70.6181 75.9223 70.6924V70.5386C76.753 69.0001 76.3684 67.0463 76.3684 65.554V52.4462C76.3684 48.877 73.9684 41.677 60.1069 41.677H33.5376C27.6453 41.677 16.7684 45.4155 16.7684 59.0308C16.6614 61.0311 16.7025 63.0366 16.8915 65.0308H14.4453C14.0066 61.8974 13.8572 58.7302 13.9992 55.5693Z" fill="white"/>
</g>
<path d="M28.0611 61.9541H3.83034C-0.785049 61.9541 -1.72351 69.7695 3.83034 69.7695H28.0611V61.9541Z" fill="#955348"/>
<path d="M3.83033 66.6157H28.0611V69.7696H3.83033C3.18849 69.8119 2.54682 69.6844 1.96991 69.3999C1.393 69.1155 0.901219 68.6841 0.544057 68.1491C0.186895 67.6141 -0.0230386 66.9945 -0.0646099 66.3526C-0.106181 65.7107 0.0220774 65.0692 0.307253 64.4927C0.598113 65.171 1.09465 65.7408 1.72678 66.1218C2.35891 66.5027 3.09471 66.6754 3.83033 66.6157Z" fill="#7C443D"/>
<g style="mix-blend-mode:overlay">
<path d="M16.4303 63.4614H0.876413C0.485903 63.9851 0.217787 64.5897 0.0917969 65.2306H16.4303C16.6448 65.2023 16.8417 65.0969 16.9844 64.9342C17.127 64.7715 17.2057 64.5625 17.2057 64.3461C17.2057 64.1297 17.127 63.9206 16.9844 63.7579C16.8417 63.5951 16.6448 63.4898 16.4303 63.4614Z" fill="white"/>
</g>
<path d="M26.8765 67.0925C26.776 64.1432 27.295 61.2055 28.4 58.4692C29.5051 55.7329 31.1716 53.2587 33.2921 51.2064C35.4125 49.154 37.9398 47.5691 40.7107 46.5539C43.4816 45.5387 46.4346 45.1159 49.3791 45.3126C52.3236 45.5093 55.194 46.3213 57.8053 47.6961C60.4165 49.0708 62.7105 50.9778 64.539 53.2941C66.3676 55.6103 67.6902 58.2842 68.4214 61.1432C69.1526 64.0022 69.2762 66.9827 68.7842 69.8925L27.3688 71.6002C27.0481 70.1189 26.8831 68.6081 26.8765 67.0925Z" fill="#1E1E1E"/>
<path d="M69.0765 69.8926L68.7842 69.9233V69.908L69.0765 69.8926Z" fill="#1E1E1E"/>
<path d="M27.3994 71.6926C27.4061 71.6622 27.4061 71.6307 27.3994 71.6003L68.8148 69.8926L48.5533 71.6772L27.3994 71.6926Z" fill="#1E1E1E"/>
<path d="M30.2461 67.0925C30.2431 70.5984 31.2799 74.0265 33.2255 76.943C35.1711 79.8596 37.938 82.1336 41.1762 83.4774C44.4144 84.8212 47.9784 85.1743 51.4173 84.4922C54.8563 83.8101 58.0157 82.1234 60.4958 79.6454C62.976 77.1674 64.6655 74.0095 65.3506 70.5711C66.0357 67.1327 65.6856 63.5684 64.3446 60.3291C63.0037 57.0897 60.7321 54.3208 57.8172 52.3727C54.9023 50.4246 51.4751 49.3848 47.9692 49.3848C43.2714 49.3848 38.7658 51.2499 35.4425 54.5703C32.1192 57.8907 30.2502 62.3947 30.2461 67.0925Z" fill="#1E1E1E"/>
<path opacity="0.56" d="M47.9692 53.8923C43.6637 53.8949 39.5066 55.4661 36.2758 58.3119C33.0449 61.1577 30.9615 65.0831 30.4153 69.3538C30.3119 68.6042 30.2554 67.8489 30.2461 67.0923C30.5123 62.5804 32.4923 58.3407 35.781 55.2403C39.0697 52.1399 43.4187 50.4131 47.9384 50.4131C52.4581 50.4131 56.8071 52.1399 60.0958 55.2403C63.3846 58.3407 65.3645 62.5804 65.6307 67.0923C65.6214 67.8489 65.5649 68.6042 65.4615 69.3538C64.9167 65.0936 62.8422 61.1766 59.6242 58.3322C56.4062 55.4877 52.264 53.9098 47.9692 53.8923Z" fill="#1E1E1E"/>
<path d="M36.5684 67.0924C36.5684 69.3471 37.237 71.5511 38.4896 73.4259C39.7423 75.3006 41.5227 76.7618 43.6058 77.6246C45.6888 78.4875 47.981 78.7132 50.1924 78.2733C52.4038 77.8335 54.4351 76.7477 56.0294 75.1534C57.6237 73.5591 58.7094 71.5278 59.1493 69.3164C59.5892 67.105 59.3634 64.8129 58.5006 62.7298C57.6377 60.6467 56.1766 58.8663 54.3019 57.6136C52.4271 56.361 50.2231 55.6924 47.9684 55.6924C44.9449 55.6924 42.0453 56.8934 39.9073 59.0313C37.7694 61.1692 36.5684 64.0689 36.5684 67.0924Z" fill="#F8FBFC"/>
<path opacity="0.28" d="M47.9691 57.5539C45.108 57.5596 42.3533 58.6396 40.2506 60.5799C38.1479 62.5202 36.8505 65.1794 36.6153 68.0308C36.5996 67.7182 36.5996 67.405 36.6153 67.0924C36.6153 64.0689 37.8164 61.1692 39.9543 59.0313C42.0922 56.8934 44.9918 55.6924 48.0153 55.6924C51.0388 55.6924 53.9384 56.8934 56.0763 59.0313C58.2142 61.1692 59.4153 64.0689 59.4153 67.0924C59.431 67.405 59.431 67.7182 59.4153 68.0308C59.1823 65.1621 57.8729 62.4877 55.7498 60.5444C53.6268 58.6011 50.8472 57.5328 47.9691 57.5539Z" fill="#1E1E1E"/>
<path d="M41.2149 67.0923C41.2149 68.428 41.611 69.7338 42.3531 70.8445C43.0952 71.9551 44.15 72.8208 45.3841 73.332C46.6182 73.8432 47.9762 73.9769 49.2863 73.7163C50.5964 73.4557 51.7999 72.8125 52.7444 71.8679C53.6889 70.9234 54.3322 69.72 54.5928 68.4099C54.8534 67.0998 54.7196 65.7418 54.2084 64.5077C53.6973 63.2736 52.8316 62.2187 51.7209 61.4766C50.6103 60.7345 49.3045 60.3384 47.9687 60.3384C47.0812 60.3364 46.202 60.5097 45.3817 60.8484C44.5614 61.1871 43.816 61.6845 43.1885 62.312C42.5609 62.9396 42.0635 63.6849 41.7248 64.5053C41.3861 65.3256 41.2128 66.2048 41.2149 67.0923Z" fill="#8C8D9A"/>
<path opacity="0.48" d="M47.969 63.6925C46.4609 63.6882 44.9948 64.1888 43.8043 65.1145C42.6138 66.0401 41.7673 67.3376 41.3997 68.8002C41.1316 67.8034 41.0976 66.7581 41.3005 65.746C41.5034 64.734 41.9376 63.7826 42.5693 62.9662C43.2009 62.1498 44.0128 61.4906 44.9416 61.0401C45.8703 60.5896 46.8906 60.3601 47.9228 60.3694C49.7141 60.3694 51.4319 61.081 52.6985 62.3476C53.9651 63.6142 54.6767 65.3321 54.6767 67.1233C54.6712 67.6898 54.5937 68.2533 54.4459 68.8002C54.0823 67.3529 53.2495 66.0668 52.0778 65.1427C50.906 64.2187 49.4612 63.7087 47.969 63.6925Z" fill="#1E1E1E"/>
<g style="mix-blend-mode:overlay">
<path d="M143.153 23.7541H138.923L128.153 5.10791H132.369L143.153 23.7541Z" fill="white"/>
</g>
<g style="mix-blend-mode:overlay">
<path d="M134.831 23.7538H126.754L115.984 5.12305H124.046L134.831 23.7538Z" fill="white"/>
</g>
</g>
<defs>
<clipPath id="clip0_157_1915">
<rect width="230" height="84.8154" fill="white"/>
</clipPath>
</defs>
</svg>
