<svg width="200" height="61" viewBox="0 0 200 61" fill="none" xmlns="http://www.w3.org/2000/svg">
<g clip-path="url(#clip0_157_1638)">
<path d="M56.215 15.1787L53.0895 9.70921C44.7405 9.83944 13.4571 10.8813 6.41033 15.1787C5.25835 16.0251 4.48015 17.2858 4.23987 18.6949L6.45373 21.1837L0.333056 28.4185C-0.838988 29.7208 0.593514 39.372 22.8768 48.8931C28.6647 48.8931 52.612 50.4559 52.612 50.4559H182.217C189.77 50.4559 199.942 47.2002 199.942 37.2884C199.942 28.9394 186.775 16.1627 156.533 16.1627H134.467C134.467 16.1627 117.002 5.07888 101.881 1.74232e-05C98.4954 -0.13021 95.5002 1.74232e-05 95.5002 1.74232e-05V3.77663C95.5002 3.77663 113.356 12.6465 117.914 16.4231C112.763 16.481 56.215 15.1787 56.215 15.1787Z" fill="#2E58A6"/>
<g style="mix-blend-mode:overlay" opacity="0.35">
<path d="M156.592 16.2205H134.467C134.467 16.2205 117.002 5.13674 101.882 0.0578787C98.4958 -0.0723484 95.5005 0.0578787 95.5005 0.0578787V3.83449C95.5005 3.83449 113.356 12.7044 117.914 16.481C112.835 16.481 56.2588 15.1787 56.2588 15.1787L53.1333 9.70918C44.7843 9.83941 13.5008 10.8812 6.45409 15.1787C5.2858 16.0172 4.49136 17.2789 4.24023 18.6948L11.1712 21.8782H21.4013C25.7422 24.1355 32.8902 28.3172 32.8902 28.3172C35.162 30.0535 39.8791 31.3558 47.3599 31.3558H198.004C193.316 23.9907 180.163 16.2205 156.592 16.2205Z" fill="white"/>
</g>
<path d="M187.658 25.2498H192.795C194.965 25.2498 199.812 27.8543 198.033 31.356H190.899C188.7 31.356 185.111 26.5086 187.658 25.2498Z" fill="#FBDC28"/>
<path d="M186.804 26.8269C186.905 28.708 189.278 31.3559 190.884 31.3559H196.571C196.571 28.679 192.794 26.8269 190.957 26.8269H186.804Z" fill="#BAE8D6"/>
<path opacity="0.3" d="M191.955 29.3447C190.508 29.3447 188.338 27.0874 187.933 25.2498H187.658C185.126 26.5086 188.7 31.356 190.885 31.356H198.033C198.36 30.7398 198.477 30.0334 198.366 29.3447H191.955Z" fill="#1E1E1E"/>
<path d="M93.0989 16.0036C92.4911 13.9199 90.2049 8.18997 89.8866 7.40861C88.758 6.35232 83.7225 6.17869 82.2466 7.40861C81.4652 8.36361 83.1871 15.3235 83.4621 15.801C84.5039 15.801 93.0989 16.0036 93.0989 16.0036Z" fill="#DEC57F"/>
<path d="M86.8479 15.8009C86.5875 15.3234 84.8511 8.36353 85.6325 7.40853C86.2573 6.98964 86.9803 6.74033 87.7306 6.68504C85.7916 6.41012 83.2305 6.58376 82.2466 7.40853C81.2626 8.2333 83.1871 15.3234 83.462 15.8009C84.5038 15.8009 93.0988 16.0035 93.0988 16.0035C93.1044 15.9797 93.1044 15.9549 93.0988 15.9312L86.8479 15.8009Z" fill="#C19875"/>
<path d="M134.467 16.2207C125.529 10.6597 116.162 5.82105 106.454 1.75098H102.402L127.565 16.0036L134.467 16.2207Z" fill="#BAE8D6"/>
<g style="mix-blend-mode:overlay" opacity="0.35">
<path d="M84.59 22.0085H75.2715V25.2642H84.59V22.0085Z" fill="white"/>
</g>
<path d="M83.1432 23.3397H76.7331C76.3493 23.3397 75.9813 23.1873 75.7099 22.916C75.4386 22.6446 75.2861 22.2765 75.2861 21.8928C75.2861 21.509 75.4386 21.141 75.7099 20.8696C75.9813 20.5983 76.3493 20.4458 76.7331 20.4458H83.1432C83.5269 20.4458 83.895 20.5983 84.1663 20.8696C84.4377 21.141 84.5901 21.509 84.5901 21.8928C84.5901 22.2765 84.4377 22.6446 84.1663 22.916C83.895 23.1873 83.5269 23.3397 83.1432 23.3397Z" fill="#1E1E1E"/>
<path d="M117.871 16.481C112.792 16.481 56.2156 15.1787 56.2156 15.1787L53.0901 9.70916C50.4133 9.70916 45.3633 9.88278 39.5176 10.1866L55.3185 18.2318L126.35 18.7527L139.112 16.2205H123.326L95.3995 0.0578613V3.83447C95.3995 3.83447 113.313 12.7044 117.871 16.481Z" fill="#2E58A6"/>
<g style="mix-blend-mode:overlay" opacity="0.35">
<path d="M65.0566 21.2271V46.7805" stroke="white" stroke-width="0.72" stroke-miterlimit="10"/>
</g>
<path d="M63.9277 21.2561V46.8096" stroke="#18478C" stroke-width="0.72" stroke-miterlimit="10"/>
<g style="mix-blend-mode:overlay" opacity="0.35">
<path d="M155.81 42.3093C157.604 41.4701 161.178 38.9524 158.704 37.6067H88.9024C84.3644 37.9866 79.9277 39.1569 75.7928 41.0649C74.8378 41.5135 74.8378 42.3093 79.2366 42.3093H155.81Z" fill="white"/>
</g>
<g style="mix-blend-mode:overlay" opacity="0.35">
<path d="M19.7661 32.1083C15.628 30.2118 11.1925 29.0466 6.65652 28.6646H0.17411C-0.173163 29.3302 -0.0863454 31.0376 1.2304 33.3672H16.3223C20.7211 33.3672 20.7211 32.5714 19.7661 32.1083Z" fill="white"/>
</g>
<path d="M121.444 20.0696C123.05 22.7465 126.407 30.1984 126.407 30.1984C124.845 34.3656 116.278 45.0877 113.761 47.4173" stroke="#18478C" stroke-width="0.72" stroke-miterlimit="10"/>
<g style="mix-blend-mode:overlay" opacity="0.35">
<path d="M120.2 20.0696C121.791 22.7465 125.148 30.1984 125.148 30.1984C123.586 34.3656 114.817 44.8995 112.343 47.2292" stroke="white" stroke-width="0.72" stroke-miterlimit="10"/>
</g>
<g style="mix-blend-mode:overlay" opacity="0.35">
<path d="M62.9287 46.2163H148.633" stroke="white" stroke-width="1.32" stroke-miterlimit="10"/>
</g>
<path d="M63.0303 47.345H148.734" stroke="#18478C" stroke-width="1.32" stroke-miterlimit="10"/>
<path d="M25.6846 49.6021L25.9016 49.6165V49.6021H25.6846Z" fill="#1E1E1E"/>
<path d="M57.4883 50.9767V50.9044L25.9443 49.6021L41.4124 50.9622L57.4883 50.9767Z" fill="#1E1E1E"/>
<path d="M22.8341 48.9511C25.6557 48.9511 32.8905 49.3273 39.5176 49.7035V38.7644H5.6875C10.8111 43.0697 16.6027 46.5104 22.8341 48.9511Z" fill="#18478C"/>
<path d="M167.747 40.9058V50.5136H182.217C188.786 50.5136 197.309 48.0393 199.436 40.9058H167.747Z" fill="#18478C"/>
<path d="M154.406 47.0121C154.446 44.8842 154.906 42.7852 155.762 40.8364C156.617 38.8875 157.85 37.1276 159.39 35.6583C160.93 34.1889 162.745 33.0394 164.732 32.276C166.718 31.5126 168.837 31.1506 170.964 31.2108C173.092 31.271 175.186 31.7524 177.126 32.6269C179.067 33.5015 180.814 34.752 182.268 36.3061C183.722 37.8602 184.854 39.6871 185.598 41.6811C186.341 43.6752 186.683 45.797 186.601 47.9237C186.561 48.6384 186.469 49.3492 186.326 50.0507L154.696 50.4559C154.475 49.3219 154.378 48.1671 154.406 47.0121Z" fill="#1E1E1E"/>
<path d="M186.543 50.0508L186.326 50.0652V50.0508H186.543Z" fill="#1E1E1E"/>
<path d="M154.725 50.5283C154.726 50.5042 154.726 50.4801 154.725 50.456L186.355 50.0508L170.641 52.6264L154.725 50.5283Z" fill="#1E1E1E"/>
<path d="M184.2 47.287C184.237 49.963 183.479 52.59 182.023 54.8354C180.567 57.0809 178.477 58.8439 176.019 59.9017C173.56 60.9594 170.843 61.2642 168.212 60.7775C165.58 60.2908 163.152 59.0345 161.234 57.1676C159.316 55.3006 157.996 52.9068 157.439 50.2891C156.882 47.6713 157.114 44.9472 158.105 42.4614C159.097 39.9755 160.804 37.8396 163.009 36.3238C165.215 34.808 167.821 33.9805 170.497 33.9459C172.273 33.921 174.036 34.2465 175.686 34.9037C177.337 35.5609 178.841 36.5369 180.114 37.7759C181.386 39.015 182.402 40.4928 183.103 42.1248C183.804 43.7567 184.177 45.5109 184.2 47.287Z" fill="#1E1E1E"/>
<path opacity="0.56" d="M170.54 37.3896C173.823 37.3416 177.01 38.49 179.508 40.6201C182.006 42.7503 183.642 45.7166 184.113 48.9654C184.337 47.1221 184.179 45.2525 183.649 43.4729C183.119 41.6933 182.228 40.0419 181.032 38.6215C179.836 37.201 178.361 36.042 176.697 35.2165C175.034 34.3909 173.219 33.9167 171.364 33.8231C169.51 33.7295 167.656 34.0187 165.918 34.6726C164.18 35.3265 162.595 36.3312 161.263 37.624C159.93 38.9168 158.877 40.4702 158.171 42.1874C157.464 43.9045 157.119 45.7488 157.156 47.6052C157.174 48.1813 157.223 48.756 157.301 49.3271C157.683 46.0695 159.237 43.0623 161.673 40.8659C164.109 38.6695 167.261 37.434 170.54 37.3896Z" fill="#1E1E1E"/>
<path d="M179.323 47.3449C179.343 49.0606 178.854 50.7437 177.918 52.1817C176.982 53.6196 175.641 54.748 174.064 55.4242C172.487 56.1005 170.745 56.2944 169.058 55.9813C167.371 55.6683 165.814 54.8624 164.585 53.6654C163.356 52.4684 162.509 50.934 162.151 49.2559C161.793 47.5778 161.94 45.8313 162.575 44.237C163.209 42.6426 164.301 41.2719 165.713 40.2979C167.126 39.3239 168.795 38.7903 170.511 38.7644C171.654 38.7472 172.788 38.9557 173.85 39.3779C174.912 39.8002 175.88 40.4279 176.698 41.2251C177.517 42.0223 178.17 42.9732 178.621 44.0234C179.071 45.0736 179.31 46.2023 179.323 47.3449Z" fill="#F8FBFC"/>
<path opacity="0.28" d="M170.641 40.1968C172.822 40.1651 174.936 40.9559 176.561 42.4118C178.186 43.8677 179.203 45.882 179.41 48.0539C179.41 47.8223 179.41 47.5908 179.41 47.3448C179.393 46.2047 179.153 45.079 178.702 44.0318C178.251 42.9847 177.597 42.0366 176.78 41.2419C175.962 40.4471 174.996 39.8212 173.937 39.3998C172.877 38.9784 171.745 38.7699 170.605 38.786C169.465 38.8022 168.339 39.0427 167.292 39.4939C166.245 39.9451 165.297 40.5982 164.502 41.4158C163.707 42.2334 163.081 43.1995 162.66 44.2591C162.238 45.3186 162.03 46.4507 162.046 47.5908C162.032 47.8269 162.032 48.0637 162.046 48.2998C162.192 46.1139 163.159 44.0641 164.753 42.5613C166.347 41.0585 168.45 40.2138 170.641 40.1968Z" fill="#1E1E1E"/>
<path d="M175.836 47.4027C175.85 48.4248 175.561 49.4282 175.004 50.2859C174.448 51.1435 173.65 51.8168 172.711 52.2205C171.771 52.6242 170.734 52.7402 169.728 52.5537C168.723 52.3673 167.796 51.8868 167.064 51.1732C166.332 50.4595 165.829 49.5448 165.617 48.5447C165.405 47.5446 165.495 46.5041 165.875 45.5551C166.255 44.606 166.908 43.791 167.751 43.2133C168.594 42.6355 169.59 42.3209 170.612 42.3094C171.29 42.2998 171.963 42.424 172.592 42.675C173.222 42.926 173.796 43.2987 174.281 43.7719C174.766 44.2451 175.153 44.8093 175.42 45.4323C175.687 46.0554 175.828 46.725 175.836 47.4027Z" fill="#8C8D9A"/>
<path opacity="0.48" d="M170.642 44.8271C171.784 44.8131 172.899 45.1794 173.811 45.8683C174.722 46.5572 175.379 47.5297 175.677 48.6326C175.79 48.2178 175.843 47.7891 175.836 47.3593C175.752 46.0379 175.163 44.7996 174.191 43.8999C173.22 43.0002 171.94 42.5079 170.616 42.5246C169.292 42.5413 168.025 43.0657 167.077 43.9897C166.128 44.9136 165.571 46.1665 165.52 47.4895C165.535 47.9254 165.603 48.3578 165.722 48.7774C165.988 47.6667 166.616 46.6759 167.506 45.9609C168.397 45.2458 169.5 44.847 170.642 44.8271Z" fill="#1E1E1E"/>
<path d="M57.8941 47.4607C57.8941 43.1895 56.1973 39.0931 53.1771 36.0729C50.1569 33.0527 46.0606 31.356 41.7893 31.356C37.5181 31.356 33.4218 33.0527 30.4015 36.0729C27.3813 39.0931 25.6846 43.1895 25.6846 47.4607C25.7269 48.1793 25.8139 48.8945 25.945 49.6022L57.5613 50.9045C57.797 49.7721 57.9086 48.6173 57.8941 47.4607Z" fill="#1E1E1E"/>
<path d="M55.3181 47.4607C55.3209 50.1402 54.528 52.7602 53.0399 54.9885C51.5518 57.2168 49.4356 58.953 46.9595 59.9771C44.4834 61.0011 41.759 61.2668 39.1317 60.7406C36.5044 60.2143 34.0925 58.9197 32.2019 57.021C30.3112 55.1222 29.027 52.7048 28.512 50.0752C27.997 47.4457 28.2744 44.7225 29.3091 42.2508C30.3438 39.7791 32.0891 37.6703 34.3238 36.1918C36.5584 34.7133 39.1818 33.9317 41.8613 33.946C45.4344 33.9651 48.8548 35.3969 51.376 37.929C53.8972 40.461 55.3143 43.8875 55.3181 47.4607Z" fill="#1E1E1E"/>
<path opacity="0.56" d="M41.8615 37.3896C45.1319 37.408 48.2847 38.6118 50.7353 40.7777C53.1859 42.9435 54.7679 45.9246 55.188 49.168C55.2685 48.5974 55.312 48.0222 55.3183 47.4461C55.3383 45.5845 54.9738 43.739 54.2478 42.0247C53.5218 40.3105 52.4499 38.7646 51.099 37.4836C49.7481 36.2027 48.1474 35.2143 46.3971 34.5804C44.6467 33.9464 42.7844 33.6805 40.9266 33.7993C39.0687 33.9181 37.2554 34.4191 35.6001 35.2708C33.9447 36.1225 32.4829 37.3067 31.3062 38.7492C30.1295 40.1918 29.2632 41.8617 28.7614 43.6544C28.2597 45.4472 28.1333 47.3242 28.3902 49.168C28.8165 45.9011 30.4202 42.9021 32.9005 40.7336C35.3807 38.565 38.567 37.376 41.8615 37.3896Z" fill="#1E1E1E"/>
<path d="M50.5433 47.4606C50.5433 49.1777 50.0341 50.8562 49.0802 52.284C48.1262 53.7117 46.7703 54.8245 45.1839 55.4816C43.5975 56.1387 41.8519 56.3106 40.1678 55.9756C38.4837 55.6406 36.9367 54.8138 35.7225 53.5996C34.5084 52.3854 33.6815 50.8384 33.3465 49.1543C33.0115 47.4702 33.1834 45.7246 33.8406 44.1382C34.4977 42.5518 35.6104 41.1959 37.0382 40.2419C38.4659 39.288 40.1444 38.7788 41.8615 38.7788C44.1641 38.7788 46.3723 39.6935 48.0005 41.3216C49.6286 42.9498 50.5433 45.1581 50.5433 47.4606Z" fill="#F8FBFC"/>
<path opacity="0.28" d="M41.8615 40.1968C44.0486 40.1898 46.1578 41.0085 47.7674 42.4894C49.377 43.9702 50.3684 46.004 50.5433 48.1841C50.5433 47.9381 50.5433 47.7066 50.5433 47.4606C50.5433 45.1581 49.6286 42.9498 48.0005 41.3216C46.3723 39.6935 44.1641 38.7788 41.8615 38.7788C39.5589 38.7788 37.3507 39.6935 35.7225 41.3216C34.0944 42.9498 33.1797 45.1581 33.1797 47.4606C33.1797 47.7066 33.1797 47.9381 33.1797 48.1841C33.3546 46.004 34.346 43.9702 35.9556 42.4894C37.5652 41.0085 39.6744 40.1898 41.8615 40.1968Z" fill="#1E1E1E"/>
<path d="M46.9544 47.4605C46.9572 48.4859 46.6547 49.4889 46.0856 50.3418C45.5165 51.1947 44.7064 51.8589 43.7585 52.2499C42.8106 52.6409 41.7678 52.7409 40.7629 52.5373C39.758 52.3337 38.8364 51.8356 38.1155 51.1065C37.3945 50.3774 36.9069 49.4502 36.7147 48.4431C36.5224 47.4359 36.6342 46.3943 37.0359 45.4509C37.4376 44.5075 38.1109 43.705 38.9702 43.1455C39.8295 42.5861 40.8358 42.295 41.8611 42.3093C43.216 42.3283 44.5092 42.8789 45.462 43.8425C46.4147 44.8061 46.9507 46.1055 46.9544 47.4605Z" fill="#8C8D9A"/>
<path opacity="0.48" d="M41.8612 44.8272C43.004 44.8278 44.114 45.2094 45.0156 45.9118C45.9171 46.6141 46.5587 47.5971 46.8387 48.7051C46.961 48.2866 47.0243 47.8532 47.0268 47.4173C46.9569 46.0964 46.3829 44.8527 45.4232 43.9425C44.4634 43.0323 43.1911 42.5249 41.8684 42.5249C40.5457 42.5249 39.2734 43.0323 38.3137 43.9425C37.3539 44.8527 36.7799 46.0964 36.71 47.4173C36.715 47.852 36.7734 48.2845 36.8836 48.7051C37.1659 47.5983 37.8081 46.6168 38.7091 45.9148C39.6102 45.2129 40.719 44.8303 41.8612 44.8272Z" fill="#1E1E1E"/>
<path d="M8.33513 21.2849H5.10838C4.52121 21.3787 3.96101 21.5974 3.46568 21.9264C2.97035 22.2553 2.55144 22.6868 2.23729 23.1917C1.92313 23.6965 1.72105 24.263 1.64471 24.8527C1.56838 25.4423 1.61957 26.0415 1.79483 26.6097H6.30937C7.68399 26.6097 9.94126 22.3701 8.33513 21.2849Z" fill="#FBDC28"/>
<path d="M8.88471 22.645C8.81236 24.2946 7.32198 26.6097 6.3091 26.6097H2.79297C2.85978 25.6513 3.24263 24.7422 3.88154 24.0247C4.52045 23.3073 5.37931 22.822 6.32357 22.645H8.88471Z" fill="#BAE8D6"/>
<path opacity="0.3" d="M5.68675 24.8444C6.62728 24.8444 7.97297 22.8766 8.21895 21.2849H8.39258C9.99872 22.3701 7.74145 26.6097 6.36683 26.6097H1.79441C1.5896 26.0453 1.5202 25.4406 1.59183 24.8444H5.68675Z" fill="#1E1E1E"/>
</g>
<defs>
<clipPath id="clip0_157_1638">
<rect width="200" height="60.9897" fill="white"/>
</clipPath>
</defs>
</svg>
