<svg width="496" height="210" viewBox="0 0 496 210" fill="none" xmlns="http://www.w3.org/2000/svg">
<path d="M153.273 22.3565L142.428 56.7389L193.615 72.8014L204.46 38.419L153.273 22.3565Z" fill="#3AD0E6" fill-opacity="0.2"/>
<path d="M204.507 38.91C204.309 39.0314 204.1 39.1352 203.883 39.2203L202.069 40.0162L195.342 42.8623L173.035 52.0922L172.849 52.1674L172.732 52.0086L172.463 51.6086L158.844 31.3355L154.764 25.1423L153.675 23.4515C153.534 23.2643 153.415 23.0608 153.322 22.8455C153.482 23.0157 153.625 23.2005 153.75 23.3975L154.922 25.0449L159.13 31.1384L172.872 51.3712L173.141 51.7613L172.848 51.6786L195.206 42.5524L201.993 39.8407L203.85 39.1279C204.061 39.032 204.281 38.9589 204.507 38.91Z" fill="black"/>
<path d="M142.472 57.2264C142.401 57.1112 147.755 53.6493 154.391 49.3998C161.028 45.1503 166.498 41.8671 166.569 41.9823C166.64 42.0976 161.286 45.5595 154.649 49.8089C148.013 54.0584 142.543 57.3417 142.472 57.2264Z" fill="black"/>
<path d="M183.729 46.8927C183.853 46.8425 186.186 52.7198 188.93 60.0056C191.674 67.2913 193.791 73.2415 193.663 73.3413C193.536 73.441 191.216 67.5149 188.472 60.2291C185.729 52.9434 183.596 46.9321 183.729 46.8927Z" fill="black"/>
<path opacity="0.2" d="M483.01 56.9526L443.654 70.2863L452.686 96.7331L492.042 83.3994L483.01 56.9526Z" fill="#3AD0E6"/>
<path d="M483.226 57.2383C483.157 57.401 483.074 57.558 482.979 57.7077L482.215 59.0345C481.513 60.2164 480.521 61.8944 479.324 63.8955L469.64 79.8758L469.56 80.0092L469.41 79.9975L469.059 79.8803L451.221 73.401L445.833 71.2748L444.376 70.7122L443.873 70.4934C444.054 70.5248 444.231 70.5755 444.401 70.6444L445.884 71.1391L451.32 73.0297L469.196 79.4123L469.546 79.5393L469.33 79.6222C473.137 73.4064 476.588 67.7912 479.099 63.6984C480.346 61.7012 481.384 60.0667 482.092 58.9451L482.914 57.6527C483.003 57.5039 483.108 57.365 483.226 57.2383Z" fill="black"/>
<path d="M452.905 96.9713C452.805 96.9635 454.53 92.3007 456.714 86.6265C458.899 80.9522 460.852 76.4369 460.952 76.4447C461.051 76.4525 459.327 81.1054 457.143 86.7796C454.959 92.4538 453.022 97.0103 452.905 96.9713Z" fill="black"/>
<path d="M473.913 71.6717C473.971 71.5765 478.13 74.1853 483.196 77.4931C488.262 80.801 492.321 83.5416 492.264 83.627C492.208 83.7123 488.057 81.1142 482.992 77.8063C477.926 74.4984 473.857 71.7571 473.913 71.6717Z" fill="black"/>
<path d="M322.842 171.387C322.582 173.017 321.973 174.572 321.055 175.945C321.11 175.118 321.333 174.311 321.71 173.573C321.928 172.772 322.313 172.027 322.842 171.387Z" fill="black"/>
<path d="M326.967 162.513C326.843 163.332 326.553 164.117 326.116 164.821C325.828 165.598 325.381 166.307 324.803 166.902C324.931 166.094 325.219 165.32 325.651 164.625C325.934 163.835 326.382 163.116 326.967 162.513Z" fill="black"/>
<path d="M331.889 154.07C331.334 155.62 330.46 157.036 329.323 158.228C329.52 157.426 329.882 156.673 330.386 156.017C331.096 154.866 331.765 153.991 331.889 154.07Z" fill="black"/>
<path d="M337.651 146.162C337.36 146.938 336.913 147.646 336.337 148.244C335.533 149.318 334.78 150.117 334.666 150.038C334.927 149.251 335.356 148.529 335.922 147.922C336.766 146.861 337.538 146.073 337.651 146.162Z" fill="black"/>
<path d="M344.277 138.959C343.905 139.699 343.387 140.358 342.755 140.895C341.812 141.819 340.964 142.56 340.852 142.462C340.739 142.363 341.426 141.509 342.383 140.537C343.339 139.564 344.175 138.861 344.277 138.959Z" fill="black"/>
<path d="M351.7 132.587C351.791 132.704 351.01 133.481 349.963 134.327C348.916 135.173 347.989 135.768 347.858 135.658C347.726 135.548 348.537 134.774 349.595 133.919C350.652 133.064 351.619 132.471 351.7 132.587Z" fill="black"/>
<path d="M359.868 127.181C359.938 127.306 359.064 127.986 357.918 128.694C357.261 129.196 356.507 129.558 355.703 129.758C355.622 129.642 356.496 128.962 357.652 128.254C358.306 127.745 359.061 127.379 359.868 127.181Z" fill="black"/>
<path d="M368.688 122.912C367.35 123.883 365.82 124.559 364.2 124.895C364.14 124.761 365.093 124.217 366.297 123.663C367.031 123.244 367.846 122.988 368.688 122.912Z" fill="black"/>
<path d="M378.026 119.95C377.33 120.399 376.551 120.704 375.734 120.849C374.961 121.15 374.132 121.286 373.301 121.247C373.996 120.795 374.776 120.489 375.593 120.349C376.366 120.042 377.196 119.906 378.026 119.95Z" fill="black"/>
<path d="M387.707 118.482C386.944 118.798 386.125 118.958 385.298 118.952C384.492 119.141 383.656 119.16 382.842 119.01C384.393 118.427 386.066 118.246 387.707 118.482Z" fill="black"/>
<path d="M397.508 118.709C396.703 118.905 395.866 118.935 395.049 118.796C394.219 118.83 393.391 118.687 392.62 118.377C393.425 118.178 394.261 118.145 395.079 118.28C395.91 118.248 396.738 118.395 397.508 118.709Z" fill="black"/>
<path d="M407.146 120.608C406.317 120.667 405.484 120.554 404.7 120.278C403.874 120.167 403.082 119.884 402.373 119.448C404.028 119.498 405.654 119.893 407.146 120.608Z" fill="black"/>
<path d="M416.269 124.123C414.646 123.796 413.111 123.125 411.77 122.156C412.595 122.247 413.395 122.499 414.123 122.898C414.917 123.151 415.649 123.568 416.269 124.123Z" fill="black"/>
<path d="M424.628 129.224C423.833 128.983 423.095 128.587 422.457 128.057C421.728 127.66 421.09 127.118 420.58 126.464C421.377 126.699 422.116 127.096 422.751 127.631C423.871 128.407 424.717 129.111 424.628 129.224Z" fill="black"/>
<path d="M431.816 135.849C431.092 135.454 430.453 134.919 429.937 134.277C429.011 133.327 428.318 132.455 428.416 132.353C428.514 132.25 429.371 132.946 430.296 133.916C431.221 134.885 431.923 135.758 431.816 135.849Z" fill="black"/>
<path d="M436.217 141.779C436.092 141.849 435.692 141.448 435.287 140.878C434.881 140.308 434.701 139.785 434.819 139.695C434.936 139.604 435.334 140.014 435.749 140.595C436.164 141.176 436.343 141.699 436.217 141.779Z" fill="black"/>
<path d="M292.791 181.359C292.93 181.37 293.1 181.891 293.167 182.575C293.233 183.258 293.159 183.821 293.018 183.84C292.876 183.859 292.709 183.307 292.643 182.614C292.577 181.92 292.65 181.368 292.791 181.359Z" fill="black"/>
<path d="M291.955 171.559C292.272 172.329 292.429 173.156 292.416 173.989C292.568 174.807 292.551 175.647 292.364 176.458C292.04 175.689 291.883 174.861 291.903 174.028C291.75 173.21 291.768 172.37 291.955 171.559Z" fill="black"/>
<path d="M291.29 161.752C291.595 162.527 291.735 163.357 291.7 164.188C291.834 165.008 291.799 165.847 291.598 166.654C291.287 165.88 291.147 165.05 291.187 164.218C291.053 163.398 291.088 162.559 291.29 161.752Z" fill="black"/>
<path d="M290.934 151.94C291.208 152.726 291.32 153.559 291.264 154.389C291.376 155.213 291.31 156.052 291.072 156.848C290.799 156.062 290.69 155.229 290.752 154.399C290.641 153.576 290.703 152.738 290.934 151.94Z" fill="black"/>
<path d="M291.013 142.092C291.324 143.721 291.288 145.397 290.909 147.011C290.597 145.382 290.633 143.706 291.013 142.092Z" fill="black"/>
<path d="M291.678 132.28C291.895 133.941 291.763 135.629 291.291 137.236C291.096 136.427 291.076 135.586 291.234 134.768C291.202 133.917 291.354 133.068 291.678 132.28Z" fill="black"/>
<path d="M293.059 122.553C293.176 123.379 293.128 124.219 292.916 125.025C292.866 125.855 292.646 126.666 292.27 127.409C292.139 126.587 292.184 125.748 292.402 124.945C292.452 124.111 292.676 123.296 293.059 122.553Z" fill="black"/>
<path d="M295.288 112.982C295.345 113.814 295.222 114.648 294.927 115.428C294.802 116.252 294.505 117.041 294.055 117.743C294.134 116.089 294.554 114.468 295.288 112.982Z" fill="black"/>
<path d="M298.543 103.711C298.49 104.541 298.27 105.351 297.897 106.095C297.673 106.897 297.291 107.647 296.774 108.301C296.816 107.467 297.033 106.652 297.411 105.907C297.628 105.103 298.014 104.355 298.543 103.711Z" fill="black"/>
<path d="M302.923 94.9072C302.772 95.7274 302.452 96.5073 301.983 97.1977C301.663 97.9662 301.19 98.662 300.593 99.2435C301.062 97.6518 301.859 96.1752 302.933 94.908L302.923 94.9072Z" fill="black"/>
<path d="M308.385 86.7361C308.129 87.5274 307.714 88.2585 307.166 88.8851C306.38 89.9807 305.649 90.7614 305.519 90.7513C305.778 89.9596 306.196 89.2287 306.748 88.6031C307.536 87.4777 308.272 86.6474 308.385 86.7361Z" fill="black"/>
<path d="M314.895 79.3548C314.997 79.4625 314.331 80.3081 313.401 81.3227C312.471 82.3373 311.626 83.0294 311.514 82.9308C311.878 82.1813 312.39 81.5124 313.019 80.9637C313.956 79.9797 314.803 79.2578 314.895 79.3548Z" fill="black"/>
<path d="M322.426 73.0109C322.506 73.1368 321.706 73.9022 320.64 74.7366C319.574 75.571 318.628 76.1454 318.537 76.0385C318.445 75.9316 319.245 75.1663 320.322 74.3228C321.398 73.4792 322.345 72.8948 322.426 73.0109Z" fill="black"/>
<path d="M330.903 68.0074C330.962 68.1418 330.044 68.7582 328.843 69.3926C328.151 69.8557 327.37 70.1716 326.549 70.3206C326.478 70.2054 327.398 69.579 328.599 68.9347C329.298 68.4768 330.081 68.1616 330.903 68.0074Z" fill="black"/>
<path d="M340.168 64.6913C339.482 65.1665 338.703 65.493 337.882 65.6498C337.114 65.9715 336.287 66.1311 335.453 66.1186C336.141 65.6454 336.92 65.3191 337.74 65.16C338.508 64.837 339.335 64.6773 340.168 64.6913Z" fill="black"/>
<path d="M347.488 63.4874C347.477 63.6262 346.963 63.8055 346.286 63.8823C345.61 63.9592 345.034 63.9042 345.013 63.7829C344.993 63.6616 345.538 63.4649 346.225 63.3888C346.911 63.3127 347.479 63.3471 347.488 63.4874Z" fill="black"/>
<path d="M297.482 22.1343L275.889 67.0646L342.782 99.0277L364.376 54.0974L297.482 22.1343Z" fill="#3AD0E6"/>
<path d="M342.779 99.066L275.863 67.0818L297.476 22.1307L364.392 54.105L342.779 99.066ZM275.925 67.0567L342.784 98.9966L364.362 54.1126L297.503 22.1727L275.925 67.0567Z" fill="#263238"/>
<path d="M364.332 54.7487C364.042 54.878 363.739 54.978 363.428 55.0471L360.779 55.7779L351.02 58.3672L318.666 66.6931L318.4 66.7621L318.28 66.5133L317.987 65.9119L303.35 35.4757L298.979 26.2177L297.826 23.684C297.673 23.3947 297.549 23.091 297.456 22.7775C297.642 23.0446 297.804 23.3276 297.94 23.6232L299.218 26.1067L303.728 35.2459C307.561 43.0655 312.789 53.7768 318.561 65.5977L318.855 66.1991L318.468 66.0194L350.908 57.8797L360.721 55.504L363.401 54.8854C363.705 54.8065 364.018 54.7607 364.332 54.7487Z" fill="#263238"/>
<path d="M275.845 67.7086C275.768 67.543 283.757 63.7881 293.692 59.3274C303.627 54.8668 311.735 51.3805 311.813 51.5461C311.89 51.7117 303.901 55.4666 293.965 59.9372C284.028 64.4078 275.922 67.8742 275.845 67.7086Z" fill="#263238"/>
<path d="M334.327 61.5722C334.51 61.5367 336.539 70.0234 338.851 80.527C341.164 91.0306 342.917 99.5954 342.734 99.631C342.551 99.6666 340.521 91.1898 338.209 80.6763C335.898 70.1628 334.141 61.6475 334.327 61.5722Z" fill="#263238"/>
<path d="M262.979 189.943C263.118 189.954 263.142 190.534 263.039 191.214C262.936 191.895 262.725 192.427 262.587 192.406C262.449 192.385 262.413 191.814 262.526 191.134C262.639 190.455 262.841 189.922 262.979 189.943Z" fill="black"/>
<path d="M264.015 179.88C264.209 180.717 264.23 181.584 264.076 182.428C264.086 183.283 263.928 184.132 263.611 184.925C263.424 184.092 263.406 183.229 263.56 182.388C263.547 181.53 263.701 180.679 264.015 179.88Z" fill="black"/>
<path d="M264.112 169.794C264.478 171.46 264.503 173.182 264.187 174.857C263.914 174.044 263.814 173.184 263.894 172.331C263.8 171.479 263.874 170.617 264.112 169.794Z" fill="black"/>
<path d="M263.21 159.69C263.555 160.474 263.741 161.32 263.756 162.176C263.937 163.014 263.948 163.88 263.787 164.722C263.444 163.937 263.258 163.092 263.241 162.236C263.053 161.398 263.043 160.531 263.21 159.69Z" fill="black"/>
<path d="M261.212 149.769C261.936 151.315 262.333 152.993 262.378 154.698C261.948 153.958 261.672 153.139 261.565 152.291C261.277 151.483 261.157 150.625 261.212 149.769Z" fill="black"/>
<path d="M258.069 140.158C258.589 140.839 258.964 141.619 259.171 142.449C259.539 143.224 259.749 144.064 259.789 144.921C259.275 144.236 258.901 143.458 258.687 142.63C258.317 141.856 258.107 141.015 258.069 140.158Z" fill="black"/>
<path d="M253.73 131.013C253.856 130.943 254.502 131.891 255.167 133.12C255.618 133.852 255.922 134.665 256.061 135.513C255.926 135.573 255.321 134.608 254.698 133.352C254.223 132.644 253.894 131.849 253.73 131.013Z" fill="black"/>
<path d="M248.155 122.568C248.272 122.478 249.025 123.334 249.837 124.475C250.399 125.127 250.826 125.882 251.095 126.698C250.969 126.768 250.225 125.912 249.413 124.781C248.85 124.134 248.423 123.382 248.155 122.568Z" fill="black"/>
<path d="M241.461 114.984C241.559 114.882 242.411 115.627 243.393 116.641C244.374 117.655 245.054 118.566 244.947 118.657C244.199 118.238 243.542 117.675 243.014 117.001C242.033 115.986 241.333 115.084 241.461 114.984Z" fill="black"/>
<path d="M233.694 108.453C234.498 108.755 235.231 109.216 235.85 109.808C236.954 110.673 237.782 111.465 237.714 111.58C236.913 111.269 236.181 110.805 235.558 110.215C234.434 109.359 233.606 108.566 233.694 108.453Z" fill="black"/>
<path d="M225.04 103.17C225.882 103.345 226.679 103.689 227.383 104.18C228.17 104.523 228.88 105.019 229.471 105.64C228.629 105.465 227.832 105.121 227.128 104.629C226.343 104.284 225.633 103.788 225.04 103.17Z" fill="black"/>
<path d="M215.659 99.3754C216.519 99.4123 217.363 99.6172 218.144 99.9783C218.979 100.186 219.763 100.559 220.45 101.076C219.591 101.035 218.747 100.83 217.965 100.473C217.132 100.261 216.348 99.8878 215.659 99.3754Z" fill="black"/>
<path d="M205.703 97.3113C207.414 97.1601 209.136 97.4351 210.714 98.1115C209.011 98.1155 207.319 97.8453 205.703 97.3113Z" fill="black"/>
<path d="M195.562 97.2179C197.223 96.8046 198.952 96.7359 200.642 97.016C199.832 97.3067 198.971 97.4296 198.112 97.3771C197.26 97.4888 196.394 97.4348 195.562 97.2179Z" fill="black"/>
<path d="M185.592 99.0526C186.334 98.622 187.155 98.3468 188.007 98.2438C188.818 97.9645 189.679 97.855 190.534 97.9224C189.791 98.3478 188.97 98.6227 188.119 98.7313C187.306 99.0003 186.448 99.1095 185.592 99.0526Z" fill="black"/>
<path d="M176.139 102.713C176.079 102.579 177.064 102.017 178.359 101.45C179.104 101.019 179.929 100.744 180.784 100.642C179.39 101.631 177.811 102.332 176.14 102.703L176.139 102.713Z" fill="black"/>
<path d="M167.59 108.13C167.498 108.023 168.358 107.272 169.502 106.454C170.156 105.895 170.913 105.469 171.732 105.202C171.802 105.327 170.943 106.078 169.81 106.877C169.164 107.442 168.408 107.868 167.59 108.13Z" fill="black"/>
<path d="M160.381 115.227C160.7 114.426 161.198 113.708 161.836 113.126C162.788 112.084 163.694 111.376 163.786 111.473C163.879 111.57 163.162 112.422 162.219 113.476C161.276 114.529 160.494 115.316 160.381 115.227Z" fill="black"/>
<path d="M156.18 121.472C156.056 121.402 156.228 120.867 156.585 120.267C156.942 119.666 157.315 119.247 157.438 119.336C157.561 119.425 157.39 119.951 157.034 120.541C156.677 121.132 156.304 121.552 156.18 121.472Z" fill="black"/>
<path d="M88.4117 175.028C88.4225 174.889 88.9637 174.752 89.647 174.715C90.3304 174.679 90.8904 174.812 90.9018 174.923C90.9131 175.034 90.3689 175.211 89.6665 175.236C88.964 175.261 88.4085 175.197 88.4117 175.028Z" fill="black"/>
<path d="M78.6494 173.169C79.4867 173.225 80.3098 173.414 81.0876 173.728C81.9136 173.879 82.7095 174.164 83.4436 174.57C81.7437 174.598 80.0738 174.121 78.6471 173.198L78.6494 173.169Z" fill="black"/>
<path d="M70.0803 168.081C70.8617 168.394 71.5851 168.834 72.2202 169.385C73.3398 170.171 74.239 170.83 74.1685 170.964C73.3415 170.749 72.575 170.348 71.9283 169.791C70.7888 169.004 69.9915 168.194 70.0803 168.081Z" fill="black"/>
<path d="M63.1972 160.881C63.3136 160.8 64.0704 161.618 64.9594 162.664C65.8484 163.711 66.5302 164.592 66.4321 164.694C66.3341 164.797 65.4808 164.062 64.5627 163.003C63.6446 161.943 63.08 160.972 63.1972 160.881Z" fill="black"/>
<path d="M57.9753 152.395C58.11 152.335 58.7489 153.253 59.402 154.501C59.878 155.196 60.2115 155.978 60.3833 156.802C60.257 156.881 59.6188 155.954 58.9526 154.745C58.466 154.038 58.1331 153.237 57.9753 152.395Z" fill="black"/>
<path d="M54.377 143.107C54.8751 143.788 55.23 144.562 55.4202 145.383C55.7617 146.156 55.9517 146.986 55.9797 147.83C55.4762 147.151 55.1178 146.376 54.9265 145.554C54.5821 144.783 54.3953 143.951 54.377 143.107Z" fill="black"/>
<path d="M52.2653 133.367C52.6585 134.115 52.8974 134.934 52.968 135.776C53.2006 136.587 53.2636 137.438 53.1532 138.274C52.7527 137.529 52.5133 136.708 52.4506 135.865C52.2186 135.054 52.1555 134.204 52.2653 133.367Z" fill="black"/>
<path d="M51.2983 123.447C51.6034 124.234 51.7521 125.072 51.7362 125.915C51.8811 126.748 51.8554 127.601 51.6605 128.423C51.3463 127.639 51.1973 126.799 51.2227 125.955C51.0717 125.123 51.0975 124.269 51.2983 123.447Z" fill="black"/>
<path d="M51.1147 113.489C51.4672 115.133 51.4709 116.832 51.1256 118.477C50.8676 117.676 50.7769 116.83 50.8592 115.993C50.7678 115.149 50.8548 114.297 51.1147 113.489Z" fill="black"/>
<path d="M51.2774 106.011C51.4263 106.023 51.5227 106.579 51.4991 107.265C51.4754 107.952 51.3428 108.5 51.2031 108.499C51.0633 108.498 50.9578 107.931 50.9815 107.245C51.0051 106.559 51.1377 106.01 51.2774 106.011Z" fill="black"/>
<path d="M93.4296 48.8185L10.4199 46.2579L8.70518 102.026L91.7149 104.587L93.4296 48.8185Z" fill="#3AD0E6"/>
<path d="M8.67546 102.047L10.389 46.2566L93.4306 48.8298L91.7171 104.62L8.67546 102.047ZM10.4387 46.2605L8.73062 101.981L91.6926 104.548L93.4008 48.8275L10.4387 46.2605Z" fill="black"/>
<path d="M93.6683 49.5068C93.427 49.7708 93.1603 50.0106 92.8719 50.2226L90.4981 52.1717L81.6905 59.2339L52.3256 82.3451L52.0805 82.5354L51.8458 82.3376L51.283 81.8548L22.4483 57.2819C18.8302 54.1469 15.8872 51.5932 13.7677 49.772L11.4379 47.6951C11.1528 47.4686 10.891 47.2143 10.6566 46.9359C10.9668 47.1279 11.2611 47.3443 11.5367 47.5831L13.9668 49.5283L22.8015 56.8607L51.7694 81.2644L52.3421 81.748L51.8647 81.7107L81.3558 58.7789L90.3185 51.9083L92.7809 50.1058C93.0549 49.8758 93.3523 49.675 93.6683 49.5068Z" fill="black"/>
<path d="M8.94438 102.706C8.7953 102.565 15.2716 95.1114 23.4137 86.0623C31.5557 77.0132 38.2843 69.7888 38.4342 69.9202C38.5841 70.0515 32.1169 77.5159 23.9749 86.565C15.8328 95.6141 9.10419 102.839 8.94438 102.706Z" fill="black"/>
<path d="M66.0526 70.0815C66.2226 69.9552 72.1598 77.7396 79.3074 87.4537C86.4549 97.1678 92.1264 105.151 91.9266 105.275C91.7268 105.399 85.8294 97.6177 78.6726 87.8929C71.5159 78.1681 65.8827 70.2079 66.0526 70.0815Z" fill="black"/>
</svg>
