<svg width="469" height="408" fill="none" xmlns="http://www.w3.org/2000/svg"><path d="M232.086 110.015c11.923 0 23.329 1.481 33.943 4.965a78.447 78.447 0 0 1 23.968 13.002 124.742 124.742 0 0 1 14.055 13.056 93.943 93.943 0 0 1 15.833 22.531c6.089 12.407 9.067 26.476 8.891 40.813-.177 14.179-3.8 27.314-9.859 39.454-7.387 14.81-17.264 27.982-30.881 37.633-15.905 11.308-35.075 16.528-55.865 16.224-25.765-.267-49.247-9.614-66.096-26.221-17.362-17.111-27.16-41.226-27.263-67.436-.14-16.983 2.953-32.777 10.212-46.676a87.714 87.714 0 0 1 30.326-33.269c15.626-9.93 33.614-14.076 52.736-14.076z" stroke="#3AD0E6" stroke-width="1.98" stroke-linecap="round" stroke-linejoin="round" opacity=".98"/><path d="M231.142 108.844c12.294 0 24.041.856 35.051 3.988 9.189 2.646 17.41 7.32 24.748 13.299a175.468 175.468 0 0 1 14.512 13.626c6.601 6.853 12.495 14.088 16.935 22.786 6.601 12.868 9.384 27.697 9.03 42.307-.359 14.458-4.536 27.545-11.162 40.006-7.995 15.035-17.288 28.838-31.568 38.883-16.527 11.648-36.087 15.563-57.4 15.023-26.185-.668-50.166-9.208-67.132-26.1-17.44-17.402-26.319-42.143-26.52-68.565-.201-17.353 1.602-33.384 8.465-47.702a82.846 82.846 0 0 1 30.691-34.55c16.576-10.312 35.015-13.044 54.35-13.001z" stroke="#3AD0E6" stroke-width="1.96" stroke-linecap="round" stroke-linejoin="round" opacity=".96"/><path d="M230.204 107.69c12.654.031 24.754.237 36.148 3.035 9.615 2.343 18.049 7.236 25.539 13.578 4.433 3.758 9.835 9.014 14.962 14.161 6.942 6.962 13.3 14.07 18.044 23.066 7.1 13.353 9.706 28.91 9.177 43.799-.536 14.744-5.262 27.776-12.466 40.553-8.598 15.259-17.312 29.699-32.274 40.109-17.143 11.988-37.104 14.628-58.929 13.815-26.575-1.02-51.079-8.801-68.142-25.985-17.502-17.633-25.418-43.017-25.778-69.639-.249-17.754.226-34.058 6.699-48.777 6.187-14.191 16.917-27.247 31.057-35.812 17.538-10.67 36.403-11.927 55.963-11.903z" stroke="#3AD0E6" stroke-width="1.94" stroke-linecap="round" stroke-linejoin="round" opacity=".94"/><path d="M229.26 106.543c13.025.037 25.479-.4 37.256 2.04 10.029 2.069 18.664 7.15 26.319 13.851 4.263 3.751 9.944 9.39 15.425 14.713 7.277 7.078 14.103 14.046 19.145 23.308 7.594 13.803 10.03 30.125 9.317 45.293-.706 15.023-5.98 28.012-13.756 41.099-9.201 15.484-17.343 30.555-32.951 41.335-17.757 12.322-38.114 13.694-60.463 12.607-26.989-1.323-52.029-8.322-69.177-25.778-17.611-17.9-24.547-43.891-25.041-70.744-.341-18.155-1.114-34.695 4.957-49.851 5.852-14.61 16.692-28.377 31.41-37.117 18.488-10.98 37.78-10.792 57.559-10.756z" stroke="#3AD0E6" stroke-width="1.92" stroke-linecap="round" stroke-linejoin="round" opacity=".92"/><path d="M228.322 105.396c13.397.043 26.185-1.038 38.364 1.062 10.45 1.821 19.268 7.059 27.099 14.131 4.135 3.733 10.06 9.76 15.882 15.265 7.612 7.187 14.882 14.034 20.26 23.563 8.056 14.289 10.352 31.339 9.457 46.786-.889 15.308-6.699 28.243-15.06 41.645-9.792 15.715-17.367 31.411-33.639 42.562-18.372 12.661-39.131 12.746-61.997 11.399-27.404-1.645-52.98-7.891-70.201-25.609-17.696-18.167-23.688-44.789-24.303-71.848-.427-18.555-2.479-35.344 3.203-50.926 5.48-15.041 16.442-29.499 31.775-38.403 19.444-11.308 39.156-9.669 59.16-9.627z" stroke="#3AD0E6" stroke-width="1.9" stroke-linecap="round" stroke-linejoin="round" opacity=".9"/><path d="M227.384 104.243c13.757.054 26.91-1.669 39.461.091 10.876 1.517 19.864 6.962 27.878 14.41 3.988 3.708 10.169 10.13 16.344 15.781 7.917 7.284 15.681 14.015 21.362 23.818 8.526 14.762 10.669 32.558 9.604 48.285-1.066 15.593-7.424 28.48-16.357 42.191-10.407 15.976-17.398 32.298-34.333 43.818-18.993 13.002-40.142 11.836-63.526 10.191-27.817-1.96-53.893-7.441-71.248-25.444-17.769-18.428-22.824-45.657-23.561-72.941-.505-18.962-3.842-36 1.456-52.012 5.127-15.472 16.241-30.61 32.134-39.678 20.419-11.642 40.557-8.559 60.786-8.51z" stroke="#3AD0E6" stroke-width="1.88" stroke-linecap="round" stroke-linejoin="round" opacity=".88"/><path d="M226.441 103.096c14.121.06 27.64-2.313 40.568-.893 11.296 1.214 20.461 6.865 28.658 14.689 3.854 3.679 10.279 10.513 16.801 16.389 8.282 7.393 16.484 13.972 22.476 24.079 9.037 15.229 10.962 33.772 9.744 49.772-1.218 15.873-8.142 28.716-17.66 42.738-10.973 16.139-17.422 33.135-35.021 44.995-19.608 13.354-41.159 10.926-65.061 8.983-28.225-2.282-54.806-6.998-72.247-25.274-17.854-18.689-21.971-46.556-22.823-74.046-.609-19.363-5.213-36.655-.299-53.086 4.762-15.903 16.022-31.733 32.5-40.965 21.356-11.994 41.915-7.442 62.364-7.381z" stroke="#3AD0E6" stroke-width="1.86" stroke-linecap="round" stroke-linejoin="round" opacity=".86"/><path d="M225.503 101.942c14.487.073 28.359-2.95 41.671-1.863 11.722.965 21.051 6.762 29.437 14.968 3.72 3.642 10.352 10.883 17.264 16.911 8.592 7.538 17.282 13.96 23.578 24.339 9.537 15.697 11.309 34.993 9.89 51.272-1.425 16.158-8.854 28.947-18.963 43.284-11.57 16.388-17.453 33.991-35.709 46.24-20.224 13.675-42.171 9.984-66.59 7.763-28.621-2.598-55.756-6.555-73.275-25.105-17.934-18.944-21.113-47.423-22.051-75.138-.688-19.763-6.583-37.305-2.052-54.161 4.397-16.34 15.796-32.85 32.884-42.246 22.263-12.297 43.242-6.33 63.916-6.264z" stroke="#3AD0E6" stroke-width="1.84" stroke-linecap="round" stroke-linejoin="round" opacity=".84"/><path d="M224.534 100.795c14.859.079 29.09-3.6 42.78-2.84 12.179.68 21.642 6.676 30.216 15.241 3.593 3.599 10.492 11.265 17.721 17.469 8.921 7.654 18.086 13.96 24.687 24.594 10.041 16.164 11.661 36.207 10.041 52.771-1.601 16.431-9.566 29.184-20.26 43.824-12.142 16.632-17.483 34.835-36.403 47.466-20.826 14.034-43.169 9.062-68.106 6.568-29.053-2.908-56.7-6.119-74.298-24.941-18.019-19.187-20.26-48.322-21.338-76.243-.78-20.164-7.953-37.96-3.806-55.235 4.031-16.771 15.577-33.991 33.218-43.533 23.281-12.625 44.68-5.22 65.548-5.141z" stroke="#3AD0E6" stroke-width="1.82" stroke-linecap="round" stroke-linejoin="round" opacity=".82"/><path d="M223.621 99.642c15.224.09 29.839-4.249 43.881-3.812 12.575.389 22.227 6.543 31.002 15.52 3.465 3.551 10.59 11.636 18.172 18.016 9.25 7.775 18.877 13.96 25.801 24.886 10.517 16.631 11.954 37.42 10.176 54.264-1.784 16.716-10.279 29.42-21.563 44.376-12.721 16.856-17.508 35.685-37.092 48.692-21.46 14.349-44.198 8.134-69.652 5.354-29.468-3.254-57.626-5.724-75.322-24.801-18.098-19.485-19.408-49.208-20.595-77.354-.871-20.565-9.323-38.61-5.56-56.31 3.654-17.208 15.358-35.083 33.584-44.819 24.237-12.94 46.049-4.097 67.168-4.012z" stroke="#3AD0E6" stroke-width="1.8" stroke-linecap="round" stroke-linejoin="round" opacity=".8"/><path d="M222.708 98.483c15.589.09 30.545-4.34 44.989-4.79 12.996-.4 22.806 6.428 31.782 15.782 3.349 3.502 10.693 12.018 18.634 18.568 9.573 7.89 19.687 13.912 26.904 25.116 10.985 17.123 12.27 38.659 10.285 55.794-1.955 16.995-10.961 29.657-22.86 44.917-13.3 17.092-17.532 36.54-37.756 49.918-22.074 14.682-45.215 7.217-71.187 4.145-29.875-3.532-58.551-5.232-76.345-24.601-18.226-19.751-18.585-50.1-19.882-78.458-.962-20.971-10.693-39.272-7.307-57.39 3.294-17.645 15.132-36.2 33.943-46.13 25.198-13.239 47.431-2.95 68.8-2.871z" stroke="#3AD0E6" stroke-width="1.78" stroke-linecap="round" stroke-linejoin="round" opacity=".78"/><path d="M221.739 97.347c15.955.098 31.282-4.983 46.092-5.766 13.397-.71 23.39 6.307 32.561 16.073 3.234 3.442 10.797 12.395 19.091 19.114 9.895 8.018 20.491 13.894 28.012 25.372 11.509 17.602 12.593 39.854 10.456 57.256-2.132 17.281-11.692 29.9-24.158 45.469-13.884 17.323-17.562 37.396-38.473 51.144-22.69 15.023-46.226 6.294-72.716 2.938-30.296-3.842-59.489-4.789-77.374-24.431-18.269-20.03-17.708-50.986-19.115-79.557-1.054-21.372-12.064-39.927-9.067-58.464 2.935-18.082 14.925-37.317 34.308-47.406 26.167-13.566 48.82-1.82 70.383-1.742z" stroke="#3AD0E6" stroke-width="1.76" stroke-linecap="round" stroke-linejoin="round" opacity=".76"/><path d="M220.802 96.194c16.32.11 31.988-6.21 47.194-6.737 13.854-.486 25.947 4.674 33.34 16.352 3.654 2.768 10.907 12.746 19.554 19.666 10.218 8.14 21.313 13.863 29.12 25.627 12.003 18.039 12.916 41.074 10.602 58.749-2.314 17.56-12.398 30.143-25.461 46.016-14.456 17.559-17.586 38.239-39.162 52.37-23.31 15.362-47.236 5.378-74.25 1.73-30.703-4.146-60.414-4.352-78.397-24.28-18.341-20.285-16.849-51.848-18.372-80.643-1.151-21.772-13.433-40.583-10.821-59.539 2.558-18.513 14.694-38.434 34.668-48.667 27.129-13.906 50.196-.753 71.985-.644z" stroke="#3AD0E6" stroke-width="1.75" stroke-linecap="round" stroke-linejoin="round" opacity=".75"/><path d="M219.858 95.047c16.685.115 32.719-6.871 48.302-7.715 14.274-.777 26.697 4.462 34.102 16.626 3.58 2.695 11.004 13.159 20.01 20.218 10.559 8.297 22.117 13.845 30.247 25.9 12.502 18.507 13.239 42.288 10.748 60.243-2.491 17.845-13.099 30.385-26.764 46.561-15.029 17.797-17.611 39.114-39.85 53.597-23.926 15.696-48.254 4.461-75.778.521-31.118-4.449-61.353-3.908-79.42-24.097-18.434-20.54-16.016-52.758-17.66-81.76-1.218-22.173-14.804-41.232-12.569-60.613 2.192-18.95 14.475-39.545 35.027-49.954 28.11-14.24 51.597.352 73.605.473z" stroke="#3AD0E6" stroke-width="1.73" stroke-linecap="round" stroke-linejoin="round" opacity=".73"/><path d="M218.92 93.894c17.051.127 33.438-7.527 49.405-8.686 14.7-1.075 27.451 4.249 34.899 16.904 3.483 2.622 11.107 13.536 20.473 20.765 10.858 8.382 22.897 13.845 31.337 26.149 12.995 18.974 13.555 43.502 10.888 61.736-2.667 18.124-13.805 30.628-28.061 47.107-15.607 18.04-17.659 39.97-40.544 54.823-24.541 16.036-49.265 3.545-77.338-.686-31.507-4.722-62.259-3.466-80.418-23.927-18.513-20.801-15.169-53.633-16.899-82.865-1.333-22.574-16.174-41.882-14.322-61.687 1.826-19.387 14.255-40.668 35.392-51.236 29.041-14.549 52.955 1.475 75.188 1.603z" stroke="#3AD0E6" stroke-width="1.71" stroke-linecap="round" stroke-linejoin="round" opacity=".71"/><path d="M217.976 92.747c17.422.133 34.168-8.189 50.507-9.664 15.132-1.371 28.207 4.03 35.685 17.178 3.392 2.549 11.211 13.918 20.929 21.323 11.181 8.498 23.701 13.797 32.446 26.404 13.488 19.423 13.878 44.716 11.034 63.229-2.85 18.41-14.511 30.871-29.364 47.654-16.18 18.276-17.66 40.826-41.232 56.049-25.162 16.388-50.282 2.634-78.842-1.894-31.946-5.056-63.216-3.035-81.472-23.757-18.592-21.069-14.323-54.538-16.156-83.958-1.431-22.974-17.55-42.543-16.076-62.762 1.449-19.824 14.006-41.772 35.752-52.522 30.021-14.877 54.337 2.586 76.789 2.72z" stroke="#3AD0E6" stroke-width="1.69" stroke-linecap="round" stroke-linejoin="round" opacity=".69"/><path d="M217.038 91.6c17.782.139 34.893-8.85 51.609-10.641 15.559-1.67 28.962 3.818 36.471 17.457 3.288 2.476 11.308 14.3 21.38 21.851 11.503 8.637 24.504 13.779 33.56 26.665 14.006 19.903 14.194 45.93 11.174 64.722-3.045 18.695-15.224 31.114-30.667 48.2-16.746 18.519-17.696 41.682-41.921 57.275-25.777 16.716-51.292 1.718-80.382-3.102-32.36-5.359-64.147-2.585-82.489-23.593-18.671-21.311-13.476-55.381-15.413-85.044-1.528-23.381-18.926-43.205-17.824-63.848 1.072-20.255 13.811-42.877 36.105-53.803 30.984-15.175 55.72 3.715 78.397 3.86z" stroke="#3AD0E6" stroke-width="1.67" stroke-linecap="round" stroke-linejoin="round" opacity=".67"/><path d="M216.094 90.446c18.153.152 35.618-9.511 52.718-11.617 15.985-1.967 29.711 3.605 37.25 17.742 3.19 2.428 11.411 14.682 21.843 22.415 11.82 8.765 25.302 13.761 34.662 26.92 14.481 20.376 14.517 47.156 11.314 66.228-3.197 18.968-15.906 31.356-31.958 48.74-17.325 18.756-17.727 42.537-42.627 58.501-26.392 17.05-52.309.807-81.905-4.31-32.774-5.657-65.079-2.142-83.518-23.423-18.756-21.59-12.636-56.31-14.676-86.191-1.626-23.782-20.296-43.855-19.578-64.947.701-20.686 13.592-43.988 36.471-55.084 31.958-15.466 57.114 4.874 80.004 5.026z" stroke="#3AD0E6" stroke-width="1.65" stroke-linecap="round" stroke-linejoin="round" opacity=".65"/><path d="M215.157 89.299c18.518.158 36.342-10.18 53.819-12.595 16.405-2.264 30.448 3.393 38.029 18.015 3.094 2.331 11.51 15.066 22.3 22.968 12.143 8.893 26.113 13.736 35.771 27.181 14.98 20.844 14.84 48.37 11.46 67.721-3.38 19.253-16.606 31.605-33.261 49.287-17.891 18.998-17.751 43.393-43.303 59.733-27.007 17.383-53.32-.11-83.427-5.524-33.194-5.961-66.023-1.7-84.572-23.253-18.835-21.852-11.795-57.196-13.933-87.272-1.723-24.182-21.673-44.51-21.313-65.997.329-21.123 13.397-45.099 36.829-56.37 32.915-15.812 58.485 5.942 81.601 6.106z" stroke="#3AD0E6" stroke-width="1.63" stroke-linecap="round" stroke-linejoin="round" opacity=".63"/><path d="M214.213 88.164c18.877.17 37.067-10.84 54.927-13.566 16.832-2.568 31.216 3.174 38.809 18.294 3.002 2.258 11.613 15.448 22.763 23.521 12.459 9.019 26.91 13.711 36.878 27.435 15.474 21.305 15.157 49.584 11.601 69.196-3.556 19.533-17.306 31.848-34.558 49.833-18.464 19.241-17.794 44.249-43.979 60.959-27.628 17.724-54.337-1.02-84.968-6.725-33.62-6.264-66.967-1.263-85.582-23.096-18.927-22.118-10.962-58.082-13.197-88.37-1.826-24.583-23.049-45.166-23.085-67.071-.043-21.56 13.159-46.21 37.189-57.664 33.882-16.115 59.866 7.066 83.202 7.254z" stroke="#3AD0E6" stroke-width="1.61" stroke-linecap="round" stroke-linejoin="round" opacity=".61"/><path d="M213.275 86.999c19.249.175 37.792-11.533 56.024-14.568 17.258-2.871 31.97 2.962 39.582 18.568 2.905 2.185 11.71 15.836 23.22 24.072 12.788 9.148 27.713 13.694 37.986 27.697 15.967 21.772 15.48 50.798 11.747 70.707-3.733 19.909-18.007 32.097-35.861 50.379-19.03 19.484-17.806 45.105-44.686 62.185-28.243 18.058-55.354-1.93-86.472-7.933-34.034-6.537-67.892-.801-86.605-22.901-19.006-22.386-10.115-58.938-12.46-89.475-1.912-24.983-24.419-45.821-24.833-68.146-.414-21.997 12.941-47.344 37.555-58.938 34.844-16.443 61.242 8.17 84.803 8.353z" stroke="#3AD0E6" stroke-width="1.59" stroke-linecap="round" stroke-linejoin="round" opacity=".59"/><path d="M212.355 85.845c19.615.188 38.511-12.14 57.133-15.514 17.659-3.175 32.719 2.75 40.367 18.816 2.808 2.112 11.814 16.219 23.683 24.619 13.098 9.275 28.517 13.67 39.095 27.958 16.442 22.24 15.796 52.012 11.887 72.231-3.91 20.218-18.708 32.346-37.147 50.925-19.596 19.727-17.836 45.961-45.373 63.411-28.859 18.398-56.365-2.84-88.031-9.141-34.43-6.859-68.812-.382-87.617-22.755-19.084-22.647-9.274-59.855-11.716-90.58-2.016-25.384-25.795-46.477-26.587-69.196-.786-22.458 12.721-48.43 37.914-60.218 35.776-16.765 62.588 9.262 86.392 9.444z" stroke="#3AD0E6" stroke-width="1.57" stroke-linecap="round" stroke-linejoin="round" opacity=".57"/><path d="M211.393 84.698c19.986.194 39.235-12.838 58.241-16.492 18.098-3.478 33.492 2.531 41.147 19.12 2.71 2.04 11.911 16.607 24.139 25.172 13.397 9.408 29.321 13.651 40.191 28.218 16.972 22.713 16.131 53.226 12.045 73.7-4.086 20.473-19.407 32.601-38.461 51.472-20.169 19.975-17.867 46.822-46.062 64.637-29.486 18.738-57.388-3.745-89.571-10.319-34.845-7.186-69.738.025-88.64-22.634-19.164-22.913-8.434-60.746-10.961-91.654-2.125-25.803-27.16-47.144-28.378-70.313-1.157-22.864 12.502-49.541 38.279-61.505 36.8-17.068 64.026 10.422 88.031 10.598z" stroke="#3AD0E6" stroke-width="1.55" stroke-linecap="round" stroke-linejoin="round" opacity=".55"/><path d="M210.455 83.55c20.346.201 39.954-13.51 59.343-17.468 18.525-3.781 34.224 2.319 41.927 19.423 2.618 1.967 12.015 16.996 24.602 25.724 13.738 9.53 30.119 13.621 41.305 28.474 17.459 23.168 16.442 54.446 12.179 75.186-4.262 20.741-20.095 32.85-39.765 52.018-20.735 20.195-17.891 47.661-46.749 65.87-30.101 19.077-58.405-4.65-91.1-11.533-35.259-7.502-70.676.449-89.663-22.458-19.249-23.193-7.612-61.645-10.236-92.795-2.217-26.191-28.548-47.788-30.095-71.375-1.528-23.302 12.289-50.652 38.638-62.792 37.743-17.378 65.384 11.52 89.614 11.727z" stroke="#3AD0E6" stroke-width="1.53" stroke-linecap="round" stroke-linejoin="round" opacity=".53"/><path d="M209.511 82.397c20.705.213 40.679-14.172 60.452-18.44 18.944-4.09 34.978 2.1 42.712 19.679 2.515 1.894 12.106 17.372 25.052 26.27 14.061 9.663 30.96 13.578 42.42 28.728 18.001 23.606 16.765 55.666 12.313 76.686-4.451 21.02-20.796 33.099-41.062 52.565-21.313 20.467-17.915 48.558-47.437 67.089-30.716 19.424-59.422-5.56-92.635-12.746-35.673-7.758-71.607.922-90.686-22.271-19.334-23.441-6.759-62.518-9.493-93.881-2.32-26.592-29.93-48.443-31.849-72.449-1.9-23.739 12.07-51.764 38.974-64.073 38.735-17.694 66.79 12.631 91.239 12.843z" stroke="#3AD0E6" stroke-width="1.51" stroke-linecap="round" stroke-linejoin="round" opacity=".51"/><path opacity=".49" d="M208.574 81.25c21.082.219 41.409-14.846 61.553-19.423 19.365-4.395 35.728 1.888 43.492 19.951 2.436 1.821 12.209 17.76 25.509 26.823 14.377 9.79 31.763 13.56 43.528 28.989 18.5 24.073 17.087 56.88 12.459 78.185s-21.496 33.348-42.359 53.105c-21.873 20.71-17.946 49.39-48.107 68.316-31.331 19.751-60.433-6.465-94.169-13.961-36.111-8.061-72.557 1.378-91.733-22.088-19.414-23.702-5.919-63.405-8.751-94.986-2.436-26.993-31.307-49.093-33.602-73.524-2.278-24.17 11.85-52.874 39.363-65.36 39.673-18.002 68.142 13.749 92.817 13.973z" stroke="#3AD0E6" stroke-width="1.49" stroke-linecap="round" stroke-linejoin="round"/><path opacity=".47" d="M207.63 80.097c21.447.23 42.121-15.514 62.661-20.388 19.785-4.704 36.477 1.675 44.272 20.23 2.32 1.748 12.307 18.149 25.972 27.375 14.694 9.918 32.56 13.53 44.636 29.244 19.006 24.535 17.404 58.095 12.599 79.679-4.804 21.584-22.19 33.596-43.662 53.651-22.44 20.959-17.97 50.246-48.82 69.541-31.952 20.092-61.45-7.368-95.697-15.174-36.507-8.328-73.471 1.821-92.732-21.912-19.487-23.97-5.085-64.291-8.014-96.091-2.527-27.387-32.683-49.772-35.356-74.598-2.65-24.607 11.631-53.979 39.722-66.64 40.642-18.325 69.525 14.853 94.419 15.083z" stroke="#3AD0E6" stroke-width="1.47" stroke-linecap="round" stroke-linejoin="round"/><path opacity=".45" d="M206.692 78.95c21.813.237 42.84-16.182 63.764-21.366 20.211-5.007 37.232 1.457 45.063 20.504 2.228 1.675 12.404 18.537 26.428 27.921 15.005 10.076 33.353 13.518 45.733 29.499 19.487 25.002 17.727 59.308 12.745 81.172-4.981 21.863-22.89 33.863-44.965 54.185-23 21.208-17.995 51.102-49.508 70.774-32.567 20.443-62.467-8.255-97.25-16.37-36.921-8.62-74.397 2.27-93.78-21.749-19.578-24.23-4.262-65.177-7.271-97.183-2.63-27.794-34.059-50.41-37.11-75.685-3.044-25.037 11.419-55.083 40.082-67.92 41.653-18.629 70.95 15.981 96.069 16.218z" stroke="#3AD0E6" stroke-width="1.45" stroke-linecap="round" stroke-linejoin="round"/><path opacity=".43" d="M205.754 77.797c22.178.249 43.559-16.85 64.86-22.343 20.638-5.311 37.987 1.25 45.836 20.789 2.132 1.602 12.508 18.92 26.892 28.473 15.333 10.185 34.168 13.493 46.847 29.742 19.986 25.493 18.049 60.528 12.892 82.665-5.158 22.136-23.585 34.106-46.281 54.743-23.573 21.457-18.031 51.958-50.203 72-33.182 20.759-63.483-9.183-98.76-17.602-37.317-8.886-75.316 2.731-94.742-21.554-19.657-24.498-3.41-66.064-6.534-98.288-2.728-28.194-35.435-51.059-38.857-76.759-3.398-25.493 11.199-56.194 40.447-69.196 42.547-18.95 72.258 17.087 97.603 17.33z" stroke="#3AD0E6" stroke-width="1.43" stroke-linecap="round" stroke-linejoin="round"/><path opacity=".41" d="M204.81 76.631c22.532.255 44.284-17.523 65.969-23.32 21.057-5.62 38.741 1.032 46.615 21.068 2.034 1.53 12.606 19.308 27.348 29.02 15.651 10.319 34.973 13.469 47.962 30.027 20.479 25.937 18.366 61.742 13.032 84.158-5.335 22.416-24.286 34.355-47.566 55.29-24.139 21.706-18.056 52.807-50.891 73.226-33.803 21.117-64.476-10.07-100.295-18.786-37.755-9.202-76.265 3.15-95.801-21.408-19.748-24.759-2.582-66.95-5.797-99.393-2.832-28.595-36.811-51.715-40.611-77.833-3.77-25.906 10.961-57.3 40.8-70.489 43.546-19.26 73.671 18.203 99.235 18.44z" stroke="#3AD0E6" stroke-width="1.41" stroke-linecap="round" stroke-linejoin="round"/><path opacity=".39" d="M203.873 75.502c22.909.261 44.995-18.21 67.07-24.279 21.478-5.93 39.491.82 47.395 21.341 1.937 1.457 12.703 19.697 27.811 29.579 15.967 10.44 35.77 13.444 49.064 30.276 20.978 26.385 18.707 62.944 13.178 85.639-5.53 22.695-24.968 34.598-48.863 55.842-24.705 21.948-18.074 53.663-51.566 74.446-34.419 21.439-65.518-10.986-101.824-20.03-38.169-9.494-77.198 3.593-96.824-21.245-19.828-25.019-1.748-67.83-5.055-100.491-2.935-28.996-38.187-52.364-42.365-78.908-4.147-26.343 10.767-58.41 41.166-71.77 44.484-19.556 75.023 19.333 100.813 19.6z" stroke="#3AD0E6" stroke-width="1.39" stroke-linecap="round" stroke-linejoin="round"/><path opacity=".37" d="M202.929 74.35c23.28.272 45.72-18.866 68.203-25.27 21.922-6.24 40.246.608 48.18 21.621 1.827 1.384 12.789 20.085 28.262 30.125 16.29 10.573 36.574 13.42 50.178 30.537 21.472 26.871 19.006 64.176 13.312 87.15-5.694 22.974-25.668 34.865-50.16 56.382-25.272 22.204-18.11 54.531-52.273 75.679-35.033 21.772-66.534-11.891-103.358-21.245-38.589-9.766-78.172 4.055-97.877-21.056-19.877-25.268-.908-68.722-4.312-101.596-3.045-29.396-39.582-53.02-44.119-79.982-4.524-26.774 10.547-59.514 41.531-73.056 45.483-19.873 76.424 20.437 102.433 20.71z" stroke="#3AD0E6" stroke-width="1.37" stroke-linecap="round" stroke-linejoin="round"/><path opacity=".35" d="M202.003 73.202c23.646.279 46.439-19.539 69.281-26.246 22.312-6.55 40.995.388 48.96 21.894 1.742 1.31 12.898 20.473 28.719 30.677 16.606 10.707 37.383 13.402 51.286 30.798 21.965 27.314 19.328 65.39 13.458 88.619-5.871 23.229-26.368 35.12-51.463 56.928-25.832 22.459-18.135 55.387-52.979 76.905-35.649 22.112-67.552-12.789-104.887-22.458-38.973-10.07-79.061 4.473-98.882-20.905-19.986-25.554-.073-69.608-3.569-102.701-3.148-29.79-40.946-53.675-45.873-81.056-4.871-27.21 10.353-60.625 41.89-74.343 46.452-20.134 77.813 21.609 104.059 21.888z" stroke="#3AD0E6" stroke-width="1.35" stroke-linecap="round" stroke-linejoin="round"/><path opacity=".33" d="M201.047 72.049c24.011.29 47.158-20.207 70.389-27.218 22.733-6.858 41.75.177 49.74 22.173 1.644 1.215 12.995 20.862 29.181 31.224 16.923 10.84 38.182 13.353 52.37 31.059 22.465 27.799 19.651 66.61 13.604 90.136-6.047 23.527-27.062 35.375-52.76 57.475-26.404 22.701-18.165 56.243-53.655 78.131-36.269 22.458-68.574-13.694-106.421-23.672-39.418-10.362-79.993 4.916-99.869-20.735-20.095-25.815.755-70.495-2.831-103.794-3.258-30.197-42.33-54.33-47.627-82.136-5.273-27.642 10.115-61.73 42.256-75.624 47.395-20.473 79.176 22.707 105.623 22.98z" stroke="#3AD0E6" stroke-width="1.33" stroke-linecap="round" stroke-linejoin="round"/><path opacity=".31" d="M200.109 70.901c24.358.298 47.876-20.886 71.492-28.194 23.14-7.168 42.499-.042 50.543 22.458 1.547 1.166 13.093 21.245 29.638 31.782 17.246 10.968 38.973 13.353 53.503 31.314 22.958 28.267 19.968 67.824 13.744 91.654-6.223 23.83-27.756 35.63-54.063 58.015-26.965 22.956-18.19 57.099-54.343 79.357-36.885 22.786-69.592-14.568-107.95-24.85-39.844-10.646-80.93 5.36-100.929-20.571-20.156-26.1 1.59-71.374-2.088-104.898-3.362-30.598-43.705-54.986-49.38-83.211-5.646-28.079 9.895-62.84 42.626-76.91C141.241 26.015 173.431 70.604 200.11 70.9z" stroke="#3AD0E6" stroke-width="1.31" stroke-linecap="round" stroke-linejoin="round"/><path opacity=".29" d="M199.171 69.748c24.742.31 48.589-21.554 72.594-29.135 23.567-7.478 43.236-.255 51.299 22.725 1.455 1.093 13.19 21.64 30.1 32.328 17.556 11.102 39.783 13.354 54.605 31.563 23.457 28.735 20.291 69.038 13.891 93.129-6.4 24.091-28.445 35.867-55.367 58.543-27.531 23.205-18.214 57.955-55.031 80.583-37.5 23.126-70.609-15.49-109.484-26.058-40.258-10.925-81.856 5.803-101.952-20.4-20.235-26.343 2.436-72.267-1.346-106.003-3.47-30.999-45.062-55.636-51.152-84.285-6.023-28.528 9.676-63.946 42.974-78.192 49.362-21.116 81.966 24.899 108.869 25.202z" stroke="#3AD0E6" stroke-width="1.29" stroke-linecap="round" stroke-linejoin="round"/><path opacity=".27" d="M198.227 68.6c25.108.317 49.326-22.227 73.684-30.142 23.987-7.787 44.003-.467 52.078 23.005 1.358 1.02 13.294 22.027 30.558 32.874 17.879 11.235 40.593 13.311 55.719 31.836 23.95 29.202 20.607 70.252 14.006 94.622-6.601 24.37-29.102 36.14-56.633 59.108-28.097 23.454-18.269 58.81-55.725 81.815-38.121 23.46-71.626-16.389-111.013-27.266-40.679-11.229-82.818 6.234-102.975-20.237-20.32-26.61 3.252-73.153-.609-107.107-3.574-31.399-46.457-56.286-52.881-85.36-6.395-28.947 9.463-65.05 43.339-79.478 50.288-21.42 83.33 26.015 110.452 26.33z" stroke="#3AD0E6" stroke-width="1.27" stroke-linecap="round" stroke-linejoin="round"/><path opacity=".25" d="M197.29 67.454c25.472.321 50.025-22.902 74.804-31.12 24.407-8.097 44.758-.686 52.857 23.277 1.261.947 13.397 22.416 31.021 33.433 18.195 11.363 41.409 13.287 56.821 32.085 24.444 29.669 20.93 71.472 14.177 96.121-6.754 24.65-29.839 36.419-57.967 59.654-28.663 23.709-18.268 59.666-56.413 83.041-38.73 23.8-72.643-17.293-112.548-28.473-41.092-11.533-83.719 6.677-103.997-20.073-20.4-26.865 4.086-74.052.127-108.206-3.653-31.794-47.894-56.929-54.635-86.434C34.71 91.393 50.78 54.598 85.236 40c51.28-21.736 84.705 27.126 112.054 27.454z" stroke="#3AD0E6" stroke-width="1.25" stroke-linecap="round" stroke-linejoin="round"/><path opacity=".24" d="M196.346 66.313c25.844.333 50.744-23.576 75.912-32.092 24.821-8.412 45.508-.898 53.643 23.557 1.157.875 13.483 22.805 31.471 33.991 18.513 11.497 42.195 13.269 57.93 32.346 24.967 30.137 21.259 72.686 14.323 97.615-6.936 24.929-30.539 36.655-59.27 60.206-29.23 23.952-18.269 60.516-57.102 84.261-39.35 24.134-73.683-18.209-114.075-29.681-41.513-11.806-84.645 7.12-105.027-19.903-20.48-27.132 4.92-74.92.87-109.311-3.787-32.17-49.27-57.578-56.389-87.515-7.198-29.802 9.055-67.222 44.058-82.063 52.291-21.942 86.088 28.249 113.656 28.589z" stroke="#3AD0E6" stroke-width="1.24" stroke-linecap="round" stroke-linejoin="round"/><path opacity=".22" d="M195.408 65.153c26.185.34 51.463-24.279 77.015-33.074 25.241-8.716 46.281-1.11 54.422 23.836 1.066.801 13.58 23.199 31.934 34.531 18.829 11.63 42.992 13.244 59.038 32.607 25.436 30.604 21.576 73.906 14.457 99.108-7.119 25.202-31.227 36.91-60.561 60.753-29.796 24.206-18.329 61.371-57.796 85.487-39.966 24.467-74.682-19.09-115.61-30.89-41.933-12.091-85.589 7.563-106.044-19.733-20.57-27.399 5.749-75.805 1.608-110.409-3.898-32.601-50.641-58.24-58.143-88.619-7.57-30.228 8.835-68.31 44.453-83.327 53.217-22.233 87.434 29.39 115.227 29.73z" stroke="#3AD0E6" stroke-width="1.22" stroke-linecap="round" stroke-linejoin="round"/><path opacity=".2" d="M194.464 64c26.575.352 52.182-24.916 78.123-34.046 25.656-9.025 47.012-1.323 55.202 24.116.968.728 13.677 23.587 32.391 35.077 19.145 11.764 43.796 13.226 60.146 32.868 25.936 31.072 21.923 75.12 14.615 100.601-7.307 25.481-31.921 37.172-61.864 61.305-30.356 24.461-18.354 62.228-58.46 86.713-40.587 24.814-75.705-19.988-117.138-32.097-42.366-12.382-86.558 7.994-107.11-19.569-20.65-27.666 6.577-76.692 2.35-111.514-4.006-32.996-52.016-58.877-59.896-89.669-7.917-30.665 8.617-69.42 44.782-84.607C131.821 10.604 166.452 63.654 194.464 64z" stroke="#3AD0E6" stroke-width="1.2" stroke-linecap="round" stroke-linejoin="round"/><path opacity=".18" d="M193.526 62.853c26.941.358 52.894-25.59 79.22-35.023 26.081-9.335 47.766-1.536 55.987 24.395.871.655 13.775 23.975 32.847 35.63 19.487 11.89 44.606 13.201 61.261 33.122 26.423 31.563 22.215 76.334 14.743 102.094-7.472 25.761-32.616 37.427-63.161 61.846-30.929 24.71-18.354 63.089-59.154 87.921-41.202 25.147-76.729-20.887-118.673-33.305-42.767-12.662-87.453 8.443-108.096-19.424-20.644-27.866 7.41-77.572 3.093-112.613-4.116-33.384-53.393-59.545-61.65-90.743C21.63 85.657 38.34 46.222 75.09 30.859c55.154-22.817 90.205 31.636 118.436 31.994z" stroke="#3AD0E6" stroke-width="1.18" stroke-linecap="round" stroke-linejoin="round"/><path opacity=".16" d="M192.589 61.7c27.305.37 53.588-26.265 80.321-35.994 26.496-9.651 48.522-1.755 56.767 24.667.773.607 13.872 24.364 33.31 36.182 19.785 12.025 45.404 13.178 62.363 33.384 26.922 32 22.531 77.548 14.889 103.588-7.642 26.039-33.31 37.687-64.464 62.391-31.489 24.965-18.409 63.945-59.867 89.165-41.817 25.494-77.739-21.784-120.201-34.512-43.194-12.947-88.391 8.886-109.12-19.23-20.728-28.115 8.24-78.464 3.83-113.717-4.231-33.797-54.769-60.195-63.404-91.818-8.683-31.533 8.179-71.624 45.508-87.175C128.66 5.426 164.132 61.335 192.589 61.7z" stroke="#3AD0E6" stroke-width="1.16" stroke-linecap="round" stroke-linejoin="round"/><path opacity=".14" d="M191.651 60.552c27.671.377 54.331-26.938 81.429-36.97 26.916-9.961 49.271-1.968 57.547 24.946.682.51 14.006 24.753 33.766 36.728 20.096 12.14 46.208 13.16 63.472 33.639 27.403 32.474 22.86 78.768 15.035 105.093-7.825 26.325-34.004 37.942-65.767 62.932-32.025 25.22-18.445 64.801-60.561 90.391-42.438 25.827-78.762-22.683-121.736-35.721-43.608-13.232-89.316 9.323-110.142-19.059-20.827-28.382 9.067-79.35 4.567-114.822-4.336-34.198-56.14-60.85-65.158-92.868-9.02-32.019 7.959-72.753 45.866-88.462 57.132-23.544 93 33.797 121.682 34.173z" stroke="#3AD0E6" stroke-width="1.14" stroke-linecap="round" stroke-linejoin="round"/><path opacity=".12" d="M190.707 59.405c28.012.383 55.043-27.617 82.532-37.948 27.33-10.27 50.026-2.185 58.326 25.22.609.437 14.073 25.147 34.229 37.28 20.418 12.298 47.005 13.136 64.549 33.9 27.915 32.935 23.177 79.988 15.176 106.586-8.002 26.598-34.65 38.24-67.065 63.478-32.573 25.536-18.469 65.657-61.249 91.654-43.053 26.161-79.809-23.496-123.265-36.935-44.058-13.438-90.253 9.767-111.17-18.889-20.918-28.655 9.828-80.224 5.31-115.933-4.513-34.598-57.516-61.505-66.907-93.973-9.39-32.467 7.74-73.87 46.232-89.742C125.506.25 161.812 59.03 190.707 59.405z" stroke="#3AD0E6" stroke-width="1.12" stroke-linecap="round" stroke-linejoin="round"/><path opacity=".1" d="M189.763 58.252c28.408.395 55.762-28.285 83.64-38.92 27.744-10.585 50.775-2.428 59.112 25.493.481.365 14.14 25.573 34.68 37.834 20.704 12.46 47.815 13.11 65.688 34.154 28.414 33.384 23.499 81.202 15.321 108.079-8.178 26.877-35.35 38.519-68.386 64.031-33.139 25.778-18.494 66.513-61.937 92.868-43.668 26.494-80.826-24.407-124.799-38.143-44.454-13.736-91.179 10.209-112.194-18.725-21.015-28.935 10.669-81.111 6.053-117.02-4.616-34.992-58.892-62.161-68.66-95.047-9.768-32.886 7.52-74.98 46.591-91.047 59.057-24.152 95.771 36.055 124.891 36.443z" stroke="#3AD0E6" stroke-width="1.1" stroke-linecap="round" stroke-linejoin="round"/><path opacity=".08" d="M188.825 57.105c28.773.4 56.457-29.008 84.743-39.897 28.146-10.926 51.529-2.61 59.89 25.778.384.292 14.244 25.949 35.143 38.38 21.034 12.588 48.613 13.092 66.797 34.415 28.901 33.87 23.816 82.416 15.455 109.573-8.361 27.156-36.05 38.761-69.665 64.57-33.711 26.021-18.518 67.375-62.625 94.082-44.283 26.829-81.849-25.323-126.303-39.357-44.917-14.033-92.142 10.653-113.266-18.549-21.125-29.202 11.51-81.997 6.79-118.124-4.72-35.387-60.287-62.811-70.414-96.122-10.127-33.31 7.307-76.09 46.95-92.315 60.025-24.468 97.16 37.165 126.505 37.566z" stroke="#3AD0E6" stroke-width="1.08" stroke-linecap="round" stroke-linejoin="round"/><path opacity=".06" d="M187.881 55.951c29.139.413 57.181-29.669 85.863-40.868 28.566-11.247 52.279-2.828 60.67 26.052.287.218 14.348 26.337 35.6 38.932 21.362 12.746 49.417 13.068 67.905 34.677 29.4 34.336 24.139 83.629 15.601 111.077-8.537 27.448-36.762 38.974-70.974 65.105-34.29 26.264-18.548 68.224-63.331 95.296-44.905 27.174-82.861-26.228-127.881-40.559-45.3-14.331-93.048 11.09-114.24-18.385-21.192-29.475 12.35-82.883 7.533-119.229-4.817-35.812-61.645-63.466-72.168-97.196-10.523-33.73 7.082-77.202 47.316-93.597 60.993-24.777 98.541 38.289 128.106 38.695z" stroke="#3AD0E6" stroke-width="1.06" stroke-linecap="round" stroke-linejoin="round"/><path opacity=".04" d="M186.944 54.78c29.503.419 57.893-30.35 86.952-41.845 29.06-11.496 53.035-3.035 61.45 26.33.195.146 14.451 26.708 36.057 39.454 21.605 12.747 50.22 13.05 69.013 34.938 29.899 34.798 24.461 84.844 15.747 112.558-8.714 27.715-37.457 39.309-72.265 65.712-34.862 26.513-18.573 69.081-64.007 96.51-45.434 27.429-83.872-27.132-129.397-41.748-45.715-14.628-93.974 11.533-115.263-18.209-21.29-29.743 13.19-83.764 8.275-120.328-4.92-36.225-63.02-64.146-73.933-98.283-10.913-34.136 6.863-78.3 47.675-94.883 61.937-25.098 99.905 39.4 129.696 39.794z" stroke="#3AD0E6" stroke-width="1.04" stroke-linecap="round" stroke-linejoin="round"/><path opacity=".02" d="M186.006 53.657c29.869.425 58.612-30.998 88.055-42.822 29.443-11.824 53.783-3.26 62.229 26.604.098.072 14.548 27.107 36.538 40.06 21.989 12.953 51.024 13.02 70.121 35.205 30.393 35.266 24.778 86.058 15.888 114.052-8.891 27.994-38.158 39.508-73.568 66.209-35.411 26.701-18.598 69.936-64.696 97.724-46.098 27.788-84.888-28.043-130.926-42.974-46.134-14.926-94.911 11.976-116.31-18.052-21.399-30.027 14.006-84.655 9.012-121.432-5.024-36.589-64.39-64.771-75.675-99.351-11.284-34.58 6.644-79.417 48.04-96.158 62.894-25.42 101.276 40.504 131.292 40.935z" stroke="#3AD0E6" stroke-width="1.02" stroke-linecap="round" stroke-linejoin="round"/><g filter="url(#a)"><path d="m236.429 363-13.143-7.93c-48.905-29.251-85.715-56.365-113.524-139.511a361.506 361.506 0 0 1-18.238-92.596L91 108.717l38.429-26.26c37.333 14.959 56.857 21.037 108.19-23.457 48.857 45.111 69.714 37.988 105.952 23.458L382 108.717l-.524 14.246a361.039 361.039 0 0 1-18.19 92.596c-27.905 83.146-64.667 110.26-113.524 139.511L236.429 363z" fill="url(#b)"/></g><path d="M237 363c1.186-132.027 0-159.523 1.186-304 48.665 45.111 69.44 37.988 105.536 23.458L382 108.717l-.522 14.246a362.3 362.3 0 0 1-18.119 92.596c-27.795 83.146-64.413 110.26-113.078 139.511L237 363z" fill="url(#c)"/><defs><linearGradient id="b" x1="236.5" y1="59" x2="236.5" y2="363" gradientUnits="userSpaceOnUse"><stop stop-color="#3AD0E6"/><stop offset="1" stop-color="#3AD0E6"/></linearGradient><linearGradient id="c" x1="237" y1="64.999" x2="237" y2="362.952" gradientUnits="userSpaceOnUse"><stop stop-color="#1ED2ED"/><stop offset="1" stop-color="#fff"/></linearGradient><filter id="a" x="79" y="57" width="315" height="328" filterUnits="userSpaceOnUse" color-interpolation-filters="sRGB"><feFlood flood-opacity="0" result="BackgroundImageFix"/><feColorMatrix in="SourceAlpha" values="0 0 0 0 0 0 0 0 0 0 0 0 0 0 0 0 0 0 127 0" result="hardAlpha"/><feOffset dy="10"/><feGaussianBlur stdDeviation="6"/><feComposite in2="hardAlpha" operator="out"/><feColorMatrix values="0 0 0 0 0 0 0 0 0 0 0 0 0 0 0 0 0 0 0.04 0"/><feBlend in2="BackgroundImageFix" result="effect1_dropShadow_224_532"/><feBlend in="SourceGraphic" in2="effect1_dropShadow_224_532" result="shape"/></filter></defs></svg>