<svg width="469" height="408" viewBox="0 0 469 408" fill="none" xmlns="http://www.w3.org/2000/svg">
<g opacity="0.98">
<path d="M232.086 110.015C244.009 110.015 255.415 111.496 266.029 114.98C274.72 117.884 282.832 122.284 289.997 127.982C295.012 131.968 299.71 136.333 304.052 141.038C310.41 147.733 315.745 155.325 319.885 163.569C325.974 175.976 328.952 190.045 328.776 204.382C328.599 218.561 324.976 231.696 318.917 243.836C311.53 258.646 301.653 271.818 288.036 281.469C272.131 292.777 252.961 297.997 232.171 297.693C206.406 297.426 182.924 288.079 166.075 271.472C148.713 254.361 138.915 230.246 138.812 204.036C138.672 187.053 141.765 171.259 149.024 157.36C156.058 143.83 166.511 132.363 179.35 124.091C194.976 114.161 212.964 110.015 232.086 110.015Z" stroke="#3AD0E6" stroke-width="1.98" stroke-linecap="round" stroke-linejoin="round"/>
</g>
<g opacity="0.96">
<path d="M231.142 108.844C243.436 108.844 255.183 109.7 266.193 112.832C275.382 115.478 283.603 120.152 290.941 126.131C296.033 130.395 300.878 134.945 305.453 139.757C312.054 146.61 317.948 153.845 322.388 162.543C328.989 175.411 331.772 190.24 331.418 204.85C331.059 219.308 326.882 232.395 320.256 244.856C312.261 259.891 302.968 273.694 288.688 283.739C272.161 295.387 252.601 299.302 231.288 298.762C205.103 298.094 181.122 289.554 164.156 272.662C146.716 255.26 137.837 230.519 137.636 204.097C137.435 186.744 139.238 170.713 146.101 156.395C152.838 142.211 163.482 130.228 176.792 121.845C193.368 111.533 211.807 108.801 231.142 108.844Z" stroke="#3AD0E6" stroke-width="1.96" stroke-linecap="round" stroke-linejoin="round"/>
</g>
<g opacity="0.94">
<path d="M230.204 107.69C242.858 107.721 254.958 107.927 266.352 110.725C275.967 113.068 284.401 117.961 291.891 124.303C296.324 128.061 301.726 133.317 306.853 138.464C313.795 145.426 320.153 152.534 324.897 161.53C331.997 174.883 334.603 190.44 334.074 205.329C333.538 220.073 328.812 233.105 321.608 245.882C313.01 261.141 304.296 275.581 289.334 285.991C272.191 297.979 252.23 300.619 230.405 299.806C203.83 298.786 179.326 291.005 162.263 273.821C144.761 256.188 136.845 230.804 136.485 204.182C136.236 186.428 136.711 170.124 143.184 155.405C149.371 141.214 160.101 128.158 174.241 119.593C191.779 108.923 210.644 107.666 230.204 107.69Z" stroke="#3AD0E6" stroke-width="1.94" stroke-linecap="round" stroke-linejoin="round"/>
</g>
<g opacity="0.92">
<path d="M229.26 106.543C242.285 106.58 254.739 106.143 266.516 108.583C276.545 110.652 285.18 115.733 292.835 122.434C297.098 126.185 302.779 131.824 308.26 137.147C315.537 144.225 322.363 151.193 327.405 160.455C334.999 174.258 337.435 190.58 336.722 205.748C336.016 220.771 330.742 233.76 322.966 246.847C313.765 262.331 305.623 277.402 290.015 288.182C272.258 300.504 251.901 301.876 229.552 300.789C202.563 299.466 177.523 292.467 160.375 275.011C142.764 257.111 135.828 231.12 135.334 204.267C134.993 186.112 134.22 169.572 140.291 154.416C146.143 139.806 156.983 126.039 171.701 117.299C190.189 106.319 209.481 106.507 229.26 106.543Z" stroke="#3AD0E6" stroke-width="1.92" stroke-linecap="round" stroke-linejoin="round"/>
</g>
<g opacity="0.9">
<path d="M228.322 105.396C241.719 105.439 254.507 104.358 266.686 106.458C277.136 108.279 285.954 113.517 293.785 120.589C297.92 124.322 303.845 130.349 309.667 135.854C317.279 143.041 324.549 149.888 329.927 159.417C337.983 173.706 340.279 190.756 339.384 206.203C338.495 221.511 332.685 234.446 324.324 247.848C314.532 263.563 306.957 279.259 290.685 290.41C272.313 303.071 251.554 303.156 228.688 301.809C201.284 300.164 175.708 293.918 158.487 276.2C140.791 258.033 134.799 231.411 134.184 204.352C133.757 185.797 131.705 169.008 137.387 153.426C142.867 138.385 153.829 123.927 169.162 115.023C188.606 103.715 208.318 105.354 228.322 105.396Z" stroke="#3AD0E6" stroke-width="1.9" stroke-linecap="round" stroke-linejoin="round"/>
</g>
<g opacity="0.88">
<path d="M227.384 104.243C241.141 104.297 254.294 102.574 266.845 104.334C277.721 105.851 286.709 111.296 294.723 118.744C298.711 122.452 304.892 128.874 311.067 134.525C318.984 141.809 326.748 148.54 332.429 158.343C340.955 173.105 343.098 190.901 342.033 206.628C340.967 222.221 334.609 235.108 325.676 248.819C315.269 264.795 308.278 281.117 291.343 292.637C272.35 305.639 251.201 304.473 227.817 302.828C200 300.868 173.924 295.387 156.569 277.384C138.8 258.956 133.745 231.727 133.008 204.443C132.503 185.481 129.166 168.443 134.464 152.431C139.591 136.959 150.705 121.821 166.598 112.753C187.017 101.111 207.155 104.194 227.384 104.243Z" stroke="#3AD0E6" stroke-width="1.88" stroke-linecap="round" stroke-linejoin="round"/>
</g>
<g opacity="0.86">
<path d="M226.441 103.096C240.562 103.156 254.081 100.783 267.009 102.203C278.305 103.417 287.47 109.068 295.667 116.892C299.521 120.571 305.946 127.405 312.468 133.281C320.75 140.674 328.952 147.253 334.944 157.36C343.981 172.589 345.906 191.132 344.688 207.132C343.47 223.005 336.546 235.848 327.028 249.87C316.055 266.009 309.606 283.005 292.007 294.865C272.399 308.219 250.848 305.791 226.946 303.848C198.721 301.566 172.14 296.85 154.699 278.574C136.845 259.885 132.728 232.018 131.876 204.528C131.267 185.165 126.663 167.873 131.577 151.442C136.339 135.539 147.599 119.709 164.077 110.477C185.433 98.4826 205.992 103.035 226.441 103.096Z" stroke="#3AD0E6" stroke-width="1.86" stroke-linecap="round" stroke-linejoin="round"/>
</g>
<g opacity="0.84">
<path d="M225.503 101.942C239.99 102.015 253.862 98.9924 267.174 100.079C278.896 101.044 288.225 106.841 296.611 115.047C300.331 118.689 306.963 125.93 313.875 131.958C322.467 139.496 331.157 145.918 337.453 156.297C346.99 171.994 348.762 191.29 347.343 207.569C345.918 223.727 338.489 236.516 328.38 250.853C316.81 267.241 310.927 284.844 292.671 297.093C272.447 310.768 250.5 307.077 226.081 304.856C197.46 302.258 170.325 298.301 152.806 279.751C134.872 260.807 131.693 232.328 130.755 204.613C130.067 184.85 124.172 167.308 128.703 150.452C133.1 134.112 144.499 117.602 161.587 108.206C183.85 95.909 204.829 101.876 225.503 101.942Z" stroke="#3AD0E6" stroke-width="1.84" stroke-linecap="round" stroke-linejoin="round"/>
</g>
<g opacity="0.82">
<path d="M224.534 100.795C239.393 100.874 253.624 97.1957 267.314 97.9545C279.493 98.6343 288.956 104.631 297.53 113.196C301.123 116.795 308.022 124.461 315.251 130.665C324.172 138.319 333.337 144.625 339.938 155.259C349.979 171.423 351.599 191.466 349.979 208.03C348.378 224.461 340.413 237.214 329.719 251.854C317.577 268.486 312.236 286.689 293.316 299.32C272.49 313.354 250.147 308.382 225.21 305.888C196.157 302.98 168.51 299.769 150.912 280.947C132.893 261.76 130.652 232.625 129.574 204.704C128.794 184.54 121.621 166.744 125.768 149.469C129.799 132.698 141.345 115.478 158.986 105.936C182.267 93.3111 203.666 100.716 224.534 100.795Z" stroke="#3AD0E6" stroke-width="1.82" stroke-linecap="round" stroke-linejoin="round"/>
</g>
<g opacity="0.8">
<path d="M223.621 99.6418C238.845 99.7329 253.46 95.393 267.502 95.83C280.077 96.2185 289.729 102.373 298.504 111.35C301.969 114.901 309.094 122.986 316.676 129.366C325.926 137.141 335.553 143.326 342.477 154.252C352.994 170.883 354.431 191.672 352.653 208.516C350.869 225.232 342.374 237.936 331.09 252.892C318.369 269.748 313.582 288.577 293.998 301.584C272.538 315.933 249.8 309.718 224.346 306.938C194.878 303.684 166.72 301.214 149.024 282.137C130.926 262.652 129.616 232.929 128.429 204.783C127.558 184.218 119.106 166.173 122.869 148.473C126.523 131.265 138.227 113.39 156.453 103.654C180.69 90.7132 202.502 99.5568 223.621 99.6418Z" stroke="#3AD0E6" stroke-width="1.8" stroke-linecap="round" stroke-linejoin="round"/>
</g>
<g opacity="0.78">
<path d="M222.708 98.4826C238.297 98.5736 253.253 94.1427 267.697 93.6935C280.693 93.2929 290.503 100.121 299.479 109.475C302.828 112.977 310.172 121.493 318.113 128.043C327.686 135.933 337.8 141.955 345.017 153.159C356.002 170.282 357.287 191.818 355.302 208.953C353.347 225.948 344.341 238.61 332.442 253.87C319.142 270.962 314.91 290.41 294.686 303.788C272.612 318.47 249.471 311.005 223.499 307.933C193.624 304.401 164.948 302.701 147.154 283.332C128.928 263.581 128.569 233.232 127.272 204.874C126.31 183.903 116.579 165.602 119.965 147.484C123.259 129.839 135.097 111.284 153.908 101.354C179.106 88.1154 201.339 98.4037 222.708 98.4826Z" stroke="#3AD0E6" stroke-width="1.78" stroke-linecap="round" stroke-linejoin="round"/>
</g>
<g opacity="0.76">
<path d="M221.739 97.3475C237.694 97.4446 253.021 92.3642 267.831 91.5812C281.228 90.871 291.221 97.8877 300.392 107.654C303.626 111.096 311.189 120.049 319.483 126.768C329.378 134.786 339.974 140.662 347.495 152.14C359.004 169.742 360.088 191.994 357.951 209.396C355.819 226.677 346.259 239.296 333.793 254.865C319.909 272.188 316.231 292.261 295.32 306.009C272.63 321.032 249.094 312.303 222.604 308.947C192.308 305.105 163.115 304.158 145.23 284.516C126.961 264.486 127.522 233.53 126.115 204.959C125.061 183.587 114.051 165.032 117.048 146.495C119.983 128.413 131.973 109.178 151.356 99.0895C177.523 85.5235 200.176 97.2686 221.739 97.3475Z" stroke="#3AD0E6" stroke-width="1.76" stroke-linecap="round" stroke-linejoin="round"/>
</g>
<g opacity="0.75">
<path d="M220.802 96.1943C237.122 96.3035 252.79 89.9849 267.996 89.4568C281.85 88.9712 293.943 94.1305 301.336 105.809C304.99 108.577 312.243 118.555 320.89 125.475C331.108 133.615 342.203 139.338 350.01 151.102C362.013 169.141 362.926 192.176 360.612 209.851C358.298 227.411 348.214 239.994 335.151 255.867C320.695 273.426 317.565 294.106 295.989 308.237C272.679 323.599 248.753 313.615 221.739 309.967C191.036 305.821 161.325 305.615 143.342 285.687C125.001 265.402 126.493 233.839 124.97 205.044C123.819 183.272 111.537 164.461 114.149 145.505C116.707 126.992 128.843 107.071 148.817 96.8377C175.946 82.9317 199.013 96.085 220.802 96.1943Z" stroke="#3AD0E6" stroke-width="1.75" stroke-linecap="round" stroke-linejoin="round"/>
</g>
<g opacity="0.73">
<path d="M219.858 95.0471C236.543 95.1624 252.577 88.176 268.16 87.3323C282.434 86.5554 294.857 91.7937 302.262 103.958C305.842 106.653 313.266 117.117 322.272 124.176C332.831 132.473 344.389 138.021 352.519 150.076C365.021 168.583 365.758 192.364 363.267 210.319C360.776 228.164 350.168 240.704 336.503 256.88C321.474 274.677 318.892 295.994 296.653 310.477C272.727 326.173 248.399 314.938 220.875 310.998C189.757 306.549 159.522 307.09 141.455 286.901C123.021 266.361 125.439 234.143 123.795 205.141C122.577 182.968 108.991 163.909 111.226 144.528C113.418 125.578 125.701 104.983 146.253 94.5736C174.363 80.3339 197.85 94.9257 219.858 95.0471Z" stroke="#3AD0E6" stroke-width="1.73" stroke-linecap="round" stroke-linejoin="round"/>
</g>
<g opacity="0.71">
<path d="M218.92 93.8938C235.971 94.0212 252.358 86.3672 268.325 85.2079C283.025 84.1335 295.776 89.4567 303.224 102.112C306.707 104.734 314.331 115.648 323.697 122.877C334.555 131.259 346.594 136.722 355.034 149.026C368.029 168 368.589 192.528 365.922 210.762C363.255 228.886 352.117 241.39 337.861 257.869C322.254 275.909 320.202 297.839 297.317 312.692C272.776 328.728 248.052 316.237 219.979 312.006C188.472 307.284 157.72 308.54 139.561 288.079C121.048 267.278 124.392 234.446 122.662 205.214C121.329 182.64 106.488 163.332 108.34 143.527C110.166 124.14 122.595 102.859 143.732 92.2913C172.773 77.742 196.687 93.7663 218.92 93.8938Z" stroke="#3AD0E6" stroke-width="1.71" stroke-linecap="round" stroke-linejoin="round"/>
</g>
<g opacity="0.69">
<path d="M217.976 92.7466C235.398 92.8801 252.144 84.5584 268.483 83.0834C283.615 81.7117 296.69 87.1138 304.168 100.261C307.56 102.81 315.379 114.179 325.097 121.584C336.278 130.082 348.798 135.381 357.543 147.988C371.031 167.411 371.421 192.704 368.577 211.217C365.727 229.627 354.066 242.088 339.213 258.871C323.033 277.147 321.553 299.697 297.981 314.92C272.819 331.308 247.699 317.554 219.139 313.026C187.193 307.97 155.923 309.991 137.667 289.269C119.075 268.2 123.344 234.731 121.511 205.311C120.08 182.337 103.961 162.768 105.435 142.549C106.884 122.725 119.441 100.777 141.187 90.0273C171.208 75.1502 195.524 92.613 217.976 92.7466Z" stroke="#3AD0E6" stroke-width="1.69" stroke-linecap="round" stroke-linejoin="round"/>
</g>
<g opacity="0.67">
<path d="M217.038 91.5994C234.82 91.739 251.931 82.7496 268.647 80.959C284.206 79.2898 297.609 84.7769 305.118 98.4158C308.406 100.892 316.426 112.716 326.498 120.267C338.001 128.904 351.002 134.046 360.058 146.932C374.064 166.835 374.252 192.862 371.232 211.654C368.187 230.349 356.008 242.768 340.565 259.854C323.819 278.373 322.869 301.536 298.644 317.129C272.867 333.845 247.352 318.847 218.262 314.027C185.902 308.668 154.115 311.442 135.773 290.434C117.102 269.123 122.297 235.053 120.36 205.39C118.832 182.009 101.434 162.185 102.536 141.542C103.608 121.287 116.347 98.6646 138.641 87.739C169.625 72.5645 194.361 91.4537 217.038 91.5994Z" stroke="#3AD0E6" stroke-width="1.67" stroke-linecap="round" stroke-linejoin="round"/>
</g>
<g opacity="0.65">
<path d="M216.094 90.4462C234.247 90.5979 251.712 80.9348 268.812 78.8286C284.797 76.862 298.523 82.434 306.062 96.5706C309.252 98.9985 317.473 111.253 327.905 118.986C339.725 127.751 353.207 132.747 362.567 145.906C377.048 166.282 377.084 193.062 373.881 212.134C370.684 231.102 357.975 243.49 341.923 260.874C324.598 279.63 324.196 303.411 299.296 319.375C272.904 336.425 246.987 320.182 217.391 315.065C184.617 309.408 152.312 312.923 133.873 291.642C115.117 270.052 121.237 235.332 119.197 205.451C117.571 181.669 98.9006 161.596 99.6192 140.504C100.32 119.818 113.211 96.516 136.09 85.4204C168.048 69.9545 193.204 90.2944 216.094 90.4462Z" stroke="#3AD0E6" stroke-width="1.65" stroke-linecap="round" stroke-linejoin="round"/>
</g>
<g opacity="0.63">
<path d="M215.157 89.299C233.675 89.4568 251.499 79.1199 268.976 76.7041C285.381 74.4401 299.424 80.0971 307.005 94.7193C310.099 97.0501 318.515 109.785 329.305 117.687C341.448 126.58 355.418 131.423 365.076 144.868C380.056 165.712 379.916 193.238 376.536 212.589C373.156 231.842 359.93 244.194 343.275 261.876C325.384 280.874 325.524 305.269 299.972 321.609C272.965 338.992 246.652 321.499 216.545 316.085C183.351 310.124 150.522 314.385 131.973 292.832C113.138 270.98 120.178 235.636 118.04 205.56C116.317 181.378 96.3674 161.05 96.7267 139.563C97.0556 118.44 110.124 94.4644 133.556 83.1928C166.471 67.3809 192.041 89.1351 215.157 89.299Z" stroke="#3AD0E6" stroke-width="1.63" stroke-linecap="round" stroke-linejoin="round"/>
</g>
<g opacity="0.61">
<path d="M214.213 88.1638C233.09 88.3338 251.28 77.3232 269.14 74.5978C285.972 72.0303 300.356 77.7723 307.949 92.8922C310.951 95.1502 319.562 108.34 330.712 116.413C343.171 125.432 357.622 130.124 367.59 143.848C383.064 165.153 382.747 193.432 379.191 213.044C375.635 232.577 361.885 244.892 344.633 262.877C326.169 282.118 326.839 307.126 300.654 323.836C273.026 341.56 246.317 322.816 215.686 317.111C182.066 310.847 148.719 315.848 130.104 294.015C111.177 271.897 119.142 235.933 116.907 205.645C115.081 181.062 93.8584 160.479 93.8219 138.574C93.7793 117.014 106.981 92.3641 131.011 80.9104C164.893 64.7951 190.877 87.9757 214.213 88.1638Z" stroke="#3AD0E6" stroke-width="1.61" stroke-linecap="round" stroke-linejoin="round"/>
</g>
<g opacity="0.59">
<path d="M213.275 86.9985C232.524 87.1745 251.067 75.4659 269.299 72.431C286.557 69.56 301.269 75.393 308.881 90.9985C311.786 93.1836 320.591 106.835 332.101 115.071C344.889 124.219 359.814 128.765 370.087 142.768C386.054 164.54 385.567 193.566 381.834 213.475C378.101 233.384 363.827 245.572 345.973 263.854C326.943 283.338 328.167 308.959 301.287 326.039C273.044 344.097 245.933 324.109 214.815 318.106C180.781 311.569 146.923 317.305 128.21 295.205C109.204 272.819 118.095 236.267 115.75 205.73C113.838 180.747 91.3313 159.909 90.9172 137.584C90.5031 115.587 103.858 90.2398 128.472 78.6465C163.316 62.2034 189.714 86.8164 213.275 86.9985Z" stroke="#3AD0E6" stroke-width="1.59" stroke-linecap="round" stroke-linejoin="round"/>
</g>
<g opacity="0.57">
<path d="M212.355 85.8453C231.97 86.0334 250.866 73.7057 269.488 70.3308C287.147 67.1563 302.207 73.0805 309.855 89.1472C312.663 91.2595 321.669 105.366 333.538 113.766C346.636 123.041 362.055 127.436 372.633 141.724C389.075 163.964 388.429 193.736 384.52 213.955C380.61 234.173 365.812 246.301 347.373 264.88C327.777 284.607 329.537 310.841 302 328.291C273.141 346.689 245.635 325.451 213.969 319.15C179.539 312.291 145.157 318.768 126.352 296.395C107.268 273.748 117.078 236.54 114.636 205.815C112.62 180.431 88.8407 159.338 88.049 136.619C87.2635 114.161 100.77 88.1882 125.963 76.4006C161.739 59.6358 188.551 85.6632 212.355 85.8453Z" stroke="#3AD0E6" stroke-width="1.57" stroke-linecap="round" stroke-linejoin="round"/>
</g>
<g opacity="0.55">
<path d="M211.393 84.698C231.379 84.8923 250.628 71.8604 269.634 68.2064C287.732 64.7284 303.126 70.7375 310.781 87.3263C313.491 89.3657 322.692 103.933 334.92 112.498C348.317 121.906 364.241 126.149 375.111 140.716C392.083 163.429 391.242 193.942 387.156 214.416C383.07 234.889 367.749 247.017 348.695 265.888C328.526 285.863 330.828 312.71 302.633 330.525C273.147 349.263 245.245 326.78 213.062 320.206C178.217 313.02 143.324 320.231 124.422 297.572C105.258 274.659 115.988 236.826 113.461 205.918C111.336 180.115 86.3013 158.774 85.0834 135.605C83.9264 112.741 97.5853 86.0637 123.362 74.1002C160.162 57.0319 187.388 84.522 211.393 84.698Z" stroke="#3AD0E6" stroke-width="1.55" stroke-linecap="round" stroke-linejoin="round"/>
</g>
<g opacity="0.53">
<path d="M210.455 83.5509C230.801 83.7512 250.409 70.0395 269.798 66.082C288.323 62.3005 304.022 68.4006 311.725 85.5053C314.343 87.472 323.74 102.501 336.327 111.229C350.065 120.759 366.446 124.85 377.632 139.703C395.091 162.871 394.074 194.149 389.811 214.889C385.549 235.63 369.716 247.739 350.046 266.907C329.311 287.102 332.155 314.568 303.297 332.777C273.196 351.854 244.892 328.127 212.197 321.244C176.938 313.742 141.521 321.693 122.534 298.786C103.285 275.593 114.922 237.141 112.298 205.991C110.081 179.8 83.7498 158.203 82.203 134.616C80.6746 111.314 94.4918 83.9636 120.841 71.824C158.584 54.4462 186.225 83.3445 210.455 83.5509Z" stroke="#3AD0E6" stroke-width="1.53" stroke-linecap="round" stroke-linejoin="round"/>
</g>
<g opacity="0.51">
<path d="M209.511 82.3975C230.216 82.61 250.19 68.2245 269.963 63.9575C288.907 59.8664 304.941 66.0576 312.675 83.6358C315.19 85.5295 324.781 101.008 337.727 109.906C351.788 119.569 368.687 123.484 380.147 138.634C398.148 162.24 396.912 194.3 392.46 215.32C388.009 236.34 371.664 248.419 351.398 267.885C330.085 288.352 333.483 316.443 303.961 334.974C273.245 354.398 244.539 329.414 211.326 322.228C175.653 314.47 139.719 323.15 120.64 299.957C101.306 276.516 113.881 237.439 111.147 206.076C108.827 179.484 81.2165 157.633 79.2983 133.627C77.3984 109.888 91.3678 81.8634 118.272 69.5538C157.007 51.8604 185.062 82.1851 209.511 82.3975Z" stroke="#3AD0E6" stroke-width="1.51" stroke-linecap="round" stroke-linejoin="round"/>
</g>
<path opacity="0.49" d="M208.574 81.2503C229.656 81.4688 249.983 66.4036 270.127 61.827C289.492 57.4324 305.855 63.7147 313.619 81.7784C316.055 83.5993 325.828 99.5386 339.128 108.601C353.505 118.391 370.891 122.161 382.656 137.59C401.156 161.663 399.743 194.47 395.115 215.775C390.487 237.08 373.619 249.123 352.756 268.88C330.883 289.59 334.81 318.27 304.649 337.196C273.318 356.947 244.216 330.731 210.48 323.235C174.369 315.174 137.923 324.613 118.747 301.147C99.3331 277.445 112.828 237.742 109.996 206.161C107.56 179.168 78.6894 157.068 76.3937 132.637C74.1162 108.467 88.244 79.7633 115.757 67.2777C155.43 49.2746 183.899 81.0258 208.574 81.2503Z" stroke="#3AD0E6" stroke-width="1.49" stroke-linecap="round" stroke-linejoin="round"/>
<path opacity="0.47" d="M207.63 80.0972C229.077 80.3278 249.751 64.5827 270.291 59.7087C290.076 55.0046 306.768 61.384 314.563 79.9393C316.883 81.6874 326.87 98.088 340.535 107.314C355.229 117.232 373.095 120.844 385.171 136.558C404.177 161.093 402.575 194.653 397.77 216.237C392.966 237.821 375.58 249.833 354.108 269.888C331.668 290.847 336.138 320.134 305.288 339.429C273.336 359.521 243.838 332.061 209.591 324.255C173.084 315.927 136.12 326.076 116.859 302.343C97.3722 278.373 111.774 238.052 108.845 206.252C106.318 178.865 76.1622 156.48 73.4889 131.654C70.8399 107.047 85.12 77.6753 113.211 65.0137C153.853 46.6889 182.736 79.8665 207.63 80.0972Z" stroke="#3AD0E6" stroke-width="1.47" stroke-linecap="round" stroke-linejoin="round"/>
<path opacity="0.45" d="M206.692 78.9499C228.505 79.1866 249.532 62.7678 270.456 57.5842C290.667 52.5766 307.688 59.041 315.519 78.088C317.747 79.7633 327.923 96.6252 341.947 106.009C356.952 116.085 375.3 119.527 387.68 135.508C407.167 160.51 405.407 194.816 400.425 216.68C395.444 238.543 377.535 250.543 355.46 270.865C332.46 292.073 337.465 321.967 305.952 341.639C273.385 362.082 243.485 333.384 208.702 325.269C171.781 316.649 134.305 327.539 114.922 303.52C95.3444 279.29 110.66 238.343 107.651 206.337C105.021 178.543 73.5924 155.927 70.5416 130.652C67.4968 105.615 81.9595 75.569 110.623 62.7314C152.276 44.1031 181.573 78.7132 206.692 78.9499Z" stroke="#3AD0E6" stroke-width="1.45" stroke-linecap="round" stroke-linejoin="round"/>
<path opacity="0.43" d="M205.754 77.7966C227.932 78.0455 249.313 60.9469 270.614 55.4537C291.252 50.1426 308.601 56.7041 316.45 76.2428C318.582 77.8452 328.958 95.1624 343.342 104.716C358.675 114.901 377.51 118.209 390.189 134.458C410.175 159.951 408.238 194.986 403.081 217.123C397.923 239.259 379.496 251.229 356.8 271.866C333.227 293.323 338.769 323.824 306.597 343.866C273.415 364.625 243.114 334.683 207.837 326.264C170.52 317.378 132.521 328.995 113.095 304.71C93.4383 280.212 109.685 238.646 106.561 206.422C103.833 178.228 71.1261 155.363 67.7038 129.663C64.3058 104.17 78.9025 73.4689 108.151 60.4673C150.698 41.5174 180.409 77.5538 205.754 77.7966Z" stroke="#3AD0E6" stroke-width="1.43" stroke-linecap="round" stroke-linejoin="round"/>
<path opacity="0.41" d="M204.81 76.6312C227.342 76.8862 249.094 59.1077 270.779 53.3111C291.836 47.6904 309.52 54.3429 317.394 74.3793C319.428 75.9089 330 93.6874 344.742 103.399C360.393 113.718 379.715 116.868 392.704 133.426C413.183 159.363 411.07 195.168 405.736 217.584C400.401 240 381.45 251.939 358.17 272.874C334.031 294.58 340.114 325.681 307.279 346.1C273.476 367.217 242.803 336.03 206.984 327.314C169.229 318.112 130.719 330.464 111.183 305.906C91.4348 281.147 108.601 238.956 105.386 206.513C102.554 177.918 68.5746 154.798 64.7747 128.68C61.0053 102.774 75.736 71.3809 105.575 58.1912C149.121 38.9317 179.246 76.3945 204.81 76.6312Z" stroke="#3AD0E6" stroke-width="1.41" stroke-linecap="round" stroke-linejoin="round"/>
<path opacity="0.39" d="M203.873 75.5023C226.782 75.7633 248.868 57.2929 270.943 51.2231C292.421 45.2929 310.434 52.0425 318.338 72.5645C320.275 74.0213 331.041 92.261 346.149 102.143C362.116 112.583 381.919 115.587 395.213 132.419C416.191 158.804 413.92 195.363 408.391 218.058C402.861 240.753 383.423 252.656 359.528 273.9C334.823 295.848 341.454 327.563 307.962 348.346C273.543 369.785 242.444 337.36 206.138 328.316C167.969 318.822 128.94 331.909 109.314 307.071C89.4862 282.052 107.566 239.241 104.259 206.58C101.324 177.584 66.0718 154.216 61.8944 127.672C57.7474 101.329 72.6607 69.2625 103.06 55.9029C147.544 36.346 178.083 75.2352 203.873 75.5023Z" stroke="#3AD0E6" stroke-width="1.39" stroke-linecap="round" stroke-linejoin="round"/>
<path opacity="0.37" d="M202.929 74.3491C226.209 74.6222 248.649 55.4841 271.132 49.0805C293.054 42.8407 311.378 49.6875 319.312 70.7011C321.139 72.085 332.101 90.7861 347.574 100.826C363.864 111.399 384.148 114.246 397.752 131.363C419.224 158.234 416.758 195.539 411.064 218.513C405.37 241.487 385.396 253.378 360.904 274.895C335.632 297.099 342.794 329.426 308.631 350.574C273.598 372.346 242.097 338.683 205.273 329.329C166.684 319.563 127.101 333.384 107.396 308.273C87.5193 283.005 106.488 239.551 103.084 206.677C100.039 177.281 63.502 153.657 58.9653 126.695C54.4407 99.9211 69.5124 67.1806 100.496 53.6389C145.979 33.7664 176.92 74.0759 202.929 74.3491Z" stroke="#3AD0E6" stroke-width="1.37" stroke-linecap="round" stroke-linejoin="round"/>
<path opacity="0.35" d="M202.003 73.2018C225.649 73.481 248.442 53.6631 271.284 46.9559C293.596 40.4066 312.279 47.3444 320.244 68.8497C321.986 70.1608 333.142 89.3232 348.963 99.5265C365.569 110.234 386.346 112.929 400.249 130.325C422.214 157.639 419.577 195.715 413.707 218.944C407.836 242.173 387.339 254.064 362.244 275.872C336.412 298.331 344.109 331.259 309.265 352.777C273.616 374.889 241.713 339.988 204.378 330.319C165.405 320.249 125.317 334.792 105.496 309.414C85.5097 283.86 105.423 239.806 101.927 206.713C98.7789 176.923 60.9809 153.038 56.0545 125.657C51.1828 98.4461 66.4067 65.0318 97.9446 51.3141C144.396 31.1805 175.757 72.9226 202.003 73.2018Z" stroke="#3AD0E6" stroke-width="1.35" stroke-linecap="round" stroke-linejoin="round"/>
<path opacity="0.33" d="M201.047 72.0485C225.058 72.3399 248.205 51.8421 271.436 44.8315C294.169 37.9726 313.186 45.0076 321.176 67.0045C322.82 68.2185 334.171 87.8664 350.357 98.2276C367.28 109.068 388.539 111.581 402.727 129.287C425.192 157.086 422.378 195.897 416.331 219.423C410.284 242.95 389.269 254.798 363.571 276.898C337.167 299.599 345.406 333.141 309.916 355.029C273.647 377.487 241.342 341.335 203.495 331.357C164.077 320.995 123.502 336.273 103.626 310.622C83.5306 284.807 104.381 240.127 100.795 206.828C97.5366 176.631 58.4659 152.498 53.168 124.692C47.8945 97.05 63.2828 62.962 95.4235 49.0683C142.819 28.5948 174.6 71.7754 201.047 72.0485Z" stroke="#3AD0E6" stroke-width="1.33" stroke-linecap="round" stroke-linejoin="round"/>
<path opacity="0.31" d="M200.109 70.9013C224.467 71.1987 247.985 50.0151 271.601 42.7071C294.741 35.5386 314.1 42.6646 322.144 65.1653C323.691 66.3307 335.237 86.4096 351.782 96.9468C369.028 107.915 390.755 110.3 405.285 128.261C428.243 156.528 425.253 196.085 419.029 219.915C412.806 243.745 391.273 255.545 364.966 277.93C338.001 300.886 346.776 335.029 310.623 357.287C273.738 380.073 241.031 342.719 202.673 332.437C162.829 321.791 121.743 337.797 101.744 311.866C81.588 285.766 103.334 240.492 99.6557 206.968C96.2943 176.37 55.9509 151.982 50.2754 123.757C44.6304 95.6783 60.171 60.9165 92.9024 46.8467C141.241 26.0151 173.431 70.6039 200.109 70.9013Z" stroke="#3AD0E6" stroke-width="1.31" stroke-linecap="round" stroke-linejoin="round"/>
<path opacity="0.29" d="M199.171 69.7481C223.913 70.0577 247.76 48.1943 271.765 40.6131C295.332 33.1351 315.001 40.3581 323.064 63.3384C324.519 64.431 336.254 84.9773 353.164 95.6662C370.72 106.768 392.947 109.02 407.769 127.229C431.226 155.964 428.06 196.267 421.66 220.358C415.26 244.449 393.215 256.225 366.293 278.901C338.762 302.106 348.079 336.856 311.262 359.484C273.762 382.61 240.653 343.994 201.778 333.426C161.52 322.501 119.922 339.229 99.8262 313.026C79.5906 286.683 102.262 240.759 98.4804 207.023C95.0093 176.024 53.4176 151.387 47.328 122.738C41.3055 94.2095 57.0044 58.7922 90.3021 44.5463C139.664 23.4295 172.268 69.4446 199.171 69.7481Z" stroke="#3AD0E6" stroke-width="1.29" stroke-linecap="round" stroke-linejoin="round"/>
<path opacity="0.27" d="M198.227 68.6009C223.335 68.9165 247.553 46.3733 271.911 38.4582C295.898 30.6707 315.914 37.9909 323.989 61.4628C325.347 62.4825 337.283 83.4901 354.547 94.3369C372.426 105.572 395.14 107.648 410.266 126.173C434.216 155.375 430.873 196.425 424.272 220.795C417.671 245.165 395.17 256.935 367.639 279.903C339.542 303.357 349.37 338.713 311.914 361.718C273.793 385.178 240.288 345.329 200.901 334.452C160.222 323.223 118.083 340.686 97.9263 314.215C77.6054 287.605 101.178 241.062 97.3173 207.108C93.7427 175.709 50.86 150.822 44.4355 121.748C38.0415 92.8012 53.8987 56.698 87.775 42.2701C138.063 20.8498 171.105 68.2853 198.227 68.6009Z" stroke="#3AD0E6" stroke-width="1.27" stroke-linecap="round" stroke-linejoin="round"/>
<path opacity="0.25" d="M197.29 67.4537C222.762 67.7754 247.315 44.5523 272.094 36.3338C296.501 28.2367 316.852 35.6479 324.951 59.6115C326.212 60.5584 338.348 82.0272 355.972 93.0439C374.167 104.407 397.381 106.331 412.793 125.129C437.237 154.798 433.723 196.601 426.97 221.25C420.216 245.9 397.131 257.669 369.003 280.904C340.34 304.613 350.735 340.57 312.59 363.945C273.86 387.745 239.947 346.652 200.042 335.472C158.95 323.939 116.323 342.149 96.0446 315.399C75.6446 288.534 100.131 241.347 96.1725 207.193C92.5188 175.399 48.2781 150.264 41.5369 120.759C34.7105 91.393 50.7809 54.5978 85.2356 40C136.516 18.264 169.941 67.1259 197.29 67.4537Z" stroke="#3AD0E6" stroke-width="1.25" stroke-linecap="round" stroke-linejoin="round"/>
<path opacity="0.24" d="M196.346 66.3125C222.19 66.6464 247.09 42.7374 272.258 34.2215C297.079 25.8088 317.766 33.3232 325.901 57.7784C327.058 58.6525 339.384 80.5827 357.372 91.7693C375.885 103.266 399.567 105.038 415.302 124.115C440.269 154.252 436.561 196.801 429.625 221.73C422.689 246.659 399.086 258.385 370.355 281.936C341.125 305.888 352.086 342.452 313.253 366.197C273.903 390.331 239.57 347.988 199.178 336.516C157.665 324.71 114.533 343.636 94.1508 316.613C73.6716 289.481 99.0712 241.693 95.0216 207.302C91.2339 175.132 45.7509 149.724 38.6322 119.787C31.4344 89.9848 47.6874 52.5645 82.6902 37.7238C134.981 15.7815 168.778 65.9726 196.346 66.3125Z" stroke="#3AD0E6" stroke-width="1.24" stroke-linecap="round" stroke-linejoin="round"/>
<path opacity="0.22" d="M195.408 65.1533C221.593 65.4932 246.871 40.8741 272.423 32.0789C297.664 23.3627 318.704 30.9682 326.845 55.915C327.911 56.7163 340.425 79.1138 358.779 90.4462C377.608 102.076 401.771 103.69 417.817 123.053C443.253 153.657 439.393 196.959 432.274 222.161C425.155 247.363 401.047 259.071 371.713 282.914C341.917 307.12 353.384 344.285 313.917 368.401C273.951 392.868 239.235 349.311 198.307 337.511C156.374 325.42 112.718 345.074 92.2631 317.778C71.6925 290.379 98.0116 241.973 93.8707 207.369C89.9734 174.768 43.2299 149.129 35.7276 118.75C28.1582 88.522 44.5635 50.4401 80.1814 35.4234C133.398 13.1897 167.615 64.8134 195.408 65.1533Z" stroke="#3AD0E6" stroke-width="1.22" stroke-linecap="round" stroke-linejoin="round"/>
<path opacity="0.2" d="M194.464 64C221.039 64.3521 246.646 39.0835 272.587 29.9545C298.243 20.9287 319.599 28.6313 327.789 54.0699C328.757 54.7982 341.466 77.6571 360.18 89.1472C379.325 100.911 403.976 102.373 420.326 122.015C446.262 153.087 442.249 197.135 434.941 222.616C427.634 248.097 403.02 259.788 373.077 283.921C342.721 308.382 354.723 346.149 314.617 370.634C274.03 395.448 238.912 350.646 197.479 338.537C155.113 326.155 110.921 346.531 90.3692 318.968C69.7194 291.302 96.9459 242.276 92.7197 207.454C88.7128 174.458 40.7027 148.577 32.8228 117.785C24.9063 87.1199 41.4395 48.3642 77.6054 33.1776C131.821 10.604 166.452 63.6541 194.464 64Z" stroke="#3AD0E6" stroke-width="1.2" stroke-linecap="round" stroke-linejoin="round"/>
<path opacity="0.18" d="M193.526 62.8528C220.467 63.2109 246.42 37.2625 272.746 27.83C298.827 18.4947 320.512 26.2944 328.733 52.2246C329.604 52.8801 342.508 76.2003 361.58 87.8543C381.067 99.745 406.186 101.056 422.841 120.977C449.264 152.54 445.056 197.311 437.584 223.071C430.112 248.832 404.968 260.498 374.423 284.917C343.494 309.627 356.069 348.006 315.269 372.838C274.067 397.985 238.54 351.951 196.596 339.533C153.829 326.871 109.143 347.976 88.4997 320.109C67.856 292.243 95.9107 242.537 91.5932 207.496C87.4766 174.112 38.1999 147.951 29.9424 116.753C21.6302 85.657 38.3399 46.2215 75.0904 30.8589C130.244 8.04249 165.295 62.4947 193.526 62.8528Z" stroke="#3AD0E6" stroke-width="1.18" stroke-linecap="round" stroke-linejoin="round"/>
<path opacity="0.16" d="M192.589 61.6995C219.894 62.0698 246.177 35.4355 272.91 25.7056C299.406 16.0546 321.432 23.9514 329.677 50.3733C330.45 50.9802 343.549 74.7374 362.987 86.5553C382.772 98.5796 408.391 99.7329 425.35 119.939C452.272 151.939 447.881 197.487 440.239 223.527C432.597 249.566 406.929 261.214 375.775 285.918C344.286 310.883 357.366 349.863 315.908 375.083C274.091 400.577 238.169 353.299 195.707 340.571C152.513 327.624 107.316 349.457 86.5876 321.341C65.8587 293.226 94.8268 242.877 90.4179 207.624C86.1857 173.827 35.6484 147.429 27.0134 115.806C18.3297 84.2731 35.1917 44.182 72.5207 28.6312C128.66 5.42636 164.132 61.3353 192.589 61.6995Z" stroke="#3AD0E6" stroke-width="1.16" stroke-linecap="round" stroke-linejoin="round"/>
<path opacity="0.14" d="M191.651 60.5523C219.322 60.9286 245.982 33.6145 273.08 23.5811C299.996 13.6206 322.351 21.6145 330.627 48.528C331.309 49.0379 344.633 73.2807 364.393 85.2564C384.489 97.396 410.601 98.4157 427.865 118.895C455.268 151.369 450.725 197.663 442.9 223.988C435.075 250.313 408.896 261.93 377.133 286.92C345.108 312.14 358.688 351.721 316.572 377.311C274.134 403.138 237.81 354.628 194.836 341.59C151.228 328.358 105.52 350.913 84.6936 322.531C63.8673 294.149 93.761 243.181 89.2608 207.709C84.925 173.511 33.1211 146.859 24.1025 114.841C15.0838 82.8224 32.0615 42.088 69.9691 26.3793C127.101 2.83456 162.969 60.176 191.651 60.5523Z" stroke="#3AD0E6" stroke-width="1.14" stroke-linecap="round" stroke-linejoin="round"/>
<path opacity="0.12" d="M190.707 59.4051C218.719 59.7875 245.75 31.7875 273.239 21.4567C300.569 11.1866 323.265 19.2716 331.565 46.6768C332.174 47.1138 345.638 71.824 365.794 83.9575C386.212 96.2549 412.799 97.0925 430.343 117.857C458.258 150.792 453.52 197.845 445.519 224.443C437.517 251.041 410.869 262.683 378.454 287.921C345.881 313.457 359.985 353.578 317.205 379.575C274.152 405.736 237.396 356.079 193.94 342.64C149.882 329.202 103.687 352.407 82.7693 323.751C61.8517 295.096 92.5979 243.527 88.0794 207.818C83.5671 173.22 30.5635 146.313 21.1734 113.845C11.7833 81.3778 28.9132 39.9757 67.4054 24.1032C125.506 0.248852 161.812 59.0288 190.707 59.4051Z" stroke="#3AD0E6" stroke-width="1.12" stroke-linecap="round" stroke-linejoin="round"/>
<path opacity="0.1" d="M189.763 58.2519C218.171 58.6465 245.525 29.9667 273.403 19.3324C301.147 8.74663 324.178 16.9044 332.515 44.8255C332.996 45.1897 346.655 70.3976 367.195 82.6586C387.899 95.1199 415.01 95.7694 432.883 116.813C461.297 150.197 456.382 198.015 448.204 224.892C440.026 251.769 412.854 263.411 379.818 288.923C346.679 314.701 361.324 355.436 317.881 381.791C274.213 408.285 237.055 357.384 193.082 343.648C148.628 329.912 101.903 353.857 80.8877 324.923C59.8726 295.988 91.5566 243.812 86.9407 207.903C82.3248 172.911 28.0485 145.742 18.2808 112.856C8.51317 79.9697 25.8014 37.8756 64.8721 21.8089C123.929 -2.34289 160.643 57.8635 189.763 58.2519Z" stroke="#3AD0E6" stroke-width="1.1" stroke-linecap="round" stroke-linejoin="round"/>
<path opacity="0.08" d="M188.825 57.1047C217.598 57.5053 245.282 28.0971 273.568 17.2079C301.714 6.28222 325.097 14.5979 333.458 42.9863C333.842 43.2777 347.702 68.9347 368.601 81.3657C389.635 93.9545 417.214 94.4583 435.398 115.781C464.299 149.651 459.214 198.197 450.853 225.354C442.492 252.51 414.803 264.115 381.188 289.924C347.477 315.945 362.67 357.299 318.563 384.006C274.28 410.835 236.714 358.683 192.26 344.649C147.343 330.616 100.118 355.302 78.9938 326.1C57.8691 296.898 90.5031 244.103 85.7836 207.976C81.0642 172.589 25.497 145.165 15.37 111.854C5.24306 78.5433 22.6775 35.7633 62.3205 19.5387C122.345 -4.92869 159.48 56.7041 188.825 57.1047Z" stroke="#3AD0E6" stroke-width="1.08" stroke-linecap="round" stroke-linejoin="round"/>
<path opacity="0.06" d="M187.881 55.9514C217.02 56.3642 245.062 26.2822 273.744 15.0834C302.31 3.83606 326.023 12.2549 334.414 41.135C334.701 41.3535 348.762 67.4719 370.014 80.0667C391.376 92.8133 419.431 93.135 437.919 114.744C467.319 149.08 462.058 198.373 453.52 225.821C444.983 253.269 416.758 264.795 382.546 290.926C348.256 317.19 363.998 359.15 319.215 386.222C274.31 413.396 236.354 359.994 191.334 345.663C146.034 331.332 98.2856 356.753 77.0939 327.278C55.9022 297.803 89.4435 244.395 84.6267 208.049C79.8098 172.237 22.982 144.583 12.4592 110.853C1.93645 77.1229 19.5414 33.6509 59.7751 17.2564C120.768 -7.52053 158.316 55.5447 187.881 55.9514Z" stroke="#3AD0E6" stroke-width="1.06" stroke-linecap="round" stroke-linejoin="round"/>
<path opacity="0.04" d="M186.944 54.78C216.447 55.1988 244.837 24.4309 273.896 12.9347C302.956 1.43853 326.931 9.89984 335.346 39.2655C335.541 39.4112 349.797 65.9727 371.403 78.7193C393.008 91.4658 421.623 91.7693 440.416 113.657C470.315 148.455 464.877 198.501 456.163 226.215C447.449 253.93 418.706 265.524 383.898 291.927C349.036 318.44 365.325 361.008 319.891 388.437C274.457 415.866 236.019 361.305 190.494 346.689C144.779 332.061 96.5196 358.222 75.2305 328.48C53.9414 298.737 88.4205 244.716 83.5062 208.152C78.5858 171.927 20.4853 144.006 9.5728 109.869C-1.33971 75.7329 16.4357 31.569 57.248 14.9863C119.185 -10.1123 157.153 54.3854 186.944 54.78Z" stroke="#3AD0E6" stroke-width="1.04" stroke-linecap="round" stroke-linejoin="round"/>
<path opacity="0.02" d="M186.006 53.6571C215.875 54.082 244.618 22.6586 274.061 10.8346C303.504 -0.98937 327.844 7.57513 336.29 37.4386C336.388 37.5114 350.838 64.5463 372.828 77.4993C394.817 90.4522 423.852 90.519 442.949 112.704C473.342 147.97 467.727 198.762 458.837 226.756C449.946 254.75 420.679 266.264 385.269 292.965C349.858 319.666 366.671 362.901 320.573 390.689C274.475 418.477 235.685 362.646 189.647 347.715C143.513 332.789 94.7355 359.691 73.3367 329.663C51.938 299.636 87.3427 245.008 82.3493 208.231C77.3254 171.642 17.9582 143.46 6.67425 108.88C-4.60971 74.3005 13.318 29.4629 54.7148 12.7223C117.608 -12.698 155.99 53.2261 186.006 53.6571Z" stroke="#3AD0E6" stroke-width="1.02" stroke-linecap="round" stroke-linejoin="round"/>
<g filter="url(#filter0_d_224_532)">
<path d="M236.429 363L223.286 355.07C174.381 325.819 137.571 298.705 109.762 215.559C99.6615 185.618 93.5302 154.489 91.5238 122.963L91 108.717L129.429 82.4577C166.762 97.4155 186.286 103.494 237.619 59C286.476 104.111 307.333 96.9881 343.571 82.4577L382 108.717L381.476 122.963C379.491 154.487 373.375 185.617 363.286 215.559C335.381 298.705 298.619 325.819 249.762 355.07L236.429 363Z" fill="url(#paint0_linear_224_532)"/>
</g>
<path d="M237 363C238.186 230.973 237 203.477 238.186 59C286.851 104.111 307.626 96.9881 343.722 82.4577L382 108.717L381.478 122.963C379.5 154.487 373.409 185.617 363.359 215.559C335.564 298.705 298.946 325.819 250.281 355.07L237 363Z" fill="url(#paint1_linear_224_532)"/>
<defs>
<filter id="filter0_d_224_532" x="79" y="57" width="315" height="328" filterUnits="userSpaceOnUse" color-interpolation-filters="sRGB">
<feFlood flood-opacity="0" result="BackgroundImageFix"/>
<feColorMatrix in="SourceAlpha" type="matrix" values="0 0 0 0 0 0 0 0 0 0 0 0 0 0 0 0 0 0 127 0" result="hardAlpha"/>
<feOffset dy="10"/>
<feGaussianBlur stdDeviation="6"/>
<feComposite in2="hardAlpha" operator="out"/>
<feColorMatrix type="matrix" values="0 0 0 0 0 0 0 0 0 0 0 0 0 0 0 0 0 0 0.04 0"/>
<feBlend mode="normal" in2="BackgroundImageFix" result="effect1_dropShadow_224_532"/>
<feBlend mode="normal" in="SourceGraphic" in2="effect1_dropShadow_224_532" result="shape"/>
</filter>
<linearGradient id="paint0_linear_224_532" x1="236.5" y1="59" x2="236.5" y2="363" gradientUnits="userSpaceOnUse">
<stop stop-color="#3AD0E6"/>
<stop offset="1" stop-color="#3AD0E6"/>
</linearGradient>
<linearGradient id="paint1_linear_224_532" x1="237" y1="64.9991" x2="237" y2="362.952" gradientUnits="userSpaceOnUse">
<stop stop-color="#1ED2ED"/>
<stop offset="1" stop-color="white"/>
</linearGradient>
</defs>
</svg>
