<svg width="230" height="78" viewBox="0 0 230 78" fill="none" xmlns="http://www.w3.org/2000/svg">
<g clip-path="url(#clip0_157_1825)">
<path d="M174.299 22.0093H168.48C168.48 22.0093 146.602 8.15635 127.661 1.80857C108.665 0.253271 80.3157 -1.10313 66.5218 1.32024C56.5707 5.09998 48.3959 9.89249 44.0457 14.7935C29.5449 15.7158 13.4128 17.47 8.12005 20.7072C6.65655 21.7551 5.66137 23.3322 5.34678 25.1019L8.12005 28.1944L0.434615 37.2368C-1.03359 38.8644 0.760931 50.9089 28.693 62.8088C35.9434 62.8088 65.9236 64.762 65.9236 64.762H207.868C217.33 64.762 230.072 60.6929 230.072 48.3047C230 37.9783 212.109 22.0093 174.299 22.0093Z" fill="#A2A2A2"/>
<path d="M214.52 34.271H220.955C223.674 34.271 229.746 37.5082 227.517 41.9028H218.562C215.844 41.9028 211.348 35.9348 214.52 34.271Z" fill="#FBDC28"/>
<path d="M213.45 36.2241C213.577 38.5932 216.55 41.9027 218.562 41.9027H225.703C225.703 38.539 220.972 36.2241 218.67 36.2241H213.45Z" fill="#BAE8D6"/>
<g style="mix-blend-mode:overlay" opacity="0.35">
<path d="M100.834 32.5166H89.1611V36.5857H100.834V32.5166Z" fill="white"/>
</g>
<path d="M99.0215 34.1262H91.0099C90.5291 34.1262 90.0681 33.9357 89.7282 33.5965C89.3883 33.2574 89.1973 32.7974 89.1973 32.3178C89.1973 31.8381 89.3883 31.3782 89.7282 31.039C90.0681 30.6998 90.5291 30.5093 91.0099 30.5093H99.0215C99.5023 30.5093 99.9633 30.6998 100.303 31.039C100.643 31.3782 100.834 31.8381 100.834 32.3178C100.834 32.7974 100.643 33.2574 100.303 33.5965C99.9633 33.9357 99.5023 34.1262 99.0215 34.1262Z" fill="#1E1E1E"/>
<g style="mix-blend-mode:overlay" opacity="0.35">
<path d="M81.4941 28.2666V60.2045" stroke="white" stroke-width="0.72" stroke-miterlimit="10"/>
</g>
<path d="M80.0801 28.3027V60.2406" stroke="#707070" stroke-width="0.75" stroke-miterlimit="10"/>
<g style="mix-blend-mode:overlay" opacity="0.35">
<path d="M85.4812 54.5985C83.9223 53.7846 80.8047 51.3251 82.9798 50.0049H143.883C147.881 50.3994 151.769 51.5469 155.339 53.3867C156.172 53.8389 156.172 54.5985 152.33 54.5985H85.4812Z" fill="white"/>
</g>
<path opacity="0.3" d="M108.9 36.8392C107.341 36.0254 104.224 33.5658 106.417 32.2456H167.32C171.32 32.634 175.208 33.7819 178.776 35.6275C179.609 36.0796 179.609 36.8392 175.767 36.8392H108.9Z" fill="#1E1E1E"/>
<g style="mix-blend-mode:overlay" opacity="0.35">
<path d="M24.7773 41.8667C19.5896 39.4866 14.0267 38.0241 8.33709 37.5444H0.289173C-0.127724 38.3944 -0.0370742 40.5104 1.61239 43.422H20.5177C25.9736 43.422 25.9736 42.4454 24.7773 41.8667Z" fill="white"/>
</g>
<path d="M152.077 26.8921C154.07 30.2559 158.276 39.5515 158.276 39.5515C156.318 44.7599 145.588 58.1789 142.434 61.0906" stroke="#707070" stroke-width="0.75" stroke-miterlimit="10"/>
<g style="mix-blend-mode:overlay" opacity="0.35">
<path d="M150.571 26.8921C152.583 30.2559 156.789 39.5515 156.789 39.5515C154.831 44.7599 143.847 57.9257 140.747 60.8373" stroke="white" stroke-width="0.72" stroke-miterlimit="10"/>
</g>
<g style="mix-blend-mode:overlay" opacity="0.35">
<path d="M78.8291 59.4814H186.189" stroke="white" stroke-width="1.32" stroke-miterlimit="10"/>
</g>
<path d="M78.9561 60.9097H186.316" stroke="#707070" stroke-width="1.32" stroke-miterlimit="10"/>
<path d="M32.1729 63.7129L32.4447 63.7491V63.731L32.1729 63.7129Z" fill="#1E1E1E"/>
<path d="M72.0323 65.4313L32.4453 63.8037L51.8039 65.4856L72.0323 65.4313Z" fill="#1E1E1E"/>
<path opacity="0.3" d="M28.6206 62.8992C32.1552 62.8992 41.2 63.3694 49.5017 63.8577V50.1855H7.21387C13.6059 55.561 20.8372 59.8558 28.6206 62.8992Z" fill="#1E1E1E"/>
<path opacity="0.3" d="M189.524 52.8623V64.8707H207.795C216.025 64.8707 226.701 61.7962 229.365 52.8804L189.524 52.8623Z" fill="#1E1E1E"/>
<path d="M170.764 60.5302C170.813 57.8706 171.39 55.2472 172.462 52.8115C173.533 50.3758 175.078 48.1761 177.007 46.3396C178.936 44.5032 181.21 43.0664 183.699 42.1123C186.187 41.1582 188.841 40.7057 191.506 40.781C194.171 40.8563 196.794 41.4579 199.225 42.551C201.655 43.644 203.845 45.2069 205.666 47.1493C207.488 49.0917 208.905 51.375 209.837 53.8673C210.769 56.3596 211.196 59.0115 211.094 61.6696C211.043 62.5628 210.928 63.4512 210.75 64.328L171.127 64.8344C170.849 63.4171 170.728 61.9738 170.764 60.5302Z" fill="#1E1E1E"/>
<path d="M211.022 64.3281L210.75 64.3643V64.3462L211.022 64.3281Z" fill="#1E1E1E"/>
<path d="M171.145 64.8706L210.768 64.3643L191.174 67.5653L171.145 64.8706Z" fill="#1E1E1E"/>
<path d="M208.104 60.8739C208.15 64.2186 207.201 67.5018 205.377 70.3083C203.553 73.1148 200.935 75.3183 197.856 76.6403C194.776 77.9623 191.373 78.3432 188.076 77.735C184.779 77.1267 181.737 75.5565 179.335 73.2231C176.933 70.8897 175.279 67.8979 174.581 64.6261C173.883 61.3543 174.174 57.9496 175.416 54.8427C176.658 51.7357 178.796 49.0662 181.559 47.1717C184.322 45.2772 187.586 44.2429 190.939 44.1997C195.43 44.1417 199.762 45.8654 202.98 48.992C206.199 52.1186 208.042 56.3923 208.104 60.8739Z" fill="#1E1E1E"/>
<path opacity="0.56" d="M190.993 48.5941C195.101 48.5386 199.09 49.9758 202.215 52.6378C205.34 55.2997 207.388 59.0047 207.977 63.062C208.056 62.3473 208.098 61.629 208.104 60.9099C207.75 56.6517 205.794 52.6848 202.629 49.8069C199.463 46.929 195.323 45.3533 191.041 45.3969C186.759 45.4404 182.652 47.0998 179.546 50.0415C176.44 52.9832 174.565 56.989 174.299 61.2535C174.304 61.9744 174.365 62.6939 174.48 63.4056C174.978 59.3645 176.924 55.6393 179.959 52.9172C182.994 50.1951 186.912 48.6597 190.993 48.5941Z" fill="#1E1E1E"/>
<path d="M202.049 60.9462C202.074 63.0906 201.461 65.1942 200.289 66.9914C199.116 68.7887 197.436 70.199 195.461 71.0442C193.485 71.8894 191.303 72.1317 189.19 71.7404C187.077 71.3492 185.127 70.3419 183.587 68.8458C182.047 67.3498 180.986 65.432 180.538 63.3347C180.09 61.2373 180.274 59.0545 181.069 57.0618C181.863 55.0691 183.231 53.356 185.001 52.1386C186.77 50.9212 188.861 50.2542 191.011 50.2219C192.442 50.2004 193.863 50.461 195.193 50.9888C196.523 51.5166 197.736 52.3011 198.762 53.2974C199.787 54.2938 200.605 55.4823 201.17 56.7949C201.734 58.1074 202.033 59.5182 202.049 60.9462Z" fill="#F8FBFC"/>
<path opacity="0.28" d="M191.029 52.0119C193.765 51.9678 196.417 52.9541 198.456 54.7742C200.495 56.5943 201.772 59.1144 202.032 61.832C202.05 61.5369 202.05 61.2409 202.032 60.9458C202.011 59.5208 201.71 58.1138 201.145 56.8051C200.579 55.4963 199.761 54.3114 198.737 53.3181C197.713 52.3247 196.503 51.5425 195.176 51.0158C193.848 50.4891 192.43 50.2285 191.002 50.2486C189.574 50.2688 188.163 50.5694 186.852 51.1334C185.54 51.6974 184.352 52.5136 183.357 53.5355C182.361 54.5573 181.577 55.7649 181.049 57.0891C180.521 58.4133 180.26 59.8283 180.28 61.2533C180.28 61.5426 180.28 61.8501 180.28 62.1394C180.463 59.4105 181.672 56.851 183.665 54.9732C185.658 53.0954 188.288 52.0378 191.029 52.0119Z" fill="#1E1E1E"/>
<path d="M197.608 61.0183C197.623 62.2908 197.259 63.5389 196.562 64.6051C195.866 65.6712 194.868 66.5076 193.696 67.0085C192.524 67.5094 191.229 67.6524 189.975 67.4195C188.721 67.1865 187.564 66.5881 186.651 65.6997C185.738 64.8113 185.109 63.6728 184.844 62.428C184.579 61.1833 184.69 59.8881 185.162 58.706C185.634 57.5239 186.447 56.508 187.498 55.7865C188.548 55.065 189.79 54.6704 191.065 54.6525C191.914 54.6405 192.757 54.7959 193.545 55.1095C194.334 55.4232 195.053 55.8891 195.661 56.4805C196.269 57.0718 196.754 57.7771 197.088 58.5558C197.422 59.3345 197.599 60.1713 197.608 61.0183Z" fill="#8C8D9A"/>
<path opacity="0.48" d="M191.119 57.8536C192.548 57.837 193.942 58.2955 195.081 59.1567C196.22 60.0179 197.039 61.2329 197.409 62.6099C197.55 62.0914 197.617 61.5556 197.608 61.0184C197.587 59.3109 196.886 57.6819 195.661 56.4898C194.435 55.2976 192.785 54.6401 191.074 54.6616C189.363 54.6832 187.73 55.3822 186.535 56.6049C185.34 57.8276 184.681 59.4737 184.703 61.1812C184.713 61.7268 184.799 62.2683 184.956 62.7908C185.287 61.4011 186.072 60.1611 187.189 59.2669C188.305 58.3727 189.688 57.8754 191.119 57.8536Z" fill="#1E1E1E"/>
<path d="M72.5397 61.0547C72.5397 55.7163 70.4142 50.5965 66.6309 46.8217C62.8475 43.0469 57.7161 40.9263 52.3656 40.9263C47.0151 40.9263 41.8836 43.0469 38.1003 46.8217C34.3169 50.5965 32.1914 55.7163 32.1914 61.0547C32.2182 61.9522 32.309 62.8466 32.4633 63.7313L72.0503 65.3589C72.37 63.9462 72.5341 62.503 72.5397 61.0547Z" fill="#1E1E1E"/>
<path d="M69.2949 61.0544C69.2949 64.3995 68.3005 67.6695 66.4374 70.4506C64.5744 73.2317 61.9265 75.399 58.8286 76.6783C55.7308 77.9576 52.3222 78.2914 49.0341 77.6375C45.7461 76.9835 42.7264 75.3713 40.3569 73.0046C37.9874 70.638 36.3747 67.6234 35.7229 64.3421C35.071 61.0608 35.4092 57.6603 36.6947 54.5709C37.9802 51.4814 40.1553 48.8418 42.9447 46.986C45.7341 45.1301 49.0126 44.1415 52.3653 44.145C54.5901 44.145 56.793 44.5825 58.8482 45.4325C60.9034 46.2825 62.7705 47.5283 64.3428 49.0987C65.9151 50.6691 67.1617 52.5333 68.0115 54.5848C68.8612 56.6362 69.2973 58.8347 69.2949 61.0544Z" fill="#1E1E1E"/>
<path opacity="0.56" d="M52.3657 48.4497C56.4837 48.4519 60.4596 49.9516 63.5492 52.668C66.6387 55.3844 68.6301 59.1311 69.1503 63.2069C69.4858 60.8118 69.3025 58.3729 68.6128 56.0545C67.9231 53.7362 66.7429 51.5925 65.1521 49.7679C63.5612 47.9434 61.5966 46.4806 59.3909 45.4782C57.1851 44.4758 54.7895 43.957 52.3657 43.957C49.9419 43.957 47.5463 44.4758 45.3406 45.4782C43.1348 46.4806 41.1702 47.9434 39.5793 49.7679C37.9885 51.5925 36.8084 53.7362 36.1187 56.0545C35.4289 58.3729 35.2456 60.8118 35.5811 63.2069C36.1014 59.1311 38.0927 55.3844 41.1822 52.668C44.2718 49.9516 48.2478 48.4519 52.3657 48.4497Z" fill="#1E1E1E"/>
<path d="M63.2589 61.0545C63.2589 63.2006 62.6211 65.2985 61.4261 67.0829C60.2311 68.8674 58.5325 70.2582 56.5453 71.0795C54.558 71.9007 52.3713 72.1156 50.2617 71.6969C48.152 71.2782 46.2142 70.2448 44.6932 68.7272C43.1722 67.2097 42.1364 65.2763 41.7168 63.1714C41.2972 61.0665 41.5125 58.8848 42.3357 56.902C43.1588 54.9193 44.5528 53.2246 46.3413 52.0323C48.1297 50.84 50.2324 50.2036 52.3834 50.2036C55.2677 50.2036 58.034 51.3468 60.0736 53.3818C62.1131 55.4167 63.2589 58.1767 63.2589 61.0545Z" fill="#F8FBFC"/>
<path opacity="0.28" d="M52.3658 51.9578C55.1056 51.949 57.7477 52.9724 59.764 54.8232C61.7803 56.674 63.0222 59.2158 63.2414 61.9407C63.2414 61.6513 63.2414 61.3439 63.2414 61.0545C63.2414 58.1767 62.0955 55.4167 60.0559 53.3818C58.0164 51.3468 55.2502 50.2036 52.3658 50.2036C49.4814 50.2036 46.7152 51.3468 44.6756 53.3818C42.636 55.4167 41.4902 58.1767 41.4902 61.0545C41.4902 61.3439 41.4902 61.6513 41.4902 61.9407C41.7094 59.2158 42.9513 56.674 44.9676 54.8232C46.9839 52.9724 49.626 51.949 52.3658 51.9578Z" fill="#1E1E1E"/>
<path d="M58.8179 61.0545C58.8179 62.3322 58.4379 63.5811 57.7261 64.6432C57.0143 65.7054 56.0025 66.5329 54.8191 67.021C53.6356 67.5092 52.3336 67.6359 51.0778 67.3853C49.8221 67.1348 48.6691 66.5181 47.7649 65.6133C46.8606 64.7086 46.2457 63.5565 45.9981 62.3029C45.7505 61.0493 45.8812 59.7506 46.3738 58.5712C46.8663 57.3918 47.6986 56.3847 48.7651 55.6774C49.8316 54.9702 51.0845 54.5946 52.3651 54.5982C53.214 54.5982 54.0546 54.7653 54.8387 55.09C55.6227 55.4147 56.3349 55.8905 56.9344 56.4903C57.5338 57.09 58.0087 57.8019 58.3319 58.5851C58.6551 59.3683 58.8203 60.2075 58.8179 61.0545Z" fill="#8C8D9A"/>
<path opacity="0.48" d="M52.3655 57.8174C53.7939 57.8202 55.181 58.2958 56.3094 59.1696C57.4378 60.0434 58.2437 61.2661 58.6008 62.646C58.8675 61.6871 58.9084 60.6797 58.7204 59.7023C58.5323 58.725 58.1204 57.8043 57.5167 57.0121C56.913 56.2199 56.134 55.5777 55.2404 55.1355C54.3469 54.6934 53.3629 54.4634 52.3655 54.4634C51.3681 54.4634 50.3841 54.6934 49.4906 55.1355C48.597 55.5777 47.8179 56.2199 47.2143 57.0121C46.6106 57.8043 46.1986 58.725 46.0106 59.7023C45.8225 60.6797 45.8635 61.6871 46.1302 62.646C46.4845 61.2646 47.2896 60.0402 48.4186 59.1658C49.5476 58.2915 50.9363 57.8171 52.3655 57.8174Z" fill="#1E1E1E"/>
<path d="M69.2949 19.2243C69.875 14.9563 79.7355 4.19582 98.0608 4.75645L114.483 5.19047C120.646 5.37132 139.279 10.0734 150.825 21.6115L69.2949 19.2243Z" fill="#BAE8D6"/>
<g style="mix-blend-mode:overlay" opacity="0.35">
<path d="M69.2946 26.8922H206.345C196.006 23.5114 185.177 21.8615 174.298 22.0093H168.48L69.3671 19.2243L43.9908 14.7935C35.2119 15.2582 26.4669 16.2243 17.7988 17.687L69.2946 26.8922Z" fill="white"/>
</g>
<path d="M145.152 25.3189H150.989C152.205 25.3189 153.372 24.8368 154.232 23.9788C155.092 23.1207 155.575 21.9569 155.575 20.7434C155.575 19.5299 155.092 18.3661 154.232 17.5081C153.372 16.65 152.205 16.168 150.989 16.168H145.152V25.3189Z" fill="#1E1E1E"/>
<path opacity="0.3" d="M52.2564 31.6488L6.94158 25.3191C6.37302 25.2053 5.79791 25.1267 5.2196 25.084L7.99286 28.1765L2.2832 34.9583H47.1268C53.4346 34.9764 56.6429 32.5169 52.2564 31.6488Z" fill="#1E1E1E"/>
<path d="M10.4405 28.3208H6.39844C5.66589 28.443 4.96793 28.7198 4.35114 29.1326C3.73435 29.5454 3.21294 30.0848 2.82177 30.7147C2.43059 31.3447 2.17863 32.0507 2.08275 32.7855C1.98686 33.5203 2.04925 34.2671 2.26573 34.976H7.92101C9.62485 34.976 12.4525 29.6953 10.4405 28.3208Z" fill="#FBDC28"/>
<path d="M11.165 30.021C11.165 32.0827 9.22557 34.9762 7.95676 34.9762H3.44336C3.52799 33.7759 4.01023 32.6376 4.81414 31.7406C5.61806 30.8435 6.69805 30.2386 7.88424 30.021H11.165Z" fill="#BAE8D6"/>
<g style="mix-blend-mode:overlay">
<path d="M86.9502 19.7487L93.0768 19.9476L105.185 4.95527L99.0583 4.77441L86.9502 19.7487Z" fill="white"/>
</g>
<g style="mix-blend-mode:overlay">
<path d="M110.731 20.4723L122.042 6.49265C119.571 5.81282 117.039 5.37669 114.483 5.19054L111.148 5.08203L99.04 20.0744L110.731 20.4723Z" fill="white"/>
</g>
</g>
<defs>
<clipPath id="clip0_157_1825">
<rect width="230" height="78" fill="white"/>
</clipPath>
</defs>
</svg>
