<svg width="180" height="75" viewBox="0 0 180 75" fill="none" xmlns="http://www.w3.org/2000/svg">
<g clip-path="url(#clip0_157_1201)">
<path d="M5.32653 39.2889V29.6025C5.32478 28.5991 5.52092 27.6051 5.90371 26.6776C6.2865 25.75 6.84843 24.9071 7.55734 24.1969C8.26626 23.4868 9.10825 22.9234 10.0351 22.539C10.962 22.1546 11.9556 21.9567 12.959 21.9567H13.2108L24.0235 0H102.349C106.153 0.00247421 109.812 1.45763 112.579 4.06802L131.952 22.4735L159.275 23.7058C163.352 23.8904 167.232 25.5062 170.235 28.2691C173.238 31.0319 175.171 34.765 175.693 38.8118L175.879 40.3224L180 43.5821L175.879 61.2588H170.406C170.555 60.2409 170.63 59.2134 170.631 58.1846C170.701 55.469 170.226 52.7669 169.234 50.2377C168.243 47.7085 166.755 45.4034 164.859 43.4581C162.963 41.5129 160.696 39.9669 158.193 38.9114C155.69 37.8558 153.001 37.312 150.285 37.312C147.568 37.312 144.879 37.8558 142.376 38.9114C139.873 39.9669 137.606 41.5129 135.71 43.4581C133.814 45.4034 132.326 47.7085 131.335 50.2377C130.344 52.7669 129.869 55.469 129.938 58.1846C129.939 59.2134 130.014 60.2409 130.163 61.2588H47.0668C47.2157 60.2409 47.291 59.2134 47.2921 58.1846C47.3614 55.469 46.8864 52.7669 45.895 50.2377C44.9036 47.7085 43.416 45.4034 41.5198 43.4581C39.6236 41.5129 37.3571 39.9669 34.854 38.9114C32.351 37.8558 29.6619 37.312 26.9453 37.312C24.2288 37.312 21.5397 37.8558 19.0367 38.9114C16.5336 39.9669 14.2671 41.5129 12.3709 43.4581C10.4747 45.4034 8.98705 47.7085 7.99569 50.2377C7.00433 52.7669 6.5293 55.469 6.59861 58.1846H6.4131C5.55208 58.1847 4.72225 57.8624 4.08704 57.2811C3.45183 56.6999 3.05729 55.9018 2.98112 55.0442L1.89455 43.1184C1.84039 42.6359 1.88883 42.1473 2.03671 41.6848C2.18458 41.2223 2.42855 40.7964 2.75261 40.4348C3.07667 40.0732 3.4735 39.7841 3.91708 39.5867C4.36066 39.3892 4.84097 39.2877 5.32653 39.2889Z" fill="#DD3642"/>
<path d="M129.938 58.1846C129.869 55.469 130.344 52.7669 131.335 50.2377C132.327 47.7085 133.814 45.4034 135.711 43.4581C137.607 41.5129 139.873 39.9669 142.376 38.9114C144.879 37.8558 147.568 37.312 150.285 37.312C153.002 37.312 155.691 37.8558 158.194 38.9114C160.697 39.9669 162.963 41.5129 164.859 43.4581C166.756 45.4034 168.243 47.7085 169.235 50.2377C170.226 52.7669 170.701 55.469 170.632 58.1846C170.631 59.2135 170.555 60.2409 170.406 61.2589H130.164C130.015 60.2409 129.939 59.2135 129.938 58.1846Z" fill="#1E1E1E"/>
<g style="mix-blend-mode:overlay" opacity="0.75">
<path d="M126.665 56.5018C126.811 50.3343 129.364 44.4686 133.777 40.1583C138.191 35.8479 144.116 33.4349 150.285 33.4349C156.454 33.4349 162.378 35.8479 166.792 40.1583C171.206 44.4686 173.758 50.3343 173.904 56.5018C173.903 57.6948 173.815 58.8862 173.639 60.0662H126.93C126.755 58.8862 126.666 57.6948 126.665 56.5018Z" fill="white"/>
</g>
<g style="mix-blend-mode:overlay" opacity="0.75">
<path d="M3.32617 56.5018C3.47226 50.3343 6.0249 44.4686 10.4385 40.1583C14.8522 35.8479 20.7767 33.4349 26.9459 33.4349C33.1151 33.4349 39.0396 35.8479 43.4532 40.1583C47.8668 44.4686 50.4195 50.3343 50.5656 56.5018C50.5645 57.6948 50.4759 58.8862 50.3006 60.0662C50.3006 60.0662 3.32617 57.7076 3.32617 56.5018Z" fill="white"/>
</g>
<path d="M165.252 34.5053C167.558 37.606 170.446 39.3684 171.679 38.4806C172.911 37.5928 172.036 34.2933 169.718 31.2059C167.399 28.1184 164.523 26.3428 163.291 27.2306C162.059 28.1184 162.933 31.4179 165.252 34.5053Z" fill="#BAE8D6"/>
<path d="M171.228 33.7368C168.909 30.6493 166.034 28.8869 164.788 29.7615C163.94 30.3975 164.099 32.1732 165.053 34.227C162.88 31.2058 162.085 28.1184 163.291 27.2173C164.497 26.3163 167.399 28.0521 169.718 31.1926C170.387 32.0622 170.956 33.0045 171.414 34.0018L171.228 33.7368Z" fill="#7DAA97"/>
<path d="M74.0191 28.0653C74.006 28.8543 74.2279 29.6292 74.6566 30.2916C75.0854 30.954 75.7015 31.4738 76.4266 31.7849C77.1518 32.0959 77.9531 32.1842 78.7285 32.0384C79.5039 31.8925 80.2184 31.5193 80.781 30.966C81.3436 30.4128 81.7289 29.7047 81.8877 28.9318C82.0465 28.1589 81.9718 27.3563 81.673 26.626C81.3741 25.8958 80.8647 25.2709 80.2096 24.8311C79.5546 24.3913 78.7834 24.1564 77.9944 24.1563C77.4755 24.1475 76.96 24.2421 76.4781 24.4346C75.9962 24.6271 75.5574 24.9137 75.1874 25.2775C74.8173 25.6414 74.5234 26.0753 74.3229 26.5539C74.1223 27.0326 74.019 27.5464 74.0191 28.0653Z" fill="#BA2739"/>
<path d="M6.5994 58.1846C6.53009 55.469 7.00512 52.7669 7.99648 50.2377C8.98784 47.7085 10.4755 45.4034 12.3717 43.4581C14.2679 41.5129 16.5344 39.9669 19.0374 38.9114C21.5405 37.8558 24.2296 37.312 26.9461 37.312C29.6627 37.312 32.3517 37.8558 34.8548 38.9114C37.3579 39.9669 39.6243 41.5129 41.5206 43.4581C43.4168 45.4034 44.9044 47.7085 45.8958 50.2377C46.8871 52.7669 47.3622 55.469 47.2929 58.1846C47.2918 59.2135 47.2165 60.2409 47.0676 61.2589H12.6153C12.6153 60.7818 12.6153 58.6087 11.1842 58.1846H6.5994Z" fill="#1E1E1E"/>
<path d="M43.4361 58.1846C43.4361 61.4475 42.4686 64.6371 40.6558 67.35C38.8431 70.063 36.2665 72.1775 33.252 73.4262C30.2375 74.6748 26.9205 75.0015 23.7203 74.365C20.5201 73.7284 17.5806 72.1572 15.2734 69.85C12.9662 67.5428 11.395 64.6033 10.7584 61.4031C10.1219 58.2029 10.4486 54.8858 11.6972 51.8713C12.9458 48.8568 15.0604 46.2803 17.7733 44.4676C20.4863 42.6548 23.6759 41.6873 26.9388 41.6873C31.3141 41.6873 35.5103 43.4254 38.6042 46.5192C41.698 49.6131 43.4361 53.8092 43.4361 58.1846Z" fill="#1E1E1E"/>
<path opacity="0.56" d="M26.9395 45.8878C30.9406 45.8896 34.8045 47.3465 37.8107 49.9869C40.8169 52.6274 42.76 56.2711 43.2779 60.2386C43.3735 59.5447 43.4222 58.8453 43.4236 58.1449C43.4861 55.94 43.1058 53.7449 42.3052 51.6895C41.5046 49.6341 40.2999 47.7602 38.7624 46.1785C37.2249 44.5968 35.3859 43.3395 33.354 42.481C31.3221 41.6224 29.1387 41.1801 26.9329 41.1801C24.7271 41.1801 22.5437 41.6224 20.5118 42.481C18.4799 43.3395 16.6409 44.5968 15.1034 46.1785C13.5659 47.7602 12.3612 49.6341 11.5606 51.6895C10.76 53.7449 10.3797 55.94 10.4422 58.1449C10.4436 58.8453 10.4923 59.5447 10.5879 60.2386C11.1061 56.2688 13.0511 52.6233 16.0601 49.9826C19.069 47.3418 22.9361 45.8864 26.9395 45.8878Z" fill="#1E1E1E"/>
<path d="M37.553 58.1846C37.553 60.2812 36.9313 62.3307 35.7664 64.074C34.6016 65.8173 32.946 67.176 31.009 67.9783C29.072 68.7807 26.9405 68.9906 24.8842 68.5816C22.8278 68.1726 20.939 67.1629 19.4564 65.6804C17.9739 64.1979 16.9643 62.309 16.5553 60.2527C16.1462 58.1963 16.3562 56.0649 17.1585 54.1279C17.9608 52.1908 19.3196 50.5352 21.0628 49.3704C22.8061 48.2056 24.8557 47.5839 26.9523 47.5839C29.7638 47.5839 32.4601 48.7007 34.4481 50.6887C36.4361 52.6768 37.553 55.3731 37.553 58.1846Z" fill="#F8FBFC"/>
<path opacity="0.28" d="M26.9386 49.3065C29.607 49.2977 32.1806 50.2955 34.1456 52.1009C36.1106 53.9062 37.3225 56.3863 37.5393 59.0459C37.5393 58.7676 37.5393 58.4761 37.5393 58.1846C37.5393 55.3731 36.4225 52.6768 34.4344 50.6887C32.4464 48.7007 29.7501 47.5839 26.9386 47.5839C24.1271 47.5839 21.4308 48.7007 19.4428 50.6887C17.4547 52.6768 16.3379 55.3731 16.3379 58.1846C16.3379 58.4761 16.3379 58.7676 16.3379 59.0459C16.5547 56.3863 17.7666 53.9062 19.7316 52.1009C21.6966 50.2955 24.2702 49.2977 26.9386 49.3065Z" fill="#1E1E1E"/>
<path d="M33.2329 58.1847C33.2329 59.4295 32.8637 60.6465 32.1721 61.6815C31.4805 62.7166 30.4975 63.5233 29.3474 63.9997C28.1973 64.4761 26.9317 64.6008 25.7108 64.3579C24.4898 64.115 23.3683 63.5156 22.4881 62.6353C21.6078 61.7551 21.0083 60.6336 20.7655 59.4126C20.5226 58.1917 20.6473 56.9261 21.1236 55.776C21.6 54.6259 22.4068 53.6429 23.4419 52.9513C24.4769 52.2597 25.6938 51.8905 26.9387 51.8905C28.608 51.8905 30.209 52.5536 31.3894 53.734C32.5697 54.9144 33.2329 56.5154 33.2329 58.1847Z" fill="#8C8D9A"/>
<path opacity="0.48" d="M26.9389 55.0177C28.333 55.0171 29.6874 55.4822 30.7869 56.3393C31.8865 57.1963 32.6681 58.3962 33.0078 59.7483C33.1503 59.239 33.226 58.7134 33.2331 58.1847C33.2721 57.3347 33.1384 56.4856 32.84 55.6888C32.5417 54.892 32.0848 54.1639 31.4971 53.5486C30.9094 52.9333 30.2031 52.4435 29.4208 52.1089C28.6384 51.7743 27.7964 51.6018 26.9455 51.6018C26.0947 51.6018 25.2526 51.7743 24.4703 52.1089C23.688 52.4435 22.9816 52.9333 22.394 53.5486C21.8063 54.1639 21.3494 54.892 21.051 55.6888C20.7527 56.4856 20.619 57.3347 20.658 58.1847C20.6606 58.7129 20.7319 59.2385 20.87 59.7483C21.2138 58.3985 21.9966 57.2012 23.0952 56.3448C24.1939 55.4885 25.546 55.0216 26.9389 55.0177Z" fill="#1E1E1E"/>
<path d="M166.789 58.1846C166.789 61.4475 165.821 64.6371 164.008 67.35C162.196 70.063 159.619 72.1775 156.605 73.4262C153.59 74.6748 150.273 75.0015 147.073 74.365C143.873 73.7284 140.933 72.1572 138.626 69.85C136.319 67.5428 134.747 64.6033 134.111 61.4031C133.474 58.2029 133.801 54.8858 135.05 51.8713C136.298 48.8568 138.413 46.2803 141.126 44.4676C143.839 42.6548 147.028 41.6873 150.291 41.6873C154.666 41.6908 158.86 43.43 161.953 46.5231C165.046 49.6162 166.785 53.8103 166.789 58.1846Z" fill="#1E1E1E"/>
<path opacity="0.56" d="M150.291 45.8879C154.292 45.8896 158.156 47.3465 161.162 49.987C164.169 52.6274 166.112 56.2711 166.63 60.2386C166.73 59.5451 166.783 58.8456 166.789 58.1449C166.789 53.7696 165.051 49.5734 161.957 46.4795C158.863 43.3857 154.667 41.6476 150.291 41.6476C145.916 41.6476 141.72 43.3857 138.626 46.4795C135.532 49.5734 133.794 53.7696 133.794 58.1449C133.795 58.8453 133.844 59.5448 133.94 60.2386C134.458 56.2688 136.403 52.6233 139.412 49.9826C142.421 47.3419 146.288 45.8864 150.291 45.8879Z" fill="#1E1E1E"/>
<path d="M160.906 58.1846C160.906 60.2812 160.284 62.3307 159.119 64.074C157.954 65.8173 156.299 67.176 154.362 67.9783C152.424 68.7807 150.293 68.9906 148.237 68.5816C146.18 68.1726 144.292 67.1629 142.809 65.6804C141.326 64.1979 140.317 62.309 139.908 60.2527C139.499 58.1963 139.709 56.0649 140.511 54.1279C141.313 52.1908 142.672 50.5352 144.415 49.3704C146.159 48.2056 148.208 47.5839 150.305 47.5839C153.116 47.5839 155.813 48.7007 157.801 50.6887C159.789 52.6768 160.906 55.3731 160.906 58.1846Z" fill="#F8FBFC"/>
<path opacity="0.28" d="M150.291 49.3065C152.96 49.2977 155.533 50.2955 157.498 52.1009C159.463 53.9062 160.675 56.3863 160.892 59.0459C160.892 58.7676 160.892 58.4761 160.892 58.1846C160.892 55.3731 159.775 52.6768 157.787 50.6887C155.799 48.7007 153.103 47.5839 150.291 47.5839C147.48 47.5839 144.783 48.7007 142.795 50.6887C140.807 52.6768 139.69 55.3731 139.69 58.1846C139.69 58.4761 139.69 58.7676 139.69 59.0459C139.907 56.3863 141.119 53.9062 143.084 52.1009C145.049 50.2955 147.623 49.2977 150.291 49.3065Z" fill="#1E1E1E"/>
<path d="M156.573 58.1846C156.573 59.43 156.203 60.6474 155.511 61.6828C154.819 62.7182 153.835 63.5249 152.684 64.0009C151.533 64.4769 150.267 64.6007 149.046 64.3568C147.824 64.1129 146.703 63.5121 145.823 62.6305C144.943 61.7489 144.345 60.6262 144.104 59.4044C143.862 58.1825 143.989 56.9166 144.467 55.7667C144.946 54.6168 145.755 53.6347 146.791 52.9447C147.828 52.2547 149.046 51.8878 150.292 51.8904C151.959 51.8939 153.556 52.5586 154.734 53.7386C155.911 54.9186 156.573 56.5175 156.573 58.1846Z" fill="#8C8D9A"/>
<path opacity="0.48" d="M150.291 55.0177C151.684 55.0216 153.036 55.4885 154.135 56.3448C155.233 57.2012 156.016 58.3985 156.36 59.7483C156.498 59.2385 156.569 58.7129 156.572 58.1847C156.611 57.3347 156.477 56.4856 156.179 55.6888C155.881 54.892 155.424 54.1639 154.836 53.5486C154.248 52.9333 153.542 52.4435 152.76 52.1089C151.977 51.7743 151.135 51.6018 150.284 51.6018C149.434 51.6018 148.591 51.7743 147.809 52.1089C147.027 52.4435 146.321 52.9333 145.733 53.5486C145.145 54.1639 144.688 54.892 144.39 55.6888C144.092 56.4856 143.958 57.3347 143.997 58.1847C144.006 58.7124 144.077 59.2372 144.209 59.7483C144.555 58.3974 145.341 57.1998 146.442 56.3436C147.542 55.4873 148.896 55.021 150.291 55.0177Z" fill="#1E1E1E"/>
<path d="M129.448 63.22L47.8754 63.22C47.2428 63.22 46.6361 62.9687 46.1888 62.5214C45.7415 62.0741 45.4902 61.4674 45.4902 60.8348V58.6617C45.4902 58.0467 45.7345 57.4568 46.1694 57.022C46.6043 56.5871 47.1941 56.3428 47.8091 56.3428L129.315 56.3428C130.018 56.3428 130.692 56.622 131.189 57.119C131.686 57.616 131.966 58.2901 131.966 58.993V60.6626C131.971 60.9965 131.91 61.3282 131.785 61.6382C131.661 61.9483 131.477 62.2306 131.242 62.4686C131.008 62.7066 130.729 62.8956 130.421 63.0246C130.113 63.1536 129.782 63.22 129.448 63.22Z" fill="#1E1E1E"/>
<path d="M3.432 59.2579H7.40727V52.3807H3.432C2.98019 52.3807 2.53283 52.4699 2.11558 52.6432C1.69832 52.8165 1.31939 53.0705 1.00053 53.3906C0.681669 53.7107 0.429149 54.0906 0.257457 54.5085C0.0857651 54.9264 -0.00171886 55.3741 2.5583e-05 55.826C2.5583e-05 56.2766 0.0887952 56.7229 0.261268 57.1393C0.433741 57.5557 0.686539 57.934 1.00523 58.2527C1.32392 58.5714 1.70226 58.8242 2.11864 58.9967C2.53503 59.1692 2.98131 59.2579 3.432 59.2579Z" fill="#1E1E1E"/>
<path d="M174.276 63.7235H170.301V56.8463H174.276C175.186 56.8463 176.059 57.2079 176.703 57.8515C177.346 58.4951 177.708 59.3681 177.708 60.2783C177.708 61.1897 177.347 62.064 176.704 62.7098C176.06 63.3555 175.187 63.72 174.276 63.7235Z" fill="#1E1E1E"/>
<path d="M73.662 29.3109H82.1956C82.5236 29.3074 82.8371 29.1747 83.0678 28.9415C83.2985 28.7082 83.4279 28.3934 83.4279 28.0654C83.4279 27.9035 83.396 27.7433 83.3341 27.5938C83.2722 27.4442 83.1814 27.3084 83.067 27.194C82.9525 27.0795 82.8167 26.9888 82.6672 26.9268C82.5177 26.8649 82.3574 26.833 82.1956 26.833H73.662C73.3352 26.833 73.0217 26.9629 72.7906 27.194C72.5595 27.4251 72.4297 27.7385 72.4297 28.0654C72.4297 28.3934 72.5591 28.7082 72.7898 28.9415C73.0205 29.1747 73.334 29.3074 73.662 29.3109Z" fill="#1E1E1E"/>
<path d="M68.7451 25.0707V50.0883" stroke="#BA2739" stroke-width="0.88" stroke-miterlimit="10"/>
<g style="mix-blend-mode:overlay" opacity="0.75">
<path d="M52.3672 53.3083L124.571 53.3083V50.6979L52.3672 50.6979V53.3083Z" fill="white"/>
</g>
<g style="mix-blend-mode:overlay" opacity="0.75">
<path d="M66.7045 49.545H68.1621V25.0707H66.7045V49.545Z" fill="white"/>
</g>
<path d="M118.516 24.1564L123.816 30.6228V50.0884" stroke="#BA2739" stroke-width="0.88" stroke-miterlimit="10"/>
<g style="mix-blend-mode:overlay" opacity="0.75">
<path d="M117.376 24.6864L122.69 31.1528V50.6184" stroke="white" stroke-width="0.88" stroke-miterlimit="10"/>
</g>
<path d="M124.479 50.0884H52.4736" stroke="#BA2739" stroke-width="0.88" stroke-miterlimit="10"/>
<g style="mix-blend-mode:overlay" opacity="0.75">
<path d="M131.952 22.4735L159.275 23.7058C161.731 23.822 164.134 24.4589 166.325 25.5742H6.47949C7.16167 24.4689 8.11507 23.5564 9.24914 22.9232C10.3832 22.2901 11.6603 21.9574 12.9592 21.9567H13.2109L13.3302 21.7314H131.17L131.952 22.4735Z" fill="white"/>
</g>
<path d="M24.0234 3.78815e-05H15.2645C14.9567 -0.00209573 14.6549 0.0859423 14.3965 0.253294C14.1381 0.420646 13.9343 0.659985 13.8103 0.94179C13.6863 1.22359 13.6475 1.53554 13.6987 1.83913C13.7499 2.14272 13.8889 2.42467 14.0985 2.65021L19.7168 8.75886L24.0234 3.78815e-05Z" fill="#1E1E1E"/>
<path d="M35.1948 4.0813H97.8449L114.236 22.2085H26.9395L35.1948 4.0813Z" fill="#BAE8D6"/>
<path d="M112.58 4.0813L131.674 22.2085H121.617L105.345 4.0813H112.58Z" fill="#BAE8D6"/>
<path d="M105.345 4.0813L121.617 22.2085H114.236L97.8447 4.0813H105.345Z" fill="#1E1E1E"/>
<path d="M26.9388 22.2085L13.2109 21.9567L24.0237 0H102.35C106.153 0.00247421 109.813 1.45763 112.579 4.06802H35.1942L26.9388 22.2085Z" fill="#1E1E1E"/>
<g style="mix-blend-mode:overlay" opacity="0.75">
<path d="M11.9121 28.2243H42.2301C43.0263 28.202 43.8224 28.2732 44.602 28.4363L49.3988 29.5362C50.1939 29.7217 49.9554 30.3577 49.0808 30.3577H11.0508V28.1846L11.9121 28.2243Z" fill="white"/>
</g>
<path d="M5.32715 29.6025C5.33447 28.196 5.73368 26.8194 6.47997 25.6272H9.46142C9.78272 25.6255 10.1012 25.6873 10.3985 25.809C10.6959 25.9308 10.9662 26.1101 11.194 26.3366C11.4218 26.5632 11.6026 26.8326 11.726 27.1293C11.8493 27.426 11.9128 27.7441 11.9128 28.0654V34.6908C11.9128 35.341 11.6546 35.9645 11.1948 36.4242C10.7351 36.884 10.1116 37.1423 9.46142 37.1423H5.32715V29.6025Z" fill="#BAE8D6"/>
<path d="M5.32715 37.0362V29.6024C5.32671 29.1574 5.3711 28.7135 5.45966 28.2773H6.44023C7.09038 28.2773 7.71391 28.5356 8.17364 28.9953C8.63337 29.4551 8.89164 30.0786 8.89164 30.7287V37.0892L5.32715 37.0362Z" fill="#BA2739"/>
<path d="M10.7071 36.6121V29.9867C10.7071 29.3365 10.4488 28.713 9.98906 28.2533C9.52933 27.7936 8.9058 27.5353 8.25565 27.5353H5.60547C5.80253 26.8245 6.10158 26.1461 6.49328 25.5212H9.47473C9.79603 25.5194 10.1145 25.5812 10.4118 25.7029C10.7092 25.8247 10.9795 26.004 11.2073 26.2306C11.4352 26.4571 11.6159 26.7265 11.7393 27.0232C11.8626 27.3199 11.9261 27.638 11.9261 27.9593V34.5848C11.9253 35.012 11.8123 35.4315 11.5983 35.8012C11.3844 36.171 11.077 36.478 10.7071 36.6916C10.7071 36.6916 10.7071 36.6386 10.7071 36.6121Z" fill="#7DAA97"/>
<path d="M167.478 40.3622H175.879L180 43.6219H170.048C169.293 42.4588 168.433 41.3677 167.478 40.3622Z" fill="#BA2739"/>
<g style="mix-blend-mode:overlay" opacity="0.75">
<path d="M170.049 43.5822H180L179.444 45.9938H171.493C171.067 45.1582 170.584 44.3524 170.049 43.5822Z" fill="white"/>
</g>
<path d="M7.87123 42.575H1.88184C1.92596 41.6903 2.30791 40.8561 2.94894 40.2447C3.58997 39.6333 4.44119 39.2911 5.32707 39.2888H10.7864C9.71475 40.2913 8.7388 41.3915 7.87123 42.575Z" fill="#BA2739"/>
<g style="mix-blend-mode:screen" opacity="0.76">
<path d="M11.9128 32.5972V34.5848C11.9128 35.235 11.6546 35.8585 11.1948 36.3182C10.7351 36.7779 10.1116 37.0362 9.46142 37.0362H5.32715V35.0618H9.46142C9.78496 35.0636 10.1056 35.001 10.4047 34.8776C10.7038 34.7542 10.9753 34.5725 11.2035 34.3431C11.4317 34.1137 11.6119 33.8412 11.7337 33.5414C11.8555 33.2417 11.9164 32.9207 11.9128 32.5972Z" fill="white"/>
</g>
<g style="mix-blend-mode:overlay">
<path d="M104.947 22.2085H99.8456L87.1777 4.0813H92.2793L104.947 22.2085Z" fill="white"/>
</g>
<g style="mix-blend-mode:overlay">
<path d="M94.8892 22.2085H85.1366L72.4688 4.0813H82.2347L94.8892 22.2085Z" fill="white"/>
</g>
<g style="mix-blend-mode:overlay">
<path d="M70.0702 22.2085H64.9554L52.3008 4.0813H57.4024L70.0702 22.2085Z" fill="white"/>
</g>
<g style="mix-blend-mode:overlay">
<path d="M60.0133 22.2085H50.2606L37.5928 4.0813H47.3454L60.0133 22.2085Z" fill="white"/>
</g>
<path d="M66.6917 22.2217H69.5273V4.09448H66.6917V22.2217Z" fill="#1E1E1E"/>
<path d="M100.972 26.356H106.1C107.154 26.356 108.165 25.9372 108.911 25.1917C109.656 24.4462 110.075 23.4351 110.075 22.3808C110.075 21.3265 109.656 20.3154 108.911 19.5699C108.165 18.8244 107.154 18.4055 106.1 18.4055H100.972V26.356Z" fill="#1E1E1E"/>
</g>
<defs>
<clipPath id="clip0_157_1201">
<rect width="180" height="74.682" fill="white"/>
</clipPath>
</defs>
</svg>
