<svg width="180" height="68" viewBox="0 0 180 68" fill="none" xmlns="http://www.w3.org/2000/svg">
<g clip-path="url(#clip0_157_1728)">
<path d="M37.0634 0H100.19C102.372 0 106.239 0.836111 111.269 4.36347C116.298 7.89084 131.401 19.6226 131.401 19.6226C139.788 21.138 170.986 28.6892 170.986 28.6892C175.349 29.9956 178.197 32.8829 178.824 38.4221C179.151 40.9305 180 58.3844 180 58.3844H8.21746C4.19365 58.3844 0 55.863 0 52.1788V42.9424L3.35754 41.6359C3.35754 37.2725 3.5143 29.2118 3.5143 29.2118C3.5143 26.1939 7.04167 20.1582 12.9075 15.1284C18.7734 10.0987 29.6429 1.84207 29.6429 1.84207C31.276 0.248227 35.2214 0 37.0634 0Z" fill="#FD6F43"/>
<path d="M0 52.1657V42.9292L3.35754 41.6228C3.35754 37.2593 3.5143 29.1987 3.5143 29.1987C3.53356 28.618 3.63022 28.0424 3.80172 27.4872H18.8257C25.3578 27.4872 39.2582 26.6642 50.9377 33.1049H124.268C127.534 33.1049 131.767 33.8496 134.066 37.2985C135.987 40.4461 137.702 43.7146 139.2 47.0837H179.412C179.713 52.5054 180 58.3974 180 58.3974H8.21746C4.19365 58.3843 0 55.8629 0 52.1657Z" fill="#E85A34"/>
<path d="M12.9072 15.1026C17.5581 11.1833 24.9786 5.47416 28.1663 3.01807H36.3968C36.3968 3.01807 18.7861 20.472 15.7683 21.8176H6.75391C8.52103 19.3347 10.5877 17.0793 12.9072 15.1026Z" fill="#BAE8D6"/>
<path d="M3.51393 30.4531H12.3062C12.3062 32.465 10.5686 35.6788 7.91659 35.6788H3.43555L3.51393 30.4531Z" fill="#F8F8F8"/>
<path d="M5.19996 34.4769C7.35557 34.4769 8.89717 32.3344 9.41974 30.4531H12.2808C12.2808 32.465 10.5433 35.6788 7.89122 35.6788H3.41016V34.3724L5.19996 34.4769Z" fill="#BAE8D6"/>
<path d="M177.061 41.1003C177.061 38.9185 175.755 33.4707 170.855 33.4707H165.982V35.561C165.982 37.1548 169 39.0884 173.037 40.0943C174.461 40.4079 177.061 41.1003 177.061 41.1003Z" fill="#BAE8D6"/>
<path d="M170.855 33.4707C175.794 33.4707 177.061 38.9185 177.061 41.1003L176.591 40.9827C175.846 38.7226 174.187 36.3187 170.908 36.3187H166.205C166.072 36.0873 165.995 35.8276 165.982 35.561V33.4707H170.855Z" fill="#F8F8F8"/>
<path d="M178.446 50.7024V48.4814H173.455C172.909 48.5624 172.406 48.826 172.029 49.2293C171.652 49.6326 171.422 50.1519 171.378 50.7024H178.446Z" fill="#C14625"/>
<path d="M178.446 54.2432V56.4641H173.455C172.908 56.3854 172.404 56.1225 172.026 55.7187C171.649 55.3149 171.42 54.7944 171.378 54.2432H178.446Z" fill="#C14625"/>
<path d="M178.446 51.7349H171.378V53.3287H178.446V51.7349Z" fill="#C14625"/>
<g style="mix-blend-mode:overlay" opacity="0.35">
<path d="M129.964 55.0921C129.896 52.5115 130.347 49.9437 131.288 47.54C132.229 45.1362 133.642 42.9453 135.444 41.0964C137.245 39.2475 139.399 37.778 141.777 36.7746C144.155 35.7713 146.711 35.2544 149.292 35.2544C151.874 35.2544 154.429 35.7713 156.807 36.7746C159.186 37.778 161.339 39.2475 163.141 41.0964C164.942 42.9453 166.355 45.1362 167.296 47.54C168.238 49.9437 168.688 52.5115 168.621 55.0921C168.616 56.1967 168.511 57.2987 168.307 58.3843H130.238C130.047 57.2975 129.956 56.1955 129.964 55.0921Z" fill="white"/>
</g>
<path d="M134.066 55.0662C134.006 53.0292 134.356 51.0008 135.094 49.1013C135.833 47.2018 136.945 45.4697 138.365 44.0077C139.784 42.5457 141.483 41.3835 143.36 40.5898C145.237 39.7962 147.255 39.3872 149.293 39.3872C151.331 39.3872 153.348 39.7962 155.225 40.5898C157.102 41.3835 158.801 42.5457 160.22 44.0077C161.64 45.4697 162.752 47.2018 163.491 49.1013C164.229 51.0008 164.579 53.0292 164.519 55.0662C164.516 56.1837 164.384 57.2971 164.127 58.3846H134.458C134.201 57.2971 134.069 56.1837 134.066 55.0662Z" fill="#1E1E1E"/>
<path d="M136.509 54.9223C136.509 57.4519 137.259 59.9247 138.664 62.028C140.07 64.1313 142.067 65.7706 144.404 66.7387C146.741 67.7067 149.313 67.96 151.794 67.4665C154.275 66.973 156.554 65.7548 158.343 63.9661C160.131 62.1774 161.349 59.8985 161.843 57.4175C162.336 54.9365 162.083 52.3648 161.115 50.0278C160.147 47.6907 158.508 45.6932 156.404 44.2878C154.301 42.8824 151.828 42.1323 149.299 42.1323C147.619 42.1306 145.955 42.4602 144.402 43.1024C142.85 43.7445 141.439 44.6866 140.251 45.8746C139.063 47.0626 138.121 48.4732 137.479 50.0257C136.837 51.5783 136.507 53.2422 136.509 54.9223Z" fill="#1E1E1E"/>
<path opacity="0.56" d="M149.298 45.3854C146.191 45.3857 143.189 46.5188 140.857 48.5724C138.524 50.6261 137.02 53.4596 136.626 56.5423C136.554 56.0052 136.515 55.4642 136.508 54.9223C136.454 53.2092 136.744 51.5025 137.362 49.9037C137.979 48.3049 138.912 46.8466 140.105 45.6154C141.297 44.3842 142.725 43.4053 144.303 42.7367C145.881 42.0682 147.578 41.7236 149.292 41.7236C151.006 41.7236 152.702 42.0682 154.281 42.7367C155.859 43.4053 157.287 44.3842 158.479 45.6154C159.672 46.8466 160.604 48.3049 161.222 49.9037C161.84 51.5025 162.13 53.2092 162.075 54.9223C162.069 55.4642 162.03 56.0052 161.958 56.5423C161.564 53.4618 160.062 50.6301 157.732 48.5768C155.402 46.5234 152.404 45.3889 149.298 45.3854Z" fill="#1E1E1E"/>
<path d="M141.068 54.9224C141.068 56.5502 141.551 58.1416 142.455 59.4951C143.36 60.8486 144.645 61.9035 146.149 62.5264C147.653 63.1494 149.308 63.3123 150.905 62.9948C152.501 62.6772 153.968 61.8933 155.119 60.7422C156.27 59.5912 157.054 58.1247 157.371 56.5281C157.689 54.9316 157.526 53.2767 156.903 51.7727C156.28 50.2688 155.225 48.9834 153.871 48.079C152.518 47.1746 150.927 46.6919 149.299 46.6919C147.116 46.6919 145.023 47.559 143.479 49.1025C141.935 50.6461 141.068 52.7395 141.068 54.9224Z" fill="#F8FBFC"/>
<path opacity="0.28" d="M149.299 48.0372C147.235 48.04 145.248 48.8177 143.731 50.2162C142.214 51.6148 141.278 53.5321 141.107 55.5884C141.094 55.3665 141.094 55.144 141.107 54.9221C141.063 53.8145 141.243 52.7095 141.637 51.6732C142.03 50.6369 142.629 49.6908 143.397 48.8915C144.165 48.0923 145.086 47.4564 146.106 47.022C147.126 46.5877 148.223 46.3638 149.331 46.3638C150.44 46.3638 151.537 46.5877 152.557 47.022C153.576 47.4564 154.498 48.0923 155.266 48.8915C156.034 49.6908 156.633 50.6369 157.026 51.6732C157.419 52.7095 157.6 53.8145 157.555 54.9221C157.555 55.1442 157.555 55.3663 157.555 55.5884C157.384 53.5208 156.438 51.5942 154.907 50.194C153.377 48.7939 151.373 48.0236 149.299 48.0372Z" fill="#1E1E1E"/>
<path d="M144.413 54.9222C144.413 55.8886 144.7 56.8332 145.237 57.6368C145.773 58.4403 146.537 59.0665 147.429 59.4363C148.322 59.8061 149.305 59.9029 150.252 59.7144C151.2 59.5258 152.071 59.0605 152.754 58.3772C153.437 57.6938 153.903 56.8232 154.091 55.8754C154.28 54.9276 154.183 53.9452 153.813 53.0524C153.443 52.1596 152.817 51.3965 152.014 50.8596C151.21 50.3227 150.266 50.0362 149.299 50.0362C148.657 50.0344 148.021 50.1596 147.427 50.4046C146.834 50.6495 146.294 51.0093 145.84 51.4634C145.386 51.9174 145.026 52.4568 144.781 53.0504C144.537 53.644 144.411 54.2801 144.413 54.9222Z" fill="#8C8D9A"/>
<path opacity="0.48" d="M149.299 52.4664C148.229 52.4727 147.19 52.8302 146.343 53.484C145.496 54.1377 144.887 55.0516 144.609 56.0852C144.505 55.6927 144.448 55.2892 144.439 54.8832C144.405 54.2212 144.506 53.5591 144.735 52.9373C144.965 52.3155 145.319 51.7469 145.776 51.2662C146.232 50.7855 146.782 50.4027 147.391 50.1411C148 49.8795 148.656 49.7446 149.319 49.7446C149.982 49.7446 150.638 49.8795 151.247 50.1411C151.856 50.4027 152.405 50.7855 152.862 51.2662C153.318 51.7469 153.672 52.3155 153.902 52.9373C154.132 53.5591 154.232 54.2212 154.198 54.8832C154.189 55.2892 154.132 55.6927 154.028 56.0852C153.749 55.0451 153.134 54.1265 152.279 53.472C151.423 52.8176 150.376 52.4641 149.299 52.4664Z" fill="#1E1E1E"/>
<g style="mix-blend-mode:overlay" opacity="0.35">
<path d="M12.2801 55.0921C12.2562 52.3993 12.795 49.7312 13.8622 47.2587C14.9293 44.7862 16.5012 42.5639 18.477 40.7341C20.4529 38.9044 22.7892 37.5075 25.3362 36.6331C27.8832 35.7587 30.5849 35.426 33.2679 35.6563C35.951 35.8866 38.5564 36.6748 40.9172 37.9704C43.278 39.2661 45.3421 41.0407 46.9772 43.1803C48.6124 45.32 49.7825 47.7777 50.4127 50.3958C51.0429 53.014 51.1193 55.735 50.6369 58.3844H12.6589C12.4333 57.3007 12.3065 56.1988 12.2801 55.0921Z" fill="white"/>
</g>
<path d="M16.3824 55.0661C16.3513 52.9063 16.7799 50.7646 17.6397 48.7831C18.4995 46.8017 19.7709 45.0257 21.3694 43.5731C22.968 42.1205 24.8572 41.0244 26.9117 40.3577C28.9662 39.6909 31.139 39.4687 33.2859 39.7058C35.4328 39.9429 37.5048 40.6339 39.3643 41.7329C41.2238 42.8319 42.8283 44.3137 44.0714 46.0802C45.3145 47.8466 46.1677 49.8572 46.5744 51.9786C46.9811 54.0999 46.932 56.2835 46.4303 58.3844H16.7744C16.5172 57.2969 16.3857 56.1835 16.3824 55.0661Z" fill="#1E1E1E"/>
<path d="M18.8252 54.9223C18.8252 57.4519 19.5753 59.9247 20.9807 62.028C22.3861 64.1313 24.3836 65.7706 26.7207 66.7387C29.0577 67.7067 31.6293 67.96 34.1104 67.4665C36.5914 66.973 38.8703 65.7548 40.659 63.9661C42.4477 62.1774 43.6659 59.8985 44.1594 57.4175C44.6529 54.9365 44.3996 52.3648 43.4315 50.0278C42.4635 47.6907 40.8242 45.6932 38.7209 44.2878C36.6176 42.8824 34.1448 42.1323 31.6151 42.1323C29.9351 42.1306 28.2712 42.4602 26.7186 43.1024C25.1661 43.7445 23.7555 44.6866 22.5675 45.8746C21.3795 47.0626 20.4374 48.4732 19.7953 50.0257C19.1531 51.5783 18.8235 53.2422 18.8252 54.9223Z" fill="#1E1E1E"/>
<path opacity="0.56" d="M31.6158 45.3854C28.5088 45.3885 25.5091 46.5226 23.1771 48.5757C20.8451 50.6288 19.3402 53.4607 18.9434 56.5423C18.8713 56.0052 18.8321 55.4642 18.8259 54.9223C18.7711 53.2092 19.0612 51.5025 19.679 49.9037C20.2968 48.3049 21.2296 46.8466 22.4221 45.6154C23.6145 44.3842 25.0423 43.4053 26.6205 42.7367C28.1988 42.0682 29.8953 41.7236 31.6093 41.7236C33.3233 41.7236 35.0198 42.0682 36.5981 42.7367C38.1763 43.4053 39.6041 44.3842 40.7965 45.6154C41.989 46.8466 42.9218 48.3049 43.5396 49.9037C44.1574 51.5025 44.4475 53.2092 44.3927 54.9223C44.393 55.4644 44.3537 56.0059 44.2751 56.5423C43.8814 53.4618 42.3791 50.6301 40.0493 48.5768C37.7194 46.5234 34.7214 45.3889 31.6158 45.3854Z" fill="#1E1E1E"/>
<path d="M23.3848 54.9224C23.3848 56.5502 23.8675 58.1416 24.7719 59.4951C25.6762 60.8486 26.9617 61.9035 28.4656 62.5264C29.9695 63.1494 31.6244 63.3123 33.221 62.9948C34.8175 62.6772 36.2841 61.8933 37.4351 60.7422C38.5862 59.5912 39.3701 58.1247 39.6876 56.5281C40.0052 54.9316 39.8422 53.2767 39.2193 51.7727C38.5963 50.2688 37.5414 48.9834 36.1879 48.079C34.8344 47.1746 33.2431 46.6919 31.6153 46.6919C29.4324 46.6919 27.3389 47.559 25.7954 49.1025C24.2519 50.6461 23.3848 52.7395 23.3848 54.9224Z" fill="#F8FBFC"/>
<path opacity="0.28" d="M31.6161 48.0372C29.5527 48.04 27.5657 48.8177 26.0486 50.2162C24.5315 51.6148 23.5951 53.5321 23.4248 55.5884C23.4118 55.3665 23.4118 55.144 23.4248 54.9221C23.3806 53.8145 23.5607 52.7095 23.9541 51.6732C24.3474 50.6369 24.9461 49.6908 25.7141 48.8915C26.4822 48.0923 27.4037 47.4564 28.4235 47.022C29.4433 46.5877 30.5403 46.3638 31.6488 46.3638C32.7572 46.3638 33.8542 46.5877 34.874 47.022C35.8938 47.4564 36.8154 48.0923 37.5834 48.8915C38.3514 49.6908 38.9501 50.6369 39.3435 51.6732C39.7369 52.7095 39.9169 53.8145 39.8727 54.9221C39.8727 55.1442 39.8727 55.3663 39.8727 55.5884C39.7015 53.5208 38.7558 51.5942 37.2249 50.194C35.694 48.7939 33.6907 48.0236 31.6161 48.0372Z" fill="#1E1E1E"/>
<path d="M26.7422 54.9222C26.7448 55.8854 27.0328 56.8263 27.5698 57.6259C28.1068 58.4255 28.8688 59.0481 29.7594 59.4149C30.6501 59.7817 31.6295 59.8764 32.5739 59.6869C33.5183 59.4974 34.3853 59.0323 35.0655 58.3502C35.7457 57.6682 36.2085 56.7999 36.3955 55.855C36.5824 54.9101 36.4852 53.931 36.116 53.0413C35.7468 52.1516 35.1222 51.3914 34.3211 50.8565C33.52 50.3216 32.5784 50.0361 31.6152 50.0361C30.9742 50.0361 30.3394 50.1626 29.7474 50.4083C29.1553 50.654 28.6175 51.0141 28.1648 51.468C27.7122 51.9219 27.3535 52.4607 27.1094 53.0534C26.8653 53.6461 26.7405 54.2811 26.7422 54.9222Z" fill="#8C8D9A"/>
<path opacity="0.48" d="M31.6152 52.4662C30.5364 52.4675 29.4888 52.8277 28.6373 53.4899C27.7858 54.1522 27.1788 55.079 26.912 56.1242C26.8016 55.733 26.7445 55.3287 26.7422 54.9223C26.7422 53.6299 27.2556 52.3905 28.1695 51.4766C29.0833 50.5627 30.3228 50.0493 31.6152 50.0493C32.9076 50.0493 34.147 50.5627 35.0609 51.4766C35.9748 52.3905 36.4882 53.6299 36.4882 54.9223C36.4859 55.3287 36.4287 55.733 36.3183 56.1242C36.0475 55.0812 35.4395 54.1569 34.5888 53.4954C33.7382 52.8338 32.6928 52.472 31.6152 52.4662Z" fill="#1E1E1E"/>
<path d="M126.122 51.9438H53.6416" stroke="#B73921" stroke-width="0.77" stroke-miterlimit="10"/>
<g style="mix-blend-mode:overlay" opacity="0.35">
<path d="M126.122 50.9375H53.6416" stroke="white" stroke-width="0.77" stroke-miterlimit="10"/>
</g>
<g style="mix-blend-mode:overlay" opacity="0.35">
<path d="M126.658 54.9092H53.6416V56.5422H126.658V54.9092Z" fill="white"/>
</g>
<path d="M129.494 23.8161L106.514 6.03557C103.762 3.97072 100.389 2.90616 96.9504 3.01772H53.3418C47.3061 3.01772 37.2335 6.93701 25.1621 21.1379C32.3736 21.1379 129.494 23.8161 129.494 23.8161Z" fill="#BAE8D6"/>
<path d="M117.317 11.98H119.264C119.681 11.98 120.094 12.0621 120.479 12.2216C120.864 12.3812 121.214 12.615 121.509 12.9098C121.804 13.2046 122.037 13.5546 122.197 13.9397C122.356 14.3249 122.439 14.7377 122.439 15.1546V23.6464H117.317V11.98Z" fill="#955348"/>
<path d="M119.264 11.98H117.383C117.799 11.98 118.211 12.0622 118.596 12.2219C118.98 12.3816 119.329 12.6156 119.623 12.9106C119.917 13.2056 120.149 13.5557 120.307 13.9407C120.466 14.3258 120.546 14.7384 120.544 15.1546V23.6464H122.4V15.1546C122.4 14.3194 122.07 13.5178 121.484 12.9236C120.897 12.3293 120.099 11.9903 119.264 11.98Z" fill="#7C443D"/>
<path d="M89.8695 2.44287H85.8457V23.2412H89.8695V2.44287Z" fill="#FD6F43"/>
<path d="M54.6215 2.48242H50.5977V22.3532H54.6215V2.48242Z" fill="#FD6F43"/>
<g style="mix-blend-mode:overlay" opacity="0.35">
<path d="M90.7842 35.4824H96.9375V32.5038H90.7842V35.4824Z" fill="white"/>
</g>
<path d="M90.7842 32.4907H96.9375V30.1653H90.7842V32.4907Z" fill="#B73921"/>
<g style="mix-blend-mode:overlay" opacity="0.35">
<path d="M56.6211 35.3257H62.7744V32.347H56.6211V35.3257Z" fill="white"/>
</g>
<path d="M56.6211 32.334H62.7744V30.0085H56.6211V32.334Z" fill="#B73921"/>
<path d="M129.507 32.5039H48.9131" stroke="#B73921" stroke-width="0.77" stroke-miterlimit="10"/>
<g style="mix-blend-mode:overlay" opacity="0.35">
<path d="M131.414 19.6357C139.893 21.1773 170.934 28.6893 170.934 28.6893C171.403 28.831 171.866 28.9967 172.318 29.1857H152.108C147.078 29.1857 140.703 25.4755 136.509 23.6465C136.183 23.2415 131.741 21.2035 131.414 19.6357Z" fill="white"/>
</g>
<path d="M15.8862 43.8567L0 42.9422L3.35754 41.6357H17.7283C17.0567 42.3264 16.4408 43.069 15.8862 43.8567Z" fill="#C14625"/>
<path d="M87.3477 52.035V22.3398" stroke="#B73921" stroke-width="0.74" stroke-miterlimit="10"/>
<g style="mix-blend-mode:overlay" opacity="0.35">
<path d="M88.3535 52.035V22.3398" stroke="white" stroke-width="0.74" stroke-miterlimit="10"/>
</g>
<path d="M53.1455 52.035V22.3398" stroke="#B73921" stroke-width="0.74" stroke-miterlimit="10"/>
<g style="mix-blend-mode:overlay" opacity="0.35">
<path d="M54.1514 52.035V22.3398" stroke="white" stroke-width="0.74" stroke-miterlimit="10"/>
</g>
<g style="mix-blend-mode:overlay">
<path d="M99.3277 3.17483L111.66 23.333L107.206 23.2155L94.8467 3.01807H96.95C97.745 3.02204 98.5391 3.07439 99.3277 3.17483Z" fill="white"/>
</g>
<g style="mix-blend-mode:overlay">
<path d="M50.2587 21.6999L45.8038 21.5954L38.0566 8.9492C39.141 8.19147 40.1861 7.51209 41.2051 6.91113L50.2587 21.6999Z" fill="white"/>
</g>
<g style="mix-blend-mode:overlay">
<path d="M83.925 22.5884L79.4701 22.4708L67.5293 3.01807H71.9189L83.925 22.5884Z" fill="white"/>
</g>
<g style="mix-blend-mode:overlay">
<path d="M75.146 22.3532L66.6281 22.1312L54.9355 3.01807H63.3098L75.146 22.3532Z" fill="white"/>
</g>
</g>
<defs>
<clipPath id="clip0_157_1728">
<rect width="180" height="67.6992" fill="white"/>
</clipPath>
</defs>
</svg>
