<svg xmlns="http://www.w3.org/2000/svg" viewBox="80.435 188.277 430.75500244140625 223.49613506469217"><rect height="100%" width="100%" x="80.435" y="188.277" fill="#fdfffc"/> <g transform="rotate(0 181.71768919033812 300.02506753234604)"><svg xmlns="http://www.w3.org/2000/svg" xmlns:xlink="http://www.w3.org/1999/xlink" xmlnsSerif="http://www.serif.com/" viewBox="279.7615661621094 38.81488800048828 1440.4775390625 1922.3731689453125" version="1.1" xml:space="preserve" height="83.49613506469214" width="62.56537838067625" y="258.277" x="150.435" preserveAspectRatio="xMinYMin" fill-rule="evenodd" clip-rule="evenodd" stroke-linejoin="round" stroke-miterlimit="2" style="overflow: visible;"><path transform="matrix(1,0,0,1,4.60166,-21.982)" d="M1368.34,1011.69C1369.32,1012.11 1369.81,1013.23 1369.42,1014.24C1352.66,1058.58 1031.04,1909.13 1003.54,1981.87C1003.24,1982.65 1002.5,1983.17 1001.67,1983.17C1000.84,1983.17 1000.09,1982.65 999.796,1981.87C960.676,1878.29 320.351,182.821 275.289,63.504C274.973,62.666 275.251,61.721 275.971,61.189C276.69,60.657 277.675,60.667 278.383,61.215C335.459,105.341 810.919,472.932 842.619,497.44C843.052,497.775 843.329,498.273 843.385,498.817C843.441,499.361 843.272,499.905 842.916,500.321C829.814,515.667 726.468,636.71 716.641,648.22C716.177,648.763 716.039,649.512 716.277,650.186C727.454,681.75 978.18,1389.84 1000.13,1451.84C1000.4,1452.59 1001.09,1453.12 1001.88,1453.17C1002.67,1453.23 1003.42,1452.81 1003.79,1452.1C1027.52,1406.7 1242.26,995.845 1257.52,966.646C1258,965.722 1259.11,965.324 1260.07,965.732C1272.96,971.203 1355.2,1006.11 1368.34,1011.69Z" style="fill: #000000; fill-opacity: 1;"></path><path transform="matrix(1,0,0,1,4.60166,-21.982)" d="M1411.89,901.92C1411.7,902.429 1411.31,902.838 1410.81,903.052C1410.31,903.265 1409.74,903.266 1409.24,903.054C1396.75,897.75 1327,868.142 1314.26,862.738C1313.75,862.519 1313.35,862.096 1313.16,861.571C1312.97,861.045 1313.01,860.465 1313.27,859.97C1333.05,822.135 1639.15,236.459 1711.86,97.339C1712.35,96.401 1713.49,96.008 1714.45,96.44C1715.42,96.873 1715.88,97.983 1715.51,98.973C1660.04,245.676 1426.69,862.799 1411.89,901.92Z" style="fill: #3AD0E6; fill-opacity: 1;"></path></svg></g> <g transform="rotate(0 327.0950012207031 300.0249996185303)"><svg y="287.5" viewBox="3.2699999809265137 8.970000267028809 228.19000244140625 25.049999237060547" x="213" height="25.049999237060547" width="228.19000244140625" style="overflow: visible;"><g fill="#000000" fill-opacity="1" style=""><path d="M7.79 33.67L3.27 33.67L3.27 9.32L7.79 9.32L7.79 33.67ZM19.89 33.67L15.41 33.67L15.41 9.32L19.13 9.32L34.40 28.07L32.55 28.07L32.55 9.32L37.04 9.32L37.04 33.67L33.32 33.67L18.05 14.92L19.89 14.92L19.89 33.67ZM72.52 33.67L55.27 33.67L55.27 9.32L59.79 9.32L59.79 29.84L72.52 29.84L72.52 33.67ZM88.10 34.02L88.10 34.02Q85.25 34.02 82.85 33.08Q80.45 32.14 78.67 30.45Q76.90 28.76 75.93 26.49Q74.95 24.21 74.95 21.49L74.95 21.49Q74.95 18.78 75.93 16.50Q76.90 14.23 78.67 12.54Q80.45 10.85 82.85 9.91Q85.25 8.97 88.06 8.97L88.06 8.97Q90.92 8.97 93.30 9.91Q95.68 10.85 97.45 12.54Q99.23 14.23 100.20 16.50Q101.18 18.78 101.18 21.49L101.18 21.49Q101.18 24.21 100.20 26.50Q99.23 28.80 97.45 30.47Q95.68 32.14 93.30 33.08Q90.92 34.02 88.10 34.02ZM88.06 30.05L88.06 30.05Q89.91 30.05 91.47 29.42Q93.04 28.80 94.18 27.63Q95.33 26.47 95.98 24.92Q96.62 23.37 96.62 21.49L96.62 21.49Q96.62 19.62 95.98 18.07Q95.33 16.52 94.18 15.36Q93.04 14.19 91.47 13.56Q89.91 12.94 88.06 12.94L88.06 12.94Q86.22 12.94 84.67 13.56Q83.12 14.19 81.96 15.36Q80.79 16.52 80.15 18.07Q79.51 19.62 79.51 21.49L79.51 21.49Q79.51 23.34 80.15 24.90Q80.79 26.47 81.94 27.63Q83.09 28.80 84.66 29.42Q86.22 30.05 88.06 30.05ZM118.29 34.02L118.29 34.02Q115.51 34.02 113.12 33.09Q110.74 32.17 108.98 30.48Q107.23 28.80 106.25 26.50Q105.28 24.21 105.28 21.49L105.28 21.49Q105.28 18.78 106.25 16.49Q107.23 14.19 109.00 12.50Q110.78 10.82 113.14 9.89Q115.51 8.97 118.32 8.97L118.32 8.97Q121.31 8.97 123.78 10.00Q126.25 11.03 127.96 13.04L127.96 13.04L125.04 15.79Q123.71 14.36 122.08 13.65Q120.44 12.94 118.53 12.94L118.53 12.94Q116.62 12.94 115.04 13.56Q113.45 14.19 112.29 15.34Q111.12 16.49 110.48 18.05Q109.84 19.62 109.84 21.49L109.84 21.49Q109.84 23.37 110.48 24.94Q111.12 26.50 112.29 27.65Q113.45 28.80 115.04 29.42Q116.62 30.05 118.53 30.05L118.53 30.05Q120.44 30.05 122.08 29.34Q123.71 28.62 125.04 27.16L125.04 27.16L127.96 29.95Q126.25 31.93 123.78 32.97Q121.31 34.02 118.29 34.02ZM134.04 33.67L129.38 33.67L140.34 9.32L144.79 9.32L155.78 33.67L151.05 33.67L141.63 11.72L143.43 11.72L134.04 33.67ZM150.01 28.03L134.43 28.03L135.64 24.49L148.79 24.49L150.01 28.03ZM168.16 33.67L163.64 33.67L163.64 13.15L155.57 13.15L155.57 9.32L176.23 9.32L176.23 13.15L168.16 13.15L168.16 33.67ZM191.74 34.02L191.74 34.02Q188.89 34.02 186.49 33.08Q184.09 32.14 182.32 30.45Q180.54 28.76 179.57 26.49Q178.60 24.21 178.60 21.49L178.60 21.49Q178.60 18.78 179.57 16.50Q180.54 14.23 182.32 12.54Q184.09 10.85 186.49 9.91Q188.89 8.97 191.71 8.97L191.71 8.97Q194.56 8.97 196.94 9.91Q199.33 10.85 201.10 12.54Q202.87 14.23 203.85 16.50Q204.82 18.78 204.82 21.49L204.82 21.49Q204.82 24.21 203.85 26.50Q202.87 28.80 201.10 30.47Q199.33 32.14 196.94 33.08Q194.56 34.02 191.74 34.02ZM191.71 30.05L191.71 30.05Q193.55 30.05 195.12 29.42Q196.68 28.80 197.83 27.63Q198.98 26.47 199.62 24.92Q200.26 23.37 200.26 21.49L200.26 21.49Q200.26 19.62 199.62 18.07Q198.98 16.52 197.83 15.36Q196.68 14.19 195.12 13.56Q193.55 12.94 191.71 12.94L191.71 12.94Q189.87 12.94 188.32 13.56Q186.77 14.19 185.60 15.36Q184.44 16.52 183.80 18.07Q183.15 19.62 183.15 21.49L183.15 21.49Q183.15 23.34 183.80 24.90Q184.44 26.47 185.59 27.63Q186.74 28.80 188.30 29.42Q189.87 30.05 191.71 30.05ZM215.19 33.67L210.66 33.67L210.66 9.32L220.68 9.32Q223.92 9.32 226.23 10.36Q228.54 11.41 229.79 13.36Q231.05 15.30 231.05 17.98L231.05 17.98Q231.05 20.66 229.79 22.59Q228.54 24.52 226.23 25.55Q223.92 26.57 220.68 26.57L220.68 26.57L213.17 26.57L215.19 24.52L215.19 33.67ZM231.46 33.67L226.59 33.67L220.44 24.83L225.27 24.83L231.46 33.67ZM215.19 10.92L215.19 25.01L213.17 22.85L220.47 22.85Q223.46 22.85 224.98 21.56Q226.49 20.28 226.49 17.98L226.49 17.98Q226.49 15.65 224.98 14.40Q223.46 13.15 220.47 13.15L220.47 13.15L213.17 13.15L215.19 10.92Z" transform="translate(0, 0)"></path></g></svg></g></svg> <svg
      xmlns="http://www.w3.org/2000/svg"
      viewBox="80.435 188.277 430.755 223.496"
    >
      <rect
        width="100%"
        height="100%"
        x="80.435"
        y="188.277"
        fill="#fdfffc"
      ></rect>
      <svg
        xmlns="http://www.w3.org/2000/svg"
        xmlnsXlink="http://www.w3.org/1999/xlink"
        width="62.565"
        height="83.496"
        x="150.435"
        y="258.277"
        fillRule="evenodd"
        strokeLinejoin="round"
        strokeMiterlimit="2"
        clipRule="evenodd"
        overflow="visible"
        preserveAspectRatio="xMinYMin"
        viewBox="279.762 38.815 1440.478 1922.373"
      >
        <path d="M1372.942 989.708c.98.42 1.47 1.54 1.08 2.55-16.76 44.34-338.38 894.89-365.88 967.63-.3.78-1.04 1.3-1.87 1.3-.83 0-1.58-.52-1.874-1.3L279.89 41.522a2 2 0 013.094-2.289L847.22 475.458a2 2 0 01.297 2.881L721.243 626.238a2 2 0 00-.364 1.966c11.177 31.564 261.903 739.654 283.853 801.654.27.75.96 1.28 1.75 1.33.79.06 1.54-.36 1.91-1.07 23.73-45.4 238.47-456.255 253.73-485.454a1.993 1.993 0 012.55-.914c12.89 5.471 95.13 40.378 108.27 45.958z"></path>
        <path
          fill="#3AD0E6"
          d="M1416.492 879.938c-.19.509-.58.918-1.08 1.132-.5.213-1.07.214-1.57.002-12.49-5.304-82.24-34.912-94.98-40.316a2.02 2.02 0 01-1.1-1.167 1.988 1.988 0 01.11-1.601c19.78-37.835 325.88-623.511 398.59-762.631a2.004 2.004 0 013.65 1.634c-55.47 146.703-288.82 763.826-303.62 802.947z"
        ></path>
      </svg>
      <svg
        width="228.19"
        height="25.05"
        x="213"
        y="287.5"
        overflow="visible"
        viewBox="3.27 8.97 228.19 25.05"
      >
        <path d="M7.79 33.67H3.27V9.32h4.52v24.35zm12.1 0h-4.48V9.32h3.72L34.4 28.07h-1.85V9.32h4.49v24.35h-3.72L18.05 14.92h1.84v18.75zm52.63 0H55.27V9.32h4.52v20.52h12.73v3.83zm15.58.35q-2.85 0-5.25-.94t-4.18-2.63q-1.77-1.69-2.74-3.96-.98-2.28-.98-5 0-2.71.98-4.99.97-2.27 2.74-3.96 1.78-1.69 4.18-2.63 2.4-.94 5.21-.94 2.86 0 5.24.94 2.38.94 4.15 2.63 1.78 1.69 2.75 3.96.98 2.28.98 4.99 0 2.72-.98 5.01-.97 2.3-2.75 3.97-1.77 1.67-4.15 2.61-2.38.94-5.2.94zm-.04-3.97q1.85 0 3.41-.63 1.57-.62 2.71-1.79 1.15-1.16 1.8-2.71.64-1.55.64-3.43 0-1.87-.64-3.42-.65-1.55-1.8-2.71-1.14-1.17-2.71-1.8-1.56-.62-3.41-.62-1.84 0-3.39.62-1.55.63-2.71 1.8-1.17 1.16-1.81 2.71-.64 1.55-.64 3.42 0 1.85.64 3.41.64 1.57 1.79 2.73 1.15 1.17 2.72 1.79 1.56.63 3.4.63zm30.23 3.97q-2.78 0-5.17-.93-2.38-.92-4.14-2.61-1.75-1.68-2.73-3.98-.97-2.29-.97-5.01 0-2.71.97-5 .98-2.3 2.75-3.99 1.78-1.68 4.14-2.61 2.37-.92 5.18-.92 2.99 0 5.46 1.03 2.47 1.03 4.18 3.04l-2.92 2.75q-1.33-1.43-2.96-2.14-1.64-.71-3.55-.71t-3.49.62q-1.59.63-2.75 1.78-1.17 1.15-1.81 2.71-.64 1.57-.64 3.44 0 1.88.64 3.45.64 1.56 1.81 2.71 1.16 1.15 2.75 1.77 1.58.63 3.49.63 1.91 0 3.55-.71 1.63-.72 2.96-2.18l2.92 2.79q-1.71 1.98-4.18 3.02-2.47 1.05-5.49 1.05zm15.75-.35h-4.66l10.96-24.35h4.45l10.99 24.35h-4.73l-9.42-21.95h1.8l-9.39 21.95zm15.97-5.64h-15.58l1.21-3.54h13.15l1.22 3.54zm18.15 5.64h-4.52V13.15h-8.07V9.32h20.66v3.83h-8.07v20.52zm23.58.35q-2.85 0-5.25-.94t-4.17-2.63q-1.78-1.69-2.75-3.96-.97-2.28-.97-5 0-2.71.97-4.99.97-2.27 2.75-3.96 1.77-1.69 4.17-2.63t5.22-.94q2.85 0 5.23.94 2.39.94 4.16 2.63t2.75 3.96q.97 2.28.97 4.99 0 2.72-.97 5.01-.98 2.3-2.75 3.97-1.77 1.67-4.16 2.61-2.38.94-5.2.94zm-.03-3.97q1.84 0 3.41-.63 1.56-.62 2.71-1.79 1.15-1.16 1.79-2.71.64-1.55.64-3.43 0-1.87-.64-3.42-.64-1.55-1.79-2.71-1.15-1.17-2.71-1.8-1.57-.62-3.41-.62t-3.39.62q-1.55.63-2.72 1.8-1.16 1.16-1.8 2.71-.65 1.55-.65 3.42 0 1.85.65 3.41.64 1.57 1.79 2.73 1.15 1.17 2.71 1.79 1.57.63 3.41.63zm23.48 3.62h-4.53V9.32h10.02q3.24 0 5.55 1.04 2.31 1.05 3.56 3 1.26 1.94 1.26 4.62t-1.26 4.61q-1.25 1.93-3.56 2.96-2.31 1.02-5.55 1.02h-7.51l2.02-2.05v9.15zm16.27 0h-4.87l-6.15-8.84h4.83l6.19 8.84zm-16.27-22.75v14.09l-2.02-2.16h7.3q2.99 0 4.51-1.29 1.51-1.28 1.51-3.58 0-2.33-1.51-3.58-1.52-1.25-4.51-1.25h-7.3l2.02-2.23z"></path>
      </svg>
    </svg>