<svg width="64" height="52" viewBox="0 0 64 52" fill="none" xmlns="http://www.w3.org/2000/svg">
<path fill-rule="evenodd" clip-rule="evenodd" d="M25.0247 5.37319C22.1135 1.79638 18.6 -3.7499e-05 14.4842 -3.78588e-05C10.2823 -3.82261e-05 6.81187 1.63599 4.07278 4.90804C1.67788 7.79515 0.487591 11.2116 0.48759 15.1733C0.48759 19.0228 1.46276 22.3109 3.39876 25.0055C5.33477 27.7162 7.85875 29.3362 10.9707 29.8655L12.0463 29.9457L12.9784 30.1061C14.4125 30.3146 15.1295 30.9401 15.1295 31.9506C15.1295 33.0253 14.1687 34.7094 12.2614 37.0031C10.2537 39.4571 7.07 41.9432 2.72475 44.4614C0.903473 45.5361 4.48709e-07 46.8674 3.08488e-07 48.4713C2.14539e-07 49.546 0.315498 50.396 0.932152 51.0376C1.54881 51.6792 2.33755 52 3.29838 52C5.67895 52 8.99167 50.4442 13.1935 47.3485C18.1554 43.7076 22.1278 39.2807 25.0964 34.0678C28.0649 28.855 29.542 23.7063 29.542 18.6218C29.542 16.2159 29.1405 13.81 28.323 11.4361C27.5056 9.04623 26.4157 7.0413 25.0247 5.37319ZM59.4683 5.37319C56.5571 1.79638 53.0437 -4.21172e-05 48.9279 -4.2477e-05C44.726 -4.28444e-05 41.2555 1.63598 38.5308 4.90804C36.1359 7.79515 34.9456 11.2116 34.9456 15.1733C34.9456 19.0228 35.9208 22.3109 37.8568 25.0055C39.7928 27.7162 42.3168 29.3362 45.4287 29.8655L46.5043 29.9457L47.4364 30.1061C48.8705 30.3146 49.5875 30.9401 49.5875 31.9506C49.5875 33.0253 48.6267 34.7094 46.7194 37.0031C44.7117 39.4571 41.528 41.9432 37.1828 44.4614C35.3615 45.5361 34.458 46.8674 34.458 48.4713C34.458 49.5459 34.7735 50.396 35.3902 51.0376C36.0068 51.6792 36.7956 52 37.7564 52C40.137 52 43.4353 50.4442 47.6515 47.3485C52.6134 43.7076 56.5858 39.2807 59.5544 34.0678C62.5229 28.855 64 23.7063 64 18.6218C64 16.2159 63.5985 13.826 62.7667 11.4361C61.9493 9.04623 60.8594 7.04129 59.4683 5.37319Z" fill="#3AD0E6"/>
</svg>
